<?xml version="1.0" standalone="no"?>
<!DOCTYPE svg PUBLIC "-//W3C//DTD SVG 1.1//EN" "http://www.w3.org/Graphics/SVG/1.1/DTD/svg11.dtd" >
<svg>
<metadata>
Created by FontForge 20090914 at Sat Oct  5 09:43:34 2013
 By www-data
Copyright (c) 2012 by atipo. All rights reserved.
</metadata>
<defs>
<font id="Bariol-Bold" horiz-adv-x="1437" >
  <font-face 
    font-family="Bariol Bold"
    font-weight="700"
    font-stretch="normal"
    units-per-em="2048"
    panose-1="2 0 5 6 4 0 0 2 0 3"
    ascent="1612"
    descent="-436"
    x-height="930.001"
    cap-height="1395"
    bbox="-100 -483 1819 1845"
    underline-thickness="40"
    underline-position="-231"
    unicode-range="U+000D-U+FB04"
  />
<missing-glyph horiz-adv-x="748" 
d="M68 0v1365h544v-1365h-544zM136 68h408v1229h-408v-1229z" />
    <glyph glyph-name="ellipsis" unicode="&#x2e;&#x2e;&#x2e;" horiz-adv-x="1482" 
d="M96 117c0 91.333 45 137 135 137c89.333 0 134 -45.667 134 -137c0 -88.667 -44.667 -133 -134 -133c-90 0 -135 44.333 -135 133zM606 117c0 91.333 45 137 135 137c88.667 0 133 -45.667 133 -137c0 -88.667 -44.333 -133 -133 -133c-90 0 -135 44.333 -135 133z
M1118 117c0 91.333 45 137 135 137c88.667 0 133 -45.667 133 -137c0 -88.667 -44.333 -133 -133 -133c-90 0 -135 44.333 -135 133z" />
    <glyph glyph-name="uniFB01" unicode="fi" horiz-adv-x="1075" 
d="M33 838c0 25.333 9.00195 47.001 27.002 65.001s39.667 27 65 27h43v96c0 48 9 94.333 27 139s43.5 84.834 76.5 120.501s75.833 64.167 128.5 85.5s111 32 175 32c45.333 0 89.666 -4.5 132.999 -13.5s76.333 -20.167 99 -33.5c36.667 -21.333 55 -52 55 -92
c0 -28.667 -10.167 -53.334 -30.5 -74.001s-44.833 -31 -73.5 -31c-12 0 -29.667 4 -53 12c-52.667 18 -96 27 -130 27c-56 0 -101 -14.667 -135 -44s-51 -66.666 -51 -111.999v-112h473c30.667 0 56.834 -10.833 78.501 -32.5s32.5 -47.834 32.5 -78.501v-725
c0 -30.667 -10.833 -56.667 -32.5 -78s-47.834 -32 -78.501 -32s-56.667 10.667 -78 32s-32 47.333 -32 78v651h-363v-655c0 -30 -10.667 -55.167 -32 -75.5s-47.333 -30.5 -78 -30.5c-32.667 0 -59.334 10 -80.001 30s-31 45.333 -31 76v655h-43
c-25.333 0 -47 9.16699 -65 27.5s-27 40.166 -27 65.499z" />
    <glyph glyph-name="uniFB02" unicode="fl" horiz-adv-x="1136" 
d="M33 838c0 25.333 9 47.002 27 65.002s39.667 27 65 27h43v96c0 48 9 94.333 27 139s43.5 84.834 76.5 120.501s75.833 64.167 128.5 85.5s111 32 175 32c140.667 0 255 -27.333 343 -82c36.667 -22.667 55 -54.667 55 -96v-1000c0 -11.333 4.33301 -20.333 13 -27
s17.334 -10 26.001 -10c28.667 0 52.834 -9.83301 72.501 -29.5s29.5 -43.834 29.5 -72.501s-9.83301 -52.834 -29.5 -72.501s-43.834 -29.5 -72.501 -29.5c-81.333 0 -145 22.5 -191 67.5s-69 109.833 -69 194.5v499h-363v-655c0 -30 -10.667 -55.167 -32 -75.5
s-47.333 -30.5 -78 -30.5c-32.667 0 -59.334 10 -80.001 30s-31 45.333 -31 76v655h-43c-25.333 0 -47 9.16699 -65 27.5s-27 40.166 -27 65.499zM389 930.002l363 -0.000976562v237c-58 20.667 -117 31 -177 31c-56 0 -101 -14.667 -135 -44s-51 -66.666 -51 -111.999v-112
z" />
    <glyph glyph-name="uniFB03" unicode="ffi" horiz-adv-x="1703" 
d="M33 838c0 25.333 9.00488 47.002 27.0049 65.002s39.667 27 65 27h43v110c0 65.333 13.833 124.833 41.5 178.5s71.667 97.834 132 132.501s132.833 52 217.5 52c26.667 0 49.334 -9.33301 68.001 -28s28 -41.334 28 -68.001s-9.33301 -49.5 -28 -68.5
s-41.334 -28.5 -68.001 -28.5c-54.667 0 -96.667 -13.833 -126 -41.5s-44 -64.834 -44 -111.501v-127h408v96c0 48 9 94.333 27 139s43.5 84.834 76.5 120.501s75.833 64.167 128.5 85.5s111 32 175 32c45.333 0 89.666 -4.5 132.999 -13.5s76.333 -20.167 99 -33.5
c36.667 -21.333 55 -52 55 -92c0 -28.667 -10.333 -53.334 -31 -74.001s-45.334 -31 -74.001 -31c-12 0 -29.667 4 -53 12c-52.667 18 -95.667 27 -129 27c-56 0 -101 -14.667 -135 -44s-51 -66.666 -51 -111.999v-112h473c30.667 0 56.834 -10.833 78.501 -32.5
s32.5 -47.834 32.5 -78.501v-725c0 -30.667 -10.833 -56.667 -32.5 -78s-47.834 -32 -78.501 -32s-56.834 10.667 -78.501 32s-32.5 47.333 -32.5 78v651h-362v-655c0 -30 -10.833 -55.167 -32.5 -75.5s-47.834 -30.5 -78.501 -30.5c-32.667 0 -59.167 10 -79.5 30
s-30.5 45.333 -30.5 76v655h-408v-655c0 -30 -10.667 -55.167 -32 -75.5s-47.333 -30.5 -78 -30.5c-32.667 0 -59.334 10 -80.001 30s-31 45.333 -31 76v655h-43c-25.333 0 -47 9.16699 -65 27.5s-27 40.166 -27 65.499z" />
    <glyph glyph-name="uniFB04" unicode="ffl" horiz-adv-x="1763" 
d="M33 838c0 25.333 9.00098 47.0029 27.001 65.0029s39.667 27 65 27h43v110c0 65.333 13.833 124.833 41.5 178.5s71.667 97.834 132 132.501s132.833 52 217.5 52c26.667 0 49.334 -9.33301 68.001 -28s28 -41.334 28 -68.001s-9.33301 -49.5 -28 -68.5
s-41.334 -28.5 -68.001 -28.5c-54.667 0 -96.667 -13.833 -126 -41.5s-44 -64.834 -44 -111.501v-127h406v96c0 48 9 94.333 27 139s43.5 84.834 76.5 120.501s75.833 64.167 128.5 85.5s111 32 175 32c140 0 254 -27.333 342 -82c36.667 -22.667 55 -54.667 55 -96v-1000
c0 -11.333 4.33301 -20.333 13 -27s17.334 -10 26.001 -10c28.667 0 53 -9.83301 73 -29.5s30 -43.834 30 -72.501s-10 -52.834 -30 -72.501s-44.333 -29.5 -73 -29.5c-81.333 0 -145 22.5 -191 67.5s-69 109.833 -69 194.5v499h-362v-655
c0 -30 -10.833 -55.167 -32.5 -75.5s-47.834 -30.5 -78.501 -30.5c-32.667 0 -59.167 10 -79.5 30s-30.5 45.333 -30.5 76v655h-406v-655c0 -30 -10.667 -55.167 -32 -75.5s-47.333 -30.5 -78 -30.5c-32.667 0 -59.334 10 -80.001 30s-31 45.333 -31 76v655h-43
c-25.333 0 -47 9.16699 -65 27.5s-27 40.166 -27 65.499zM1016 930.003l362 -0.000976562v237c-58 20.667 -116.667 31 -176 31c-56 0 -101 -14.667 -135 -44s-51 -66.666 -51 -111.999v-112z" />
    <glyph glyph-name=".notdef" horiz-adv-x="748" 
d="M68 0v1365h544v-1365h-544zM136 68h408v1229h-408v-1229z" />
    <glyph glyph-name="glyph1" horiz-adv-x="2048" 
 />
    <glyph glyph-name="glyph1" horiz-adv-x="2048" 
 />
    <glyph glyph-name="uni000D" unicode="&#xd;" horiz-adv-x="2048" 
 />
    <glyph glyph-name="space" unicode=" " horiz-adv-x="462" 
 />
    <glyph glyph-name="exclam" unicode="!" horiz-adv-x="434" 
d="M84 117c0 91.333 45 137 135 137c88.667 0 133 -45.667 133 -137c0 -88.667 -44.333 -133 -133 -133c-90 0 -135 44.333 -135 133zM92 1280c-2 38.667 8.16504 67.499 30.498 86.499s54.5 28.5 96.5 28.5c41.333 0 73 -9.5 95 -28.5s32 -47.833 30 -86.5l-39 -815
c-1.33301 -23.333 -9.16602 -42.166 -23.499 -56.499s-35.166 -21.5 -62.499 -21.5c-29.333 0 -51.333 7 -66 21s-22.667 33 -24 57z" />
    <glyph glyph-name="quotedbl" unicode="&#x22;" horiz-adv-x="598" 
d="M74 1311c-1.33301 26.667 6.33301 47.332 23 61.999s41.667 22 75 22s58 -7.16699 74 -21.5s23.333 -35.166 22 -62.499l-18 -328c-2 -49.333 -28 -74 -78 -74c-51.333 0 -78 24.667 -80 74zM329.999 1311c-1.33301 26.667 6.33301 47.332 23 61.999s41.667 22 75 22
s58 -7.16699 74 -21.5s23.333 -35.166 22 -62.499l-18 -328c-2 -49.333 -28 -74 -78 -74c-51.333 0 -78 24.667 -80 74z" />
    <glyph glyph-name="numbersign" unicode="#" horiz-adv-x="1169" 
d="M94 481c0 25.333 9.00195 47 27.002 65s39.667 27 65 27h95l30 195h-75c-25.333 0 -47.166 9 -65.499 27s-27.5 39.667 -27.5 65s9.16699 47 27.5 65s40.166 27 65.499 27h104l49 303c4 23.333 15.167 42.5 33.5 57.5s39.833 22.5 64.5 22.5
c27.333 0 50.666 -9 69.999 -27s29 -40.333 29 -67c0 -5.33301 -0.666992 -13.333 -2 -24l-43 -265h164l49 303c4 23.333 15.167 42.5 33.5 57.5s39.833 22.5 64.5 22.5c27.333 0 50.5 -9 69.5 -27s28.5 -40.333 28.5 -67c0 -5.33301 -0.666992 -13.333 -2 -24l-43 -265h78
c25.333 0 47 -9 65 -27s27 -39.667 27 -65s-9 -47 -27 -65s-39.667 -27 -65 -27h-106l-33 -195h90c25.333 0 47 -9 65 -27s27 -39.667 27 -65s-9 -47 -27 -65s-39.667 -27 -65 -27h-119l-53 -332c-4 -23.333 -14.333 -42.5 -31 -57.5s-38.334 -22.5 -65.001 -22.5
c-29.333 0 -53.166 9.5 -71.499 28.5s-27.5 42.5 -27.5 70.5c0 6 1.33301 17 4 33l45 280h-165l-54 -332c-4 -23.333 -14.333 -42.5 -31 -57.5s-38.334 -22.5 -65.001 -22.5c-28.667 0 -52.167 9.5 -70.5 28.5s-27.5 42.5 -27.5 70.5c0 6 1.33301 17 4 33l45 280h-66
c-25.333 0 -47 9 -65 27s-27 39.667 -27 65zM479.002 573h166l31 195h-164z" />
    <glyph glyph-name="dollar" unicode="$" horiz-adv-x="1173" 
d="M59 279c0 30 10.832 55.8311 32.499 77.498s47.167 32.5 76.5 32.5c30 0 60 -15 90 -45c104 -104 216 -156 336 -156c184 0 276 63 276 189c0 32 -8.5 60.333 -25.5 85s-40 45.334 -69 62.001s-62.167 32 -99.5 46s-76.666 27.667 -117.999 41s-82.5 27.5 -123.5 42.5
s-80.167 33.5 -117.5 55.5s-70.5 47 -99.5 75s-52 63.167 -69 105.5s-25.5 89.833 -25.5 142.5c0 96.667 31.667 178.834 95 246.501s157.333 108.5 282 122.5v117c0 26.667 9.33301 49.334 28 68.001s40.667 28 66 28c26.667 0 49.334 -9.33301 68.001 -28
s28 -41.334 28 -68.001v-119c82 -10 155.333 -31.167 220 -63.5s114.334 -72.833 149.001 -121.5c13.333 -20 20 -41.667 20 -65c0 -30 -10.833 -55.667 -32.5 -77s-47.5 -32 -77.5 -32c-26.667 0 -56 15 -88 45c-33.333 32 -75.5 58.167 -126.5 78.5
s-104.5 30.5 -160.5 30.5c-79.333 0 -138.166 -15.5 -176.499 -46.5s-57.5 -69.5 -57.5 -115.5c0 -28.667 8.5 -54 25.5 -76s40 -40.667 69 -56s62.167 -29.666 99.5 -42.999l118 -40.5c41.333 -13.667 82.666 -28.334 123.999 -44.001s80.666 -35 117.999 -58
s70.5 -49.333 99.5 -79s52 -66.5 69 -110.5s25.5 -93.333 25.5 -148c0 -114 -35.833 -205.833 -107.5 -275.5s-175.167 -111.167 -310.5 -124.5v-114c0 -26.667 -9.33301 -49.334 -28 -68.001s-41.334 -28 -68.001 -28c-25.333 0 -47.333 9.33301 -66 28
s-28 41.334 -28 68.001v114c-95.333 12 -180.5 40.667 -255.5 86s-131.167 98 -168.5 158c-11.333 18 -17 37.333 -17 58z" />
    <glyph glyph-name="percent" unicode="%" horiz-adv-x="1564" 
d="M74 1073c0 48.667 5.50098 92.667 16.501 132s28.333 74.333 52 105s56.167 54.5 97.5 71.5s90.333 25.5 147 25.5c111.333 0 192.166 -30.167 242.499 -90.5s75.5 -141.5 75.5 -243.5c0 -48 -5.66699 -91.5 -17 -130.5s-29 -74 -53 -105s-57 -55.167 -99 -72.5
s-91.667 -26 -149 -26c-56.667 0 -105.667 8.66699 -147 26s-73.833 41.5 -97.5 72.5s-41 66 -52 105s-16.5 82.5 -16.5 130.5zM258.001 1073c0 -108 43 -161.999 129 -161.999c46.667 0 80.167 15.167 100.5 45.5s30.5 69.166 30.5 116.499c0 48 -10.167 87 -30.5 117
s-53.833 45 -100.5 45c-86 0 -129 -54 -129 -162zM358.001 78.001c0 14 3.66699 28.332 11 42.999l643 1222c5.33301 14 15.5 26.167 30.5 36.5s32.833 15.5 53.5 15.5c27.333 0 50.5 -9.16699 69.5 -27.5s28.5 -40.833 28.5 -67.5c0 -13.333 -3.33301 -26.666 -10 -39.999
l-643 -1227c-18 -32.667 -46.667 -49 -86 -49c-27.333 0 -50.333 9 -69 27s-28 40.333 -28 67zM860.001 307c0 48.667 5.5 92.667 16.5 132s28.5 74.333 52.5 105s56.667 54.5 98 71.5s90.333 25.5 147 25.5c111.333 0 192 -30.167 242 -90.5s75 -141.5 75 -243.5
c0 -100.667 -25.167 -181.5 -75.5 -242.5s-130.833 -91.5 -241.5 -91.5c-56.667 0 -105.667 8.66699 -147 26s-74 41.5 -98 72.5s-41.5 66 -52.5 105s-16.5 82.5 -16.5 130.5zM1044 307c0 -108 43.333 -161.999 130 -161.999c46.667 0 80.167 15.167 100.5 45.5
s30.5 69.166 30.5 116.499c0 48 -10.167 87 -30.5 117s-53.833 45 -100.5 45c-86.667 0 -130 -54 -130 -162z" />
    <glyph glyph-name="ampersand" unicode="&#x26;" horiz-adv-x="1298" 
d="M68 369c0 66 17.834 129.668 53.501 191.001s85.834 117 150.501 167c-57.333 118 -86 226.667 -86 326c0 98 29.667 181.5 89 250.5s140.333 103.5 243 103.5c52.667 0 99.5 -9 140.5 -27s73.833 -42.167 98.5 -72.5s43.167 -64.166 55.5 -101.499s18.5 -77 18.5 -119
c0 -76.667 -24.333 -148.834 -73 -216.501s-116.334 -134.5 -203.001 -200.5c39.333 -50.667 85.833 -101.334 139.5 -152.001s107.5 -94.334 161.5 -131.001c12.667 18.667 29.667 56.334 51 113.001c9.33301 25.333 23.333 45.333 42 60s40.334 22 65.001 22
c29.333 0 54.666 -11 75.999 -33s32 -47.333 32 -76c0 -14.667 -3.33301 -33 -10 -55c-18 -56 -44 -107.333 -78 -154c16.667 -12 66.667 -38.667 150 -80c42 -19.333 63 -51.333 63 -96c0 -28.667 -10.167 -53.167 -30.5 -73.5s-44.833 -30.5 -73.5 -30.5
c-24.667 0 -61.5 11.833 -110.5 35.5s-96.167 50.5 -141.5 80.5c-100 -86 -226.333 -129 -379 -129c-130.667 0 -237.334 35.167 -320.001 105.5s-124 167.833 -124 292.5zM293.001 369.001c0 -58.667 20.6689 -106.167 62.002 -142.5s93.666 -54.5 156.999 -54.5
c43.333 0 79.166 4.66699 107.499 14s58.833 25 91.5 47c-131.333 92 -240 198 -326 318c-61.333 -53.333 -92 -114 -92 -182zM408.003 1053c0 -70.667 14.334 -139 43.001 -205c106 75.333 159 155 159 239c0 34 -7.66699 62.333 -23 85s-39 34 -71 34
c-36.667 0 -63.834 -14 -81.501 -42s-26.5 -65 -26.5 -111z" />
    <glyph glyph-name="quotesingle" unicode="'" horiz-adv-x="342" 
d="M74 1311c-1.33301 26.667 6.33301 47.332 23 61.999s41.667 22 75 22s58 -7.16699 74 -21.5s23.333 -35.166 22 -62.499l-18 -328c-2 -49.333 -28 -74 -78 -74c-51.333 0 -78 24.667 -80 74z" />
    <glyph glyph-name="parenleft" unicode="(" horiz-adv-x="645" 
d="M82 606c0 270.667 26.498 473.836 79.498 609.503s145.167 230.834 276.5 285.501c15.333 6.66699 30.333 10 45 10c27.333 0 51 -9.83301 71 -29.5s30 -43.167 30 -70.5c0 -18 -5.16699 -35.667 -15.5 -53s-25.166 -30.333 -44.499 -39
c-26 -11.333 -49.167 -25.166 -69.5 -41.499s-37.833 -35.833 -52.5 -58.5s-27.5 -45.334 -38.5 -68.001s-19.833 -51.167 -26.5 -85.5s-12.167 -66 -16.5 -95s-7.33301 -66 -9 -111s-2.83398 -84.833 -3.50098 -119.5s-1 -79.334 -1 -134.001
c0 -48.667 0.166992 -88.667 0.5 -120s1.33301 -67.333 3 -108s3.83398 -74.334 6.50098 -101.001s6.5 -56.334 11.5 -89.001s11.333 -59.834 19 -81.501s16.834 -44.334 27.501 -68.001s23.167 -43.667 37.5 -60s30.833 -32 49.5 -47s39.334 -27.5 62.001 -37.5
c19.333 -8.66699 34.166 -21.834 44.499 -39.501s15.5 -35.5 15.5 -53.5c0 -27.333 -10 -50.833 -30 -70.5s-43.667 -29.5 -71 -29.5c-14.667 0 -29.667 3.33301 -45 10c-131.333 54.667 -223.5 149.834 -276.5 285.501s-79.5 338.834 -79.5 609.501z" />
    <glyph glyph-name="parenright" unicode=")" horiz-adv-x="645" 
d="M61 -199c0 18 5.16504 35.8311 15.498 53.498s25.166 30.834 44.499 39.501c22.667 10 43.334 22.5 62.001 37.5s35.167 30.667 49.5 47s26.833 36.333 37.5 60s19.834 46.334 27.501 68.001s14 48.834 19 81.501s8.83301 62.334 11.5 89.001
s4.83398 60.334 6.50098 101.001s2.66699 76.667 3 108s0.5 71.333 0.5 120c0 54.667 -0.333008 99.334 -1 134.001s-1.83398 74.5 -3.50098 119.5s-4.66699 82 -9 111s-9.83301 60.667 -16.5 95s-15.5 62.833 -26.5 85.5s-23.833 45.334 -38.5 68.001
s-32.167 42.167 -52.5 58.5s-43.5 30.166 -69.5 41.499c-19.333 8.66699 -34.166 21.667 -44.499 39s-15.5 35 -15.5 53c0 27.333 10 50.833 30 70.5s43.667 29.5 71 29.5c14.667 0 29.667 -3.33301 45 -10c131.333 -54.667 223.5 -149.834 276.5 -285.501
s79.5 -338.834 79.5 -609.501s-26.5 -473.834 -79.5 -609.501s-145.167 -230.834 -276.5 -285.501c-15.333 -6.66699 -30.333 -10 -45 -10c-27.333 0 -51 9.83301 -71 29.5s-30 43.167 -30 70.5z" />
    <glyph glyph-name="asterisk" unicode="*" horiz-adv-x="757" 
d="M63 1177.5c-6 14.333 -6.00293 31.5 -0.00292969 51.5c10.667 40.667 35.334 55 74.001 43l182 -53l-6 182c-2 38 19.333 57 64 57c44 0 65 -19 63 -57l-6 -182l182 53c38.667 12 63.334 -2.33301 74.001 -43c6 -20 6 -37.167 0 -51.5s-19.667 -23.833 -41 -28.5
l-180 -31l117 -160c22.667 -30.667 17 -57.667 -17 -81c-35.333 -24.667 -64 -20 -86 14l-106 168l-107 -168c-22 -34 -50.667 -38.667 -86 -14c-33.333 23.333 -38.666 50.333 -15.999 81l117 160l-181 31c-21.333 4.66699 -35 14.167 -41 28.5z" />
    <glyph glyph-name="plus" unicode="+" horiz-adv-x="929" 
d="M0 446c0 25.333 9.33301 47.5 28 66.5s40.667 28.5 66 28.5h273v272c0 26.667 9.66699 49.667 29 69s42.333 29 69 29s49.667 -9.66699 69 -29s29 -42.333 29 -69v-272h273c25.333 0 47.333 -9.5 66 -28.5s28 -41.167 28 -66.5s-9.33301 -47.333 -28 -66
s-40.667 -28 -66 -28h-273v-270c0 -26.667 -9.66699 -49.667 -29 -69s-42.333 -29 -69 -29s-49.667 9.66699 -69 29s-29 42.333 -29 69v270h-273c-25.333 0 -47.333 9.33301 -66 28s-28 40.667 -28 66z" />
    <glyph glyph-name="comma" unicode="," horiz-adv-x="460" 
d="M72 -305c0 10.667 4.00098 21 12.001 31c20.667 26 35.667 45.5 45 58.5s18.5 31.667 27.5 56s13.5 49.5 13.5 75.5c0 26.667 -12.333 60.167 -37 100.5s-37 73.833 -37 100.5c0 91.333 45 137 135 137c89.333 0 134 -45.667 134 -137
c0 -96.667 -21.5 -185.834 -64.5 -267.501s-93.167 -144.167 -150.5 -187.5c-10.667 -8 -21.667 -12 -33 -12c-12.667 0 -23.334 4.33301 -32.001 13s-13 19.334 -13 32.001z" />
    <glyph glyph-name="hyphen" unicode="-" horiz-adv-x="774" 
d="M88 516c0 25.333 9.33301 47.333 28 66s40.667 28 66 28h410c25.333 0 47.333 -9.33301 66 -28s28 -40.667 28 -66s-9.33301 -47.333 -28 -66s-40.667 -28 -66 -28h-410c-25.333 0 -47.333 9.33301 -66 28s-28 40.667 -28 66z" />
    <glyph glyph-name="period" unicode="." horiz-adv-x="460" 
d="M96 117c0 91.333 45 137 135 137c89.333 0 134 -45.667 134 -137c0 -88.667 -44.667 -133 -134 -133c-90 0 -135 44.333 -135 133z" />
    <glyph glyph-name="slash" unicode="/" horiz-adv-x="864" 
d="M53 -90c0 14.667 2.66699 29 8 43l535 1513c8.66699 23.333 22.667 41.166 42 53.499s40 18.5 62 18.5c30.667 0 56.834 -10.833 78.501 -32.5s32.5 -47.834 32.5 -78.501c0 -14.667 -2.66699 -29 -8 -43l-535 -1513c-8.66699 -23.333 -22.667 -41.166 -42 -53.499
s-40 -18.5 -62 -18.5c-30.667 0 -56.834 10.833 -78.501 32.5s-32.5 47.834 -32.5 78.501z" />
    <glyph glyph-name="zero" unicode="0" horiz-adv-x="1251" 
d="M90 690c0 244.667 43.5 425.334 130.5 542.001s222.5 175 406.5 175c182.667 0 317.334 -58.333 404.001 -175s130 -297.334 130 -542.001c0 -246 -43.333 -427.333 -130 -544s-221.334 -175 -404.001 -175c-184 0 -319.5 58.333 -406.5 175s-130.5 298 -130.5 544z
M324 690c0 -179.333 23.999 -309.5 71.999 -390.5s125 -121.5 231 -121.5c105.333 0 181.833 40.333 229.5 121s71.5 211 71.5 391c0 178.667 -23.833 308.667 -71.5 390s-124.167 122 -229.5 122s-182.166 -40.833 -230.499 -122.5s-72.5 -211.5 -72.5 -389.5z" />
    <glyph glyph-name="one" unicode="1" horiz-adv-x="724" 
d="M49 1085c0 43.333 16.332 74.999 48.999 94.999l295 190c27.333 16.667 51.333 25 72 25c31.333 0 58.666 -11.667 81.999 -35s35 -50.666 35 -81.999v-1178c0 -31.333 -11.667 -58.5 -35 -81.5s-50.666 -34.5 -81.999 -34.5s-58.666 11.5 -81.999 34.5
s-35 50.167 -35 81.5v975l-119 -80c-18.667 -14.667 -41 -22 -67 -22c-30.667 0 -57.167 11 -79.5 33s-33.5 48.333 -33.5 79z" />
    <glyph glyph-name="two" unicode="2" horiz-adv-x="1132" 
d="M80 104c0 48 8.33691 93.4971 25.0039 136.497s39.167 81 67.5 114s61 64.5 98 94.5s75.833 58 116.5 84l121.5 77c40.333 25.333 79 51.666 116 78.999s69.667 55.333 98 84s50.833 61.334 67.5 98.001s25 75.334 25 116.001c0 60.667 -21.333 111.667 -64 153
s-101.334 62 -176.001 62c-108.667 0 -186.334 -49 -233.001 -147c-23.333 -44 -57.333 -66 -102 -66c-30.667 0 -56.834 10.833 -78.501 32.5s-32.5 47.834 -32.5 78.501c0 16 3.33301 31.667 10 47c34.667 79.333 89 142.5 163 189.5s165 70.5 273 70.5
c147.333 0 263.166 -38.167 347.499 -114.5s126.5 -178.166 126.5 -305.499c0 -58.667 -13 -115 -39 -169s-60 -101.667 -102 -143s-88.167 -80.666 -138.5 -117.999s-100.833 -71.5 -151.5 -102.5l-139 -87.5c-42 -27.333 -76 -54.5 -102 -81.5s-39 -52.5 -39 -76.5h629
c28.667 0 53.167 -10.333 73.5 -31s30.5 -45.334 30.5 -74.001s-10.167 -53.167 -30.5 -73.5s-44.833 -30.5 -73.5 -30.5h-783c-28.667 0 -53.167 10.167 -73.5 30.5s-30.5 44.833 -30.5 73.5z" />
    <glyph glyph-name="three" unicode="3" horiz-adv-x="1153" 
d="M66 262c0 29.333 10.6641 54.8311 31.9971 76.498s46.666 32.5 75.999 32.5c33.333 0 66 -18 98 -54c39.333 -45.333 80.5 -79.833 123.5 -103.5s95.5 -35.5 157.5 -35.5c89.333 0 156.666 21 201.999 63s68 100.333 68 175c0 164 -81 246 -243 246h-127
c-31.333 0 -57.666 10.333 -78.999 31s-32 45.667 -32 75c0 25.333 9 49.333 27 72l288 329h-411c-28.667 0 -53.334 10.333 -74.001 31s-31 45.334 -31 74.001s10.333 53.167 31 73.5s45.334 30.5 74.001 30.5h655c28.667 0 53.334 -10.167 74.001 -30.5
s31 -44.833 31 -73.5c0 -26 -9 -49.333 -27 -70l-299 -338c70 -8 130.167 -25.667 180.5 -53s89.333 -62 117 -104s47.834 -87 60.501 -135s19 -100.667 19 -158c0 -142 -42.667 -251.333 -128 -328s-210.666 -115 -375.999 -115c-101.333 0 -193.166 21.333 -275.499 64
s-146.833 97.334 -193.5 164.001c-12 18 -18 38.333 -18 61z" />
    <glyph glyph-name="four" unicode="4" horiz-adv-x="1148" 
d="M63 399c0 19.333 6.33203 38.667 18.999 58l625 882c24.667 36 57.334 54 98.001 54c31.333 0 58.666 -11.667 81.999 -35s35 -50.666 35 -81.999v-772h71c28.667 0 53.334 -10.333 74.001 -31s31 -45.334 31 -74.001s-10.333 -53.167 -31 -73.5
s-45.334 -30.5 -74.001 -30.5h-71v-195c0 -31.333 -11.667 -58.5 -35 -81.5s-50.666 -34.5 -81.999 -34.5s-58.666 11.5 -81.999 34.5s-35 50.167 -35 81.5v195h-520c-28.667 0 -53.334 10.167 -74.001 30.5s-31 44.833 -31 73.5zM364.999 504.001h323v471z" />
    <glyph glyph-name="five" unicode="5" horiz-adv-x="1179" 
d="M57 301c0 29.333 10.8389 54.8379 32.5059 76.5049s47.167 32.5 76.5 32.5c38 0 70 -19.333 96 -58c40.667 -61.333 84.167 -106 130.5 -134s105.166 -42 176.499 -42c83.333 0 150 24.167 200 72.5s75 119.166 75 212.499c0 92 -25 162 -75 210s-116.667 72 -200 72
c-58 0 -105.833 -6.33301 -143.5 -19s-76.5 -33.334 -116.5 -62.001l-13 -9l-14.5 -10c-3 -2 -7.83301 -4.66699 -14.5 -8s-12.334 -5.83301 -17.001 -7.5s-10.5 -3.16699 -17.5 -4.5s-14.167 -2 -21.5 -2c-30 0 -56 10.667 -78 32s-33 46.666 -33 75.999
c0 10 1.33301 21.667 4 35l103 530c4.66699 22 16.167 41.5 34.5 58.5s40.833 25.5 67.5 25.5h615c28.667 0 53.167 -10.167 73.5 -30.5s30.5 -44.833 30.5 -73.5s-10.167 -53.334 -30.5 -74.001s-44.833 -31 -73.5 -31h-535l-53 -268c64 31.333 141.667 47 233 47
c76.667 0 145.667 -9.66699 207 -29s114.666 -48.5 159.999 -87.5s80.166 -89.833 104.499 -152.5s36.5 -135.334 36.5 -218.001c0 -164 -45.333 -286.667 -136 -368s-214.667 -122 -372 -122c-80.667 0 -155.834 14.5 -225.501 43.5s-125.834 63.333 -168.501 103
s-77 83.167 -103 130.5c-10 18 -15 35.667 -15 53z" />
    <glyph glyph-name="six" unicode="6" horiz-adv-x="1204" 
d="M84 659c0 498.667 182.999 748 548.999 748c80.667 0 152.167 -11.5 214.5 -34.5s109.5 -50.5 141.5 -82.5c23.333 -23.333 35 -49.333 35 -78s-10.5 -53.5 -31.5 -74.5s-45.833 -31.5 -74.5 -31.5c-21.333 0 -43.333 7.33301 -66 22c-34.667 24 -68.5 42.333 -101.5 55
s-72.167 19 -117.5 19c-102 0 -179.833 -35.167 -233.5 -105.5s-80.5 -170.833 -80.5 -301.5c34.667 36 79.834 65.5 135.501 88.5s115.167 34.5 178.5 34.5c147.333 0 265.333 -40.833 354 -122.5s133 -196.5 133 -344.5c0 -82 -12.667 -154 -38 -216
s-61.5 -112.167 -108.5 -150.5s-101.5 -66.833 -163.5 -85.5s-131.333 -28 -208 -28c-89.333 0 -167.5 16.833 -234.5 50.5s-121 81.5 -162 143.5s-71.5 134.167 -91.5 216.5s-30 174.833 -30 277.5zM323.999 539c0 -113.333 24.165 -201.834 72.498 -265.501
s116.833 -95.5 205.5 -95.5s158.334 21.833 209.001 65.5s76 112.834 76 207.501c0 84 -25.333 148.333 -76 193s-115.667 67 -195 67c-129.333 0 -226.666 -57.333 -291.999 -172z" />
    <glyph glyph-name="seven" unicode="7" horiz-adv-x="1038" 
d="M37 1274c0 28.667 10.167 53.1641 30.5 73.4971s44.833 30.5 73.5 30.5h750c28.667 0 53.167 -10.167 73.5 -30.5s30.5 -44.833 30.5 -73.5c0 -57.333 -10.333 -113.833 -31 -169.5s-47.5 -106.834 -80.5 -153.501s-69.5 -93.834 -109.5 -141.501l-119.5 -148.5
c-39.667 -51.333 -76 -104.333 -109 -159s-59.833 -117.167 -80.5 -187.5s-31 -143.833 -31 -220.5c0 -31.333 -11.167 -57.5 -33.5 -78.5s-49.5 -31.5 -81.5 -31.5s-59 10.5 -81 31.5s-33 47.167 -33 78.5c0 75.333 10.167 149.833 30.5 223.5s47 139.834 80 198.501
s69.333 115.334 109 170.001s79.167 104.834 118.5 150.501l108.5 127c33 39 59.667 76.333 80 112s30.5 66.834 30.5 93.501h-621c-28.667 0 -53.167 10.333 -73.5 31s-30.5 45.334 -30.5 74.001z" />
    <glyph glyph-name="eight" unicode="8" horiz-adv-x="1177" 
d="M72 412c0 154.667 77.001 268.667 231.001 342c-47.333 25.333 -86.833 62 -118.5 110s-47.5 102.667 -47.5 164c0 122 39.333 215.667 118 281s189.667 98 333 98s254.166 -32.667 332.499 -98s117.5 -159 117.5 -281c0 -61.333 -15.833 -116 -47.5 -164
s-71.167 -84.667 -118.5 -110c154.667 -73.333 232 -187.333 232 -342c0 -144.667 -44.5 -254.334 -133.5 -329.001s-216.5 -112 -382.5 -112s-293.5 37.333 -382.5 112s-133.5 184.334 -133.5 329.001zM305.001 412c0 -76 25.498 -134 76.498 -174s119.833 -60 206.5 -60
s155.334 20 206.001 60s76 98 76 174s-24.667 133.833 -74 173.5s-118.666 59.5 -207.999 59.5s-158.833 -19.833 -208.5 -59.5s-74.5 -97.5 -74.5 -173.5zM366.999 1028c0 -58 19.5 -102.167 58.5 -132.5s93.167 -45.5 162.5 -45.5s123.5 15.167 162.5 45.5
s58.5 74.5 58.5 132.5c0 56 -19.333 99 -58 129s-93 45 -163 45s-124.333 -15 -163 -45s-58 -73 -58 -129z" />
    <glyph glyph-name="nine" unicode="9" horiz-adv-x="1204" 
d="M84 928c0 82 12.667 153.999 38 215.999s61.5 112 108.5 150s101.5 66.333 163.5 85s131.333 28 208 28c89.333 0 167.5 -16.833 234.5 -50.5s121 -81.5 162 -143.5s71.5 -134.167 91.5 -216.5s30 -174.833 30 -277.5c0 -498.667 -183 -748 -549 -748
c-80.667 0 -152.167 11.5 -214.5 34.5s-109.5 50.5 -141.5 82.5c-23.333 23.333 -35 49.333 -35 78s10.667 53.5 32 74.5s46.333 31.5 75 31.5c20.667 0 42.334 -7.33301 65.001 -22c34.667 -24 68.5 -42.333 101.5 -55s72.167 -19 117.5 -19
c102 0 179.833 35.333 233.5 106s80.5 171.334 80.5 302.001c-34.667 -36 -79.834 -65.5 -135.501 -88.5s-115.167 -34.5 -178.5 -34.5c-147.333 0 -265.333 40.833 -354 122.5s-133 196.5 -133 344.5zM317 927.999c0 -84 25.335 -148.332 76.002 -192.999
s115.667 -67 195 -67c66.667 0 124.667 15.5 174 46.5s89 72.833 119 125.5c0 113.333 -24.333 201.666 -73 264.999s-117.334 95 -206.001 95s-158.334 -21.667 -209.001 -65s-76 -112.333 -76 -207z" />
    <glyph glyph-name="colon" unicode=":" horiz-adv-x="460" 
d="M96 117c0 91.333 45 137 135 137c89.333 0 134 -45.667 134 -137c0 -88.667 -44.667 -133 -134 -133c-90 0 -135 44.333 -135 133zM96 797c0 91.333 45 137 135 137c89.333 0 134 -45.667 134 -137c0 -88.667 -44.667 -133 -134 -133c-90 0 -135 44.333 -135 133z" />
    <glyph glyph-name="semicolon" unicode=";" horiz-adv-x="460" 
d="M72 -305c0 10.667 4.00098 21 12.001 31c20.667 26 35.667 45.5 45 58.5s18.5 31.667 27.5 56s13.5 49.5 13.5 75.5c0 26.667 -12.333 60.167 -37 100.5s-37 73.833 -37 100.5c0 91.333 45 137 135 137c89.333 0 134 -45.667 134 -137
c0 -96.667 -21.5 -185.834 -64.5 -267.501s-93.167 -144.167 -150.5 -187.5c-10.667 -8 -21.667 -12 -33 -12c-12.667 0 -23.334 4.33301 -32.001 13s-13 19.334 -13 32.001zM96.001 797c0 91.333 45 137 135 137c89.333 0 134 -45.667 134 -137
c0 -88.667 -44.667 -133 -134 -133c-90 0 -135 44.333 -135 133z" />
    <glyph glyph-name="less" unicode="&#x3c;" horiz-adv-x="743" 
d="M0 481c0 31.333 15 58.6699 45 82.0029l543 412c16 12 35 18 57 18c26.667 0 49.667 -9.66699 69 -29s29 -42.333 29 -69c0 -34.667 -13.667 -61.334 -41 -80.001l-452 -334l452 -334c27.333 -18.667 41 -45 41 -79c0 -26.667 -9.66699 -49.834 -29 -69.501
s-42.333 -29.5 -69 -29.5c-21.333 0 -40.333 6.33301 -57 19l-543 411c-30 23.333 -45 50.666 -45 81.999z" />
    <glyph glyph-name="equal" unicode="=" horiz-adv-x="929" 
d="M0 268c0 25.333 9.33301 47.333 28 66s40.667 28 66 28h742c25.333 0 47.333 -9.33301 66 -28s28 -40.667 28 -66s-9.33301 -47.333 -28 -66s-40.667 -28 -66 -28h-742c-25.333 0 -47.333 9.33301 -66 28s-28 40.667 -28 66zM0 623c0 25.333 9.33301 47.333 28 66
s40.667 28 66 28h742c25.333 0 47.333 -9.33301 66 -28s28 -40.667 28 -66s-9.33301 -47.5 -28 -66.5s-40.667 -28.5 -66 -28.5h-742c-25.333 0 -47.333 9.5 -66 28.5s-28 41.167 -28 66.5z" />
    <glyph glyph-name="greater" unicode="&#x3e;" horiz-adv-x="743" 
d="M0 68c0 34 13.667 60.3291 41 78.9961l453 334l-453 334c-27.333 18.667 -41 45.334 -41 80.001c0 26.667 9.66699 49.667 29 69s42.333 29 69 29c22.667 0 42 -6 58 -18l542 -412c30 -23.333 45 -50.666 45 -81.999s-15 -58.666 -45 -81.999l-542 -411
c-16.667 -12.667 -36 -19 -58 -19c-26.667 0 -49.667 9.83301 -69 29.5s-29 42.834 -29 69.501z" />
    <glyph glyph-name="question" unicode="?" horiz-adv-x="927" 
d="M41 1034c0 116.667 37.001 208 111.001 274s176.333 99 307 99c135.333 0 240.5 -31.167 315.5 -93.5s112.5 -150.5 112.5 -264.5c0 -44.667 -7.16699 -85.834 -21.5 -123.501s-33 -69.167 -56 -94.5s-48.333 -48.5 -76 -69.5s-55.5 -39.333 -83.5 -55l-76.5 -44.5
c-23 -14 -41.667 -28.5 -56 -43.5s-21.5 -30.833 -21.5 -47.5c0 -13.333 6.66699 -29.666 20 -48.999c12.667 -18.667 19 -39 19 -61c0 -32.667 -11.5 -59.334 -34.5 -80.001s-48.5 -31 -76.5 -31c-31.333 0 -58 11 -80 33c-50.667 48.667 -76 106.667 -76 174
c0 34.667 7.33301 66.834 22 96.501s33.667 55.167 57 76.5s49.166 41.5 77.499 60.5l85 55.5c28.333 18 54.166 36.5 77.499 55.5s42.333 41 57 66s22 52.167 22 81.5c0 50 -18.167 88.667 -54.5 116s-87.166 41 -152.499 41c-59.333 0 -106.333 -14.667 -141 -44
s-52 -72 -52 -128c0 -30.667 -11 -57 -33 -79s-48.333 -33 -79 -33s-57.167 11 -79.5 33s-33.5 48.333 -33.5 79zM283.001 117c0 91.333 45 137 135 137c88.667 0 133 -45.667 133 -137c0 -88.667 -44.333 -133 -133 -133c-90 0 -135 44.333 -135 133z" />
    <glyph glyph-name="at" unicode="@" horiz-adv-x="1648" 
d="M80 365c0 239.333 65.499 421.001 196.499 545.001s313.833 186 548.5 186c144.667 0 272 -25.5 382 -76.5s197.167 -129 261.5 -234s96.5 -231.5 96.5 -379.5c0 -38 -3.5 -75.5 -10.5 -112.5s-19.167 -74.333 -36.5 -112s-39.333 -70.667 -66 -99
s-61.334 -51.5 -104.001 -69.5s-90.667 -27 -144 -27c-58 0 -104 12.167 -138 36.5s-57.667 50.166 -71 77.499c-58.667 -76 -140.334 -114 -245.001 -114c-78 0 -141 22.333 -189 67s-72 102.667 -72 174c0 70.667 25.167 125.667 75.5 165s112.166 59 185.499 59h211v28
c0 37.333 -12.667 66.833 -38 88.5s-60.666 32.5 -105.999 32.5c-56.667 0 -111.334 -19.667 -164.001 -59c-15.333 -11.333 -31.666 -17 -48.999 -17c-20.667 0 -38.167 7.16699 -52.5 21.5s-21.5 31.833 -21.5 52.5c0 22.667 6.33301 40.334 19 53.001
c64.667 70 154 105 268 105c98.667 0 176 -23.833 232 -71.5s84 -113.5 84 -197.5v-249c0 -25.333 8.33301 -45 25 -59s37 -21 61 -21c104.667 0 157 82.667 157 248c0 168.667 -49.333 297.167 -148 385.5s-233 132.5 -403 132.5
c-85.333 0 -161.666 -10.833 -228.999 -32.5s-125.666 -54.667 -174.999 -99s-87.166 -102.5 -113.499 -174.5s-39.5 -156.333 -39.5 -253c0 -192 49.5 -337 148.5 -435s235.167 -147 408.5 -147c172 0 311.333 32 418 96c14 8 29 12 45 12c24.667 0 45.5 -8.5 62.5 -25.5
s25.5 -37.833 25.5 -62.5c0 -34.667 -15 -60.334 -45 -77.001c-135.333 -76.667 -304 -115 -506 -115c-232.667 0 -415 65.333 -547 196s-198 316.667 -198 558zM663.999 227.001c0 -64 43.668 -95.999 131.001 -95.999c44.667 0 83.5 12.833 116.5 38.5
s49.5 60.5 49.5 104.5v43h-189c-34.667 0 -61.334 -7.83301 -80.001 -23.5s-28 -37.834 -28 -66.501z" />
    <glyph glyph-name="A" unicode="A" horiz-adv-x="1277" 
d="M39 100c0 16 2.66113 30.333 7.99414 43l483 1178c8 18.667 21.167 35.667 39.5 51s41.5 23 69.5 23s51.167 -7.66699 69.5 -23s31.5 -32.333 39.5 -51l483 -1178c5.33301 -12.667 8 -27 8 -43c0 -31.333 -11.667 -58.5 -35 -81.5s-50.666 -34.5 -81.999 -34.5
c-25.333 0 -47.666 7.16699 -66.999 21.5s-33.666 32.833 -42.999 55.5l-125 297h-496l-125 -297c-9.33301 -22.667 -23.666 -41.167 -42.999 -55.5s-41.666 -21.5 -66.999 -21.5c-31.333 0 -58.666 11.5 -81.999 34.5s-35 50.167 -35 81.5zM470.994 575h336l-168 431z" />
    <glyph glyph-name="B" unicode="B" horiz-adv-x="1163" 
d="M123 119l-0.00292969 1141c0 32.667 11.5 60.5 34.5 83.5s51.167 34.5 84.5 34.5h368c74.667 0 139.834 -9.5 195.501 -28.5s99.334 -45.5 131.001 -79.5s55.167 -71.5 70.5 -112.5s23 -86.167 23 -135.5c0 -65.333 -14.167 -122.833 -42.5 -172.5
s-64.5 -85.167 -108.5 -106.5c74.667 -28.667 128.834 -70 162.501 -124s50.5 -122.333 50.5 -205c0 -128 -38 -229 -114 -303s-186.333 -111 -331 -111h-405c-33.333 0 -61.5 11.667 -84.5 35s-34.5 51.333 -34.5 84zM359.997 213h287c135.333 0 203 67 203 201
c0 63.333 -17.167 112.5 -51.5 147.5s-84.833 52.5 -151.5 52.5h-287v-401zM359.997 815h250c62 0 108 15.833 138 47.5s45 74.5 45 128.5c0 116 -61 174 -183 174h-250v-350z" />
    <glyph glyph-name="C" unicode="C" horiz-adv-x="1310" 
d="M70 688c0 239.333 54.999 418.999 164.999 538.999s268.667 180 476 180c117.333 0 217.5 -20.167 300.5 -60.5s147.167 -93.833 192.5 -160.5c15.333 -24 23 -46.667 23 -68c0 -29.333 -10.833 -54.666 -32.5 -75.999s-47.834 -32 -78.501 -32s-58.667 13.667 -84 41
c-44.667 48.667 -91.5 84.667 -140.5 108s-109.167 35 -180.5 35c-135.333 0 -235.166 -41.833 -299.499 -125.5s-96.5 -210.5 -96.5 -380.5c0 -177.333 31.667 -305.666 95 -384.999s163.666 -119 300.999 -119c75.333 0 137 9.83301 185 29.5s96.667 54.834 146 105.501
c30.667 30.667 60 46 88 46c30.667 0 56.834 -10.833 78.501 -32.5s32.5 -47.834 32.5 -78.501c0 -22.667 -6.66699 -43 -20 -61c-50 -66.667 -120.667 -120.334 -212 -161.001s-190.666 -61 -297.999 -61c-427.333 0 -641 239 -641 717z" />
    <glyph glyph-name="D" unicode="D" horiz-adv-x="1251" 
d="M123 119v1141c0 32.667 11.5 60.5 34.5 83.5s51.167 34.5 84.5 34.5h276c104.667 0 196.834 -12.333 276.501 -37s149.167 -63.834 208.5 -117.501s104.333 -125.334 135 -215.001s46 -196.5 46 -320.5s-15.333 -230.833 -46 -320.5s-75.667 -161 -135 -214
s-128.833 -91.833 -208.5 -116.5s-171.834 -37 -276.501 -37h-276c-33.333 0 -61.5 11.667 -84.5 35s-34.5 51.333 -34.5 84zM360 213.002h158c68 0 127 8.16699 177 24.5s93.667 42.666 131 78.999s65.333 85.5 84 147.5s28 136.667 28 224
c0 170.667 -35.5 292.834 -106.5 366.501s-175.5 110.5 -313.5 110.5h-158v-952z" />
    <glyph glyph-name="E" unicode="E" horiz-adv-x="1071" 
d="M123 119v1141c0 32.667 11.5 60.5 34.5 83.5s51.167 34.5 84.5 34.5h639c29.333 0 54.333 -10.333 75 -31s31 -45.667 31 -75s-10.333 -54.5 -31 -75.5s-45.667 -31.5 -75 -31.5h-521v-366h388c28.667 0 53.167 -10.333 73.5 -31s30.5 -45.334 30.5 -74.001
s-10.167 -53.167 -30.5 -73.5s-44.833 -30.5 -73.5 -30.5h-388v-377h543c29.333 0 54.5 -10.5 75.5 -31.5s31.5 -46.167 31.5 -75.5s-10.5 -54.333 -31.5 -75s-46.167 -31 -75.5 -31h-661c-33.333 0 -61.5 11.667 -84.5 35s-34.5 51.333 -34.5 84z" />
    <glyph glyph-name="F" unicode="F" horiz-adv-x="1071" 
d="M123 102v1158c0 32.667 11.5 60.5 34.5 83.5s51.167 34.5 84.5 34.5h639c29.333 0 54.333 -10.333 75 -31s31 -45.667 31 -75s-10.333 -54.5 -31 -75.5s-45.667 -31.5 -75 -31.5h-521v-379h388c28.667 0 53.167 -10.167 73.5 -30.5s30.5 -44.833 30.5 -73.5
s-10.167 -53.167 -30.5 -73.5s-44.833 -30.5 -73.5 -30.5h-388v-476c0 -33.333 -11.333 -61.333 -34 -84s-50.667 -34 -84 -34s-61.5 11.5 -84.5 34.5s-34.5 50.833 -34.5 83.5z" />
    <glyph glyph-name="G" unicode="G" horiz-adv-x="1382" 
d="M70 688c0 239.333 55.001 418.998 165.001 538.998s268.667 180 476 180c117.333 0 217.5 -20.167 300.5 -60.5s147.167 -93.833 192.5 -160.5c15.333 -24 23 -46.667 23 -68c0 -29.333 -10.833 -54.666 -32.5 -75.999s-47.834 -32 -78.501 -32s-58.667 13.667 -84 41
c-44.667 48.667 -91.5 84.667 -140.5 108s-109.167 35 -180.5 35c-135.333 0 -235.166 -41.833 -299.499 -125.5s-96.5 -210.5 -96.5 -380.5c0 -177.333 31.667 -305.666 95 -384.999s163.666 -119 300.999 -119c149.333 0 262 39 338 117v229h-279
c-28.667 0 -53.167 10.333 -73.5 31s-30.5 45.334 -30.5 74.001s10.167 53.167 30.5 73.5s44.833 30.5 73.5 30.5h397c29.333 0 55.5 -10.833 78.5 -32.5s34.5 -46.834 34.5 -75.501v-328c0 -43.333 -11.667 -79.333 -35 -108c-49.333 -66 -123.5 -119.833 -222.5 -161.5
s-202.833 -62.5 -311.5 -62.5c-427.333 0 -641 239 -641 717z" />
    <glyph glyph-name="H" unicode="H" horiz-adv-x="1306" 
d="M123 102v1174c0 33.333 11.5 61.5 34.5 84.5s51.167 34.5 84.5 34.5c32.667 0 60.5 -11.5 83.5 -34.5s34.5 -51.167 34.5 -84.5v-463h586v463c0 33.333 11.667 61.5 35 84.5s51.333 34.5 84 34.5s60.667 -11.5 84 -34.5s35 -51.167 35 -84.5v-1174
c0 -32.667 -11.5 -60.5 -34.5 -83.5s-51.167 -34.5 -84.5 -34.5s-61.5 11.5 -84.5 34.5s-34.5 50.833 -34.5 83.5v494h-586v-494c0 -33.333 -11.333 -61.333 -34 -84s-50.667 -34 -84 -34s-61.5 11.5 -84.5 34.5s-34.5 50.833 -34.5 83.5z" />
    <glyph glyph-name="I" unicode="I" horiz-adv-x="483" 
d="M123 102v1174c0 33.333 11.5 61.5 34.5 84.5s51.167 34.5 84.5 34.5c32.667 0 60.5 -11.5 83.5 -34.5s34.5 -51.167 34.5 -84.5v-1174c0 -33.333 -11.333 -61.333 -34 -84s-50.667 -34 -84 -34s-61.5 11.5 -84.5 34.5s-34.5 50.833 -34.5 83.5z" />
    <glyph glyph-name="J" unicode="J" horiz-adv-x="882" 
d="M31 123c0 29.333 10.333 54.334 31 75.001s45.667 31 75 31c13.333 0 29 -3.33301 47 -10c52.667 -20.667 102 -31 148 -31c65.333 0 113.333 21.833 144 65.5s46 102.5 46 176.5v846c0 33.333 11.667 61.5 35 84.5s51.333 34.5 84 34.5s60.667 -11.5 84 -34.5
s35 -51.167 35 -84.5v-846c0 -68 -7.83301 -128.833 -23.5 -182.5s-39.834 -101.5 -72.501 -143.5s-77.167 -74.333 -133.5 -97s-122.5 -34 -198.5 -34c-42.667 0 -87.167 5.16699 -133.5 15.5s-83.166 23.833 -110.499 40.5c-38 19.333 -57 50.666 -57 93.999z" />
    <glyph glyph-name="K" unicode="K" horiz-adv-x="1138" 
d="M123 102l-0.000976562 1174c0 33.333 11.5 61.5 34.5 84.5s51.167 34.5 84.5 34.5c32.667 0 60.5 -11.5 83.5 -34.5s34.5 -51.167 34.5 -84.5v-469l492 549c24 26 52.667 39 86 39c31.333 0 58.333 -11.333 81 -34s34 -49.667 34 -81c0 -29.333 -10.333 -55.333 -31 -78
l-385 -418l453 -616c14.667 -18.667 22 -41.334 22 -68.001c0 -31.333 -11.667 -58.5 -35 -81.5s-50.666 -34.5 -81.999 -34.5c-40.667 0 -72.667 17 -96 51l-422 583l-117 -122v-394c0 -33.333 -11.333 -61.333 -34 -84s-50.667 -34 -84 -34s-61.5 11.5 -84.5 34.5
s-34.5 50.833 -34.5 83.5z" />
    <glyph glyph-name="L" unicode="L" horiz-adv-x="1005" 
d="M123 115v1161c0 33.333 11.5 61.5 34.5 84.5s51.167 34.5 84.5 34.5c32.667 0 60.5 -11.5 83.5 -34.5s34.5 -51.167 34.5 -84.5v-1055h486c33.333 0 60.833 -10.667 82.5 -32s32.5 -47.333 32.5 -78c0 -32 -10.667 -58.5 -32 -79.5s-49 -31.5 -83 -31.5h-606
c-34 -0 -62 10.833 -84 32.5s-33 49.167 -33 82.5z" />
    <glyph glyph-name="M" unicode="M" horiz-adv-x="1546" 
d="M113 100l-0.00195312 1178c0 31.333 11.5 58.666 34.5 81.999s50.167 35 81.5 35c46 0 81 -22 105 -66l434 -778l434 778c24 44 59 66 105 66c31.333 0 58.5 -11.667 81.5 -35s34.5 -50.666 34.5 -81.999v-1178c0 -31.333 -11.5 -58.5 -34.5 -81.5
s-50.167 -34.5 -81.5 -34.5s-58.666 11.5 -81.999 34.5s-35 50.167 -35 81.5v746l-322 -572c-20.667 -38 -54 -57 -100 -57s-79.333 19 -100 57l-322 572v-746c0 -31.333 -11.667 -58.5 -35 -81.5s-50.666 -34.5 -81.999 -34.5s-58.5 11.5 -81.5 34.5
s-34.5 50.167 -34.5 81.5z" />
    <glyph glyph-name="N" unicode="N" horiz-adv-x="1275" 
d="M113 100v1178c0 31.333 11.5 58.666 34.5 81.999s50.167 35 81.5 35c42 0 73.667 -16.333 95 -49l606 -879v811c0 31.333 11.667 58.666 35 81.999s50.666 35 81.999 35s58.5 -11.667 81.5 -35s34.5 -50.666 34.5 -81.999v-1178c0 -31.333 -11.5 -58.5 -34.5 -81.5
s-50.167 -34.5 -81.5 -34.5c-42.667 0 -75 17 -97 51l-604 872v-807c0 -31.333 -11.667 -58.5 -35 -81.5s-50.666 -34.5 -81.999 -34.5s-58.5 11.5 -81.5 34.5s-34.5 50.167 -34.5 81.5z" />
    <glyph glyph-name="O" unicode="O" 
d="M70 688c0 239.333 55.667 419 167 539s272 180 482 180s370.667 -60 482 -180s167 -299.667 167 -539c0 -236.667 -55.833 -415.334 -167.5 -536.001s-272.167 -181 -481.5 -181s-369.833 60.333 -481.5 181s-167.5 299.334 -167.5 536.001zM315 688
c0 -336 134.667 -504 404 -504c268.667 0 403 168 403 504c0 170 -33.333 296.833 -100 380.5s-167.667 125.5 -303 125.5c-269.333 0 -404 -168.667 -404 -506z" />
    <glyph glyph-name="P" unicode="P" horiz-adv-x="1130" 
d="M123 102v1158c0 32.667 11.5 60.5 34.5 83.5s51.167 34.5 84.5 34.5h391c126.667 0 230 -35.667 310 -107s120 -175.666 120 -312.999c0 -136.667 -39.833 -241 -119.5 -313s-183.167 -108 -310.5 -108h-273v-435c0 -33.333 -11.333 -61.333 -34 -84s-50.667 -34 -84 -34
s-61.5 11.5 -84.5 34.5s-34.5 50.833 -34.5 83.5zM360 749.999l254 -0.000976562c64 0 113.833 18.167 149.5 54.5s53.5 87.5 53.5 153.5c0 66.667 -18 117.834 -54 153.501s-85.667 53.5 -149 53.5h-254v-415z" />
    <glyph glyph-name="Q" unicode="Q" 
d="M70 688c0 239.333 55.667 418.998 167 538.998s272 180 482 180s370.667 -60 482 -180s167 -299.667 167 -539c0 -144 -22.833 -267.5 -68.5 -370.5s-110.167 -182.167 -193.5 -237.5c33.333 -4 67.166 -14.5 101.499 -31.5s59.166 -35.833 74.499 -56.5
c18 -24 27 -48.667 27 -74c0 -31.333 -11.167 -58.666 -33.5 -81.999s-50.166 -35 -83.499 -35c-31.333 0 -58.666 11.667 -81.999 35c-35.333 34.667 -67 60.5 -95 77.5s-65.667 30.667 -113 41s-108.333 15.833 -183 16.5c-209.333 0 -369.833 60.333 -481.5 181
s-167.5 299.334 -167.5 536.001zM315 687.998c0 -336 134.667 -504 404 -504c268.667 0 403 168 403 504c0 170 -33.333 296.833 -100 380.5s-167.667 125.5 -303 125.5c-269.333 0 -404 -168.667 -404 -506z" />
    <glyph glyph-name="R" unicode="R" horiz-adv-x="1146" 
d="M123 102l0.00195312 1158c0 32.667 11.5 60.5 34.5 83.5s51.167 34.5 84.5 34.5h391c89.333 0 167.166 -19.833 233.499 -59.5s116 -91.5 149 -155.5s49.5 -135 49.5 -213c0 -66 -12.333 -128.167 -37 -186.5s-61.334 -107.666 -110.001 -147.999
s-104.667 -64.5 -168 -72.5l303 -369c16 -22 24 -46 24 -72c0 -32.667 -11.5 -60.5 -34.5 -83.5s-51.167 -34.5 -84.5 -34.5c-40 0 -70.667 14.333 -92 43l-372 501h-134v-426c0 -33.333 -11.333 -61.333 -34 -84s-50.667 -34 -84 -34s-61.5 11.5 -84.5 34.5
s-34.5 50.833 -34.5 83.5zM360.002 736.999l277 0.000976562c60 0 105.333 20.667 136 62s46 91.666 46 150.999c0 60.667 -15.667 111.667 -47 153s-78.333 62 -141 62h-271v-428z" />
    <glyph glyph-name="S" unicode="S" horiz-adv-x="1173" 
d="M59 279c0 30 10.8311 55.8311 32.498 77.498s47.167 32.5 76.5 32.5c30 0 60 -15 90 -45c104 -104 216 -156 336 -156c184 0 276 63 276 189c0 32 -8.5 60.333 -25.5 85s-40 45.334 -69 62.001s-62.167 32 -99.5 46s-76.666 27.667 -117.999 41s-82.5 27.5 -123.5 42.5
s-80.167 33.5 -117.5 55.5s-70.5 47 -99.5 75s-52 63.167 -69 105.5s-25.5 89.833 -25.5 142.5c0 108.667 39.833 198.334 119.5 269.001s196.834 106 351.501 106c102 0 194.667 -17.5 278 -52.5s145.666 -81.833 186.999 -140.5c13.333 -20 20 -41.667 20 -65
c0 -30 -10.833 -55.667 -32.5 -77s-47.5 -32 -77.5 -32c-26.667 0 -56 15 -88 45c-33.333 32 -75.5 58.167 -126.5 78.5s-104.5 30.5 -160.5 30.5c-79.333 0 -138.166 -15.5 -176.499 -46.5s-57.5 -69.5 -57.5 -115.5c0 -28.667 8.5 -54 25.5 -76s40 -40.667 69 -56
s62.167 -29.666 99.5 -42.999l118 -40.5c41.333 -13.667 82.666 -28.334 123.999 -44.001s80.666 -35 117.999 -58s70.5 -49.333 99.5 -79s52 -66.5 69 -110.5s25.5 -93.333 25.5 -148c0 -127.333 -44 -226.833 -132 -298.5s-215.333 -107.5 -382 -107.5
c-115.333 0 -219.666 24.333 -312.999 73s-161.666 107.667 -204.999 177c-11.333 18 -17 37.333 -17 58z" />
    <glyph glyph-name="T" unicode="T" horiz-adv-x="1159" 
d="M43 1274c0 28.667 10.167 53.167 30.5 73.5s44.833 30.5 73.5 30.5h865c28.667 0 53.167 -10.167 73.5 -30.5s30.5 -44.833 30.5 -73.5s-10.167 -53.334 -30.5 -74.001s-44.833 -31 -73.5 -31h-314v-1067c0 -33.333 -11.333 -61.333 -34 -84s-50.667 -34 -84 -34
s-61.5 11.5 -84.5 34.5s-34.5 50.833 -34.5 83.5v1067h-314c-28.667 0 -53.167 10.333 -73.5 31s-30.5 45.334 -30.5 74.001z" />
    <glyph glyph-name="U" unicode="U" horiz-adv-x="1267" 
d="M123 451l-0.00195312 825c0 33.333 11.5 61.5 34.5 84.5s51.167 34.5 84.5 34.5c32.667 0 60.5 -11.5 83.5 -34.5s34.5 -51.167 34.5 -84.5v-825c0 -34.667 4 -66.667 12 -96s21.5 -57.833 40.5 -85.5s47.833 -49.5 86.5 -65.5s85.334 -24 140.001 -24
s101.334 8 140.001 24s67.5 37.833 86.5 65.5s32.5 56.167 40.5 85.5s12 61.333 12 96v825c0 33.333 11.5 61.5 34.5 84.5s50.833 34.5 83.5 34.5c33.333 0 61.5 -11.5 84.5 -34.5s34.5 -51.167 34.5 -84.5v-825c0 -50 -4.5 -96.667 -13.5 -140s-25.5 -86.333 -49.5 -129
s-54.667 -79.167 -92 -109.5s-86.833 -54.833 -148.5 -73.5s-132.5 -28 -212.5 -28s-150.833 9.33301 -212.5 28s-111.167 43.167 -148.5 73.5s-68 66.833 -92 109.5s-40.5 85.667 -49.5 129s-13.5 90 -13.5 140z" />
    <glyph glyph-name="V" unicode="V" horiz-adv-x="1245" 
d="M39 1276c0 33.333 11.5 61.5 34.5 84.5s51.167 34.5 84.5 34.5c27.333 0 50.5 -7 69.5 -21s31.833 -30.333 38.5 -49l357 -944l356 944c7.33301 18 20.333 34.167 39 48.5s41.667 21.5 69 21.5c32.667 0 60.667 -11.5 84 -34.5s35 -51.167 35 -84.5
c0 -17.333 -2.66699 -32.333 -8 -45l-465 -1172c-19.333 -50 -56 -75 -110 -75c-54.667 0 -91.667 25 -111 75l-465 1172c-5.33301 12.667 -8 27.667 -8 45z" />
    <glyph glyph-name="W" unicode="W" horiz-adv-x="1716" 
d="M39 1276c0 33.333 11.5 61.5 34.5 84.5s51.167 34.5 84.5 34.5c30 0 54.667 -8.5 74 -25.5s32 -35.833 38 -56.5l240 -860l233 856c6.66699 26 21 46.833 43 62.5s46 23.5 72 23.5s50 -7.83301 72 -23.5s36.333 -36.5 43 -62.5l233 -856l240 860
c6 20.667 18.833 39.5 38.5 56.5s44.5 25.5 74.5 25.5c32.667 0 60.5 -11.5 83.5 -34.5s34.5 -51.167 34.5 -84.5c0 -12.667 -2 -25 -6 -37l-350 -1173c-7.33301 -24 -21.5 -43.667 -42.5 -59s-44.5 -23 -70.5 -23c-27.333 0 -51.333 8.16699 -72 24.5
s-34.667 37.5 -42 63.5l-236 839l-235 -839c-7.33301 -26 -21.5 -47.167 -42.5 -63.5s-45.167 -24.5 -72.5 -24.5c-26 0 -49.5 7.66699 -70.5 23s-35.167 35 -42.5 59l-350 1173c-4 12 -6 24.333 -6 37z" />
    <glyph glyph-name="X" unicode="X" horiz-adv-x="1110" 
d="M23 102c0 26 6.66699 48 20 66l383 537l-356 501c-15.333 22 -23 45.333 -23 70c0 33.333 11.5 61.5 34.5 84.5s51.167 34.5 84.5 34.5c41.333 0 73.333 -16.333 96 -49l293 -437l293 437c22.667 32.667 54.667 49 96 49c33.333 0 61.5 -11.5 84.5 -34.5
s34.5 -51.167 34.5 -84.5c0 -24.667 -7.66699 -48 -23 -70l-356 -501l383 -537c13.333 -18 20 -40 20 -66c0 -33.333 -11.5 -61.333 -34.5 -84s-50.833 -34 -83.5 -34c-40.667 0 -73.667 17.667 -99 53l-315 467l-315 -467c-25.333 -35.333 -58.333 -53 -99 -53
c-32.667 0 -60.5 11.333 -83.5 34s-34.5 50.667 -34.5 84z" />
    <glyph glyph-name="Y" unicode="Y" horiz-adv-x="1134" 
d="M39 1276c0 33.333 11.5 61.5 34.5 84.5s51.167 34.5 84.5 34.5c42 0 75.333 -18.667 100 -56l309 -485l310 485c22.667 37.333 56 56 100 56c32.667 0 60.667 -11.5 84 -34.5s35 -51.167 35 -84.5c0 -26 -6.33301 -47.333 -19 -64l-391 -583v-527
c0 -32.667 -11.5 -60.5 -34.5 -83.5s-51.167 -34.5 -84.5 -34.5c-32.667 0 -60.5 11.333 -83.5 34s-34.5 50.667 -34.5 84v527l-392 583c-12 16 -18 37.333 -18 64z" />
    <glyph glyph-name="Z" unicode="Z" horiz-adv-x="1107" 
d="M31 106c0 24.667 6.66602 45.999 19.999 63.999l688 999h-563c-28.667 0 -53.167 10.333 -73.5 31s-30.5 45.334 -30.5 74.001s10.167 53.167 30.5 73.5s44.833 30.5 73.5 30.5h774c28.667 0 53.334 -10.167 74.001 -30.5s31 -44.833 31 -73.5
c0 -22 -6.33301 -42 -19 -60l-686 -1001h625c29.333 0 54.333 -10.5 75 -31.5s31 -46.167 31 -75.5s-10.333 -54.333 -31 -75s-45.667 -31 -75 -31h-838c-29.333 -0 -54.333 10.333 -75 31s-31 45.667 -31 75z" />
    <glyph glyph-name="bracketleft" unicode="[" horiz-adv-x="579" 
d="M123 -193v1598c0 30 10.667 55.167 32 75.5s48.333 30.5 81 30.5h192c26.667 0 49.334 -9.33301 68.001 -28s28 -41.334 28 -68.001s-9.33301 -49.334 -28 -68.001s-41.334 -28 -68.001 -28h-84v-1425h84c26.667 0 49.334 -9.5 68.001 -28.5s28 -41.833 28 -68.5
s-9.33301 -49.334 -28 -68.001s-41.334 -28 -68.001 -28h-192c-32.667 0 -59.667 10 -81 30s-32 45.333 -32 76z" />
    <glyph glyph-name="backslash" unicode="\" horiz-adv-x="864" 
d="M53 1427c0 30.667 10.833 56.834 32.5 78.501s47.834 32.5 78.501 32.5c22 0 42.667 -6.16699 62 -18.5s33.333 -30.166 42 -53.499l535 -1513c5.33301 -14 8 -28.333 8 -43c0 -30.667 -10.833 -56.834 -32.5 -78.501s-47.834 -32.5 -78.501 -32.5
c-22 0 -42.667 6.16699 -62 18.5s-33.333 30.166 -42 53.499l-535 1513c-5.33301 14 -8 28.333 -8 43z" />
    <glyph glyph-name="bracketright" unicode="]" horiz-adv-x="579" 
d="M55 -203c0 26.667 9.5 49.4971 28.5 68.4971s41.833 28.5 68.5 28.5h84v1425h-84c-26.667 0 -49.5 9.33301 -68.5 28s-28.5 41.334 -28.5 68.001s9.5 49.334 28.5 68.001s41.833 28 68.5 28h192c32.667 0 59.667 -10.167 81 -30.5s32 -45.5 32 -75.5v-1598
c0 -30.667 -10.667 -56 -32 -76s-48.333 -30 -81 -30h-192c-26.667 0 -49.5 9.33301 -68.5 28s-28.5 41.334 -28.5 68.001z" />
    <glyph glyph-name="asciicircum" unicode="^" horiz-adv-x="995" 
d="M82 768c0 17.333 4 33 12 47l324 555c18 30 44.667 45 80 45s62 -15 80 -45l323 -555c8 -14 12 -29.667 12 -47c0 -25.333 -9.33301 -47.333 -28 -66s-40.667 -28 -66 -28c-18 0 -34.333 4.33301 -49 13s-25.667 20 -33 34l-239 432l-240 -432
c-7.33301 -14 -18.333 -25.333 -33 -34s-31 -13 -49 -13c-25.333 0 -47.333 9.33301 -66 28s-28 40.667 -28 66z" />
    <glyph glyph-name="underscore" unicode="_" horiz-adv-x="862" 
d="M-27 -158c0 25.333 9.5 47.5 28.5 66.5s41.167 28.5 66.5 28.5h729c25.333 0 47.333 -9.5 66 -28.5s28 -41.167 28 -66.5s-9.33301 -47.333 -28 -66s-40.667 -28 -66 -28h-729c-25.333 0 -47.5 9.33301 -66.5 28s-28.5 40.667 -28.5 66z" />
    <glyph glyph-name="grave" unicode="`" horiz-adv-x="786" 
d="M221 1294c0.666992 23.333 11.667 45.333 33 66c20.667 20.667 42.667 31.5 66 32.5s42.333 -7.83301 57 -26.5l174 -221c12 -12 17.333 -26.5 16 -43.5s-10 -33.167 -26 -48.5c-30.667 -28.667 -62.334 -28.667 -95.001 0l-200 184
c-17.333 14.667 -25.666 33.667 -24.999 57z" />
    <glyph glyph-name="a" unicode="a" horiz-adv-x="966" 
d="M55 283c0 90.667 31.832 161.332 95.499 211.999s142.5 76 236.5 76h268v37c0 46.667 -16.333 84 -49 112s-78.334 42 -137.001 42c-40 0 -76 -7 -108 -21s-64.333 -33 -97 -57c-19.333 -13.333 -39.666 -20 -60.999 -20c-26.667 0 -49.5 9.33301 -68.5 28
s-28.5 41.334 -28.5 68.001c0 24.667 9 47 27 67c79.333 87.333 191.333 131 336 131c127.333 0 226.666 -30 297.999 -90s107 -144 107 -252v-524c0 -29.333 -10.667 -54.666 -32 -75.999s-46.666 -32 -75.999 -32s-54.833 10.667 -76.5 32s-32.5 46.666 -32.5 75.999
c-49.333 -79.333 -138.666 -119 -267.999 -119c-100 0 -180.667 28.667 -242 86s-92 132 -92 224zM275.999 282.998c0 -40 14.167 -70.833 42.5 -92.5s70.833 -32.5 127.5 -32.5c57.333 0 106.5 16.833 147.5 50.5s61.5 78.167 61.5 133.5v57h-239
c-44.667 0 -79.167 -10 -103.5 -30s-36.5 -48.667 -36.5 -86z" />
    <glyph glyph-name="b" unicode="b" horiz-adv-x="1026" 
d="M102 383l-0.00195312 965c0 30.667 10.833 56.667 32.5 78s47.834 32 78.501 32s56.834 -10.667 78.501 -32s32.5 -47.333 32.5 -78v-471c22 22 53.5 41 94.5 57s84.5 24 130.5 24c132 0 234.333 -41.333 307 -124s109 -205.667 109 -369c0 -164 -38 -287 -114 -369
s-184.333 -123 -325 -123c-128 0 -230.667 35.333 -308 106s-116 172 -116 304zM323.998 383c0 -69.333 18.502 -123.502 55.502 -162.502s85.833 -58.5 146.5 -58.5c71.333 0 125.666 25.5 162.999 76.5s56 126.5 56 226.5c0 100.667 -18.833 176.667 -56.5 228
s-91.834 77 -162.501 77c-22.667 0 -45.167 -3.5 -67.5 -10.5s-41.333 -15.667 -57 -26s-29.5 -20.666 -41.5 -30.999s-21 -19.166 -27 -26.499l-9 -10v-283z" />
    <glyph glyph-name="c" unicode="c" horiz-adv-x="923" 
d="M59 467c0 164 38.499 286.831 115.499 368.498s186.833 122.5 329.5 122.5c57.333 0 111 -9 161 -27s87.333 -36.5 112 -55.5s45 -38.5 61 -58.5c14.667 -21.333 22 -42.333 22 -63c0 -27.333 -9.5 -50.666 -28.5 -69.999s-42.167 -29 -69.5 -29
c-29.333 0 -54.666 11.667 -75.999 35c-49.333 53.333 -110 80 -182 80c-71.333 0 -126 -26.333 -164 -79s-57 -127.334 -57 -224.001c0 -98.667 19 -174.167 57 -226.5s92.667 -78.5 164 -78.5c28.667 0 57.167 5 85.5 15s49.333 19.5 63 28.5s31.834 21.833 54.501 38.5
c19.333 13.333 39.666 20 60.999 20c27.333 0 50.5 -9.5 69.5 -28.5s28.5 -42.167 28.5 -69.5c0 -29.333 -11.667 -54.666 -35 -75.999c-32 -29.333 -76 -56.166 -132 -80.499s-121 -36.5 -195 -36.5c-142 0 -251.667 41.333 -329 124s-116 206 -116 370z" />
    <glyph glyph-name="d" unicode="d" horiz-adv-x="1013" 
d="M59 465c0 163.333 36.3311 286.333 108.998 369s175 124 307 124c46 0 89.5 -8 130.5 -24s72.5 -35 94.5 -57v471c0 30.667 10.833 56.667 32.5 78s47.834 32 78.501 32s56.834 -10.667 78.501 -32s32.5 -47.333 32.5 -78v-965c0 -132 -38.667 -233.333 -116 -304
s-180 -106 -308 -106c-140.667 0 -249 41 -325 123s-114 205 -114 369zM278.998 465c0 -100 18.6719 -175.5 56.0049 -226.5s91.666 -76.5 162.999 -76.5c60.667 0 109.5 19.5 146.5 58.5s55.5 93.167 55.5 162.5v283c-2 2.66699 -5 6.33398 -9 11.001s-12.833 13 -26.5 25
s-27.834 22.667 -42.501 32s-33.334 17.666 -56.001 24.999s-45.334 11 -68.001 11c-70.667 0 -124.834 -25.667 -162.501 -77s-56.5 -127.333 -56.5 -228z" />
    <glyph glyph-name="e" unicode="e" horiz-adv-x="964" 
d="M61 469c0 156 38.8311 276.504 116.498 361.504s186.5 127.5 326.5 127.5c66 0 124.333 -9.83301 175 -29.5s90.334 -43.834 119.001 -72.501s52 -62.334 70 -101.001s30 -74.334 36 -107.001s9 -65 9 -97c0 -20.667 -0.333008 -36.5 -1 -47.5
s-3.16699 -25.167 -7.5 -42.5s-10.5 -30.5 -18.5 -39.5s-20.333 -17 -37 -24s-37 -10.5 -61 -10.5h-505c0 -70.667 22 -124.167 66 -160.5s101.667 -54.5 173 -54.5c72 0 139.667 21.333 203 64c24 14.667 46 22 66 22c26.667 0 49.334 -9.33301 68.001 -28
s28 -41.334 28 -68.001c0 -30 -11.667 -55.333 -35 -76c-16 -15.333 -35.833 -30.333 -59.5 -45s-60.5 -29.667 -110.5 -45s-103.333 -23 -160 -23c-146.667 0 -260.167 41 -340.5 123s-120.5 206.333 -120.5 373zM288.998 571.004h405.001
c0 55.333 -16.167 102.333 -48.5 141s-79.5 58 -141.5 58c-61.333 0 -111.333 -17.167 -150 -51.5s-60.334 -83.5 -65.001 -147.5z" />
    <glyph glyph-name="f" unicode="f" horiz-adv-x="659" 
d="M33 838c0 25.333 9.00098 47.001 27.001 65.001s39.667 27 65 27h43v110c0 65.333 13.833 124.833 41.5 178.5s71.667 97.834 132 132.501s132.833 52 217.5 52c26.667 0 49.334 -9.33301 68.001 -28s28 -41.334 28 -68.001s-9.33301 -49.5 -28 -68.5
s-41.334 -28.5 -68.001 -28.5c-54.667 0 -96.667 -13.833 -126 -41.5s-44 -64.834 -44 -111.501v-127h137c25.333 0 47 -9 65 -27s27 -39.667 27 -65s-9 -47.166 -27 -65.499s-39.667 -27.5 -65 -27.5h-137v-655c0 -30 -10.667 -55.167 -32 -75.5s-47.333 -30.5 -78 -30.5
c-32.667 0 -59.334 10 -80.001 30s-31 45.333 -31 76v655h-43c-25.333 0 -47 9.16699 -65 27.5s-27 40.166 -27 65.499z" />
    <glyph glyph-name="g" unicode="g" horiz-adv-x="1017" 
d="M51 -109c0 82.667 41.0029 149.668 123.003 201.001c-64 40 -96 94.667 -96 164c0 54.667 23 101 69 139c-43.333 56 -65 127 -65 213c0 108.667 35.5 194.167 106.5 256.5s169.167 93.5 294.5 93.5c77.333 0 143 -11.333 197 -34c50 62.667 118.333 94 205 94
c25.333 0 47 -9 65 -27s27 -39.667 27 -65s-9 -47 -27 -65s-39.667 -27 -65 -27c-26.667 0 -47.334 -6.33301 -62.001 -19c41.333 -55.333 62 -124.333 62 -207c0 -108.667 -35.5 -194.167 -106.5 -256.5s-169.5 -93.5 -295.5 -93.5c-70 0 -134 11 -192 33
c-12.667 -10.667 -19 -25 -19 -43c0 -46.667 40.333 -70 121 -70h191c54.667 0 104.334 -5 149.001 -15s84.667 -25.667 120 -47s62.833 -50.5 82.5 -87.5s29.5 -80.5 29.5 -130.5c0 -100.667 -42.167 -177.5 -126.5 -230.5s-194.5 -79.5 -330.5 -79.5
c-47.333 0 -91.833 2.66699 -133.5 8s-82.834 15.166 -123.501 29.499s-75.334 32.666 -104.001 54.999s-51.834 51.333 -69.501 87s-26.5 76.834 -26.5 123.501zM272.003 -108.999c0 -76 79.332 -114 237.999 -114c66.667 0 122.167 10.167 166.5 30.5s66.5 50.5 66.5 90.5
c0 32 -14.667 56.667 -44 74s-67.666 26 -114.999 26h-193c-37.333 -8 -66.5 -22 -87.5 -42s-31.5 -41.667 -31.5 -65zM303.002 608.001c0 -47.333 16 -86.5 48 -117.5s76 -46.5 132 -46.5s100.167 15.5 132.5 46.5s48.5 70.167 48.5 117.5s-16.167 86.5 -48.5 117.5
s-76.5 46.5 -132.5 46.5s-100 -15.5 -132 -46.5s-48 -70.167 -48 -117.5z" />
    <glyph glyph-name="h" unicode="h" horiz-adv-x="1021" 
d="M102 90l-0.00195312 1258c0 30.667 10.833 56.667 32.5 78s47.834 32 78.501 32s56.834 -10.667 78.501 -32s32.5 -47.333 32.5 -78v-512c22.667 34 56.167 62.833 100.5 86.5s98.166 35.5 161.499 35.5c229.333 0 344 -118.667 344 -356v-512
c0 -30 -10.833 -55.167 -32.5 -75.5s-47.834 -30.5 -78.501 -30.5c-32.667 0 -59.167 10 -79.5 30s-30.5 45.333 -30.5 76v471c0 131.333 -60.333 197 -181 197c-136 0 -204 -70.333 -204 -211v-457c0 -30.667 -10.667 -56 -32 -76s-47.666 -30 -78.999 -30
s-57.666 10 -78.999 30s-32 45.333 -32 76z" />
    <glyph glyph-name="i" unicode="i" horiz-adv-x="436" 
d="M92 1186c0 90 43.667 135.001 131 135.001c88.667 0 133 -45 133 -135c0 -40.667 -11.5 -72.334 -34.5 -95.001s-55.833 -34 -98.5 -34c-42 0 -74.333 11.5 -97 34.5s-34 54.5 -34 94.5zM113 94.001v742c0 30.667 10.667 56.667 32 78s47.333 32 78 32
s56.834 -10.667 78.501 -32s32.5 -47.333 32.5 -78v-742c0 -30.667 -10.833 -56.667 -32.5 -78s-47.834 -32 -78.501 -32s-56.667 10.667 -78 32s-32 47.333 -32 78z" />
    <glyph glyph-name="j" unicode="j" horiz-adv-x="436" 
d="M-100 -238c0 27.333 10.165 51.334 30.498 72.001s44.166 31 71.499 31c32.667 0 59.334 11.5 80.001 34.5s31 51.167 31 84.5v852c0 30.667 10.667 56.667 32 78s47.333 32 78 32s56.834 -10.667 78.501 -32s32.5 -47.333 32.5 -78v-852c0 -92 -31.333 -169 -94 -231
s-142 -93 -238 -93c-27.333 0 -51.166 10.167 -71.499 30.5s-30.5 44.166 -30.5 71.499zM91.998 1186c0 90 43.667 135.001 131 135.001c88.667 0 133 -45 133 -135c0 -40.667 -11.5 -72.334 -34.5 -95.001s-55.833 -34 -98.5 -34c-42 0 -74.333 11.5 -97 34.5
s-34 54.5 -34 94.5z" />
    <glyph glyph-name="k" unicode="k" horiz-adv-x="927" 
d="M113 90l0.000976562 1262c0 30.667 10.5 56 31.5 76s47.167 30 78.5 30c30.667 0 56.834 -10.167 78.501 -30.5s32.5 -45.5 32.5 -75.5v-723l371 291c23.333 17.333 47 26 71 26c29.333 0 54.5 -10.333 75.5 -31s31.5 -45.667 31.5 -75c0 -36 -13.667 -64 -41 -84
l-269 -205l301 -395c15.333 -22 23 -44 23 -66c0 -29.333 -10.333 -54.333 -31 -75s-45.667 -31 -75 -31c-36.667 0 -65.334 14.333 -86.001 43l-306 409l-65 -51v-295c0 -30 -10.833 -55.167 -32.5 -75.5s-47.834 -30.5 -78.501 -30.5c-31.333 0 -57.5 10 -78.5 30
s-31.5 45.333 -31.5 76z" />
    <glyph glyph-name="l" unicode="l" horiz-adv-x="497" 
d="M113 246l-0.00195312 1102c0 30.667 10.667 56.667 32 78s47.333 32 78 32s56.834 -10.667 78.501 -32s32.5 -47.333 32.5 -78v-1123c0 -11.333 4.33301 -20.333 13 -27s17.334 -10 26.001 -10c28.667 0 52.834 -9.83301 72.501 -29.5s29.5 -43.834 29.5 -72.501
s-9.83301 -52.834 -29.5 -72.501s-43.834 -29.5 -72.501 -29.5c-81.333 0 -145 22.5 -191 67.5s-69 109.833 -69 194.5z" />
    <glyph glyph-name="m" unicode="m" horiz-adv-x="1628" 
d="M102 90l-0.00195312 745.999c0 30.667 10.833 56.667 32.5 78s47.834 32 78.501 32s56.834 -10.667 78.501 -32s32.5 -47.333 32.5 -78c22.667 34 56.167 62.833 100.5 86.5s98.166 35.5 161.499 35.5c79.333 0 142.833 -11.333 190.5 -34s85.167 -55.667 112.5 -99
c34 44.667 74.333 78 121 100s104 33 172 33c54 0 101.833 -6.66699 143.5 -20s75.5 -31.166 101.5 -53.499s47.333 -49.166 64 -80.499s28.334 -63.333 35.001 -96s10 -68 10 -106v-512c0 -30 -10.833 -55.167 -32.5 -75.5s-47.834 -30.5 -78.501 -30.5
c-32.667 0 -59.167 10 -79.5 30s-30.5 45.333 -30.5 76v471c0 131.333 -60 197 -180 197c-70.667 0 -122.5 -17.333 -155.5 -52s-49.5 -82.334 -49.5 -143.001v-473c0 -30 -10.833 -55.167 -32.5 -75.5s-47.834 -30.5 -78.501 -30.5c-32.667 0 -59.167 10 -79.5 30
s-30.5 45.333 -30.5 76v471c0 131.333 -60.333 197 -181 197c-136 0 -204 -70.333 -204 -211v-457c0 -30.667 -10.667 -56 -32 -76s-47.666 -30 -78.999 -30s-57.666 10 -78.999 30s-32 45.333 -32 76z" />
    <glyph glyph-name="n" unicode="n" horiz-adv-x="1021" 
d="M102 90l-0.00195312 746c0 30.667 10.833 56.667 32.5 78s47.834 32 78.501 32s56.834 -10.667 78.501 -32s32.5 -47.333 32.5 -78c22.667 34 56.167 62.833 100.5 86.5s98.166 35.5 161.499 35.5c229.333 0 344 -118.667 344 -356v-512
c0 -30 -10.833 -55.167 -32.5 -75.5s-47.834 -30.5 -78.501 -30.5c-32.667 0 -59.167 10 -79.5 30s-30.5 45.333 -30.5 76v471c0 131.333 -60.333 197 -181 197c-136 0 -204 -70.333 -204 -211v-457c0 -30.667 -10.667 -56 -32 -76s-47.666 -30 -78.999 -30
s-57.666 10 -78.999 30s-32 45.333 -32 76z" />
    <glyph glyph-name="o" unicode="o" horiz-adv-x="1015" 
d="M59 465c0 164 39.333 287.167 118 369.5s189 123.5 331 123.5s252.167 -41.167 330.5 -123.5s117.5 -205.5 117.5 -369.5c0 -163.333 -39.333 -286.166 -118 -368.499s-188.667 -123.5 -330 -123.5s-251.5 41.167 -330.5 123.5s-118.5 205.166 -118.5 368.499zM283 465
c0 -100 19 -175.5 57 -226.5s94 -76.5 168 -76.5s130 25.5 168 76.5s57 126.5 57 226.5c0 203.333 -75 305 -225 305s-225 -101.667 -225 -305z" />
    <glyph glyph-name="p" unicode="p" horiz-adv-x="1052" 
d="M113 -301l0.00195312 1137c0 30.667 10.667 56.667 32 78s47.333 32 78 32s56.834 -10.667 78.501 -32s32.5 -47.333 32.5 -78c18 30 49.5 57.833 94.5 83.5s93.833 38.5 146.5 38.5c136 0 239.333 -40.667 310 -122s106 -204.333 106 -369s-35.667 -288.167 -107 -370.5
s-174.333 -123.5 -309 -123.5c-50.667 0 -97.334 7.83301 -140.001 23.5s-76.334 37.167 -101.001 64.5v-362c0 -30.667 -10.833 -56.834 -32.5 -78.501s-47.834 -32.5 -78.501 -32.5s-56.667 10.833 -78 32.5s-32 47.834 -32 78.501zM328.002 465
c0 -100 18.5 -175.5 55.5 -226.5s91.5 -76.5 163.5 -76.5s126.5 25.5 163.5 76.5s55.5 126.5 55.5 226.5c0 203.333 -73 305 -219 305s-219 -101.667 -219 -305z" />
    <glyph glyph-name="q" unicode="q" horiz-adv-x="1011" 
d="M61 467c0 164 38.0029 286.833 114.003 368.5s184.333 122.5 325 122.5c128 0 230.667 -35.167 308 -105.5s116 -171.5 116 -303.5v-850c0 -30.667 -10.833 -56.834 -32.5 -78.501s-47.834 -32.5 -78.501 -32.5s-56.834 10.833 -78.501 32.5s-32.5 47.834 -32.5 78.501
v356c-22.667 -22.667 -54.334 -42 -95.001 -58s-84 -24 -130 -24c-132 0 -234.333 41.5 -307 124.5s-109 206.167 -109 369.5zM281.003 467c0 -100.667 18.8311 -176.665 56.498 -227.998s91.834 -77 162.501 -77c22.667 0 45.167 3.5 67.5 10.5s41.333 15.667 57 26
s29.5 20.666 41.5 30.999s21 19.166 27 26.499l9 10v283c0 69.333 -18.5 123.5 -55.5 162.5s-85.833 58.5 -146.5 58.5c-71.333 0 -125.666 -25.5 -162.999 -76.5s-56 -126.5 -56 -226.5z" />
    <glyph glyph-name="r" unicode="r" horiz-adv-x="663" 
d="M102 94v741.999c0 30.667 10.833 56.667 32.5 78s47.834 32 78.501 32s56.834 -10.667 78.501 -32s32.5 -47.333 32.5 -78v-11c19.333 39.333 50 71 92 95s85 36 129 36c28.667 0 53.167 -10.167 73.5 -30.5s30.5 -44.833 30.5 -73.5s-10.167 -53.167 -30.5 -73.5
s-44.833 -30.5 -73.5 -30.5c-69.333 0 -123.5 -20.667 -162.5 -62s-58.5 -96.666 -58.5 -165.999v-426c0 -30.667 -10.833 -56.667 -32.5 -78s-47.834 -32 -78.501 -32s-56.834 10.667 -78.501 32s-32.5 47.333 -32.5 78z" />
    <glyph glyph-name="s" unicode="s" horiz-adv-x="870" 
d="M53 184c0 26.667 9.83203 49.8271 29.499 69.4941s42.834 29.5 69.501 29.5c20.667 0 41.667 -8.33301 63 -25c68.667 -56 143.667 -84 225 -84c101.333 0 152 27.333 152 82c0 19.333 -7.16699 36.5 -21.5 51.5s-33.333 27 -57 36s-50.5 18.667 -80.5 29
s-60.667 20 -92 29s-62 21.667 -92 38s-56.833 34.5 -80.5 54.5s-42.667 46.333 -57 79s-21.5 69.667 -21.5 111c0 88 32.167 155.667 96.5 203s146.166 71 245.499 71c70.667 0 136.334 -12 197.001 -36s105.667 -54.333 135 -91c13.333 -18 20 -38.333 20 -61
c0 -26.667 -9.66699 -49.667 -29 -69s-42.333 -29 -69 -29c-20 0 -43.333 9.33301 -70 28c-60 44 -121.333 66 -184 66c-38.667 0 -68.5 -6.66699 -89.5 -20s-31.5 -32.666 -31.5 -57.999c0 -20 9.33301 -37.667 28 -53s42.667 -28.166 72 -38.499s62 -20.666 98 -30.999
s72 -23.166 108 -38.499s68.667 -33.333 98 -54s53.333 -48.5 72 -83.5s28 -75.5 28 -121.5c0 -93.333 -35 -165.166 -105 -215.499s-160 -75.5 -270 -75.5c-80.667 0 -153.667 14.833 -219 44.5s-113 62.834 -143 99.501c-16.667 20.667 -25 41.667 -25 63z" />
    <glyph glyph-name="t" unicode="t" horiz-adv-x="626" 
d="M35 838c0 25.333 9.00098 47.002 27.001 65.002s39.667 27 65 27h47v172c0 29.333 10.833 54.666 32.5 75.999s47.167 32 76.5 32s54.666 -10.667 75.999 -32s32 -46.666 32 -75.999v-172h92c25.333 0 47 -9 65 -27s27 -39.667 27 -65s-9 -47.166 -27 -65.499
s-39.667 -27.5 -65 -27.5h-92v-495c0 -22 8 -39.833 24 -53.5s34 -20.5 54 -20.5c26.667 0 49.334 -9.33301 68.001 -28s28 -41.334 28 -68.001s-9.33301 -49.334 -28 -68.001s-41.334 -28 -68.001 -28c-90 0 -161.667 25.833 -215 77.5s-80 118.5 -80 200.5v483h-47
c-25.333 0 -47 9.16699 -65 27.5s-27 40.166 -27 65.499z" />
    <glyph glyph-name="u" unicode="u" horiz-adv-x="993" 
d="M92 358l-0.00195312 478.004c0 30.667 10.833 56.667 32.5 78s47.834 32 78.501 32s56.667 -10.667 78 -32s32 -47.333 32 -78v-478c0 -55.333 13.5 -99.833 40.5 -133.5s75.167 -50.5 144.5 -50.5c121.333 0 182 61.333 182 184v478c0 30.667 10.833 56.667 32.5 78
s47.834 32 78.501 32s56.667 -10.667 78 -32s32 -47.333 32 -78v-478c0 -54.667 -5.83301 -103.334 -17.5 -146.001s-31.667 -82.834 -60 -120.501s-70 -66.834 -125 -87.501s-121.833 -31 -200.5 -31c-64 0 -120.167 7 -168.5 21s-87.333 32.667 -117 56s-53.667 52 -72 86
s-31 68.667 -38 104s-10.5 74.666 -10.5 117.999z" />
    <glyph glyph-name="v" unicode="v" horiz-adv-x="925" 
d="M25 836c0 30.667 10.6689 56.667 32.002 78s47.333 32 78 32c27.333 0 49.666 -7.16699 66.999 -21.5s29.333 -30.166 36 -47.499l225 -570l225 570c6.66699 17.333 18.667 33.166 36 47.499s39.666 21.5 66.999 21.5c30.667 0 56.667 -10.667 78 -32s32 -47.333 32 -78
c0 -15.333 -2.66699 -29.666 -8 -42.999l-328 -742c-9.33301 -20.667 -22.833 -37 -40.5 -49s-38.167 -18 -61.5 -18s-44 6 -62 18s-31.667 28.333 -41 49l-327 742c-5.33301 13.333 -8 27.666 -8 42.999z" />
    <glyph glyph-name="w" unicode="w" horiz-adv-x="1302" 
d="M25 836c0 30.667 10.6719 56.665 32.0049 77.998s47.333 32 78 32c24 0 45.5 -6.5 64.5 -19.5s32.5 -30.5 40.5 -52.5l170 -503l137 495c6 21.333 18.167 40 36.5 56s41.5 24 69.5 24c26 0 48.667 -7.5 68 -22.5s31.666 -32.167 36.999 -51.5l137 -501l168 503
c8 22.667 21.5 40.334 40.5 53.001s40.833 19 65.5 19c31.333 0 57.666 -10 78.999 -30s32 -45.333 32 -76c0 -13.333 -3.33301 -27.666 -10 -42.999l-281 -744c-16.667 -46 -50.667 -69 -102 -69c-24.667 0 -46.834 7.16699 -66.501 21.5s-33.167 32.833 -40.5 55.5
l-127 449l-127 -447c-6.66699 -23.333 -19.834 -42.333 -39.501 -57s-41.834 -22 -66.501 -22c-24 0 -45.5 6.66699 -64.5 20s-32.5 30.333 -40.5 51l-280 731c-6.66699 15.333 -10 32 -10 50z" />
    <glyph glyph-name="x" unicode="x" horiz-adv-x="864" 
d="M33 94c0 23.333 7.33398 46 22.001 68l248 311l-240 295c-14.667 21.333 -22 44 -22 68c0 30.667 10.833 56.667 32.5 78s47.834 32 78.501 32c37.333 0 66.666 -14.333 87.999 -43l192 -264l193 264c21.333 28.667 50.666 43 87.999 43c30.667 0 56.667 -10.667 78 -32
s32 -47.333 32 -78c0 -24 -7.33301 -46.667 -22 -68l-240 -295l248 -311c14.667 -22 22 -44.667 22 -68c0 -30.667 -10.667 -56.667 -32 -78s-47.333 -32 -78 -32c-38.667 0 -68 14.333 -88 43l-201 282l-201 -282c-20 -28.667 -49.333 -43 -88 -43
c-30.667 0 -56.667 10.667 -78 32s-32 47.333 -32 78z" />
    <glyph glyph-name="y" unicode="y" horiz-adv-x="925" 
d="M-18 -309c0 29.333 10.1689 53.666 30.502 72.999s45.5 29 75.5 29c60.667 0 109.667 21.833 147 65.5s75 112.834 113 207.501l-315 727c-5.33301 13.333 -8 27.666 -8 42.999c0 30.667 10.667 56.667 32 78s47.333 32 78 32c27.333 0 49.666 -7.16699 66.999 -21.5
s29.333 -30.166 36 -47.499l225 -570l225 570c6.66699 17.333 18.667 33.166 36 47.499s39.666 21.5 66.999 21.5c30.667 0 56.667 -10.667 78 -32s32 -47.333 32 -78c0 -15.333 -2.66699 -29.666 -8 -42.999l-381 -861c-102.667 -229.333 -244 -344 -424 -344
c-30 0 -55.167 9.83301 -75.5 29.5s-30.5 44.167 -30.5 73.5z" />
    <glyph glyph-name="z" unicode="z" horiz-adv-x="837" 
d="M35 94c0 22 7.33301 42.6689 22 62.002l441 589h-346c-25.333 0 -47.166 9.16699 -65.499 27.5s-27.5 40.166 -27.5 65.499s9.16699 47 27.5 65s40.166 27 65.499 27h526c26.667 0 49.667 -9.83301 69 -29.5s29 -42.834 29 -69.501c0 -22.667 -7.33301 -43.667 -22 -63
l-432 -580h372c25.333 0 47.333 -9.33301 66 -28s28 -40.667 28 -66s-9.33301 -47.333 -28 -66s-40.667 -28 -66 -28h-565c-25.333 -0 -47.333 9.33301 -66 28s-28 40.667 -28 66z" />
    <glyph glyph-name="braceleft" unicode="{" horiz-adv-x="733" 
d="M61 606c0 23.333 8.50195 43.499 25.502 60.499s37.167 25.5 60.5 25.5c46 0 79.833 8.66699 101.5 26s32.5 51 32.5 101c0 43.333 -5.5 110 -16.5 200s-16.5 161.333 -16.5 214c0 75.333 26.833 140.5 80.5 195.5s133.167 82.5 238.5 82.5
c27.333 0 51 -9.83301 71 -29.5s30 -43.167 30 -70.5s-10 -50.833 -30 -70.5s-43.667 -29.5 -71 -29.5c-30.667 0 -54.334 -8.66699 -71.001 -26s-25 -41 -25 -71c0 -44 3 -102.167 9 -174.5s9 -125.833 9 -160.5c0 -76 -11 -135.167 -33 -177.5
s-59.333 -74.166 -112 -95.499c52.667 -21.333 90 -53 112 -95s33 -101 33 -177c0 -34.667 -3 -88.334 -9 -161.001s-9 -131 -9 -175c0 -30 8.16699 -53.5 24.5 -70.5s40.166 -25.5 71.499 -25.5c27.333 0 51 -10 71 -30s30 -43.667 30 -71s-10 -50.833 -30 -70.5
s-43.667 -29.5 -71 -29.5c-54.667 0 -103 8.16699 -145 24.5s-75.333 38 -100 65s-43.167 56.5 -55.5 88.5s-18.5 65.667 -18.5 101c0 52.667 5.5 123.834 16.5 213.501s16.5 156.167 16.5 199.5c0 50 -10.833 83.667 -32.5 101s-55.5 26 -101.5 26
c-23.333 0 -43.5 8.5 -60.5 25.5s-25.5 37.167 -25.5 60.5z" />
    <glyph glyph-name="bar" unicode="|" horiz-adv-x="450" 
d="M113 -215v1757c0 30.667 11 57.167 33 79.5s48.333 33.5 79 33.5s57.167 -11.167 79.5 -33.5s33.5 -48.833 33.5 -79.5v-1757c0 -30.667 -11.167 -57.167 -33.5 -79.5s-48.833 -33.5 -79.5 -33.5s-57 11.167 -79 33.5s-33 48.833 -33 79.5z" />
    <glyph glyph-name="braceright" unicode="}" horiz-adv-x="733" 
d="M66 -199c0 27.333 9.83496 51.001 29.502 71.001s43.167 30 70.5 30c31.333 0 55.166 8.5 71.499 25.5s24.5 40.5 24.5 70.5c0 44 -3 102.333 -9 175s-9 126.334 -9 161.001c0 76 11 135 33 177s59.333 73.667 112 95c-52.667 21.333 -90 53.166 -112 95.499
s-33 101.5 -33 177.5c0 34.667 3 88.167 9 160.5s9 130.5 9 174.5c0 30 -8.33301 53.667 -25 71s-40.334 26 -71.001 26c-27.333 0 -50.833 9.83301 -70.5 29.5s-29.5 43.167 -29.5 70.5s9.83301 50.833 29.5 70.5s43.167 29.5 70.5 29.5
c105.333 0 184.833 -27.5 238.5 -82.5s80.5 -120.167 80.5 -195.5c0 -52.667 -5.33301 -124 -16 -214s-16 -156.667 -16 -200c0 -50 10.667 -83.667 32 -101s55 -26 101 -26c23.333 0 43.5 -8.5 60.5 -25.5s25.5 -37.167 25.5 -60.5s-8.5 -43.5 -25.5 -60.5
s-37.167 -25.5 -60.5 -25.5c-46 0 -79.667 -8.66699 -101 -26s-32 -51 -32 -101c0 -43.333 5.33301 -109.833 16 -199.5s16 -160.834 16 -213.501c0 -35.333 -6.16699 -69 -18.5 -101s-30.833 -61.5 -55.5 -88.5s-58 -48.667 -100 -65s-90.333 -24.5 -145 -24.5
c-27.333 0 -50.833 9.83301 -70.5 29.5s-29.5 43.167 -29.5 70.5z" />
    <glyph glyph-name="asciitilde" unicode="~" horiz-adv-x="958" 
d="M49 565c0 12.667 2.00195 25.001 6.00195 37.001c15.333 46 44.333 84.833 87 116.5s97.667 47.5 165 47.5c40 0 82.167 -10 126.5 -30s85.5 -39.833 123.5 -59.5s69.333 -29.5 94 -29.5c34 0 59.333 16.333 76 49c6.66699 14.667 17.5 27.334 32.5 38.001
s32.833 16 53.5 16c26.667 0 49.334 -9.5 68.001 -28.5s28 -41.833 28 -68.5c0 -12.667 -2 -25 -6 -37c-15.333 -46 -44.333 -84.667 -87 -116s-97.667 -47 -165 -47c-31.333 0 -64.333 6.16699 -99 18.5s-64.167 26.166 -88.5 41.499s-51 29.166 -80 41.499
s-54.5 18.5 -76.5 18.5c-20.667 0 -36.334 -4.33301 -47.001 -13s-20.334 -21.334 -29.001 -38.001c-6.66699 -14.667 -17.5 -27.167 -32.5 -37.5s-32.833 -15.5 -53.5 -15.5c-26.667 0 -49.334 9.33301 -68.001 28s-28 41.334 -28 68.001z" />
    <glyph glyph-name="uni00A0" unicode="&#xa0;" horiz-adv-x="602" 
 />
    <glyph glyph-name="exclamdown" unicode="&#xa1;" horiz-adv-x="434" 
d="M84 825c0 88.667 45 133 135 133c88.667 0 133 -44.333 133 -133c0 -91.333 -44.333 -137 -133 -137c-90 0 -135 45.667 -135 137zM92 -338l37.002 814.999c1.33301 24 9.33301 43 24 57s36.667 21 66 21c27.333 0 48.166 -7.16699 62.499 -21.5
s22.166 -33.166 23.499 -56.499l39 -815c2 -38.667 -8 -67.5 -30 -86.5s-53.667 -28.5 -95 -28.5c-42 0 -74.167 9.5 -96.5 28.5s-32.5 47.833 -30.5 86.5z" />
    <glyph glyph-name="cent" unicode="&#xa2;" horiz-adv-x="923" 
d="M59 467c0 144 30.333 256.662 91 337.995s147.334 130.333 260.001 147v76c0 26.667 9.33301 49.334 28 68.001s40.667 28 66 28c26.667 0 49.334 -9.33301 68.001 -28s28 -41.334 28 -68.001v-80c57.333 -11.333 106 -29.666 146 -54.999s70.667 -50.666 92 -75.999
c14.667 -21.333 22 -42.333 22 -63c0 -27.333 -9.5 -50.666 -28.5 -69.999s-42.167 -29 -69.5 -29c-29.333 0 -54.666 11.667 -75.999 35c-49.333 53.333 -110 80 -182 80c-71.333 0 -126 -26.333 -164 -79s-57 -127.334 -57 -224.001c0 -98.667 19 -174.167 57 -226.5
s92.667 -78.5 164 -78.5c29.333 0 57.833 4.83301 85.5 14.5s48.5 19.167 62.5 28.5s32.333 22.333 55 39c19.333 13.333 39.666 20 60.999 20c27.333 0 50.5 -9.5 69.5 -28.5s28.5 -42.167 28.5 -69.5c0 -29.333 -11.667 -54.666 -35 -75.999
c-62.667 -56 -139.667 -92 -231 -108v-82c0 -26.667 -9.33301 -49.5 -28 -68.5s-41.334 -28.5 -68.001 -28.5c-25.333 0 -47.333 9.5 -66 28.5s-28 41.833 -28 68.5v80c-112.667 16.667 -199.334 65.834 -260.001 147.501s-91 194.834 -91 339.501z" />
    <glyph glyph-name="sterling" unicode="&#xa3;" horiz-adv-x="1200" 
d="M55 639c0 28.667 9.99805 52.834 29.998 72.501s44.333 29.5 73 29.5h30c-46 94.667 -69 179.334 -69 254.001c0 116.667 42.833 214.5 128.5 293.5s196.5 118.5 332.5 118.5c114 0 211.833 -24 293.5 -72s140.834 -114.667 177.501 -200c5.33301 -14 8 -28.333 8 -43
c0 -29.333 -10.833 -54.833 -32.5 -76.5s-47.167 -32.5 -76.5 -32.5c-43.333 0 -76.666 22.667 -99.999 68c-54.667 100.667 -144.667 151 -270 151c-70.667 0 -127.667 -19.5 -171 -58.5s-65 -88.5 -65 -148.5c0 -42.667 6.66699 -83.334 20 -122.001
s32.666 -82.667 57.999 -132h293c28.667 0 52.834 -9.83301 72.501 -29.5s29.5 -43.834 29.5 -72.501s-9.83301 -52.834 -29.5 -72.501s-43.834 -29.5 -72.501 -29.5h-211c6.66699 -30 10 -58 10 -84c0 -45.333 -12.167 -90.166 -36.5 -134.499s-55.833 -81.5 -94.5 -111.5
c47.333 22 93.666 33 138.999 33c39.333 0 88 -10.667 146 -32s102.333 -32 133 -32c64.667 0 109 25.333 133 76c20.667 40.667 54 61 100 61c30.667 0 56.834 -10.667 78.501 -32s32.5 -47.333 32.5 -78c0 -18 -4 -35 -12 -51c-58.667 -122 -166 -183 -322 -183
c-40 0 -98.667 15 -176 45s-137.333 45 -180 45c-33.333 0 -61 -4 -83 -12s-47.667 -22.333 -77 -43c-22.667 -16 -46 -24 -70 -24c-29.333 0 -54.666 10.667 -75.999 32s-32 46.666 -32 75.999c0 33.333 13 61.333 39 84c94 84.667 141 172.667 141 264
c0 32 -5.33301 65.667 -16 101h-123c-28.667 0 -53 9.83301 -73 29.5s-30 43.834 -30 72.501z" />
    <glyph glyph-name="currency" unicode="&#xa4;" horiz-adv-x="958" 
d="M39 313c0 30 11 56 33 78l57 55c-31.333 52 -47 115 -47 189c0 72.667 17.667 136.667 53 192l-61 54c-23.333 20.667 -35 47.334 -35 80.001c0 29.333 10.333 54.333 31 75s45.667 31 75 31c26.667 0 52 -10.333 76 -31l62 -61c54.667 32.667 120 49 196 49
c76.667 0 142.334 -16.333 197.001 -49l61 61c24 20.667 49.333 31 76 31c29.333 0 54.5 -10.333 75.5 -31s31.5 -45.667 31.5 -75c0 -32.667 -11.667 -59.334 -35 -80.001l-62 -54c36 -56.667 54 -120.667 54 -192c0 -72.667 -16 -135.667 -48 -189l58 -55
c22 -22 33 -48 33 -78c0 -29.333 -10.5 -54.333 -31.5 -75s-46.167 -31 -75.5 -31c-26.667 0 -52 10.333 -76 31l-57 57c-56.667 -32.667 -123.667 -49 -201 -49c-76.667 0 -143.334 16.333 -200.001 49l-58 -57c-24 -20.667 -49.333 -31 -76 -31
c-29.333 0 -54.333 10.333 -75 31s-31 45.667 -31 75zM293 635c0 -53.333 17.333 -98.5 52 -135.5s79.334 -55.5 134.001 -55.5s99.5 18.5 134.5 55.5s52.5 82.167 52.5 135.5c0 54 -17.5 99.167 -52.5 135.5s-79.833 54.5 -134.5 54.5s-99.334 -18.167 -134.001 -54.5
s-52 -81.5 -52 -135.5z" />
    <glyph glyph-name="yen" unicode="&#xa5;" horiz-adv-x="1134" 
d="M39 1276c0 33.333 11.5 61.5 34.5 84.5s51.167 34.5 84.5 34.5c42 0 75.333 -18.667 100 -56l309 -485l310 485c22.667 37.333 56 56 100 56c32.667 0 60.667 -11.5 84 -34.5s35 -51.167 35 -84.5c0 -26 -6.33301 -47.333 -19 -64l-350 -522h180
c25.333 0 47.333 -9.33301 66 -28s28 -40.667 28 -66s-9.33301 -47.333 -28 -66s-40.667 -28 -66 -28h-221v-84h221c25.333 0 47.333 -9.33301 66 -28s28 -40.667 28 -66s-9.33301 -47.5 -28 -66.5s-40.667 -28.5 -66 -28.5h-221v-127c0 -32.667 -11.5 -60.5 -34.5 -83.5
s-51.167 -34.5 -84.5 -34.5c-32.667 0 -60.5 11.333 -83.5 34s-34.5 50.667 -34.5 84v127h-222c-25.333 0 -47.333 9.5 -66 28.5s-28 41.167 -28 66.5s9.33301 47.333 28 66s40.667 28 66 28h222v84h-222c-25.333 0 -47.333 9.33301 -66 28s-28 40.667 -28 66
s9.33301 47.333 28 66s40.667 28 66 28h181l-351 522c-12 16 -18 37.333 -18 64z" />
    <glyph glyph-name="brokenbar" unicode="&#xa6;" horiz-adv-x="450" 
d="M113 -215v702c0 30.667 11 57.167 33 79.5s48.333 33.5 79 33.5s57.167 -11.167 79.5 -33.5s33.5 -48.833 33.5 -79.5v-702c0 -30.667 -11.167 -57.167 -33.5 -79.5s-48.833 -33.5 -79.5 -33.5s-57 11.167 -79 33.5s-33 48.833 -33 79.5zM113 842v700
c0 30.667 11 57.167 33 79.5s48.333 33.5 79 33.5s57.167 -11.167 79.5 -33.5s33.5 -48.833 33.5 -79.5v-700c0 -30.667 -11.167 -57.167 -33.5 -79.5s-48.833 -33.5 -79.5 -33.5s-57 11.167 -79 33.5s-33 48.833 -33 79.5z" />
    <glyph glyph-name="section" unicode="&#xa7;" horiz-adv-x="1013" 
d="M47 584c0 93.333 39.666 173 118.999 239c-61.333 66 -92 143.333 -92 232c0 100 38 183.667 114 251s183.333 101 322 101c176 0 317.333 -60.667 424 -182c14.667 -16.667 22 -38.667 22 -66c0 -28.667 -10.167 -53.167 -30.5 -73.5s-44.833 -30.5 -73.5 -30.5
s-54.667 11.667 -78 35c-76 73.333 -164 110 -264 110c-70.667 0 -123.5 -14.167 -158.5 -42.5s-52.5 -62.5 -52.5 -102.5c0 -38.667 12.333 -72.334 37 -101.001s56.667 -52.167 96 -70.5s82.666 -36 129.999 -53s94.666 -36.5 141.999 -58.5s90.666 -47.333 129.999 -76
s71.333 -67.167 96 -115.5s37 -104.5 37 -168.5c0 -94 -39.667 -174 -119 -240c61.333 -66 92 -143 92 -231c0 -100 -38 -183.833 -114 -251.5s-183.333 -101.5 -322 -101.5c-184 0 -324.667 60.333 -422 181c-16.667 19.333 -25 41.666 -25 66.999
c0 28.667 10.333 53.334 31 74.001s45.334 31 74.001 31c30 0 56.667 -11.667 80 -35c74 -74 161.333 -111 262 -111c70.667 0 123.5 14.333 158.5 43s52.5 63 52.5 103c0 38.667 -12.333 72.334 -37 101.001s-56.667 52.167 -96 70.5s-82.666 36 -129.999 53
s-94.666 36.5 -141.999 58.5s-90.666 47.333 -129.999 76s-71.333 67.167 -96 115.5s-37 104.5 -37 168.5zM263.999 584c0 -33.333 11 -63.834 33 -91.501s51.667 -51.167 89 -70.5s74.5 -36 111.5 -50l117.5 -42.5c41.333 -14.333 71.333 -26.5 90 -36.5
c30 34.667 45 74.334 45 119.001c0 33.333 -11.167 63.833 -33.5 91.5s-52 51 -89 70s-74 35.5 -111 49.5l-117.5 42.5c-41.333 14.333 -71.333 26.5 -90 36.5c-30 -34.667 -45 -74 -45 -118z" />
    <glyph glyph-name="dieresis" unicode="&#xa8;" horiz-adv-x="673" 
d="M49 1171c0 72.667 34.333 109 103 109c68 0 102 -36.333 102 -109c0 -69.333 -34 -104 -102 -104c-68.667 0 -103 34.667 -103 104zM420 1171c0 72.667 34 109 102 109c68.667 0 103 -36.333 103 -109c0 -69.333 -34.333 -104 -103 -104c-68 0 -102 34.667 -102 104z" />
    <glyph glyph-name="copyright" unicode="&#xa9;" horiz-adv-x="1619" 
d="M98 688c0 238.667 61.667 418.168 185 538.501s299.333 180.5 528 180.5c231.333 0 407.666 -59.833 528.999 -179.5s182 -299.5 182 -539.5c0 -238.667 -60.667 -417.834 -182 -537.501s-297.666 -179.5 -528.999 -179.5c-228.667 0 -404.667 60 -528 180
s-185 299 -185 537zM254 688.001c0 -194.667 46.833 -338.832 140.5 -432.499s232.5 -140.5 416.5 -140.5c185.333 0 324.166 46.667 416.499 140s138.5 237.666 138.5 432.999c0 196 -46.167 341 -138.5 435s-231.166 141 -416.499 141c-371.333 0 -557 -192 -557 -576z
M481 690.003c0 126.667 29.498 220.832 88.498 282.499s140.833 92.5 245.5 92.5c64.667 0 119.5 -12.5 164.5 -37.5s76.833 -53.5 95.5 -85.5c5.33301 -8.66699 8 -19.667 8 -33c0 -16.667 -5.66699 -30.667 -17 -42s-25.333 -17 -42 -17c-18 0 -33 6.66699 -45 20
c-22.667 24.667 -46 42.834 -70 54.501s-55.333 17.5 -94 17.5c-64 0 -113.167 -18.333 -147.5 -55s-51.5 -102.334 -51.5 -197.001c0 -92.667 17.333 -157.5 52 -194.5s83.667 -55.5 147 -55.5c39.333 0 72.5 5 99.5 15s53.167 26.333 78.5 49
c10.667 10.667 24.334 16 41.001 16s30.834 -5.66699 42.501 -17s17.5 -25.333 17.5 -42c0 -11.333 -3.66699 -22.333 -11 -33c-21.333 -31.333 -56.5 -57.666 -105.5 -78.999s-103.167 -32 -162.5 -32c-104.667 0 -186.5 30.5 -245.5 91.5s-88.5 154.833 -88.5 281.5z" />
    <glyph glyph-name="ordfeminine" unicode="&#xaa;" horiz-adv-x="729" 
d="M63 565c0 20.667 7.16699 38.167 21.5 52.5s31.833 21.5 52.5 21.5h453c20.667 0 38.167 -7.16699 52.5 -21.5s21.5 -31.833 21.5 -52.5s-7.16699 -38 -21.5 -52s-31.833 -21 -52.5 -21h-453c-20.667 0 -38.167 7 -52.5 21s-21.5 31.333 -21.5 52zM82 948
c0 62 21.001 110.333 63.001 145s94.667 52 158 52h189v24c0 31.333 -10.833 56 -32.5 74s-52.5 27 -92.5 27c-46.667 0 -93.334 -18.667 -140.001 -56c-12 -8 -25 -12 -39 -12c-18.667 0 -34.5 6.66699 -47.5 20s-19.5 29.333 -19.5 48c0 17.333 6 33 18 47
c51.333 60 127.333 90 228 90c86.667 0 154.334 -20.167 203.001 -60.5s73 -97.166 73 -170.499v-353c0 -20.667 -7.5 -38.334 -22.5 -53.001s-32.833 -22 -53.5 -22c-20 0 -37.5 7.5 -52.5 22.5s-22.5 32.5 -22.5 52.5c-37.333 -56 -97 -84 -179 -84
c-68.667 0 -124.334 19.167 -167.001 57.5s-64 88.833 -64 151.5zM238.001 948c0 -54.667 38.001 -81.998 114.001 -81.998c38.667 0 71.667 11.167 99 33.5s41 52.166 41 89.499v37h-158c-30.667 0 -54.334 -6.83301 -71.001 -20.5s-25 -32.834 -25 -57.501z" />
    <glyph glyph-name="guillemotleft" unicode="&#xab;" horiz-adv-x="1067" 
d="M94 434c0 19.333 7.66602 37.668 22.999 55.001l315 363c18.667 20.667 39.334 31 62.001 31c21.333 0 39.833 -8 55.5 -24s23.5 -34.667 23.5 -56c0 -20.667 -6.66699 -37.667 -20 -51l-289 -318l289 -317c13.333 -13.333 20 -30.333 20 -51
c0 -21.333 -7.83301 -40 -23.5 -56s-34.167 -24 -55.5 -24c-23.333 0 -44 10 -62 30l-315 363c-15.333 17.333 -23 35.666 -23 54.999zM493.999 434.002c0 20 7.33203 38.333 21.999 55l315 363c18.667 20.667 39.334 31 62.001 31c21.333 0 40 -8 56 -24s24 -34.667 24 -56
c0 -20 -7 -37 -21 -51l-288 -318l288 -317c14 -14 21 -31 21 -51c0 -21.333 -8 -40 -24 -56s-34.667 -24 -56 -24c-23.333 0 -44 10 -62 30l-315 363c-14.667 16.667 -22 35 -22 55z" />
    <glyph glyph-name="logicalnot" unicode="&#xac;" horiz-adv-x="1163" 
d="M68 578c0 26.667 9.66602 49.666 28.999 68.999s42.333 29 69 29h827c27.333 0 51.333 -10.333 72 -31s31 -44.667 31 -72v-487c0 -27.333 -10.333 -51.166 -31 -71.499s-44.667 -30.5 -72 -30.5s-51.166 10.167 -71.499 30.5s-30.5 44.166 -30.5 71.499v393h-725
c-26.667 0 -49.667 9.83301 -69 29.5s-29 42.834 -29 69.501z" />
    <glyph glyph-name="uni00AD" unicode="&#xad;" horiz-adv-x="774" 
d="M88 516c0 25.333 9.33301 47.333 28 66s40.667 28 66 28h410c25.333 0 47.333 -9.33301 66 -28s28 -40.667 28 -66s-9.33301 -47.333 -28 -66s-40.667 -28 -66 -28h-410c-25.333 0 -47.333 9.33301 -66 28s-28 40.667 -28 66z" />
    <glyph glyph-name="registered" unicode="&#xae;" horiz-adv-x="802" 
d="M82 1096c0 104 26.333 181.833 79 233.5s126.667 77.5 222 77.5c98.667 0 174.167 -25.667 226.5 -77s78.5 -129.333 78.5 -234s-26.333 -183.167 -79 -235.5s-128 -78.5 -226 -78.5c-95.333 0 -169.333 26.333 -222 79s-79 131 -79 235zM152 1096
c0 -169.333 77.667 -254 233 -254s233 84.667 233 254s-77.667 254 -233 254c-78 0 -136.333 -20.333 -175 -61s-58 -105 -58 -193zM266 965l0.000976562 264c0 6.66699 2.66699 12.667 8 18s11.666 8 18.999 8h119c30 0 54.5 -10 73.5 -30s28.5 -43.333 28.5 -70
c0 -30 -7.83301 -54.167 -23.5 -72.5s-35.167 -27.5 -58.5 -27.5l66 -74c4 -5.33301 6 -11.333 6 -18c0 -8 -2.83301 -14.833 -8.5 -20.5s-12.5 -8.5 -20.5 -8.5c-10 0 -18 4 -24 12l-80 109h-43v-90c0 -8 -3.16699 -15.167 -9.5 -21.5s-13.5 -9.5 -21.5 -9.5
s-15.167 3.16699 -21.5 9.5s-9.5 13.5 -9.5 21.5zM328.001 1108h75c33.333 0 50 15.667 50 47c0 14 -4.33301 25.333 -13 34s-21 13 -37 13h-75v-94z" />
    <glyph glyph-name="macron" unicode="&#xaf;" horiz-adv-x="813" 
d="M152 1151c0 21.333 7.5 39.666 22.5 54.999s33.167 23 54.5 23h355c21.333 0 39.666 -7.66699 54.999 -23s23 -33.666 23 -54.999s-7.66699 -39.666 -23 -54.999s-33.666 -23 -54.999 -23h-355c-21.333 0 -39.5 7.66699 -54.5 23s-22.5 33.666 -22.5 54.999z" />
    <glyph glyph-name="degree" unicode="&#xb0;" horiz-adv-x="759" 
d="M100 1126c0 78 26.667 144.333 80 199s119.666 82 198.999 82c80.667 0 147.5 -27.333 200.5 -82s79.5 -121 79.5 -199s-26.5 -143.833 -79.5 -197.5s-119.833 -80.5 -200.5 -80.5c-79.333 0 -145.666 27 -198.999 81s-80 119.667 -80 197zM233 1126
c0 -40 13.666 -74.167 40.999 -102.5s62.333 -42.5 105 -42.5c44 0 79.5 14.167 106.5 42.5s40.5 62.5 40.5 102.5c0 40.667 -13.667 75.5 -41 104.5s-62.666 43.5 -105.999 43.5c-42.667 0 -77.667 -14.5 -105 -43.5s-41 -63.833 -41 -104.5z" />
    <glyph glyph-name="plusminus" unicode="&#xb1;" horiz-adv-x="929" 
d="M0 94c0 25.333 9.33301 47.333 28 66s40.667 28 66 28h742c25.333 0 47.333 -9.33301 66 -28s28 -40.667 28 -66s-9.33301 -47.333 -28 -66s-40.667 -28 -66 -28h-742c-25.333 -0 -47.333 9.33301 -66 28s-28 40.667 -28 66zM0 664c0 25.333 9.33301 47.333 28 66
s40.667 28 66 28h273v248c0 26.667 9.66699 49.667 29 69s42.333 29 69 29s49.667 -9.66699 69 -29s29 -42.333 29 -69v-248h273c25.333 0 47.333 -9.33301 66 -28s28 -40.667 28 -66s-9.33301 -47.5 -28 -66.5s-40.667 -28.5 -66 -28.5h-273v-245
c0 -26.667 -9.66699 -49.834 -29 -69.501s-42.333 -29.5 -69 -29.5s-49.667 9.83301 -69 29.5s-29 42.834 -29 69.501v245h-273c-25.333 0 -47.333 9.5 -66 28.5s-28 41.167 -28 66.5z" />
    <glyph glyph-name="uni00B2" unicode="&#xb2;" horiz-adv-x="591" 
d="M55 944c0 40 7.99902 75.6699 23.999 107.003s35.833 56 59.5 74s49.5 34.833 77.5 50.5s53.833 28.834 77.5 39.501s43.5 23.167 59.5 37.5s24 30.166 24 47.499c0 18 -7.5 32.833 -22.5 44.5s-36.833 17.5 -65.5 17.5c-31.333 0 -66.333 -17.667 -105 -53
c-14.667 -12.667 -29.667 -19 -45 -19c-18.667 0 -34.5 6.66699 -47.5 20s-19.5 29.333 -19.5 48c0 16.667 6.66699 33.667 20 51c18 22.667 45.333 42.667 82 60s75 26 115 26c72.667 0 130.667 -18.167 174 -54.5s65 -83.166 65 -140.499
c0 -36.667 -10.667 -69.334 -32 -98.001s-47 -51.334 -77 -68.001s-60.167 -31.834 -90.5 -45.501s-56.166 -27.667 -77.499 -42s-32 -29.5 -32 -45.5h252c18.667 0 34.334 -6.16699 47.001 -18.5s19 -27.833 19 -46.5s-6.33301 -34.334 -19 -47.001
s-28.334 -19 -47.001 -19h-342c-20.667 0 -38.167 7.16699 -52.5 21.5s-21.5 31.833 -21.5 52.5z" />
    <glyph glyph-name="uni00B3" unicode="&#xb3;" horiz-adv-x="565" 
d="M39 997c0 18.667 6.1709 34.3301 18.5039 46.9971s27.166 19 44.499 19c18 0 34 -7 48 -21c19.333 -19.333 38.166 -33.333 56.499 -42s40.166 -13 65.499 -13c32.667 0 57 7.5 73 22.5s24 34.167 24 57.5c0 53.333 -26 80 -78 80h-45
c-16.667 0 -30.834 5.66699 -42.501 17s-17.5 25.333 -17.5 42c0 17.333 8.33301 35.333 25 54l88 92h-172c-18.667 0 -34.334 6.16699 -47.001 18.5s-19 27.833 -19 46.5s6.33301 34.334 19 47.001s28.334 19 47.001 19h289c18.667 0 34.167 -6.33301 46.5 -19
s18.5 -28.334 18.5 -47.001c0 -17.333 -6.66699 -33.666 -20 -48.999l-105 -108c27.333 0 51.833 -6.5 73.5 -19.5s38.5 -29.667 50.5 -50s21 -41.166 27 -62.499s9 -41.666 9 -60.999c0 -64 -20.5 -114.833 -61.5 -152.5s-101.833 -56.5 -182.5 -56.5
c-52 0 -97.333 10.5 -136 31.5s-65.667 41.833 -81 62.5c-10.667 14 -16 29 -16 45z" />
    <glyph glyph-name="acute" unicode="&#xb4;" horiz-adv-x="786" 
d="M220 1101.5c-1.33301 17 3.99902 31.5 15.999 43.5l174 221c14.667 18.667 33.5 27.5 56.5 26.5s44.833 -11.833 65.5 -32.5c22 -20.667 33.333 -42.667 34 -66s-7.66602 -42.333 -24.999 -57l-201 -184c-32 -28.667 -63.333 -28.667 -94 0
c-16 15.333 -24.667 31.5 -26 48.5z" />
    <glyph glyph-name="uni00B5" unicode="&#xb5;" horiz-adv-x="993" 
d="M92 -309v1145c0 30.667 10.833 56.667 32.5 78s47.834 32 78.501 32s56.667 -10.667 78 -32s32 -47.333 32 -78v-478c0 -55.333 13.5 -99.833 40.5 -133.5s75.167 -50.5 144.5 -50.5c121.333 0 182 61.333 182 184v478c0 30.667 10.833 56.667 32.5 78
s47.834 32 78.501 32s56.667 -10.667 78 -32s32 -47.333 32 -78v-478c0 -54.667 -5.83301 -103.334 -17.5 -146.001s-31.667 -82.834 -60 -120.501s-70 -66.834 -125 -87.501s-121.833 -31 -200.5 -31c-82.667 0 -144.334 21.333 -185.001 64v-346
c0 -30.667 -10.667 -56.834 -32 -78.501s-47.333 -32.5 -78 -32.5s-56.834 10.833 -78.501 32.5s-32.5 47.834 -32.5 78.501z" />
    <glyph glyph-name="paragraph" unicode="&#xb6;" horiz-adv-x="1130" 
d="M68 989c0 107.333 37.667 199.004 113 275.004s166.666 114 273.999 114h538c28.667 0 53.334 -10.167 74.001 -30.5s31 -44.833 31 -73.5s-10.333 -53.334 -31 -74.001s-45.334 -31 -74.001 -31h-26v-557c0 -98.667 -9.33301 -186.334 -28 -263.001s-45 -141 -79 -193
s-76.167 -94.833 -126.5 -128.5s-105.5 -58 -165.5 -73s-127 -22.5 -201 -22.5c-38 0 -82.667 4.5 -134 13.5s-87.333 19.5 -108 31.5c-16 8 -28.833 20.167 -38.5 36.5s-14.5 34.5 -14.5 54.5c0 27.333 10.167 51.166 30.5 71.499s44.166 30.5 71.499 30.5
c14.667 0 38.334 -6.16699 71.001 -18.5s60.334 -18.5 83.001 -18.5c61.333 0 105.666 25.5 132.999 76.5s41 125.833 41 224.5v168h-47c-107.333 0 -198.666 37.667 -273.999 113s-113 166.666 -113 273.999zM549 137.004c66 33.333 113.167 81.332 141.5 143.999
s42.5 153.334 42.5 272.001v616h-76v-706c0 -140 -36 -248.667 -108 -326z" />
    <glyph glyph-name="periodcentered" unicode="&#xb7;" horiz-adv-x="460" 
d="M96 614c0 45.333 11.668 79.667 35.001 103s56.666 35 99.999 35c89.333 0 134 -46 134 -138c0 -88.667 -44.667 -133 -134 -133c-90 0 -135 44.333 -135 133z" />
    <glyph glyph-name="cedilla" unicode="&#xb8;" horiz-adv-x="669" 
d="M129 -395c0 14.667 5.16797 27.167 15.501 37.5s22.833 15.5 37.5 15.5c8.66699 0 17 -2 25 -6c40 -19.333 79 -29 117 -29c32.667 0 57.5 6.83301 74.5 20.5s25.5 37.5 25.5 71.5c0 57.333 -37 86 -111 86c-12 0 -27.667 -2 -47 -6s-33.666 -6 -42.999 -6
c-28.667 0 -43 15 -43 45v166h103l-11 -109c18 4.66699 42 7 72 7c58 0 105 -16 141 -48s54 -77 54 -135c0 -132 -74.667 -198 -224 -198c-26.667 0 -55.334 4 -86.001 12s-56.334 19 -77.001 33c-15.333 10 -23 24.333 -23 43z" />
    <glyph glyph-name="uni00B9" unicode="&#xb9;" horiz-adv-x="466" 
d="M49 1309c0 26.667 11.666 47.001 34.999 61.001l170 107c13.333 8 27 12 41 12c20.667 0 38.5 -7.5 53.5 -22.5s22.5 -32.833 22.5 -53.5v-473c0 -20.667 -7.5 -38.5 -22.5 -53.5s-32.833 -22.5 -53.5 -22.5s-38.5 7.5 -53.5 22.5s-22.5 32.833 -22.5 53.5v346l-65 -41
c-10.667 -5.33301 -21.667 -8 -33 -8c-19.333 0 -36.166 7.16699 -50.499 21.5s-21.5 31.166 -21.5 50.499z" />
    <glyph glyph-name="ordmasculine" unicode="&#xba;" horiz-adv-x="741" 
d="M63 565c0 20.667 7.16699 38.167 21.5 52.5s31.833 21.5 52.5 21.5h453c20.667 0 38.167 -7.16699 52.5 -21.5s21.5 -31.833 21.5 -52.5s-7.16699 -38 -21.5 -52s-31.833 -21 -52.5 -21h-453c-20.667 0 -38.167 7 -52.5 21s-21.5 31.333 -21.5 52zM66 1073
c0 110 26.667 193.167 80 249.5s127.666 84.5 222.999 84.5c96 0 170.833 -28.167 224.5 -84.5s80.5 -139.5 80.5 -249.5s-26.833 -193.167 -80.5 -249.5s-128.5 -84.5 -224.5 -84.5c-95.333 0 -169.666 28.167 -222.999 84.5s-80 139.5 -80 249.5zM217 1073
c0 -136.667 50.667 -205 152 -205c102 0 153 68.333 153 205s-51 205 -153 205c-101.333 0 -152 -68.333 -152 -205z" />
    <glyph glyph-name="guillemotright" unicode="&#xbb;" horiz-adv-x="1067" 
d="M94 66c0 20 6.99902 37 20.999 51l288 317l-288 318c-14 14 -21 31 -21 51c0 21.333 8 40 24 56s34.667 24 56 24c22.667 0 43.334 -10.333 62.001 -31l315 -363c14.667 -16.667 22 -35 22 -55s-7.33301 -38.333 -22 -55l-315 -363c-18 -20 -38.667 -30 -62 -30
c-21.333 0 -40 8 -56 24s-24 34.667 -24 56zM493.999 66c0 20.667 6.66602 37.665 19.999 50.998l289 317l-289 318c-13.333 13.333 -20 30.333 -20 51c0 21.333 7.83301 40 23.5 56s34.167 24 55.5 24c22.667 0 43.334 -10.333 62.001 -31l315 -363
c15.333 -17.333 23 -35.666 23 -54.999s-7.66699 -37.666 -23 -54.999l-315 -363c-18 -20 -38.667 -30 -62 -30c-21.333 0 -39.833 8 -55.5 24s-23.5 34.667 -23.5 56z" />
    <glyph glyph-name="onequarter" unicode="&#xbc;" horiz-adv-x="1048" 
d="M41 1221c0 26.667 11.667 47.001 35 61.001l170 107c13.333 8 27 12 41 12c20.667 0 38.334 -7.5 53.001 -22.5s22 -32.833 22 -53.5v-473c0 -20.667 -7.33301 -38.5 -22 -53.5s-32.334 -22.5 -53.001 -22.5s-38.5 7.5 -53.5 22.5s-22.5 32.833 -22.5 53.5v346l-66 -41
c-10.667 -5.33301 -21.334 -8 -32.001 -8c-19.333 0 -36.166 7.16699 -50.499 21.5s-21.5 31.166 -21.5 50.499zM168 70.001c0 10 2 20 6 30l481 1239c5.33301 13.333 14.833 26 28.5 38s30.834 18 51.501 18c24 0 44.333 -8.66699 61 -26s25 -37.333 25 -60
c0 -10.667 -2 -21 -6 -31l-481 -1239c-4.66699 -14 -13.834 -26.667 -27.501 -38s-31.167 -17 -52.5 -17c-23.333 0 -43.5 8.5 -60.5 25.5s-25.5 37.167 -25.5 60.5zM492 174.001c0 14.667 4.66699 28.333 14 41l264 358c18.667 23.333 40 35 64 35
c20.667 0 38.334 -7.5 53.001 -22.5s22 -32.833 22 -53.5v-290h29c18.667 0 34.667 -6.66699 48 -20s20 -29.333 20 -48s-6.66699 -34.667 -20 -48s-29.333 -20 -48 -20h-29v-47c0 -20.667 -7.33301 -38.334 -22 -53.001s-32.334 -22 -53.001 -22s-38.5 7.33301 -53.5 22
s-22.5 32.334 -22.5 53.001v47h-199c-18.667 0 -34.5 6.66699 -47.5 20s-19.5 29.333 -19.5 48zM659 242h99v139z" />
    <glyph glyph-name="onehalf" unicode="&#xbd;" horiz-adv-x="1122" 
d="M51 1221c0 26.667 11.666 47.001 34.999 61.001l170 107c13.333 8 27 12 41 12c20.667 0 38.5 -7.5 53.5 -22.5s22.5 -32.833 22.5 -53.5v-473c0 -20.667 -7.5 -38.5 -22.5 -53.5s-32.833 -22.5 -53.5 -22.5s-38.5 7.5 -53.5 22.5s-22.5 32.833 -22.5 53.5v346l-65 -41
c-10.667 -5.33301 -21.667 -8 -33 -8c-19.333 0 -36.166 7.16699 -50.499 21.5s-21.5 31.166 -21.5 50.499zM177.999 70.001c0 10 2.00195 20 6.00195 30l482 1239c5.33301 14 14.666 26.833 27.999 38.5s30.333 17.5 51 17.5c24 0 44.333 -8.66699 61 -26
s25 -37.333 25 -60c0 -10.667 -2 -21 -6 -31l-481 -1239c-4.66699 -14 -13.834 -26.667 -27.501 -38s-31.167 -17 -52.5 -17c-23.333 0 -43.5 8.5 -60.5 25.5s-25.5 37.167 -25.5 60.5zM588.001 74.001c0 40 7.99609 75.6709 23.9961 107.004s35.833 56 59.5 74
s49.334 34.833 77.001 50.5s53.334 28.834 77.001 39.501s43.5 23.167 59.5 37.5s24 30.166 24 47.499c0 18 -7.5 32.833 -22.5 44.5s-36.833 17.5 -65.5 17.5c-14.667 0 -29.167 -3.33301 -43.5 -10s-24.833 -12.834 -31.5 -18.501l-29 -25.5c-14 -12 -29 -18 -45 -18
c-18.667 0 -34.667 6.5 -48 19.5s-20 28.833 -20 47.5c0 16.667 7 34 21 52c18 22.667 45.167 42.667 81.5 60s74.5 26 114.5 26c72.667 0 130.834 -18.167 174.501 -54.5s65.5 -83.166 65.5 -140.499c0 -36.667 -10.667 -69.334 -32 -98.001
s-47.166 -51.334 -77.499 -68.001s-60.5 -31.834 -90.5 -45.501s-55.667 -27.667 -77 -42s-32 -29.5 -32 -45.5h252c18.667 0 34.167 -6.16699 46.5 -18.5s18.5 -27.833 18.5 -46.5s-6.16699 -34.334 -18.5 -47.001s-27.833 -19 -46.5 -19h-342
c-20.667 0 -38.167 7.16699 -52.5 21.5s-21.5 31.833 -21.5 52.5z" />
    <glyph glyph-name="threequarters" unicode="&#xbe;" horiz-adv-x="1142" 
d="M39 909c0 18.667 6.16992 34.332 18.5029 46.999s27.166 19 44.499 19c18 0 34 -7 48 -21c19.333 -19.333 38.166 -33.333 56.499 -42s40.166 -13 65.499 -13c32.667 0 57 7.5 73 22.5s24 34.167 24 57.5c0 53.333 -26 80 -78 80h-45
c-16.667 0 -30.834 5.66699 -42.501 17s-17.5 25.333 -17.5 42s8.33301 34.334 25 53.001l88 93h-172c-18.667 0 -34.334 6.16699 -47.001 18.5s-19 27.833 -19 46.5s6.33301 34.334 19 47.001s28.334 19 47.001 19h289c18.667 0 34.167 -6.33301 46.5 -19
s18.5 -28.334 18.5 -47.001c0 -17.333 -6.66699 -33.666 -20 -48.999l-105 -109c36 0 66.833 -11.333 92.5 -34s43.334 -47.834 53.001 -75.501s14.5 -55.167 14.5 -82.5c0 -64 -20.5 -114.833 -61.5 -152.5s-101.833 -56.5 -182.5 -56.5c-52 0 -97.333 10.5 -136 31.5
s-65.667 41.833 -81 62.5c-10.667 14 -16 29 -16 45zM283.003 69.998c0 10 2 20 6 30l481 1239c5.33301 13.333 14.833 26 28.5 38s30.834 18 51.501 18c24 0 44.333 -8.66699 61 -26s25 -37.333 25 -60c0 -10.667 -2 -21 -6 -31l-481 -1239
c-4.66699 -14 -13.834 -26.667 -27.501 -38s-31.167 -17 -52.5 -17c-23.333 0 -43.5 8.5 -60.5 25.5s-25.5 37.167 -25.5 60.5zM606.003 173.998c0 14 5 27.667 15 41l264 358c18.667 23.333 39.667 35 63 35c20.667 0 38.5 -7.5 53.5 -22.5s22.5 -32.833 22.5 -53.5v-290
h29c18.667 0 34.5 -6.66699 47.5 -20s19.5 -29.333 19.5 -48s-6.5 -34.667 -19.5 -48s-28.833 -20 -47.5 -20h-29v-47c0 -20.667 -7.5 -38.334 -22.5 -53.001s-32.833 -22 -53.5 -22s-38.5 7.33301 -53.5 22s-22.5 32.334 -22.5 53.001v47h-198
c-18.667 0 -34.667 6.66699 -48 20s-20 29.333 -20 48zM774.003 241.998h98v139z" />
    <glyph glyph-name="questiondown" unicode="&#xbf;" horiz-adv-x="927" 
d="M41 -106c0 52 9.66797 99.165 29.001 141.498s43.5 76.333 72.5 102s60.333 49.834 94 72.501s65 41.334 94 56.001s53.167 31.167 72.5 49.5s29 36.833 29 55.5c0 13.333 -6.66699 29.666 -20 48.999c-12.667 18.667 -19 39 -19 61c0 32.667 11.5 59.334 34.5 80.001
s48.5 31 76.5 31c31.333 0 58 -11 80 -33c50 -48 75 -106 75 -174c0 -47.333 -13.667 -90 -41 -128s-60.5 -69.667 -99.5 -95l-116.5 -74.5c-38.667 -24.333 -71.667 -52.833 -99 -85.5s-41 -68.667 -41 -108c0 -50 18.167 -88.833 54.5 -116.5s87.166 -41.5 152.499 -41.5
c59.333 0 106.333 14.667 141 44s52 72 52 128c0 30.667 11 57 33 79s48.333 33 79 33s57.167 -11 79.5 -33s33.5 -48.333 33.5 -79c0 -116.667 -37 -208 -111 -274s-176.333 -99 -307 -99c-135.333 0 -240.5 31.333 -315.5 94s-112.5 151 -112.5 265zM377.001 824.998
c0 88.667 44.333 133 133 133c90 0 135 -44.333 135 -133c0 -91.333 -45 -137 -135 -137c-88.667 0 -133 45.667 -133 137z" />
    <glyph glyph-name="Agrave" unicode="&#xc0;" horiz-adv-x="1277" 
d="M39 100c0 16 2.66113 30.333 7.99414 43l483 1178c8 18.667 21.167 35.667 39.5 51s41.5 23 69.5 23s51.167 -7.66699 69.5 -23s31.5 -32.333 39.5 -51l483 -1178c5.33301 -12.667 8 -27 8 -43c0 -31.333 -11.667 -58.5 -35 -81.5s-50.666 -34.5 -81.999 -34.5
c-25.333 0 -47.666 7.16699 -66.999 21.5s-33.666 32.833 -42.999 55.5l-125 297h-496l-125 -297c-9.33301 -22.667 -23.666 -41.167 -42.999 -55.5s-41.666 -21.5 -66.999 -21.5c-31.333 0 -58.666 11.5 -81.999 34.5s-35 50.167 -35 81.5zM468.994 1720
c0.666992 23.333 11.666 45.333 32.999 66c20.667 20.667 42.667 31.5 66 32.5s42.333 -7.83301 57 -26.5l174 -221c12 -12 17.167 -26.5 15.5 -43.5s-10.5 -33.167 -26.5 -48.5c-30.667 -28.667 -62 -28.667 -94 0l-200 184c-17.333 14.667 -25.666 33.667 -24.999 57z
M470.993 575h336l-168 431z" />
    <glyph glyph-name="Aacute" unicode="&#xc1;" horiz-adv-x="1277" 
d="M39 100c0 16 2.66113 30.333 7.99414 43l483 1178c8 18.667 21.167 35.667 39.5 51s41.5 23 69.5 23s51.167 -7.66699 69.5 -23s31.5 -32.333 39.5 -51l483 -1178c5.33301 -12.667 8 -27 8 -43c0 -31.333 -11.667 -58.5 -35 -81.5s-50.666 -34.5 -81.999 -34.5
c-25.333 0 -47.666 7.16699 -66.999 21.5s-33.666 32.833 -42.999 55.5l-125 297h-496l-125 -297c-9.33301 -22.667 -23.666 -41.167 -42.999 -55.5s-41.666 -21.5 -66.999 -21.5c-31.333 0 -58.666 11.5 -81.999 34.5s-35 50.167 -35 81.5zM465.494 1527.5
c-1.66699 17 3.49902 31.5 15.499 43.5l174 221c14.667 18.667 33.667 27.5 57 26.5s45.333 -11.833 66 -32.5c21.333 -20.667 32.333 -42.667 33 -66s-7.66602 -42.333 -24.999 -57l-200 -184c-32 -28.667 -63.333 -28.667 -94 0c-16 15.333 -24.833 31.5 -26.5 48.5z
M470.993 575h336l-168 431z" />
    <glyph glyph-name="Acircumflex" unicode="&#xc2;" horiz-adv-x="1277" 
d="M39 100c0 16 2.66113 30.333 7.99414 43l483 1178c8 18.667 21.167 35.667 39.5 51s41.5 23 69.5 23s51.167 -7.66699 69.5 -23s31.5 -32.333 39.5 -51l483 -1178c5.33301 -12.667 8 -27 8 -43c0 -31.333 -11.667 -58.5 -35 -81.5s-50.666 -34.5 -81.999 -34.5
c-25.333 0 -47.666 7.16699 -66.999 21.5s-33.666 32.833 -42.999 55.5l-125 297h-496l-125 -297c-9.33301 -22.667 -23.666 -41.167 -42.999 -55.5s-41.666 -21.5 -66.999 -21.5c-31.333 0 -58.666 11.5 -81.999 34.5s-35 50.167 -35 81.5zM364.994 1544
c0 28.667 12 51.334 36 68.001l191 127c13.333 9.33301 29 14 47 14s33.667 -4.66699 47 -14l191 -127c24 -16.667 36 -39.334 36 -68.001c0 -22.667 -7.5 -41.667 -22.5 -57s-33.833 -23 -56.5 -23c-19.333 0 -35.333 5 -48 15l-147 102l-147 -102
c-12.667 -10 -28.667 -15 -48 -15c-22.667 0 -41.5 7.66699 -56.5 23s-22.5 34.333 -22.5 57zM470.994 575h336l-168 431z" />
    <glyph glyph-name="Atilde" unicode="&#xc3;" horiz-adv-x="1277" 
d="M39 100c0 16 2.66113 30.333 7.99414 43l483 1178c8 18.667 21.167 35.667 39.5 51s41.5 23 69.5 23s51.167 -7.66699 69.5 -23s31.5 -32.333 39.5 -51l483 -1178c5.33301 -12.667 8 -27 8 -43c0 -31.333 -11.667 -58.5 -35 -81.5s-50.666 -34.5 -81.999 -34.5
c-25.333 0 -47.666 7.16699 -66.999 21.5s-33.666 32.833 -42.999 55.5l-125 297h-496l-125 -297c-9.33301 -22.667 -23.666 -41.167 -42.999 -55.5s-41.666 -21.5 -66.999 -21.5c-31.333 0 -58.666 11.5 -81.999 34.5s-35 50.167 -35 81.5zM314.994 1575
c0 12.667 2.33496 23.667 7.00195 33c14 33.333 36.833 59.333 68.5 78s67.5 28 107.5 28c41.333 0 90.166 -11.5 146.499 -34.5s95.5 -34.5 117.5 -34.5c20.667 0 38.334 10.667 53.001 32c16 23.333 38.667 35 68 35c22.667 0 41.667 -7.66699 57 -23s23 -34.333 23 -57
c0 -12.667 -2.33301 -23.667 -7 -33c-14 -33.333 -36.833 -59.333 -68.5 -78s-67.5 -28 -107.5 -28c-42 0 -91.833 11.667 -149.5 35s-95.834 35 -114.501 35c-20 0 -37.667 -11 -53 -33c-16.667 -23.333 -39.334 -35 -68.001 -35c-22.667 0 -41.667 7.66699 -57 23
s-23 34.333 -23 57zM470.996 575h336l-168 431z" />
    <glyph glyph-name="Adieresis" unicode="&#xc4;" horiz-adv-x="1277" 
d="M39 100c0 16 2.66113 30.333 7.99414 43l483 1178c8 18.667 21.167 35.667 39.5 51s41.5 23 69.5 23s51.167 -7.66699 69.5 -23s31.5 -32.333 39.5 -51l483 -1178c5.33301 -12.667 8 -27 8 -43c0 -31.333 -11.667 -58.5 -35 -81.5s-50.666 -34.5 -81.999 -34.5
c-25.333 0 -47.666 7.16699 -66.999 21.5s-33.666 32.833 -42.999 55.5l-125 297h-496l-125 -297c-9.33301 -22.667 -23.666 -41.167 -42.999 -55.5s-41.666 -21.5 -66.999 -21.5c-31.333 0 -58.666 11.5 -81.999 34.5s-35 50.167 -35 81.5zM351.994 1620
c0 72.667 34.333 109 103 109c68 0 102 -36.333 102 -109c0 -69.333 -34 -104 -102 -104c-68.667 0 -103 34.667 -103 104zM470.994 575h336l-168 431zM722.994 1620c0 72.667 34 109 102 109c68.667 0 103 -36.333 103 -109c0 -69.333 -34.333 -104 -103 -104
c-68 0 -102 34.667 -102 104z" />
    <glyph glyph-name="Aring" unicode="&#xc5;" horiz-adv-x="1277" 
d="M39 100c0 16 2.66113 30.333 7.99414 43l483 1178c8 18.667 21.167 35.667 39.5 51s41.5 23 69.5 23s51.167 -7.66699 69.5 -23s31.5 -32.333 39.5 -51l483 -1178c5.33301 -12.667 8 -27 8 -43c0 -31.333 -11.667 -58.5 -35 -81.5s-50.666 -34.5 -81.999 -34.5
c-25.333 0 -47.666 7.16699 -66.999 21.5s-33.666 32.833 -42.999 55.5l-125 297h-496l-125 -297c-9.33301 -22.667 -23.666 -41.167 -42.999 -55.5s-41.666 -21.5 -66.999 -21.5c-31.333 0 -58.666 11.5 -81.999 34.5s-35 50.167 -35 81.5zM421.994 1642
c0 64 18.333 113.833 55 149.5s90.667 53.5 162 53.5s125.333 -17.833 162 -53.5s55 -85.5 55 -149.5s-18.333 -113.667 -55 -149s-90.667 -53 -162 -53s-125.333 17.667 -162 53s-55 85 -55 149zM470.994 575h336l-168 431zM536.994 1642
c0 -33.333 7.83301 -58.333 23.5 -75s41.834 -25 78.501 -25s62.834 8.33301 78.501 25s23.5 41.667 23.5 75s-7.83301 58.5 -23.5 75.5s-41.834 25.5 -78.501 25.5s-62.834 -8.5 -78.501 -25.5s-23.5 -42.167 -23.5 -75.5z" />
    <glyph glyph-name="AE" unicode="&#xc6;" horiz-adv-x="1769" 
d="M47 100c0 21.333 6.99902 43.334 20.999 66.001l772 1159c24.667 35.333 56 53 94 53h645c29.333 0 54.5 -10.333 75.5 -31s31.5 -45.667 31.5 -75s-10.5 -54.5 -31.5 -75.5s-46.167 -31.5 -75.5 -31.5h-520v-366h387c28.667 0 53.167 -10.333 73.5 -31
s30.5 -45.334 30.5 -74.001s-10.167 -53.167 -30.5 -73.5s-44.833 -30.5 -73.5 -30.5h-387v-377h543c29.333 0 54.333 -10.5 75 -31.5s31 -46.167 31 -75.5s-10.333 -54.333 -31 -75s-45.667 -31 -75 -31h-662c-33.333 0 -61.5 11 -84.5 33s-34.5 49.333 -34.5 82v264h-344
l-215 -340c-24 -36.667 -56.667 -55 -98 -55c-31.333 0 -58.666 11.5 -81.999 34.5s-35 50.167 -35 81.5zM605.999 596.001h215v340z" />
    <glyph glyph-name="Ccedilla" unicode="&#xc7;" horiz-adv-x="1310" 
d="M70 688c0 239.333 54.998 418.998 164.998 538.998s268.667 180 476 180c117.333 0 217.5 -20.167 300.5 -60.5s147.167 -93.833 192.5 -160.5c15.333 -24 23 -46.667 23 -68c0 -29.333 -10.833 -54.666 -32.5 -75.999s-47.834 -32 -78.501 -32s-58.667 13.667 -84 41
c-44.667 48.667 -91.5 84.667 -140.5 108s-109.167 35 -180.5 35c-135.333 0 -235.166 -41.833 -299.499 -125.5s-96.5 -210.5 -96.5 -380.5c0 -177.333 31.667 -305.666 95 -384.999s163.666 -119 300.999 -119c75.333 0 137 9.83301 185 29.5s96.667 54.834 146 105.501
c30.667 30.667 60 46 88 46c30.667 0 56.834 -10.833 78.501 -32.5s32.5 -47.834 32.5 -78.501c0 -22.667 -6.66699 -43 -20 -61c-120.667 -148 -301 -222 -541 -222l-6 -80c17.333 4.66699 41 7 71 7c58 0 105 -16 141 -48s54 -77 54 -135c0 -132 -74.333 -198 -223 -198
c-26.667 0 -55.5 4 -86.5 12s-56.833 19 -77.5 33c-15.333 10 -23 24.333 -23 43c0 14.667 5.33301 27.167 16 37.5s23.334 15.5 38.001 15.5c8 0 16 -2 24 -6c40 -19.333 79 -29 117 -29c32.667 0 57.5 6.83301 74.5 20.5s25.5 37.5 25.5 71.5c0 57.333 -36.667 86 -110 86
c-12 0 -27.667 -2 -47 -6s-33.666 -6 -42.999 -6c-28.667 0 -43 15 -43 45v146c-341.333 44.667 -512 280.667 -512 708z" />
    <glyph glyph-name="Egrave" unicode="&#xc8;" horiz-adv-x="1071" 
d="M123 119v1141c0 32.667 11.5 60.5 34.5 83.5s51.167 34.5 84.5 34.5h639c29.333 0 54.333 -10.333 75 -31s31 -45.667 31 -75s-10.333 -54.5 -31 -75.5s-45.667 -31.5 -75 -31.5h-521v-366h388c28.667 0 53.167 -10.333 73.5 -31s30.5 -45.334 30.5 -74.001
s-10.167 -53.167 -30.5 -73.5s-44.833 -30.5 -73.5 -30.5h-388v-377h543c29.333 0 54.5 -10.5 75.5 -31.5s31.5 -46.167 31.5 -75.5s-10.5 -54.333 -31.5 -75s-46.167 -31 -75.5 -31h-661c-33.333 0 -61.5 11.667 -84.5 35s-34.5 51.333 -34.5 84zM389 1720
c0.666992 23.333 11.667 45.333 33 66c20.667 20.667 42.667 31.5 66 32.5s42.333 -7.83301 57 -26.5l174 -221c12 -12 17.333 -26.5 16 -43.5s-10 -33.167 -26 -48.5c-30.667 -28.667 -62.334 -28.667 -95.001 0l-200 184c-17.333 14.667 -25.666 33.667 -24.999 57z" />
    <glyph glyph-name="Eacute" unicode="&#xc9;" horiz-adv-x="1071" 
d="M123 119v1141c0 32.667 11.5 60.5 34.5 83.5s51.167 34.5 84.5 34.5h639c29.333 0 54.333 -10.333 75 -31s31 -45.667 31 -75s-10.333 -54.5 -31 -75.5s-45.667 -31.5 -75 -31.5h-521v-366h388c28.667 0 53.167 -10.333 73.5 -31s30.5 -45.334 30.5 -74.001
s-10.167 -53.167 -30.5 -73.5s-44.833 -30.5 -73.5 -30.5h-388v-377h543c29.333 0 54.5 -10.5 75.5 -31.5s31.5 -46.167 31.5 -75.5s-10.5 -54.333 -31.5 -75s-46.167 -31 -75.5 -31h-661c-33.333 0 -61.5 11.667 -84.5 35s-34.5 51.333 -34.5 84zM430.5 1527.5
c-1.66699 17 3.49902 31.5 15.499 43.5l175 221c14.667 18.667 33.5 27.5 56.5 26.5s44.833 -11.833 65.5 -32.5c22 -20.667 33.333 -42.667 34 -66s-7.66602 -42.333 -24.999 -57l-201 -184c-32 -28.667 -63.333 -28.667 -94 0c-16 15.333 -24.833 31.5 -26.5 48.5z" />
    <glyph glyph-name="Ecircumflex" unicode="&#xca;" horiz-adv-x="1071" 
d="M123 119v1141c0 32.667 11.5 60.5 34.5 83.5s51.167 34.5 84.5 34.5h639c29.333 0 54.333 -10.333 75 -31s31 -45.667 31 -75s-10.333 -54.5 -31 -75.5s-45.667 -31.5 -75 -31.5h-521v-366h388c28.667 0 53.167 -10.333 73.5 -31s30.5 -45.334 30.5 -74.001
s-10.167 -53.167 -30.5 -73.5s-44.833 -30.5 -73.5 -30.5h-388v-377h543c29.333 0 54.5 -10.5 75.5 -31.5s31.5 -46.167 31.5 -75.5s-10.5 -54.333 -31.5 -75s-46.167 -31 -75.5 -31h-661c-33.333 0 -61.5 11.667 -84.5 35s-34.5 51.333 -34.5 84zM297 1544
c0 28 12.335 50.667 37.002 68l190 127c13.333 9.33301 29 14 47 14s33.667 -4.66699 47 -14l191 -127c24.667 -17.333 37 -40 37 -68c0 -22.667 -7.66699 -41.667 -23 -57s-34.333 -23 -57 -23c-18.667 0 -34.334 5 -47.001 15l-148 102l-147 -102
c-12.667 -10 -28.334 -15 -47.001 -15c-22.667 0 -41.667 7.66699 -57 23s-23 34.333 -23 57z" />
    <glyph glyph-name="Edieresis" unicode="&#xcb;" horiz-adv-x="1071" 
d="M123 119v1141c0 32.667 11.5 60.5 34.5 83.5s51.167 34.5 84.5 34.5h639c29.333 0 54.333 -10.333 75 -31s31 -45.667 31 -75s-10.333 -54.5 -31 -75.5s-45.667 -31.5 -75 -31.5h-521v-366h388c28.667 0 53.167 -10.333 73.5 -31s30.5 -45.334 30.5 -74.001
s-10.167 -53.167 -30.5 -73.5s-44.833 -30.5 -73.5 -30.5h-388v-377h543c29.333 0 54.5 -10.5 75.5 -31.5s31.5 -46.167 31.5 -75.5s-10.5 -54.333 -31.5 -75s-46.167 -31 -75.5 -31h-661c-33.333 0 -61.5 11.667 -84.5 35s-34.5 51.333 -34.5 84zM281 1620
c0 72.667 34 109 102 109s102 -36.333 102 -109c0 -69.333 -34 -104 -102 -104s-102 34.667 -102 104zM651 1620c0 72.667 34.333 109 103 109c68 0 102 -36.333 102 -109c0 -69.333 -34 -104 -102 -104c-68.667 0 -103 34.667 -103 104z" />
    <glyph glyph-name="Igrave" unicode="&#xcc;" horiz-adv-x="483" 
d="M71 1720c0.666992 23.333 11.666 45.333 32.999 66c20.667 20.667 42.667 31.5 66 32.5s42.333 -7.83301 57 -26.5l174 -221c12 -12 17.333 -26.5 16 -43.5s-10 -33.167 -26 -48.5c-30.667 -28.667 -62 -28.667 -94 0l-201 184c-17.333 14.667 -25.666 33.667 -24.999 57
zM122.999 102v1174c0 33.333 11.5 61.5 34.5 84.5s51.167 34.5 84.5 34.5c32.667 0 60.5 -11.5 83.5 -34.5s34.5 -51.167 34.5 -84.5v-1174c0 -33.333 -11.333 -61.333 -34 -84s-50.667 -34 -84 -34s-61.5 11.5 -84.5 34.5s-34.5 50.833 -34.5 83.5z" />
    <glyph glyph-name="Iacute" unicode="&#xcd;" horiz-adv-x="483" 
d="M105 1527.5c-1.33301 17 3.99902 31.5 15.999 43.5l174 221c14.667 18.667 33.667 27.5 57 26.5s45.333 -11.833 66 -32.5c21.333 -20.667 32.333 -42.667 33 -66s-7.66602 -42.333 -24.999 -57l-201 -184c-32 -28.667 -63.333 -28.667 -94 0
c-16 15.333 -24.667 31.5 -26 48.5zM122.999 102v1174c0 33.333 11.5 61.5 34.5 84.5s51.167 34.5 84.5 34.5c32.667 0 60.5 -11.5 83.5 -34.5s34.5 -51.167 34.5 -84.5v-1174c0 -33.333 -11.333 -61.333 -34 -84s-50.667 -34 -84 -34s-61.5 11.5 -84.5 34.5
s-34.5 50.833 -34.5 83.5z" />
    <glyph glyph-name="Icircumflex" unicode="&#xce;" horiz-adv-x="483" 
d="M-31 1544c0 28 12.335 50.667 37.002 68l191 127c13.333 9.33301 29 14 47 14s33.667 -4.66699 47 -14l190 -127c24.667 -17.333 37 -40 37 -68c0 -22.667 -7.66699 -41.667 -23 -57s-34.333 -23 -57 -23c-18.667 0 -34.334 5 -47.001 15l-147 102l-148 -102
c-12.667 -10 -28.334 -15 -47.001 -15c-22.667 0 -41.667 7.66699 -57 23s-23 34.333 -23 57zM123.002 102v1174c0 33.333 11.5 61.5 34.5 84.5s51.167 34.5 84.5 34.5c32.667 0 60.5 -11.5 83.5 -34.5s34.5 -51.167 34.5 -84.5v-1174c0 -33.333 -11.333 -61.333 -34 -84
s-50.667 -34 -84 -34s-61.5 11.5 -84.5 34.5s-34.5 50.833 -34.5 83.5z" />
    <glyph glyph-name="Idieresis" unicode="&#xcf;" horiz-adv-x="483" 
d="M-41 1620c0 72.667 34 109 102 109c68.667 0 103 -36.333 103 -109c0 -69.333 -34.333 -104 -103 -104c-68 0 -102 34.667 -102 104zM123 102v1174c0 33.333 11.5 61.5 34.5 84.5s51.167 34.5 84.5 34.5c32.667 0 60.5 -11.5 83.5 -34.5s34.5 -51.167 34.5 -84.5v-1174
c0 -33.333 -11.333 -61.333 -34 -84s-50.667 -34 -84 -34s-61.5 11.5 -84.5 34.5s-34.5 50.833 -34.5 83.5zM330 1620c0 72.667 34 109 102 109c68.667 0 103 -36.333 103 -109c0 -69.333 -34.333 -104 -103 -104c-68 0 -102 34.667 -102 104z" />
    <glyph glyph-name="Eth" unicode="&#xd0;" horiz-adv-x="1302" 
d="M35 713c0 25.333 9.33301 47.335 28 66.002s40.667 28 66 28h45v453c0 32.667 11.5 60.5 34.5 83.5s51.167 34.5 84.5 34.5h276c104.667 0 196.834 -12.333 276.501 -37s149.167 -63.834 208.5 -117.501s104.333 -125.334 135 -215.001s46 -196.5 46 -320.5
s-15.333 -230.833 -46 -320.5s-75.667 -161 -135 -214s-128.833 -91.833 -208.5 -116.5s-171.834 -37 -276.501 -37h-276c-32.667 0 -60.667 11.667 -84 35s-35 51.333 -35 84v499h-45c-25.333 0 -47.333 9.5 -66 28.5s-28 41.167 -28 66.5zM412 213.002h157
c68 0 127 8.16699 177 24.5s93.667 42.666 131 78.999s65.333 85.5 84 147.5s28 136.667 28 224c0 170.667 -35.5 292.834 -106.5 366.501s-175.5 110.5 -313.5 110.5h-157v-358h288c25.333 0 47.5 -9.33301 66.5 -28s28.5 -40.667 28.5 -66s-9.5 -47.5 -28.5 -66.5
s-41.167 -28.5 -66.5 -28.5h-288v-405z" />
    <glyph glyph-name="Ntilde" unicode="&#xd1;" horiz-adv-x="1275" 
d="M113 100v1178c0 31.333 11.5 58.666 34.5 81.999s50.167 35 81.5 35c42 0 73.667 -16.333 95 -49l606 -879v811c0 31.333 11.667 58.666 35 81.999s50.666 35 81.999 35s58.5 -11.667 81.5 -35s34.5 -50.666 34.5 -81.999v-1178c0 -31.333 -11.5 -58.5 -34.5 -81.5
s-50.167 -34.5 -81.5 -34.5c-42.667 0 -75 17 -97 51l-604 872v-807c0 -31.333 -11.667 -58.5 -35 -81.5s-50.666 -34.5 -81.999 -34.5s-58.5 11.5 -81.5 34.5s-34.5 50.167 -34.5 81.5zM313 1575c0 14 2.00098 25 6.00098 33c14 33.333 37 59.333 69 78s68 28 108 28
c41.333 0 90.166 -11.5 146.499 -34.5s95.5 -34.5 117.5 -34.5c20.667 0 38.334 10.667 53.001 32c16.667 23.333 39.334 35 68.001 35c22.667 0 41.667 -7.66699 57 -23s23 -34.333 23 -57c0 -12.667 -2.33301 -23.667 -7 -33c-14 -33.333 -36.833 -59.333 -68.5 -78
s-67.5 -28 -107.5 -28c-42 0 -91.833 11.667 -149.5 35s-95.834 35 -114.501 35c-20 0 -37.667 -11 -53 -33c-16.667 -23.333 -39.334 -35 -68.001 -35c-22.667 0 -41.667 7.66699 -57 23s-23 34.333 -23 57z" />
    <glyph glyph-name="Ograve" unicode="&#xd2;" 
d="M70 688c0 -236.667 55.833 -415.334 167.5 -536.001s272.167 -181 481.5 -181s369.833 60.333 481.5 181s167.5 299.334 167.5 536.001c0 239.333 -55.667 419 -167 539s-272 180 -482 180s-370.667 -60 -482 -180s-167 -299.667 -167 -539zM315 688
c0 337.333 134.667 506 404 506c135.333 0 236.333 -41.833 303 -125.5s100 -210.5 100 -380.5c0 -336 -134.333 -504 -403 -504c-269.333 0 -404 168 -404 504zM548 1720c0.666992 23.333 11.999 45.333 33.999 66c20.667 20.667 42.667 31.5 66 32.5
s42.333 -7.83301 57 -26.5l174 -221c12 -12 17.167 -26.5 15.5 -43.5s-10.5 -33.167 -26.5 -48.5c-30.667 -28.667 -62 -28.667 -94 0l-201 184c-17.333 14.667 -25.666 33.667 -24.999 57z" />
    <glyph glyph-name="Oacute" unicode="&#xd3;" 
d="M70 688c0 -236.667 55.833 -415.334 167.5 -536.001s272.167 -181 481.5 -181s369.833 60.333 481.5 181s167.5 299.334 167.5 536.001c0 239.333 -55.667 419 -167 539s-272 180 -482 180s-370.667 -60 -482 -180s-167 -299.667 -167 -539zM315 688
c0 337.333 134.667 506 404 506c135.333 0 236.333 -41.833 303 -125.5s100 -210.5 100 -380.5c0 -336 -134.333 -504 -403 -504c-269.333 0 -404 168 -404 504zM580 1527.5c-1.33301 17 3.99902 31.5 15.999 43.5l174 221c14.667 18.667 33.667 27.5 57 26.5
s45.333 -11.833 66 -32.5c21.333 -20.667 32.333 -42.667 33 -66s-7.66602 -42.333 -24.999 -57l-201 -184c-32 -28.667 -63.333 -28.667 -94 0c-16 15.333 -24.667 31.5 -26 48.5z" />
    <glyph glyph-name="Ocircumflex" unicode="&#xd4;" 
d="M70 688c0 -236.667 55.833 -415.334 167.5 -536.001s272.167 -181 481.5 -181s369.833 60.333 481.5 181s167.5 299.334 167.5 536.001c0 239.333 -55.667 419 -167 539s-272 180 -482 180s-370.667 -60 -482 -180s-167 -299.667 -167 -539zM315 688
c0 337.333 134.667 506 404 506c135.333 0 236.333 -41.833 303 -125.5s100 -210.5 100 -380.5c0 -336 -134.333 -504 -403 -504c-269.333 0 -404 168 -404 504zM442 1544c0 28 12.335 50.667 37.002 68l191 127c13.333 9.33301 29 14 47 14s33.667 -4.66699 47 -14
l190 -127c24.667 -17.333 37 -40 37 -68c0 -22.667 -7.66699 -41.667 -23 -57s-34.333 -23 -57 -23c-18.667 0 -34.334 5 -47.001 15l-147 102l-148 -102c-12.667 -10 -28.334 -15 -47.001 -15c-22.667 0 -41.667 7.66699 -57 23s-23 34.333 -23 57z" />
    <glyph glyph-name="Otilde" unicode="&#xd5;" 
d="M70 688c0 -236.667 55.833 -415.334 167.5 -536.001s272.167 -181 481.5 -181s369.833 60.333 481.5 181s167.5 299.334 167.5 536.001c0 239.333 -55.667 419 -167 539s-272 180 -482 180s-370.667 -60 -482 -180s-167 -299.667 -167 -539zM315 688
c0 337.333 134.667 506 404 506c135.333 0 236.333 -41.833 303 -125.5s100 -210.5 100 -380.5c0 -336 -134.333 -504 -403 -504c-269.333 0 -404 168 -404 504zM395 1575c0 14 2.00098 25 6.00098 33c14 33.333 37 59.333 69 78s68 28 108 28
c41.333 0 90.166 -11.5 146.499 -34.5s95.5 -34.5 117.5 -34.5c20.667 0 38.334 10.667 53.001 32c16.667 23.333 39.334 35 68.001 35c22.667 0 41.5 -7.66699 56.5 -23s22.5 -34.333 22.5 -57c0 -14 -2 -25 -6 -33c-14 -33.333 -36.833 -59.333 -68.5 -78
s-67.5 -28 -107.5 -28c-42 0 -91.833 11.667 -149.5 35s-95.834 35 -114.501 35c-20 0 -37.667 -11 -53 -33c-16.667 -23.333 -39.334 -35 -68.001 -35c-22.667 0 -41.667 7.66699 -57 23s-23 34.333 -23 57z" />
    <glyph glyph-name="Odieresis" unicode="&#xd6;" 
d="M70 688c0 -236.667 55.833 -415.334 167.5 -536.001s272.167 -181 481.5 -181s369.833 60.333 481.5 181s167.5 299.334 167.5 536.001c0 239.333 -55.667 419 -167 539s-272 180 -482 180s-370.667 -60 -482 -180s-167 -299.667 -167 -539zM315 688
c0 337.333 134.667 506 404 506c135.333 0 236.333 -41.833 303 -125.5s100 -210.5 100 -380.5c0 -336 -134.333 -504 -403 -504c-269.333 0 -404 168 -404 504zM430 1620c0 72.667 34 109 102 109c68.667 0 103 -36.333 103 -109c0 -69.333 -34.333 -104 -103 -104
c-68 0 -102 34.667 -102 104zM801 1620c0 72.667 34 109 102 109c68.667 0 103 -36.333 103 -109c0 -69.333 -34.333 -104 -103 -104c-68 0 -102 34.667 -102 104z" />
    <glyph glyph-name="multiply" unicode="&#xd7;" horiz-adv-x="761" 
d="M0 182c0 29.333 11 54 33 74l207 193l-207 192c-22 20 -33 44.667 -33 74c-0 27.333 9.83301 50.833 29.5 70.5s43.167 29.5 70.5 29.5s50.666 -9.66699 69.999 -29l211 -200l211 200c19.333 19.333 42.666 29 69.999 29s50.833 -9.83301 70.5 -29.5
s29.5 -43.167 29.5 -70.5c0 -29.333 -11 -54 -33 -74l-207 -192l207 -193c22 -20 33 -44.667 33 -74c0 -27.333 -9.83301 -50.833 -29.5 -70.5s-43.167 -29.5 -70.5 -29.5s-50.666 9.66699 -69.999 29l-211 200l-211 -200c-19.333 -19.333 -42.666 -29 -69.999 -29
s-50.833 9.83301 -70.5 29.5s-29.5 43.167 -29.5 70.5z" />
    <glyph glyph-name="Oslash" unicode="&#xd8;" 
d="M70 688c0 239.333 55.666 419.002 166.999 539.002s272 180 482 180c158 0 287 -33.333 387 -100l70 86c16.667 21.333 39.667 32 69 32c24.667 0 45.834 -8.83301 63.501 -26.5s26.5 -38.834 26.5 -63.501c0 -22.667 -6.66699 -41.667 -20 -57l-78 -96
c87.333 -118.667 131 -283.334 131 -494.001c0 -236.667 -55.833 -415.334 -167.5 -536.001s-272.167 -181 -481.5 -181c-156.667 0 -285 33 -385 99l-74 -90c-17.333 -22 -40.666 -33 -69.999 -33c-24.667 0 -45.834 8.83301 -63.501 26.5s-26.5 38.834 -26.5 63.501
c0 22 7 41 21 57l82 101c-88.667 118 -133 282.333 -133 493zM314.999 688.002c0 -118 16.667 -216.333 50 -295l596 733c-63.333 45.333 -144 68 -242 68c-269.333 0 -404 -168.667 -404 -506zM478.999 250.002c59.333 -44 139.333 -66 240 -66c268.667 0 403 168 403 504
c0 118 -16.333 215.667 -49 293z" />
    <glyph glyph-name="Ugrave" unicode="&#xd9;" horiz-adv-x="1267" 
d="M123 451l-0.00195312 825c0 33.333 11.5 61.5 34.5 84.5s51.167 34.5 84.5 34.5c32.667 0 60.5 -11.5 83.5 -34.5s34.5 -51.167 34.5 -84.5v-825c0 -34.667 4 -66.667 12 -96s21.5 -57.833 40.5 -85.5s47.833 -49.5 86.5 -65.5s85.334 -24 140.001 -24
s101.334 8 140.001 24s67.5 37.833 86.5 65.5s32.5 56.167 40.5 85.5s12 61.333 12 96v825c0 33.333 11.5 61.5 34.5 84.5s50.833 34.5 83.5 34.5c33.333 0 61.5 -11.5 84.5 -34.5s34.5 -51.167 34.5 -84.5v-825c0 -50 -4.5 -96.667 -13.5 -140s-25.5 -86.333 -49.5 -129
s-54.667 -79.167 -92 -109.5s-86.833 -54.833 -148.5 -73.5s-132.5 -28 -212.5 -28s-150.833 9.33301 -212.5 28s-111.167 43.167 -148.5 73.5s-68 66.833 -92 109.5s-40.5 85.667 -49.5 129s-13.5 90 -13.5 140zM445.998 1720c0.666992 23.333 11.666 45.333 32.999 66
c20.667 20.667 42.667 31.5 66 32.5s42.333 -7.83301 57 -26.5l174 -221c12 -12 17.333 -26.5 16 -43.5s-10 -33.167 -26 -48.5c-30.667 -28.667 -62 -28.667 -94 0l-201 184c-17.333 14.667 -25.666 33.667 -24.999 57z" />
    <glyph glyph-name="Uacute" unicode="&#xda;" horiz-adv-x="1267" 
d="M123 451l-0.00195312 825c0 33.333 11.5 61.5 34.5 84.5s51.167 34.5 84.5 34.5c32.667 0 60.5 -11.5 83.5 -34.5s34.5 -51.167 34.5 -84.5v-825c0 -34.667 4 -66.667 12 -96s21.5 -57.833 40.5 -85.5s47.833 -49.5 86.5 -65.5s85.334 -24 140.001 -24
s101.334 8 140.001 24s67.5 37.833 86.5 65.5s32.5 56.167 40.5 85.5s12 61.333 12 96v825c0 33.333 11.5 61.5 34.5 84.5s50.833 34.5 83.5 34.5c33.333 0 61.5 -11.5 84.5 -34.5s34.5 -51.167 34.5 -84.5v-825c0 -50 -4.5 -96.667 -13.5 -140s-25.5 -86.333 -49.5 -129
s-54.667 -79.167 -92 -109.5s-86.833 -54.833 -148.5 -73.5s-132.5 -28 -212.5 -28s-150.833 9.33301 -212.5 28s-111.167 43.167 -148.5 73.5s-68 66.833 -92 109.5s-40.5 85.667 -49.5 129s-13.5 90 -13.5 140zM528.998 1527.5c-1.33301 17 3.99902 31.5 15.999 43.5
l174 221c14.667 18.667 33.667 27.5 57 26.5s45.333 -11.833 66 -32.5c21.333 -20.667 32.333 -42.667 33 -66s-7.66602 -42.333 -24.999 -57l-201 -184c-32 -28.667 -63.333 -28.667 -94 0c-16 15.333 -24.667 31.5 -26 48.5z" />
    <glyph glyph-name="Ucircumflex" unicode="&#xdb;" horiz-adv-x="1267" 
d="M123 451l-0.00195312 825c0 33.333 11.5 61.5 34.5 84.5s51.167 34.5 84.5 34.5c32.667 0 60.5 -11.5 83.5 -34.5s34.5 -51.167 34.5 -84.5v-825c0 -34.667 4 -66.667 12 -96s21.5 -57.833 40.5 -85.5s47.833 -49.5 86.5 -65.5s85.334 -24 140.001 -24
s101.334 8 140.001 24s67.5 37.833 86.5 65.5s32.5 56.167 40.5 85.5s12 61.333 12 96v825c0 33.333 11.5 61.5 34.5 84.5s50.833 34.5 83.5 34.5c33.333 0 61.5 -11.5 84.5 -34.5s34.5 -51.167 34.5 -84.5v-825c0 -50 -4.5 -96.667 -13.5 -140s-25.5 -86.333 -49.5 -129
s-54.667 -79.167 -92 -109.5s-86.833 -54.833 -148.5 -73.5s-132.5 -28 -212.5 -28s-150.833 9.33301 -212.5 28s-111.167 43.167 -148.5 73.5s-68 66.833 -92 109.5s-40.5 85.667 -49.5 129s-13.5 90 -13.5 140zM372.998 1544c0 28 12.335 50.667 37.002 68l190 127
c13.333 9.33301 29 14 47 14s33.667 -4.66699 47 -14l191 -127c24.667 -17.333 37 -40 37 -68c0 -22.667 -7.66699 -41.667 -23 -57s-34.333 -23 -57 -23c-18.667 0 -34.334 5 -47.001 15l-148 102l-147 -102c-12.667 -10 -28.334 -15 -47.001 -15
c-22.667 0 -41.667 7.66699 -57 23s-23 34.333 -23 57z" />
    <glyph glyph-name="Udieresis" unicode="&#xdc;" horiz-adv-x="1267" 
d="M123 451l-0.00195312 825c0 33.333 11.5 61.5 34.5 84.5s51.167 34.5 84.5 34.5c32.667 0 60.5 -11.5 83.5 -34.5s34.5 -51.167 34.5 -84.5v-825c0 -34.667 4 -66.667 12 -96s21.5 -57.833 40.5 -85.5s47.833 -49.5 86.5 -65.5s85.334 -24 140.001 -24
s101.334 8 140.001 24s67.5 37.833 86.5 65.5s32.5 56.167 40.5 85.5s12 61.333 12 96v825c0 33.333 11.5 61.5 34.5 84.5s50.833 34.5 83.5 34.5c33.333 0 61.5 -11.5 84.5 -34.5s34.5 -51.167 34.5 -84.5v-825c0 -50 -4.5 -96.667 -13.5 -140s-25.5 -86.333 -49.5 -129
s-54.667 -79.167 -92 -109.5s-86.833 -54.833 -148.5 -73.5s-132.5 -28 -212.5 -28s-150.833 9.33301 -212.5 28s-111.167 43.167 -148.5 73.5s-68 66.833 -92 109.5s-40.5 85.667 -49.5 129s-13.5 90 -13.5 140zM353.998 1620c0 72.667 34.333 109 103 109
c68 0 102 -36.333 102 -109c0 -69.333 -34 -104 -102 -104c-68.667 0 -103 34.667 -103 104zM724.998 1620c0 72.667 34 109 102 109c68.667 0 103 -36.333 103 -109c0 -69.333 -34.333 -104 -103 -104c-68 0 -102 34.667 -102 104z" />
    <glyph glyph-name="Yacute" unicode="&#xdd;" horiz-adv-x="1134" 
d="M39 1276c0 33.333 11.5 61.5 34.5 84.5s51.167 34.5 84.5 34.5c42 0 75.333 -18.667 100 -56l309 -485l310 485c22.667 37.333 56 56 100 56c32.667 0 60.667 -11.5 84 -34.5s35 -51.167 35 -84.5c0 -26 -6.33301 -47.333 -19 -64l-391 -583v-527
c0 -32.667 -11.5 -60.5 -34.5 -83.5s-51.167 -34.5 -84.5 -34.5c-32.667 0 -60.5 11.333 -83.5 34s-34.5 50.667 -34.5 84v527l-392 583c-12 16 -18 37.333 -18 64zM465.5 1527.5c-1.66699 17 3.49902 31.5 15.499 43.5l174 221c14.667 18.667 33.667 27.5 57 26.5
s45.333 -11.833 66 -32.5c21.333 -20.667 32.333 -42.667 33 -66s-7.66602 -42.333 -24.999 -57l-200 -184c-32 -28.667 -63.333 -28.667 -94 0c-16 15.333 -24.833 31.5 -26.5 48.5z" />
    <glyph glyph-name="Thorn" unicode="&#xde;" horiz-adv-x="1130" 
d="M123 102v1174c0 33.333 11.5 61.5 34.5 84.5s51.167 34.5 84.5 34.5c32.667 0 60.5 -11.5 83.5 -34.5s34.5 -51.167 34.5 -84.5v-139h273c126.667 0 230 -35.667 310 -107s120 -175.666 120 -312.999c0 -136.667 -39.833 -241.167 -119.5 -313.5
s-183.167 -108.5 -310.5 -108.5h-273v-193c0 -33.333 -11.333 -61.333 -34 -84s-50.667 -34 -84 -34s-61.5 11.5 -84.5 34.5s-34.5 50.833 -34.5 83.5zM360 507.999l254 -0.000976562c64 0 113.833 18.333 149.5 55s53.5 88 53.5 154c0 66.667 -18 117.834 -54 153.501
s-85.667 53.5 -149 53.5h-254v-416z" />
    <glyph glyph-name="germandbls" unicode="&#xdf;" horiz-adv-x="1204" 
d="M102 90l0.00585938 910.992c0 114 38.5 209.5 115.5 286.5s179.833 115.5 308.5 115.5c118 0 214.5 -31.833 289.5 -95.5s112.5 -139.167 112.5 -226.5c0 -44.667 -9.66699 -84.334 -29 -119.001s-43 -62.667 -71 -84s-55.833 -41.166 -83.5 -59.499
s-51.167 -38.333 -70.5 -60s-29 -45.167 -29 -70.5c0 -20 9.33301 -37.667 28 -53s42.667 -28.166 72 -38.499s62 -20.666 98 -30.999s72 -23.166 108 -38.499s68.667 -33.333 98 -54s53.333 -48.5 72 -83.5s28 -75.5 28 -121.5c0 -93.333 -35 -165.166 -105 -215.499
s-160 -75.5 -270 -75.5c-80.667 0 -153.667 14.833 -219 44.5s-113 62.834 -143 99.501c-16.667 20.667 -25 41.667 -25 63c0 26.667 9.66699 49.834 29 69.501s42.333 29.5 69 29.5c21.333 0 42.666 -8.33301 63.999 -25c68.667 -56 143.667 -84 225 -84
c101.333 0 152 27.333 152 82c0 23.333 -9.16699 43.5 -27.5 60.5s-42.333 31.167 -72 42.5s-62.334 22.5 -98.001 33.5s-71.334 24 -107.001 39s-68.334 32.667 -98.001 53s-53.667 47.5 -72 81.5s-27.5 73.333 -27.5 118c0 32 7 62.5 21 91.5s31.5 53.333 52.5 73
s43.667 39.5 68 59.5l68 54.5c21 16.333 38.5 34.833 52.5 55.5s21 41.667 21 63c0 30.667 -14.167 59.834 -42.5 87.501s-74.5 41.5 -138.5 41.5c-58 0 -106.167 -17.667 -144.5 -53s-57.5 -81.666 -57.5 -138.999v-928c0 -30 -10.833 -55.167 -32.5 -75.5
s-47.834 -30.5 -78.501 -30.5c-32.667 0 -59.334 10 -80.001 30s-31 45.333 -31 76z" />
    <glyph glyph-name="agrave" unicode="&#xe0;" horiz-adv-x="966" 
d="M55 283c0 90.667 31.832 161.332 95.499 211.999s142.5 76 236.5 76h268v37c0 46.667 -16.333 84 -49 112s-78.334 42 -137.001 42c-40 0 -76 -7 -108 -21s-64.333 -33 -97 -57c-19.333 -13.333 -39.666 -20 -60.999 -20c-26.667 0 -49.5 9.33301 -68.5 28
s-28.5 41.334 -28.5 68.001c0 24.667 9 47 27 67c79.333 87.333 191.333 131 336 131c127.333 0 226.666 -30 297.999 -90s107 -144 107 -252v-524c0 -29.333 -10.667 -54.666 -32 -75.999s-46.666 -32 -75.999 -32s-54.833 10.667 -76.5 32s-32.5 46.666 -32.5 75.999
c-49.333 -79.333 -138.666 -119 -267.999 -119c-100 0 -180.667 28.667 -242 86s-92 132 -92 224zM275.999 282.998c0 -40 14.167 -70.833 42.5 -92.5s70.833 -32.5 127.5 -32.5c57.333 0 106.5 16.833 147.5 50.5s61.5 78.167 61.5 133.5v57h-239
c-44.667 0 -79.167 -10 -103.5 -30s-36.5 -48.667 -36.5 -86zM289.999 1294c0.666992 23.333 11.999 45.333 33.999 66c20.667 20.667 42.5 31.5 65.5 32.5s41.833 -7.83301 56.5 -26.5l175 -221c12 -12 17.167 -26.5 15.5 -43.5s-10.5 -33.167 -26.5 -48.5
c-30.667 -28.667 -62 -28.667 -94 0l-201 184c-17.333 14.667 -25.666 33.667 -24.999 57z" />
    <glyph glyph-name="aacute" unicode="&#xe1;" horiz-adv-x="966" 
d="M55 283c0 90.667 31.832 161.332 95.499 211.999s142.5 76 236.5 76h268v37c0 46.667 -16.333 84 -49 112s-78.334 42 -137.001 42c-40 0 -76 -7 -108 -21s-64.333 -33 -97 -57c-19.333 -13.333 -39.666 -20 -60.999 -20c-26.667 0 -49.5 9.33301 -68.5 28
s-28.5 41.334 -28.5 68.001c0 24.667 9 47 27 67c79.333 87.333 191.333 131 336 131c127.333 0 226.666 -30 297.999 -90s107 -144 107 -252v-524c0 -29.333 -10.667 -54.666 -32 -75.999s-46.666 -32 -75.999 -32s-54.833 10.667 -76.5 32s-32.5 46.666 -32.5 75.999
c-49.333 -79.333 -138.666 -119 -267.999 -119c-100 0 -180.667 28.667 -242 86s-92 132 -92 224zM275.999 282.998c0 -40 14.167 -70.833 42.5 -92.5s70.833 -32.5 127.5 -32.5c57.333 0 106.5 16.833 147.5 50.5s61.5 78.167 61.5 133.5v57h-239
c-44.667 0 -79.167 -10 -103.5 -30s-36.5 -48.667 -36.5 -86zM346.499 1101.5c-1.66699 17 3.49902 31.5 15.499 43.5l175 221c14.667 18.667 33.5 27.5 56.5 26.5s44.833 -11.833 65.5 -32.5c22 -20.667 33.333 -42.667 34 -66s-7.66602 -42.333 -24.999 -57l-201 -184
c-32 -28.667 -63.333 -28.667 -94 0c-16 15.333 -24.833 31.5 -26.5 48.5z" />
    <glyph glyph-name="acircumflex" unicode="&#xe2;" horiz-adv-x="966" 
d="M55 283c0 90.667 31.832 161.332 95.499 211.999s142.5 76 236.5 76h268v37c0 46.667 -16.333 84 -49 112s-78.334 42 -137.001 42c-40 0 -76 -7 -108 -21s-64.333 -33 -97 -57c-19.333 -13.333 -39.666 -20 -60.999 -20c-26.667 0 -49.5 9.33301 -68.5 28
s-28.5 41.334 -28.5 68.001c0 24.667 9 47 27 67c79.333 87.333 191.333 131 336 131c127.333 0 226.666 -30 297.999 -90s107 -144 107 -252v-524c0 -29.333 -10.667 -54.666 -32 -75.999s-46.666 -32 -75.999 -32s-54.833 10.667 -76.5 32s-32.5 46.666 -32.5 75.999
c-49.333 -79.333 -138.666 -119 -267.999 -119c-100 0 -180.667 28.667 -242 86s-92 132 -92 224zM206.999 1137c0 27.333 12.333 49.666 37 66.999l190 127c14 10 29.667 15 47 15s33 -5 47 -15l191 -127c24.667 -17.333 37 -39.666 37 -66.999
c0 -22.667 -7.66699 -41.667 -23 -57s-34.333 -23 -57 -23c-20 0 -35.667 4.66699 -47 14l-148 103l-147 -103c-11.333 -9.33301 -27 -14 -47 -14c-22.667 0 -41.667 7.66699 -57 23s-23 34.333 -23 57zM275.999 282.998c0 -40 14.167 -70.833 42.5 -92.5
s70.833 -32.5 127.5 -32.5c57.333 0 106.5 16.833 147.5 50.5s61.5 78.167 61.5 133.5v57h-239c-44.667 0 -79.167 -10 -103.5 -30s-36.5 -48.667 -36.5 -86z" />
    <glyph glyph-name="atilde" unicode="&#xe3;" horiz-adv-x="966" 
d="M55 283c0 90.667 31.832 161.332 95.499 211.999s142.5 76 236.5 76h268v37c0 46.667 -16.333 84 -49 112s-78.334 42 -137.001 42c-40 0 -76 -7 -108 -21s-64.333 -33 -97 -57c-19.333 -13.333 -39.666 -20 -60.999 -20c-26.667 0 -49.5 9.33301 -68.5 28
s-28.5 41.334 -28.5 68.001c0 24.667 9 47 27 67c79.333 87.333 191.333 131 336 131c127.333 0 226.666 -30 297.999 -90s107 -144 107 -252v-524c0 -29.333 -10.667 -54.666 -32 -75.999s-46.666 -32 -75.999 -32s-54.833 10.667 -76.5 32s-32.5 46.666 -32.5 75.999
c-49.333 -79.333 -138.666 -119 -267.999 -119c-100 0 -180.667 28.667 -242 86s-92 132 -92 224zM159.999 1157c0 14 2.00098 25 6.00098 33c14 33.333 36.833 59.333 68.5 78s67.5 28 107.5 28c41.333 0 90.166 -11.5 146.499 -34.5s95.5 -34.5 117.5 -34.5
c20 0 37.667 11 53 33c16 22.667 38.667 34 68 34c22.667 0 41.667 -7.66699 57 -23s23 -34.333 23 -57c0 -13.333 -2 -24 -6 -32c-14 -33.333 -37 -59.5 -69 -78.5s-67.667 -28.5 -107 -28.5c-42 0 -92 11.667 -150 35s-96.333 35 -115 35c-20 0 -37.667 -11 -53 -33
c-16.667 -23.333 -39 -35 -67 -35c-22.667 0 -41.667 7.66699 -57 23s-23 34.333 -23 57zM276 282.998c0 -40 14.167 -70.833 42.5 -92.5s70.833 -32.5 127.5 -32.5c57.333 0 106.5 16.833 147.5 50.5s61.5 78.167 61.5 133.5v57h-239c-44.667 0 -79.167 -10 -103.5 -30
s-36.5 -48.667 -36.5 -86z" />
    <glyph glyph-name="adieresis" unicode="&#xe4;" horiz-adv-x="966" 
d="M55 283c0 90.667 31.832 161.332 95.499 211.999s142.5 76 236.5 76h268v37c0 46.667 -16.333 84 -49 112s-78.334 42 -137.001 42c-40 0 -76 -7 -108 -21s-64.333 -33 -97 -57c-19.333 -13.333 -39.666 -20 -60.999 -20c-26.667 0 -49.5 9.33301 -68.5 28
s-28.5 41.334 -28.5 68.001c0 24.667 9 47 27 67c79.333 87.333 191.333 131 336 131c127.333 0 226.666 -30 297.999 -90s107 -144 107 -252v-524c0 -29.333 -10.667 -54.666 -32 -75.999s-46.666 -32 -75.999 -32s-54.833 10.667 -76.5 32s-32.5 46.666 -32.5 75.999
c-49.333 -79.333 -138.666 -119 -267.999 -119c-100 0 -180.667 28.667 -242 86s-92 132 -92 224zM194.999 1171c0 72.667 34 109 102 109s102 -36.333 102 -109c0 -69.333 -34 -104 -102 -104s-102 34.667 -102 104zM275.999 282.998c0 -40 14.167 -70.833 42.5 -92.5
s70.833 -32.5 127.5 -32.5c57.333 0 106.5 16.833 147.5 50.5s61.5 78.167 61.5 133.5v57h-239c-44.667 0 -79.167 -10 -103.5 -30s-36.5 -48.667 -36.5 -86zM564.999 1171c0 72.667 34.333 109 103 109c68 0 102 -36.333 102 -109c0 -69.333 -34 -104 -102 -104
c-68.667 0 -103 34.667 -103 104z" />
    <glyph glyph-name="aring" unicode="&#xe5;" horiz-adv-x="966" 
d="M55 283c0 90.667 31.832 161.332 95.499 211.999s142.5 76 236.5 76h268v37c0 46.667 -16.333 84 -49 112s-78.334 42 -137.001 42c-40 0 -76 -7 -108 -21s-64.333 -33 -97 -57c-19.333 -13.333 -39.666 -20 -60.999 -20c-26.667 0 -49.5 9.33301 -68.5 28
s-28.5 41.334 -28.5 68.001c0 24.667 9 47 27 67c79.333 87.333 191.333 131 336 131c127.333 0 226.666 -30 297.999 -90s107 -144 107 -252v-524c0 -29.333 -10.667 -54.666 -32 -75.999s-46.666 -32 -75.999 -32s-54.833 10.667 -76.5 32s-32.5 46.666 -32.5 75.999
c-49.333 -79.333 -138.666 -119 -267.999 -119c-100 0 -180.667 28.667 -242 86s-92 132 -92 224zM265.999 1229c0 64 18.333 113.833 55 149.5s90.667 53.5 162 53.5s125.333 -17.833 162 -53.5s55 -85.5 55 -149.5s-18.333 -113.833 -55 -149.5s-90.667 -53.5 -162 -53.5
s-125.333 17.833 -162 53.5s-55 85.5 -55 149.5zM275.999 282.998c0 -40 14.167 -70.833 42.5 -92.5s70.833 -32.5 127.5 -32.5c57.333 0 106.5 16.833 147.5 50.5s61.5 78.167 61.5 133.5v57h-239c-44.667 0 -79.167 -10 -103.5 -30s-36.5 -48.667 -36.5 -86zM380.999 1229
c0 -33.333 7.83301 -58.5 23.5 -75.5s41.834 -25.5 78.501 -25.5c68.667 0 103 33.667 103 101c0 32.667 -8 57.5 -24 74.5s-42.333 25.5 -79 25.5s-62.834 -8.33301 -78.501 -25s-23.5 -41.667 -23.5 -75z" />
    <glyph glyph-name="ae" unicode="&#xe6;" horiz-adv-x="1556" 
d="M55 283c0 90.667 31.834 161.336 95.501 212.003s142.5 76 236.5 76h268v37c0 46.667 -16.333 84 -49 112s-78.334 42 -137.001 42c-40 0 -76 -7 -108 -21s-64.333 -33 -97 -57c-19.333 -13.333 -39.666 -20 -60.999 -20c-26.667 0 -49.5 9.33301 -68.5 28
s-28.5 41.334 -28.5 68.001c0 24.667 9 47 27 67c79.333 87.333 191.333 131 336 131c141.333 0 247.666 -36.667 318.999 -110c75.333 73.333 178 110 308 110c66 0 124.333 -9.83301 175 -29.5s90.334 -43.834 119.001 -72.501s52 -62.334 70 -101.001
s30 -74.334 36 -107.001s9 -65 9 -97c0 -20.667 -0.333008 -36.5 -1 -47.5s-3.16699 -25.167 -7.5 -42.5s-10.5 -30.5 -18.5 -39.5s-20.333 -17 -37 -24s-37 -10.5 -61 -10.5h-506c0 -74 22 -128.333 66 -163s102 -52 174 -52s139.667 21.333 203 64
c24 14.667 45.667 22 65 22c26.667 0 49.5 -9.33301 68.5 -28s28.5 -41.334 28.5 -68.001c0 -30 -11.667 -55.333 -35 -76c-16 -15.333 -35.833 -30.333 -59.5 -45s-60.5 -29.667 -110.5 -45s-103.333 -23 -160 -23c-84.667 0 -158.667 14.167 -222 42.5
s-112.333 70.166 -147 125.499c-24.667 -35.333 -50.167 -64.166 -76.5 -86.499s-63.333 -41.5 -111 -57.5s-103.834 -24 -168.501 -24c-100 0 -180.667 28.667 -242 86s-92 132 -92 224zM276.001 283.002c0 -40 14.167 -70.833 42.5 -92.5s70.833 -32.5 127.5 -32.5
c57.333 0 106.5 16.833 147.5 50.5s61.5 78.167 61.5 133.5v57h-239c-44.667 0 -79.167 -10 -103.5 -30s-36.5 -48.667 -36.5 -86zM881.001 571.002h405.001c0 55.333 -16.167 102.333 -48.5 141s-79.5 58 -141.5 58c-61.333 0 -111.333 -17.167 -150 -51.5
s-60.334 -83.5 -65.001 -147.5z" />
    <glyph glyph-name="ccedilla" unicode="&#xe7;" horiz-adv-x="923" 
d="M59 467c0 164 38.498 286.831 115.498 368.498s186.833 122.5 329.5 122.5c57.333 0 111 -9 161 -27s87.333 -36.5 112 -55.5s45 -38.5 61 -58.5c14.667 -21.333 22 -42.333 22 -63c0 -27.333 -9.5 -50.666 -28.5 -69.999s-42.167 -29 -69.5 -29
c-29.333 0 -54.666 11.667 -75.999 35c-49.333 53.333 -110 80 -182 80c-71.333 0 -126 -26.333 -164 -79s-57 -127.334 -57 -224.001c0 -98.667 19 -174.167 57 -226.5s92.667 -78.5 164 -78.5c28.667 0 57.167 5 85.5 15s49.333 19.5 63 28.5s31.834 21.833 54.501 38.5
c19.333 13.333 39.666 20 60.999 20c27.333 0 50.5 -9.5 69.5 -28.5s28.5 -42.167 28.5 -69.5c0 -29.333 -11.667 -54.666 -35 -75.999c-32 -29.333 -76 -56.166 -132 -80.499s-121 -36.5 -195 -36.5h-25l-8 -82c18 4.66699 42 7 72 7c58 0 104.833 -16 140.5 -48
s53.5 -77 53.5 -135c0 -132 -74.333 -198 -223 -198c-26.667 0 -55.5 4 -86.5 12s-56.833 19 -77.5 33c-14.667 10 -22 24.333 -22 43c0 14.667 5.16699 27.167 15.5 37.5s22.833 15.5 37.5 15.5c8.66699 0 17 -2 25 -6c40 -19.333 78.667 -29 116 -29
c32.667 0 57.667 6.83301 75 20.5s26 37.5 26 71.5c0 57.333 -37 86 -111 86c-12 0 -27.667 -2 -47 -6s-33.666 -6 -42.999 -6c-28.667 0 -43 15 -43 45v152c-103.333 22 -182.5 73.167 -237.5 153.5s-82.5 189.5 -82.5 327.5z" />
    <glyph glyph-name="egrave" unicode="&#xe8;" horiz-adv-x="964" 
d="M61 469c0 156 38.8311 276.504 116.498 361.504s186.5 127.5 326.5 127.5c66 0 124.333 -9.83301 175 -29.5s90.334 -43.834 119.001 -72.501s52 -62.334 70 -101.001s30 -74.334 36 -107.001s9 -65 9 -97c0 -20.667 -0.333008 -36.5 -1 -47.5
s-3.16699 -25.167 -7.5 -42.5s-10.5 -30.5 -18.5 -39.5s-20.333 -17 -37 -24s-37 -10.5 -61 -10.5h-505c0 -70.667 22 -124.167 66 -160.5s101.667 -54.5 173 -54.5c72 0 139.667 21.333 203 64c24 14.667 46 22 66 22c26.667 0 49.334 -9.33301 68.001 -28
s28 -41.334 28 -68.001c0 -30 -11.667 -55.333 -35 -76c-16 -15.333 -35.833 -30.333 -59.5 -45s-60.5 -29.667 -110.5 -45s-103.333 -23 -160 -23c-146.667 0 -260.167 41 -340.5 123s-120.5 206.333 -120.5 373zM288.998 571.004h405.001
c0 55.333 -16.167 102.333 -48.5 141s-79.5 58 -141.5 58c-61.333 0 -111.333 -17.167 -150 -51.5s-60.334 -83.5 -65.001 -147.5zM326.999 1294c0.666992 23.333 11.666 45.333 32.999 66c20.667 20.667 42.667 31.5 66 32.5s42.333 -7.83301 57 -26.5l174 -221
c12 -12 17.333 -26.5 16 -43.5s-10 -33.167 -26 -48.5c-30.667 -28.667 -62 -28.667 -94 0l-201 184c-17.333 14.667 -25.666 33.667 -24.999 57z" />
    <glyph glyph-name="eacute" unicode="&#xe9;" horiz-adv-x="964" 
d="M61 469c0 156 38.8311 276.504 116.498 361.504s186.5 127.5 326.5 127.5c66 0 124.333 -9.83301 175 -29.5s90.334 -43.834 119.001 -72.501s52 -62.334 70 -101.001s30 -74.334 36 -107.001s9 -65 9 -97c0 -20.667 -0.333008 -36.5 -1 -47.5
s-3.16699 -25.167 -7.5 -42.5s-10.5 -30.5 -18.5 -39.5s-20.333 -17 -37 -24s-37 -10.5 -61 -10.5h-505c0 -70.667 22 -124.167 66 -160.5s101.667 -54.5 173 -54.5c72 0 139.667 21.333 203 64c24 14.667 46 22 66 22c26.667 0 49.334 -9.33301 68.001 -28
s28 -41.334 28 -68.001c0 -30 -11.667 -55.333 -35 -76c-16 -15.333 -35.833 -30.333 -59.5 -45s-60.5 -29.667 -110.5 -45s-103.333 -23 -160 -23c-146.667 0 -260.167 41 -340.5 123s-120.5 206.333 -120.5 373zM288.998 571.004h405.001
c0 55.333 -16.167 102.333 -48.5 141s-79.5 58 -141.5 58c-61.333 0 -111.333 -17.167 -150 -51.5s-60.334 -83.5 -65.001 -147.5zM358.999 1101.5c-1.33301 17 3.99902 31.5 15.999 43.5l174 221c14.667 18.667 33.667 27.5 57 26.5s45.333 -11.833 66 -32.5
c21.333 -20.667 32.333 -42.667 33 -66s-7.66602 -42.333 -24.999 -57l-201 -184c-32 -28.667 -63.333 -28.667 -94 0c-16 15.333 -24.667 31.5 -26 48.5z" />
    <glyph glyph-name="ecircumflex" unicode="&#xea;" horiz-adv-x="964" 
d="M61 469c0 156 38.8311 276.504 116.498 361.504s186.5 127.5 326.5 127.5c66 0 124.333 -9.83301 175 -29.5s90.334 -43.834 119.001 -72.501s52 -62.334 70 -101.001s30 -74.334 36 -107.001s9 -65 9 -97c0 -20.667 -0.333008 -36.5 -1 -47.5
s-3.16699 -25.167 -7.5 -42.5s-10.5 -30.5 -18.5 -39.5s-20.333 -17 -37 -24s-37 -10.5 -61 -10.5h-505c0 -70.667 22 -124.167 66 -160.5s101.667 -54.5 173 -54.5c72 0 139.667 21.333 203 64c24 14.667 46 22 66 22c26.667 0 49.334 -9.33301 68.001 -28
s28 -41.334 28 -68.001c0 -30 -11.667 -55.333 -35 -76c-16 -15.333 -35.833 -30.333 -59.5 -45s-60.5 -29.667 -110.5 -45s-103.333 -23 -160 -23c-146.667 0 -260.167 41 -340.5 123s-120.5 206.333 -120.5 373zM228.998 1137c0 27.333 12.333 49.666 37 66.999l191 127
c14 10 29.667 15 47 15s33 -5 47 -15l190 -127c24.667 -17.333 37 -39.666 37 -66.999c0 -22.667 -7.66699 -41.667 -23 -57s-34.333 -23 -57 -23c-20 0 -35.667 4.66699 -47 14l-147 103l-148 -103c-12 -9.33301 -27.667 -14 -47 -14c-22.667 0 -41.667 7.66699 -57 23
s-23 34.333 -23 57zM288.998 571.004h405.001c0 55.333 -16.167 102.333 -48.5 141s-79.5 58 -141.5 58c-61.333 0 -111.333 -17.167 -150 -51.5s-60.334 -83.5 -65.001 -147.5z" />
    <glyph glyph-name="edieresis" unicode="&#xeb;" horiz-adv-x="964" 
d="M61 469c0 156 38.8311 276.504 116.498 361.504s186.5 127.5 326.5 127.5c66 0 124.333 -9.83301 175 -29.5s90.334 -43.834 119.001 -72.501s52 -62.334 70 -101.001s30 -74.334 36 -107.001s9 -65 9 -97c0 -20.667 -0.333008 -36.5 -1 -47.5
s-3.16699 -25.167 -7.5 -42.5s-10.5 -30.5 -18.5 -39.5s-20.333 -17 -37 -24s-37 -10.5 -61 -10.5h-505c0 -70.667 22 -124.167 66 -160.5s101.667 -54.5 173 -54.5c72 0 139.667 21.333 203 64c24 14.667 46 22 66 22c26.667 0 49.334 -9.33301 68.001 -28
s28 -41.334 28 -68.001c0 -30 -11.667 -55.333 -35 -76c-16 -15.333 -35.833 -30.333 -59.5 -45s-60.5 -29.667 -110.5 -45s-103.333 -23 -160 -23c-146.667 0 -260.167 41 -340.5 123s-120.5 206.333 -120.5 373zM216.998 1171c0 72.667 34 109 102 109
c68.667 0 103 -36.333 103 -109c0 -69.333 -34.333 -104 -103 -104c-68 0 -102 34.667 -102 104zM288.998 571.004h405.001c0 55.333 -16.167 102.333 -48.5 141s-79.5 58 -141.5 58c-61.333 0 -111.333 -17.167 -150 -51.5s-60.334 -83.5 -65.001 -147.5zM587.999 1171
c0 72.667 34 109 102 109c68.667 0 103 -36.333 103 -109c0 -69.333 -34.333 -104 -103 -104c-68 0 -102 34.667 -102 104z" />
    <glyph glyph-name="igrave" unicode="&#xec;" horiz-adv-x="436" 
d="M26 1294c0.666992 23.333 11.666 45.333 32.999 66c20.667 20.667 42.667 31.5 66 32.5s42.333 -7.83301 57 -26.5l174 -221c12 -12 17.333 -26.5 16 -43.5s-10 -33.167 -26 -48.5c-30.667 -28.667 -62 -28.667 -94 0l-201 184c-17.333 14.667 -25.666 33.667 -24.999 57
zM112.999 94v742c0 30.667 10.667 56.667 32 78s47.333 32 78 32s56.834 -10.667 78.501 -32s32.5 -47.333 32.5 -78v-742c0 -30.667 -10.833 -56.667 -32.5 -78s-47.834 -32 -78.501 -32s-56.667 10.667 -78 32s-32 47.333 -32 78z" />
    <glyph glyph-name="iacute" unicode="&#xed;" horiz-adv-x="436" 
d="M84.5 1101.5c-1.66699 17 3.49902 31.5 15.499 43.5l174 221c14.667 18.667 33.667 27.5 57 26.5s45.333 -11.833 66 -32.5c22 -20.667 33.333 -42.667 34 -66s-7.66602 -42.333 -24.999 -57l-201 -184c-32 -28.667 -63.333 -28.667 -94 0
c-16 15.333 -24.833 31.5 -26.5 48.5zM112.999 94v742c0 30.667 10.667 56.667 32 78s47.333 32 78 32s56.834 -10.667 78.501 -32s32.5 -47.333 32.5 -78v-742c0 -30.667 -10.833 -56.667 -32.5 -78s-47.834 -32 -78.501 -32s-56.667 10.667 -78 32s-32 47.333 -32 78z" />
    <glyph glyph-name="icircumflex" unicode="&#xee;" horiz-adv-x="436" 
d="M-51 1137c0 27.333 12.333 49.666 37 66.999l190 127c14 10 29.667 15 47 15s33 -5 47 -15l191 -127c24.667 -17.333 37 -39.666 37 -66.999c0 -22.667 -7.66699 -41.667 -23 -57s-34.333 -23 -57 -23c-20 0 -35.667 4.66699 -47 14l-148 103l-147 -103
c-12 -9.33301 -27.667 -14 -47 -14c-22.667 0 -41.667 7.66699 -57 23s-23 34.333 -23 57zM113 94v742c0 30.667 10.667 56.667 32 78s47.333 32 78 32s56.834 -10.667 78.501 -32s32.5 -47.333 32.5 -78v-742c0 -30.667 -10.833 -56.667 -32.5 -78s-47.834 -32 -78.501 -32
s-56.667 10.667 -78 32s-32 47.333 -32 78z" />
    <glyph glyph-name="idieresis" unicode="&#xef;" horiz-adv-x="436" 
d="M-63 1171c0 72.667 34 109 102 109s102 -36.333 102 -109c0 -69.333 -34 -104 -102 -104s-102 34.667 -102 104zM113 94v742c0 30.667 10.667 56.667 32 78s47.333 32 78 32s56.834 -10.667 78.501 -32s32.5 -47.333 32.5 -78v-742c0 -30.667 -10.833 -56.667 -32.5 -78
s-47.834 -32 -78.501 -32s-56.667 10.667 -78 32s-32 47.333 -32 78zM307 1171c0 72.667 34.333 109 103 109c68 0 102 -36.333 102 -109c0 -69.333 -34 -104 -102 -104c-68.667 0 -103 34.667 -103 104z" />
    <glyph glyph-name="eth" unicode="&#xf0;" horiz-adv-x="1019" 
d="M59 465c0 164 39.333 287.17 118 369.503s189 123.5 331 123.5c74 0 137.333 -14.333 190 -43c-21.333 70.667 -50.666 131 -87.999 181l-90 -60c-12 -8 -27 -12 -45 -12c-25.333 0 -47.333 9.33301 -66 28s-28 40.667 -28 66c0 33.333 14.333 59.333 43 78l45 31
c-34.667 23.333 -77 45.666 -127 66.999c-36.667 15.333 -55 42 -55 80c0 23.333 8.16699 43.166 24.5 59.499s36.166 24.5 59.499 24.5c14.667 0 31 -3.33301 49 -10c76.667 -32 145 -72.333 205 -121l73 49c12.667 8.66699 27.667 13 45 13c25.333 0 47.5 -9.5 66.5 -28.5
s28.5 -41.167 28.5 -66.5c0 -32.667 -14.333 -58.334 -43 -77.001l-39 -25c129.333 -170.667 196 -405 200 -703v-24c0 -163.333 -39.333 -286.166 -118 -368.499s-188.667 -123.5 -330 -123.5s-251.5 41.167 -330.5 123.5s-118.5 205.166 -118.5 368.499zM283 465.003
c0 -100 19 -175.5 57 -226.5s94 -76.5 168 -76.5s130 25.5 168 76.5s57 126.5 57 226.5c0 203.333 -75 305 -225 305s-225 -101.667 -225 -305z" />
    <glyph glyph-name="ntilde" unicode="&#xf1;" horiz-adv-x="1021" 
d="M102 90l-0.00195312 746c0 30.667 10.833 56.667 32.5 78s47.834 32 78.501 32s56.834 -10.667 78.501 -32s32.5 -47.333 32.5 -78c22.667 34 56.167 62.833 100.5 86.5s98.166 35.5 161.499 35.5c229.333 0 344 -118.667 344 -356v-512
c0 -30 -10.833 -55.167 -32.5 -75.5s-47.834 -30.5 -78.501 -30.5c-32.667 0 -59.167 10 -79.5 30s-30.5 45.333 -30.5 76v471c0 131.333 -60.333 197 -181 197c-136 0 -204 -70.333 -204 -211v-457c0 -30.667 -10.667 -56 -32 -76s-47.666 -30 -78.999 -30
s-57.666 10 -78.999 30s-32 45.333 -32 76zM204.998 1157c0 14 2.00195 25 6.00195 33c14 33.333 36.833 59.333 68.5 78s67.5 28 107.5 28c41.333 0 90.166 -11.5 146.499 -34.5s95.5 -34.5 117.5 -34.5c20.667 0 38.667 11 54 33c16 22.667 38.333 34 67 34
c22.667 0 41.667 -7.66699 57 -23s23 -34.333 23 -57c0 -13.333 -2 -24 -6 -32c-14 -33.333 -37 -59.5 -69 -78.5s-67.667 -28.5 -107 -28.5c-42 0 -91.833 11.667 -149.5 35s-95.834 35 -114.501 35c-20.667 0 -38.667 -11 -54 -33c-16 -23.333 -38.333 -35 -67 -35
c-22.667 0 -41.667 7.66699 -57 23s-23 34.333 -23 57z" />
    <glyph glyph-name="ograve" unicode="&#xf2;" horiz-adv-x="1015" 
d="M59 465c0 164 39.333 287.167 118 369.5s189 123.5 331 123.5s252.167 -41.167 330.5 -123.5s117.5 -205.5 117.5 -369.5c0 -163.333 -39.333 -286.166 -118 -368.499s-188.667 -123.5 -330 -123.5s-251.5 41.167 -330.5 123.5s-118.5 205.166 -118.5 368.499zM283 465
c0 -100 19 -175.5 57 -226.5s94 -76.5 168 -76.5s130 25.5 168 76.5s57 126.5 57 226.5c0 203.333 -75 305 -225 305s-225 -101.667 -225 -305zM337 1294c0.666992 23.333 11.999 45.333 33.999 66c20.667 20.667 42.667 31.5 66 32.5s42.333 -7.83301 57 -26.5l174 -221
c12 -12 17.167 -26.5 15.5 -43.5s-10.5 -33.167 -26.5 -48.5c-30.667 -28.667 -62 -28.667 -94 0l-201 184c-17.333 14.667 -25.666 33.667 -24.999 57z" />
    <glyph glyph-name="oacute" unicode="&#xf3;" horiz-adv-x="1015" 
d="M59 465c0 164 39.333 287.167 118 369.5s189 123.5 331 123.5s252.167 -41.167 330.5 -123.5s117.5 -205.5 117.5 -369.5c0 -163.333 -39.333 -286.166 -118 -368.499s-188.667 -123.5 -330 -123.5s-251.5 41.167 -330.5 123.5s-118.5 205.166 -118.5 368.499zM283 465
c0 -100 19 -175.5 57 -226.5s94 -76.5 168 -76.5s130 25.5 168 76.5s57 126.5 57 226.5c0 203.333 -75 305 -225 305s-225 -101.667 -225 -305zM383.5 1101.5c-1.66699 17 3.49902 31.5 15.499 43.5l174 221c14.667 18.667 33.667 27.5 57 26.5s45.333 -11.833 66 -32.5
c22 -20.667 33.333 -42.667 34 -66s-7.66602 -42.333 -24.999 -57l-201 -184c-32 -28.667 -63.333 -28.667 -94 0c-16 15.333 -24.833 31.5 -26.5 48.5z" />
    <glyph glyph-name="ocircumflex" unicode="&#xf4;" horiz-adv-x="1015" 
d="M59 465c0 164 39.333 287.167 118 369.5s189 123.5 331 123.5s252.167 -41.167 330.5 -123.5s117.5 -205.5 117.5 -369.5c0 -163.333 -39.333 -286.166 -118 -368.499s-188.667 -123.5 -330 -123.5s-251.5 41.167 -330.5 123.5s-118.5 205.166 -118.5 368.499zM238 1137
c0 28 12 50.333 36 67l191 127c14 10 29.667 15 47 15s33 -5 47 -15l191 -127c24 -16.667 36 -39 36 -67c0 -22.667 -7.5 -41.667 -22.5 -57s-33.833 -23 -56.5 -23c-20.667 0 -36.667 4.66699 -48 14l-147 103l-147 -103c-11.333 -9.33301 -27.333 -14 -48 -14
c-22.667 0 -41.5 7.66699 -56.5 23s-22.5 34.333 -22.5 57zM283 465c0 -100 19 -175.5 57 -226.5s94 -76.5 168 -76.5s130 25.5 168 76.5s57 126.5 57 226.5c0 203.333 -75 305 -225 305s-225 -101.667 -225 -305z" />
    <glyph glyph-name="otilde" unicode="&#xf5;" horiz-adv-x="1015" 
d="M59 465c0 164 39.333 287.167 118 369.5s189 123.5 331 123.5s252.167 -41.167 330.5 -123.5s117.5 -205.5 117.5 -369.5c0 -163.333 -39.333 -286.166 -118 -368.499s-188.667 -123.5 -330 -123.5s-251.5 41.167 -330.5 123.5s-118.5 205.166 -118.5 368.499zM190 1157
c0 12.667 2.33496 23.667 7.00195 33c14 33.333 36.833 59.333 68.5 78s67.5 28 107.5 28c41.333 0 90.166 -11.5 146.499 -34.5s95.5 -34.5 117.5 -34.5c20 0 37.667 11 53 33c16 22.667 38.667 34 68 34c22.667 0 41.667 -7.66699 57 -23s23 -34.333 23 -57
c0 -12 -2.33301 -22.667 -7 -32c-14 -33.333 -37 -59.5 -69 -78.5s-67.667 -28.5 -107 -28.5c-42 0 -91.833 11.667 -149.5 35s-95.834 35 -114.501 35c-20 0 -37.667 -11 -53 -33c-16 -23.333 -38.667 -35 -68 -35c-22.667 0 -41.667 7.66699 -57 23s-23 34.333 -23 57z
M283.002 465c0 -100 19 -175.5 57 -226.5s94 -76.5 168 -76.5s130 25.5 168 76.5s57 126.5 57 226.5c0 203.333 -75 305 -225 305s-225 -101.667 -225 -305z" />
    <glyph glyph-name="odieresis" unicode="&#xf6;" horiz-adv-x="1015" 
d="M59 465c0 164 39.333 287.167 118 369.5s189 123.5 331 123.5s252.167 -41.167 330.5 -123.5s117.5 -205.5 117.5 -369.5c0 -163.333 -39.333 -286.166 -118 -368.499s-188.667 -123.5 -330 -123.5s-251.5 41.167 -330.5 123.5s-118.5 205.166 -118.5 368.499zM223 1171
c0 72.667 34.333 109 103 109c68 0 102 -36.333 102 -109c0 -69.333 -34 -104 -102 -104c-68.667 0 -103 34.667 -103 104zM283 465c0 -100 19 -175.5 57 -226.5s94 -76.5 168 -76.5s130 25.5 168 76.5s57 126.5 57 226.5c0 203.333 -75 305 -225 305
s-225 -101.667 -225 -305zM594 1171c0 72.667 34 109 102 109c68.667 0 103 -36.333 103 -109c0 -69.333 -34.333 -104 -103 -104c-68 0 -102 34.667 -102 104z" />
    <glyph glyph-name="divide" unicode="&#xf7;" horiz-adv-x="929" 
d="M0 449c0 25.333 9.33301 47.333 28 66s40.667 28 66 28h742c25.333 0 47.333 -9.33301 66 -28s28 -40.667 28 -66s-9.33301 -47.5 -28 -66.5s-40.667 -28.5 -66 -28.5h-742c-25.333 0 -47.333 9.5 -66 28.5s-28 41.167 -28 66.5zM352 172c0 30 10.667 55.667 32 77
s47.666 32 78.999 32c33.333 0 60.833 -10.667 82.5 -32s32.5 -47 32.5 -77c0 -30.667 -10.833 -56.5 -32.5 -77.5s-49.167 -31.5 -82.5 -31.5c-31.333 0 -57.666 10.5 -78.999 31.5s-32 46.833 -32 77.5zM352 725c0 31.333 10.667 57.667 32 79s47.666 32 78.999 32
c34 0 61.667 -10.5 83 -31.5s32 -47.5 32 -79.5c0 -30.667 -10.833 -56.5 -32.5 -77.5s-49.167 -31.5 -82.5 -31.5c-31.333 0 -57.666 10.5 -78.999 31.5s-32 46.833 -32 77.5z" />
    <glyph glyph-name="oslash" unicode="&#xf8;" horiz-adv-x="1015" 
d="M39 66c0 22 7.99902 40.999 23.999 56.999l56 57c-40 76 -60 171 -60 285c0 164 39.333 287.167 118 369.5s189 123.5 331 123.5c111.333 0 203.333 -25 276 -75l52 53c16.667 16.667 36.334 25 59.001 25s42 -8 58 -24s24 -35.333 24 -58
c0 -22 -8.33301 -41.333 -25 -58l-59 -63c42 -78 63 -175.667 63 -293c0 -163.333 -39.333 -286.166 -118 -368.499s-188.667 -123.5 -330 -123.5c-115.333 0 -210.333 26.667 -285 80l-43 -45c-16 -16 -35.667 -24 -59 -24c-22.667 0 -42 8 -58 24s-24 35.333 -24 58z
M282.999 464.999c0 -41.333 2.66699 -75.667 8 -103l348 367c-35.333 27.333 -79 41 -131 41c-150 0 -225 -101.667 -225 -305zM368.999 206.998c36 -30 82.333 -45 139 -45c74 0 130 25.5 168 76.5s57 126.5 57 226.5c0 38 -3.33301 76.333 -10 115z" />
    <glyph glyph-name="ugrave" unicode="&#xf9;" horiz-adv-x="993" 
d="M92 358l-0.00195312 478.004c0 30.667 10.833 56.667 32.5 78s47.834 32 78.501 32s56.667 -10.667 78 -32s32 -47.333 32 -78v-478c0 -55.333 13.5 -99.833 40.5 -133.5s75.167 -50.5 144.5 -50.5c121.333 0 182 61.333 182 184v478c0 30.667 10.833 56.667 32.5 78
s47.834 32 78.501 32s56.667 -10.667 78 -32s32 -47.333 32 -78v-478c0 -54.667 -5.83301 -103.334 -17.5 -146.001s-31.667 -82.834 -60 -120.501s-70 -66.834 -125 -87.501s-121.833 -31 -200.5 -31c-64 0 -120.167 7 -168.5 21s-87.333 32.667 -117 56s-53.667 52 -72 86
s-31 68.667 -38 104s-10.5 74.666 -10.5 117.999zM308.998 1294c0.666992 23.333 11.666 45.333 32.999 66c20.667 20.667 42.667 31.5 66 32.5s42.333 -7.83301 57 -26.5l174 -221c12 -12 17.333 -26.5 16 -43.5s-10 -33.167 -26 -48.5c-30.667 -28.667 -62 -28.667 -94 0
l-201 184c-17.333 14.667 -25.666 33.667 -24.999 57z" />
    <glyph glyph-name="uacute" unicode="&#xfa;" horiz-adv-x="993" 
d="M92 358l-0.00195312 478.004c0 30.667 10.833 56.667 32.5 78s47.834 32 78.501 32s56.667 -10.667 78 -32s32 -47.333 32 -78v-478c0 -55.333 13.5 -99.833 40.5 -133.5s75.167 -50.5 144.5 -50.5c121.333 0 182 61.333 182 184v478c0 30.667 10.833 56.667 32.5 78
s47.834 32 78.501 32s56.667 -10.667 78 -32s32 -47.333 32 -78v-478c0 -54.667 -5.83301 -103.334 -17.5 -146.001s-31.667 -82.834 -60 -120.501s-70 -66.834 -125 -87.501s-121.833 -31 -200.5 -31c-64 0 -120.167 7 -168.5 21s-87.333 32.667 -117 56s-53.667 52 -72 86
s-31 68.667 -38 104s-10.5 74.666 -10.5 117.999zM379.498 1101.5c-1.66699 17 3.49902 31.5 15.499 43.5l174 221c14.667 18.667 33.667 27.5 57 26.5s45.333 -11.833 66 -32.5c21.333 -20.667 32.333 -42.667 33 -66s-7.66602 -42.333 -24.999 -57l-200 -184
c-32 -28.667 -63.333 -28.667 -94 0c-16 15.333 -24.833 31.5 -26.5 48.5z" />
    <glyph glyph-name="ucircumflex" unicode="&#xfb;" horiz-adv-x="993" 
d="M92 358l-0.00195312 478.004c0 30.667 10.833 56.667 32.5 78s47.834 32 78.501 32s56.667 -10.667 78 -32s32 -47.333 32 -78v-478c0 -55.333 13.5 -99.833 40.5 -133.5s75.167 -50.5 144.5 -50.5c121.333 0 182 61.333 182 184v478c0 30.667 10.833 56.667 32.5 78
s47.834 32 78.501 32s56.667 -10.667 78 -32s32 -47.333 32 -78v-478c0 -54.667 -5.83301 -103.334 -17.5 -146.001s-31.667 -82.834 -60 -120.501s-70 -66.834 -125 -87.501s-121.833 -31 -200.5 -31c-64 0 -120.167 7 -168.5 21s-87.333 32.667 -117 56s-53.667 52 -72 86
s-31 68.667 -38 104s-10.5 74.666 -10.5 117.999zM226.998 1137c0 27.333 12.333 49.666 37 66.999l191 127c14 10 29.667 15 47 15s33 -5 47 -15l190 -127c24.667 -17.333 37 -39.666 37 -66.999c0 -22.667 -7.66699 -41.667 -23 -57s-34.333 -23 -57 -23
c-20 0 -35.667 4.66699 -47 14l-147 103l-148 -103c-11.333 -9.33301 -27 -14 -47 -14c-22.667 0 -41.667 7.66699 -57 23s-23 34.333 -23 57z" />
    <glyph glyph-name="udieresis" unicode="&#xfc;" horiz-adv-x="993" 
d="M92 358l-0.00195312 478.004c0 30.667 10.833 56.667 32.5 78s47.834 32 78.501 32s56.667 -10.667 78 -32s32 -47.333 32 -78v-478c0 -55.333 13.5 -99.833 40.5 -133.5s75.167 -50.5 144.5 -50.5c121.333 0 182 61.333 182 184v478c0 30.667 10.833 56.667 32.5 78
s47.834 32 78.501 32s56.667 -10.667 78 -32s32 -47.333 32 -78v-478c0 -54.667 -5.83301 -103.334 -17.5 -146.001s-31.667 -82.834 -60 -120.501s-70 -66.834 -125 -87.501s-121.833 -31 -200.5 -31c-64 0 -120.167 7 -168.5 21s-87.333 32.667 -117 56s-53.667 52 -72 86
s-31 68.667 -38 104s-10.5 74.666 -10.5 117.999zM216.998 1171c0 72.667 34 109 102 109c68.667 0 103 -36.333 103 -109c0 -69.333 -34.333 -104 -103 -104c-68 0 -102 34.667 -102 104zM587.998 1171c0 72.667 34 109 102 109c68.667 0 103 -36.333 103 -109
c0 -69.333 -34.333 -104 -103 -104c-68 0 -102 34.667 -102 104z" />
    <glyph glyph-name="yacute" unicode="&#xfd;" horiz-adv-x="925" 
d="M-18 -309c0 29.333 10.1689 53.666 30.502 72.999s45.5 29 75.5 29c60.667 0 109.667 21.833 147 65.5s75 112.834 113 207.501l-315 727c-5.33301 13.333 -8 27.666 -8 42.999c0 30.667 10.667 56.667 32 78s47.333 32 78 32c27.333 0 49.666 -7.16699 66.999 -21.5
s29.333 -30.166 36 -47.499l225 -570l225 570c6.66699 17.333 18.667 33.166 36 47.499s39.666 21.5 66.999 21.5c30.667 0 56.667 -10.667 78 -32s32 -47.333 32 -78c0 -15.333 -2.66699 -29.666 -8 -42.999l-381 -861c-102.667 -229.333 -244 -344 -424 -344
c-30 0 -55.167 9.83301 -75.5 29.5s-30.5 44.167 -30.5 73.5zM357.002 1101.5c-1.33301 17 3.99902 31.5 15.999 43.5l174 221c14.667 18.667 33.667 27.5 57 26.5s45.333 -11.833 66 -32.5c21.333 -20.667 32.333 -42.667 33 -66s-7.66602 -42.333 -24.999 -57l-201 -184
c-32 -28.667 -63.333 -28.667 -94 0c-16 15.333 -24.667 31.5 -26 48.5z" />
    <glyph glyph-name="thorn" unicode="&#xfe;" horiz-adv-x="1052" 
d="M113 -301l0.000976562 1649c0 30.667 10.667 56.667 32 78s47.333 32 78 32s56.834 -10.667 78.501 -32s32.5 -47.333 32.5 -78v-512c18.667 30.667 49.667 58.667 93 84s94.333 38 153 38c132.667 0 234.334 -40.833 305.001 -122.5s106 -204.5 106 -368.5
c0 -164.667 -35.667 -288.167 -107 -370.5s-174.333 -123.5 -309 -123.5c-50.667 0 -97.834 9.5 -141.501 28.5s-76.834 43.833 -99.501 74.5v-377c0 -30.667 -10.833 -56.834 -32.5 -78.501s-47.834 -32.5 -78.501 -32.5s-56.667 10.833 -78 32.5s-32 47.834 -32 78.501z
M328.001 465c0 -100 18.5 -175.5 55.5 -226.5s91.5 -76.5 163.5 -76.5s126.5 25.5 163.5 76.5s55.5 126.5 55.5 226.5c0 203.333 -73 305 -219 305s-219 -101.667 -219 -305z" />
    <glyph glyph-name="ydieresis" unicode="&#xff;" horiz-adv-x="925" 
d="M-18 -309c0 29.333 10.1689 53.666 30.502 72.999s45.5 29 75.5 29c60.667 0 109.667 21.833 147 65.5s75 112.834 113 207.501l-315 727c-5.33301 13.333 -8 27.666 -8 42.999c0 30.667 10.667 56.667 32 78s47.333 32 78 32c27.333 0 49.666 -7.16699 66.999 -21.5
s29.333 -30.166 36 -47.499l225 -570l225 570c6.66699 17.333 18.667 33.166 36 47.499s39.666 21.5 66.999 21.5c30.667 0 56.667 -10.667 78 -32s32 -47.333 32 -78c0 -15.333 -2.66699 -29.666 -8 -42.999l-381 -861c-102.667 -229.333 -244 -344 -424 -344
c-30 0 -55.167 9.83301 -75.5 29.5s-30.5 44.167 -30.5 73.5zM176.002 1171c0 72.667 34.333 109 103 109c68 0 102 -36.333 102 -109c0 -69.333 -34 -104 -102 -104c-68.667 0 -103 34.667 -103 104zM547.002 1171c0 72.667 34 109 102 109c68.667 0 103 -36.333 103 -109
c0 -69.333 -34.333 -104 -103 -104c-68 0 -102 34.667 -102 104z" />
    <glyph glyph-name="OE" unicode="&#x152;" horiz-adv-x="1880" 
d="M70 688c0 239.333 55.668 419 167.001 539s272 180 482 180c109.333 0 200.666 -17 273.999 -51c14.667 14.667 34 22 58 22h639c29.333 0 54.333 -10.333 75 -31s31 -45.667 31 -75s-10.333 -54.5 -31 -75.5s-45.667 -31.5 -75 -31.5h-521v-366h387
c28.667 0 53.334 -10.333 74.001 -31s31 -45.334 31 -74.001s-10.333 -53.167 -31 -73.5s-45.334 -30.5 -74.001 -30.5h-387v-377h543c29.333 0 54.5 -10.5 75.5 -31.5s31.5 -46.167 31.5 -75.5s-10.5 -54.333 -31.5 -75s-46.167 -31 -75.5 -31h-661c-24.667 0 -44 6 -58 18
c-84 -31.333 -175.333 -47 -274 -47c-209.333 0 -369.833 60.333 -481.5 181s-167.5 299.334 -167.5 536.001zM315.001 688c0 -336 134.667 -504 404 -504c84.667 0 155.667 15 213 45v918c-59.333 31.333 -130.333 47 -213 47c-269.333 0 -404 -168.667 -404 -506z" />
    <glyph glyph-name="oe" unicode="&#x153;" horiz-adv-x="1636" 
d="M59 465c0 164 39.3311 287.172 117.998 369.505s189 123.5 331 123.5c71.333 0 136.333 -12.833 195 -38.5s106.334 -61.167 143.001 -106.5c36 44 82.833 79.167 140.5 105.5s120.834 39.5 189.501 39.5c66 0 124.333 -9.83301 175 -29.5
s90.334 -43.834 119.001 -72.501s52 -62.334 70 -101.001s30 -74.334 36 -107.001s9 -65 9 -97c0 -20.667 -0.333008 -36.5 -1 -47.5s-3.16699 -25.167 -7.5 -42.5s-10.5 -30.5 -18.5 -39.5s-20.333 -17 -37 -24s-37 -10.5 -61 -10.5h-506
c0 -70.667 22.167 -124.167 66.5 -160.5s102.166 -54.5 173.499 -54.5c72 0 139.667 21.333 203 64c24 14.667 45.667 22 65 22c26.667 0 49.5 -9.33301 68.5 -28s28.5 -41.334 28.5 -68.001c0 -30 -11.667 -55.333 -35 -76c-16 -15.333 -35.833 -30.333 -59.5 -45
s-60.5 -29.667 -110.5 -45s-103.333 -23 -160 -23c-74 0 -141.5 12.5 -202.5 37.5s-110.167 59.833 -147.5 104.5c-36.667 -44.667 -84.167 -79.5 -142.5 -104.5s-122.833 -37.5 -193.5 -37.5c-141.333 0 -251.5 41.167 -330.5 123.5s-118.5 205.166 -118.5 368.499z
M282.998 465.005c0 -100 19 -175.5 57 -226.5s94 -76.5 168 -76.5s130 25.5 168 76.5s57 126.5 57 226.5c0 203.333 -75 305 -225 305s-225 -101.667 -225 -305zM960.998 571.005h405.001c0 55.333 -16.167 102.333 -48.5 141s-79.5 58 -141.5 58
c-61.333 0 -111.333 -17.167 -150 -51.5s-60.334 -83.5 -65.001 -147.5z" />
    <glyph glyph-name="Ydieresis" unicode="&#x178;" horiz-adv-x="1134" 
d="M39 1276c0 33.333 11.5 61.5 34.5 84.5s51.167 34.5 84.5 34.5c42 0 75.333 -18.667 100 -56l309 -485l310 485c22.667 37.333 56 56 100 56c32.667 0 60.667 -11.5 84 -34.5s35 -51.167 35 -84.5c0 -26 -6.33301 -47.333 -19 -64l-391 -583v-527
c0 -32.667 -11.5 -60.5 -34.5 -83.5s-51.167 -34.5 -84.5 -34.5c-32.667 0 -60.5 11.333 -83.5 34s-34.5 50.667 -34.5 84v527l-392 583c-12 16 -18 37.333 -18 64zM281 1620c0 72.667 34 109 102 109s102 -36.333 102 -109c0 -69.333 -34 -104 -102 -104
s-102 34.667 -102 104zM651 1620c0 72.667 34.333 109 103 109c68 0 102 -36.333 102 -109c0 -69.333 -34 -104 -102 -104c-68.667 0 -103 34.667 -103 104z" />
    <glyph glyph-name="circumflex" unicode="&#x2c6;" horiz-adv-x="684" 
d="M68 1137c0 28 12 50.333 36 67l191 127c14 10 29.667 15 47 15s33 -5 47 -15l191 -127c24 -16.667 36 -39 36 -67c0 -22.667 -7.5 -41.667 -22.5 -57s-33.833 -23 -56.5 -23c-20 0 -36 4.66699 -48 14l-147 103l-147 -103c-11.333 -9.33301 -27.333 -14 -48 -14
c-22.667 0 -41.5 7.66699 -56.5 23s-22.5 34.333 -22.5 57z" />
    <glyph glyph-name="tilde" unicode="&#x2dc;" horiz-adv-x="804" 
d="M78 1157c0 14 2.00195 25 6.00195 33c14 33.333 36.833 59.333 68.5 78s67.5 28 107.5 28c41.333 0 90.166 -11.5 146.499 -34.5s95.5 -34.5 117.5 -34.5c20.667 0 38.667 11 54 33c16 22.667 38.333 34 67 34c22.667 0 41.667 -7.66699 57 -23s23 -34.333 23 -57
c0 -13.333 -2 -24 -6 -32c-14 -33.333 -37 -59.5 -69 -78.5s-67.667 -28.5 -107 -28.5c-42 0 -91.833 11.667 -149.5 35s-95.834 35 -114.501 35c-20.667 0 -38.667 -11 -54 -33c-16.667 -23.333 -39 -35 -67 -35c-22.667 0 -41.667 7.66699 -57 23s-23 34.333 -23 57z" />
    <glyph glyph-name="uni2000" unicode="&#x2000;" horiz-adv-x="922" 
 />
    <glyph glyph-name="uni2001" unicode="&#x2001;" horiz-adv-x="1845" 
 />
    <glyph glyph-name="uni2002" unicode="&#x2002;" horiz-adv-x="922" 
 />
    <glyph glyph-name="uni2003" unicode="&#x2003;" horiz-adv-x="1845" 
 />
    <glyph glyph-name="uni2004" unicode="&#x2004;" horiz-adv-x="615" 
 />
    <glyph glyph-name="uni2005" unicode="&#x2005;" horiz-adv-x="461" 
 />
    <glyph glyph-name="uni2006" unicode="&#x2006;" horiz-adv-x="307" 
 />
    <glyph glyph-name="uni2007" unicode="&#x2007;" horiz-adv-x="307" 
 />
    <glyph glyph-name="uni2008" unicode="&#x2008;" horiz-adv-x="230" 
 />
    <glyph glyph-name="uni2009" unicode="&#x2009;" horiz-adv-x="369" 
 />
    <glyph glyph-name="uni200A" unicode="&#x200a;" horiz-adv-x="102" 
 />
    <glyph glyph-name="uni2010" unicode="&#x2010;" horiz-adv-x="774" 
d="M88 516c0 25.333 9.33301 47.333 28 66s40.667 28 66 28h410c25.333 0 47.333 -9.33301 66 -28s28 -40.667 28 -66s-9.33301 -47.333 -28 -66s-40.667 -28 -66 -28h-410c-25.333 0 -47.333 9.33301 -66 28s-28 40.667 -28 66z" />
    <glyph glyph-name="uni2011" unicode="&#x2011;" horiz-adv-x="774" 
d="M88 516c0 25.333 9.33301 47.333 28 66s40.667 28 66 28h410c25.333 0 47.333 -9.33301 66 -28s28 -40.667 28 -66s-9.33301 -47.333 -28 -66s-40.667 -28 -66 -28h-410c-25.333 0 -47.333 9.33301 -66 28s-28 40.667 -28 66z" />
    <glyph glyph-name="figuredash" unicode="&#x2012;" horiz-adv-x="774" 
d="M88 516c0 25.333 9.33301 47.333 28 66s40.667 28 66 28h410c25.333 0 47.333 -9.33301 66 -28s28 -40.667 28 -66s-9.33301 -47.333 -28 -66s-40.667 -28 -66 -28h-410c-25.333 0 -47.333 9.33301 -66 28s-28 40.667 -28 66z" />
    <glyph glyph-name="endash" unicode="&#x2013;" horiz-adv-x="1165" 
d="M172 578c0 25.333 9.33301 47.333 28 66s40.667 28 66 28h633c25.333 0 47.333 -9.33301 66 -28s28 -40.667 28 -66s-9.33301 -47.5 -28 -66.5s-40.667 -28.5 -66 -28.5h-633c-25.333 0 -47.333 9.5 -66 28.5s-28 41.167 -28 66.5z" />
    <glyph glyph-name="emdash" unicode="&#x2014;" horiz-adv-x="1800" 
d="M172 578c0 25.333 9.33301 47.333 28 66s40.667 28 66 28h1268c25.333 0 47.333 -9.33301 66 -28s28 -40.667 28 -66s-9.33301 -47.5 -28 -66.5s-40.667 -28.5 -66 -28.5h-1268c-25.333 0 -47.333 9.5 -66 28.5s-28 41.167 -28 66.5z" />
    <glyph glyph-name="quoteleft" unicode="&#x2018;" horiz-adv-x="411" 
d="M59 928c0 96.667 21.499 185.668 64.499 267.001s93.167 143.666 150.5 186.999c11.333 8.66699 22.333 13 33 13c12.667 0 23.334 -4.33301 32.001 -13s13 -19.334 13 -32.001c0 -10.667 -4 -21 -12 -31c-20.667 -26 -35.667 -45.667 -45 -59
s-18.5 -32.166 -27.5 -56.499s-13.5 -49.5 -13.5 -75.5c0 -26.667 12.333 -60 37 -100s37 -73.333 37 -100c0 -91.333 -45 -137 -135 -137c-89.333 0 -134 45.667 -134 137z" />
    <glyph glyph-name="quoteright" unicode="&#x2019;" horiz-adv-x="411" 
d="M59 836c0 9.33301 4.33496 19.333 13.002 30c20.667 26 35.667 45.667 45 59s18.5 32.166 27.5 56.499s13.5 49.5 13.5 75.5c0 26.667 -12.333 60 -37 100s-37 73.333 -37 100c0 45.333 11.667 79.666 35 102.999s56.666 35 99.999 35c88.667 0 133 -46 133 -138
c0 -96.667 -21.5 -185.667 -64.5 -267s-93.167 -143.666 -150.5 -186.999c-10.667 -8 -21.667 -12 -33 -12c-12.667 0 -23.334 4.33301 -32.001 13s-13 19.334 -13 32.001z" />
    <glyph glyph-name="quotesinglbase" unicode="&#x201a;" horiz-adv-x="448" 
d="M59 -305c0 10 4.33398 20.333 13.001 31c20.667 26 35.667 45.5 45 58.5s18.5 31.667 27.5 56s13.5 49.5 13.5 75.5c0 26.667 -12.333 60.167 -37 100.5s-37 73.833 -37 100.5c0 91.333 45 137 135 137c88.667 0 133 -45.667 133 -137
c0 -96.667 -21.5 -185.834 -64.5 -267.501s-93.167 -144.167 -150.5 -187.5c-10.667 -8 -21.667 -12 -33 -12c-12.667 0 -23.334 4.33301 -32.001 13s-13 19.334 -13 32.001z" />
    <glyph glyph-name="quotedblleft" unicode="&#x201c;" horiz-adv-x="745" 
d="M59 928c0 96.667 21.499 185.668 64.499 267.001s93.167 143.666 150.5 186.999c11.333 8.66699 22.333 13 33 13c12.667 0 23.334 -4.33301 32.001 -13s13 -19.334 13 -32.001c0 -10.667 -4 -21 -12 -31c-20.667 -26 -35.667 -45.667 -45 -59
s-18.5 -32.166 -27.5 -56.499s-13.5 -49.5 -13.5 -75.5c0 -26.667 12.333 -60 37 -100s37 -73.333 37 -100c0 -91.333 -45 -137 -135 -137c-89.333 0 -134 45.667 -134 137zM392.999 928.001c0 96.667 21.499 185.668 64.499 267.001s93.167 143.666 150.5 186.999
c11.333 8.66699 22.333 13 33 13c12.667 0 23.334 -4.33301 32.001 -13s13 -19.334 13 -32.001c0 -10.667 -4 -21 -12 -31c-20.667 -26 -35.667 -45.667 -45 -59s-18.5 -32.166 -27.5 -56.499s-13.5 -49.5 -13.5 -75.5c0 -26.667 12.333 -60 37 -100s37 -73.333 37 -100
c0 -45.333 -11.667 -79.5 -35 -102.5s-57 -34.5 -101 -34.5c-88.667 0 -133 45.667 -133 137z" />
    <glyph glyph-name="quotedblright" unicode="&#x201d;" horiz-adv-x="745" 
d="M59 836c0 9.33301 4.33496 19.333 13.002 30c20.667 26 35.667 45.667 45 59s18.5 32.166 27.5 56.499s13.5 49.5 13.5 75.5c0 26.667 -12.333 60 -37 100s-37 73.333 -37 100c0 45.333 11.667 79.666 35 102.999s56.666 35 99.999 35c88.667 0 133 -46 133 -138
c0 -96.667 -21.5 -185.667 -64.5 -267s-93.167 -143.666 -150.5 -186.999c-10.667 -8 -21.667 -12 -33 -12c-12.667 0 -23.334 4.33301 -32.001 13s-13 19.334 -13 32.001zM393.002 836c0 9.33301 4.33496 19.333 13.002 30c20.667 26 35.667 45.667 45 59
s18.5 32.166 27.5 56.499s13.5 49.5 13.5 75.5c0 26.667 -12.333 60 -37 100s-37 73.333 -37 100c0 45.333 11.667 79.666 35 102.999s56.666 35 99.999 35c88.667 0 133 -46 133 -138c0 -96.667 -21.5 -185.667 -64.5 -267s-93.167 -143.666 -150.5 -186.999
c-10.667 -8 -21.667 -12 -33 -12c-12.667 0 -23.334 4.33301 -32.001 13s-13 19.334 -13 32.001z" />
    <glyph glyph-name="quotedblbase" unicode="&#x201e;" horiz-adv-x="782" 
d="M59 -305c0 10 4.33398 20.333 13.001 31c20.667 26 35.667 45.5 45 58.5s18.5 31.667 27.5 56s13.5 49.5 13.5 75.5c0 26.667 -12.333 60.167 -37 100.5s-37 73.833 -37 100.5c0 91.333 45 137 135 137c88.667 0 133 -45.667 133 -137
c0 -96.667 -21.5 -185.834 -64.5 -267.501s-93.167 -144.167 -150.5 -187.5c-10.667 -8 -21.667 -12 -33 -12c-12.667 0 -23.334 4.33301 -32.001 13s-13 19.334 -13 32.001zM393.001 -305c0 10 4.33398 20.333 13.001 31c20.667 26 35.667 45.5 45 58.5
s18.5 31.667 27.5 56s13.5 49.5 13.5 75.5c0 26.667 -12.333 60.167 -37 100.5s-37 73.833 -37 100.5c0 91.333 45 137 135 137c88.667 0 133 -45.667 133 -137c0 -96.667 -21.5 -185.834 -64.5 -267.501s-93.167 -144.167 -150.5 -187.5c-10.667 -8 -21.667 -12 -33 -12
c-12.667 0 -23.334 4.33301 -32.001 13s-13 19.334 -13 32.001z" />
    <glyph glyph-name="bullet" unicode="&#x2022;" horiz-adv-x="856" 
d="M162 571c0 186 88.667 279 266 279s266 -93 266 -279c0 -88.667 -22.833 -155.167 -68.5 -199.5s-111.5 -66.5 -197.5 -66.5s-151.833 22.167 -197.5 66.5s-68.5 110.833 -68.5 199.5z" />
    <glyph glyph-name="uni202F" unicode="&#x202f;" horiz-adv-x="369" 
 />
    <glyph glyph-name="guilsinglleft" unicode="&#x2039;" horiz-adv-x="667" 
d="M94 434c0 19.333 7.66602 37.668 22.999 55.001l315 363c18.667 20.667 39.334 31 62.001 31c21.333 0 39.833 -8 55.5 -24s23.5 -34.667 23.5 -56c0 -20.667 -6.66699 -37.667 -20 -51l-289 -318l289 -317c13.333 -13.333 20 -30.333 20 -51
c0 -21.333 -7.83301 -40 -23.5 -56s-34.167 -24 -55.5 -24c-23.333 0 -44 10 -62 30l-315 363c-15.333 17.333 -23 35.666 -23 54.999z" />
    <glyph glyph-name="guilsinglright" unicode="&#x203a;" horiz-adv-x="667" 
d="M94 66c0 20 6.99902 37 20.999 51l288 317l-288 318c-14 14 -21 31 -21 51c0 21.333 8 40 24 56s34.667 24 56 24c22.667 0 43.334 -10.333 62.001 -31l315 -363c14.667 -16.667 22 -35 22 -55s-7.33301 -38.333 -22 -55l-315 -363c-18 -20 -38.667 -30 -62 -30
c-21.333 0 -40 8 -56 24s-24 34.667 -24 56z" />
    <glyph glyph-name="uni205F" unicode="&#x205f;" horiz-adv-x="461" 
 />
    <glyph glyph-name="Euro" unicode="&#x20ac;" horiz-adv-x="1325" 
d="M-31 545c0 24.667 8.50293 45.499 25.5029 62.499s37.833 25.5 62.5 25.5h15v90h-15c-24.667 0 -45.5 8.5 -62.5 25.5s-25.5 37.833 -25.5 62.5s8.5 45.5 25.5 62.5s37.833 25.5 62.5 25.5h33c30 169.333 97.833 296.333 203.5 381s245.5 127 419.5 127
c117.333 0 217.166 -20.167 299.499 -60.5s146.166 -93.833 191.499 -160.5c15.333 -24 23 -46.667 23 -68c0 -29.333 -10.833 -54.666 -32.5 -75.999s-47.834 -32 -78.501 -32c-32 0 -60 13.667 -84 41c-42.667 49.333 -88.5 85.5 -137.5 108.5s-109.5 34.5 -181.5 34.5
c-104 0 -186.667 -24.333 -248 -73s-103.666 -122.667 -126.999 -222h252c24.667 0 45.5 -8.5 62.5 -25.5s25.5 -37.833 25.5 -62.5s-8.5 -45.5 -25.5 -62.5s-37.833 -25.5 -62.5 -25.5h-273v-90h273c24.667 0 45.5 -8.5 62.5 -25.5s25.5 -37.833 25.5 -62.5
s-8.5 -45.5 -25.5 -62.5s-37.833 -25.5 -62.5 -25.5h-248c24 -95.333 66 -164.666 126 -207.999s141.667 -65 245 -65c75.333 0 136.666 9.83301 183.999 29.5s95.666 54.834 144.999 105.501c30.667 30.667 60 46 88 46c30.667 0 56.834 -10.833 78.501 -32.5
s32.5 -47.834 32.5 -78.501c0 -22.667 -6.66699 -43 -20 -61c-50 -66.667 -120.333 -120.334 -211 -161.001s-189.667 -61 -297 -61c-350.667 0 -557.667 162 -621 486h-35c-24.667 0 -45.5 8.5 -62.5 25.5s-25.5 37.833 -25.5 62.5z" />
    <glyph glyph-name="trademark" unicode="&#x2122;" horiz-adv-x="858" 
d="M49 1296c0 11.333 3.66699 20.666 11 27.999s16.666 11 27.999 11h252c11.333 0 20.666 -3.66699 27.999 -11s11 -16.666 11 -27.999c0 -10.667 -3.66699 -19.834 -11 -27.501s-16.666 -11.5 -27.999 -11.5h-82v-258c0 -11.333 -4.33301 -21.333 -13 -30
s-18.667 -13 -30 -13c-12 0 -22.167 4.16699 -30.5 12.5s-12.5 18.5 -12.5 30.5v258h-84c-11.333 0 -20.666 3.83301 -27.999 11.5s-11 16.834 -11 27.501zM430 997v303c0 11.333 4 21 12 29s17.667 12 29 12c14.667 0 27 -7.33301 37 -22l94 -168l94 168
c10 14.667 22.333 22 37 22c11.333 0 21 -4 29 -12s12 -17.667 12 -29v-303c0 -11.333 -4 -21 -12 -29s-17.667 -12 -29 -12s-21 4 -29 12s-12 17.667 -12 29v164l-57 -106c-8.66699 -14 -19.667 -21 -33 -21s-24.333 7 -33 21l-57 106v-164c0 -11.333 -4 -21 -12 -29
s-17.667 -12 -29 -12s-21 4 -29 12s-12 17.667 -12 29z" />
    <glyph glyph-name="uniE000" unicode="&#xe000;" horiz-adv-x="942" 
d="M0 0v942h942v-942h-942z" />
  </font>
</defs>
</svg>
