<?xml version="1.0" standalone="no"?>
<!DOCTYPE svg PUBLIC "-//W3C//DTD SVG 1.1//EN" "http://www.w3.org/Graphics/SVG/1.1/DTD/svg11.dtd" >
<svg>
<metadata>
Created by FontForge 20090914 at Sat Oct  5 09:43:53 2013
 By www-data
Copyright (c) 2012 by atipo. All rights reserved.
</metadata>
<defs>
<font id="Bariol-Light" horiz-adv-x="948" >
  <font-face 
    font-family="Bariol Light"
    font-weight="300"
    font-stretch="normal"
    units-per-em="2048"
    panose-1="2 0 5 6 4 0 0 2 0 3"
    ascent="1612"
    descent="-436"
    x-height="929.999"
    cap-height="1395"
    bbox="-86 -465 1845 1841"
    underline-thickness="40"
    underline-position="-231"
    unicode-range="U+000D-U+FB04"
  />
<missing-glyph horiz-adv-x="748" 
d="M68 0v1365h544v-1365h-544zM136 68h408v1229h-408v-1229z" />
    <glyph glyph-name="ellipsis" unicode="&#x2e;&#x2e;&#x2e;" horiz-adv-x="1501" 
d="M96 31c0 32.667 15.667 49 47 49s47 -16.333 47 -49c0 -31.333 -15.667 -47 -47 -47s-47 15.667 -47 47zM702 31c0 32.667 16 49 48 49c31.333 0 47 -16.333 47 -49c0 -31.333 -15.667 -47 -47 -47c-32 0 -48 15.667 -48 47zM1309 31c0 32.667 15.667 49 47 49
s47 -16.333 47 -49c0 -31.333 -15.667 -47 -47 -47s-47 15.667 -47 47z" />
    <glyph glyph-name="uniFB01" unicode="fi" horiz-adv-x="909" 
d="M51 903c0 7.33301 2.83008 13.665 8.49707 18.998s11.834 8 18.501 8h117v129c0 36 4 70.5 12 103.5s20.667 64.167 38 93.5s38.5 54.833 63.5 76.5s55.833 38.834 92.5 51.501s77 19 121 19c82 0 152.333 -14.333 211 -43c14 -6.66699 21 -15.667 21 -27
c0 -7.33301 -2.5 -13.5 -7.5 -18.5s-10.833 -7.5 -17.5 -7.5c-7.33301 0 -16.333 2.66699 -27 8c-53.333 23.333 -114.666 35 -183.999 35c-88 0 -153.667 -26.667 -197 -80s-65 -123.666 -65 -210.999v-129h479c8 0 15.167 -3.16699 21.5 -9.5s9.5 -13.5 9.5 -21.5v-885
c0 -8 -3.16699 -15 -9.5 -21s-13.5 -9 -21.5 -9s-15 3 -21 9s-9 13 -9 21v863h-449v-863c0 -8 -3.16699 -15 -9.5 -21s-13.5 -9 -21.5 -9s-15 3 -21 9s-9 13 -9 21v863h-117c-7.33301 0 -13.666 2.66699 -18.999 8s-8 11.333 -8 18z" />
    <glyph glyph-name="uniFB02" unicode="fl" horiz-adv-x="960" 
d="M51 903c0 7.33301 2.83105 13.6699 8.49805 19.0029s11.834 8 18.501 8h117v129c0 45.333 6.33301 88.166 19 128.499s31.667 76.833 57 109.5s59.166 58.5 101.499 77.5s90.833 28.5 145.5 28.5c84 0 161.333 -20 232 -60c10.667 -6 16 -14 16 -24v-1114
c0 -58.667 10.333 -101.334 31 -128.001s53.334 -40 98.001 -40c7.33301 0 13.666 -2.83301 18.999 -8.5s8 -11.834 8 -18.501s-2.66699 -12.667 -8 -18s-11.666 -8 -18.999 -8c-62 0 -109.167 18.833 -141.5 56.5s-48.5 92.5 -48.5 164.5v672h-449v-863
c0 -8 -3.16699 -15 -9.5 -21s-13.5 -9 -21.5 -9s-15 3 -21 9s-9 13 -9 21v863h-117c-7.33301 0 -13.666 2.66699 -18.999 8s-8 11.333 -8 18zM255.998 930.004l449 -0.000976562v377c-58.667 28.667 -122.334 43 -191.001 43c-87.333 0 -152.166 -26.667 -194.499 -80
s-63.5 -123.666 -63.5 -210.999v-129z" />
    <glyph glyph-name="uniFB03" unicode="ffi" horiz-adv-x="1441" 
d="M51 903c0 7.33301 2.83105 13.667 8.49805 19s11.834 8 18.501 8h117v129c0 46.667 6.66699 90.167 20 130.5s33.5 76.666 60.5 108.999s63 57.833 108 76.5s96.833 28 155.5 28c6.66699 0 12.667 -2.66699 18 -8s8 -11.666 8 -18.999c0 -6.66699 -2.5 -12.667 -7.5 -18
s-11.167 -8 -18.5 -8c-97.333 0 -168.833 -26 -214.5 -78s-68.5 -123 -68.5 -213v-129h471v129c0 45.333 6.66699 88.166 20 128.499s32.833 76.833 58.5 109.5s60 58.5 103 77.5s91.833 28.5 146.5 28.5c82 0 152.333 -14.333 211 -43c13.333 -6.66699 20 -15.667 20 -27
c0 -7.33301 -2.33301 -13.5 -7 -18.5s-10.334 -7.5 -17.001 -7.5c-7.33301 0 -16.333 2.66699 -27 8c-53.333 23.333 -114.666 35 -183.999 35c-88 0 -153.833 -26.667 -197.5 -80s-65.5 -123.666 -65.5 -210.999v-129h480c8 0 15 -3.16699 21 -9.5s9 -13.5 9 -21.5v-885
c0 -8 -3 -15 -9 -21s-13 -9 -21 -9s-15.167 3 -21.5 9s-9.5 13 -9.5 21v863h-449v-863c0 -8 -3 -15 -9 -21s-13 -9 -21 -9s-15.167 3 -21.5 9s-9.5 13 -9.5 21v863h-471v-863c0 -8 -3.16699 -15 -9.5 -21s-13.5 -9 -21.5 -9s-15 3 -21 9s-9 13 -9 21v863h-117
c-7.33301 0 -13.666 2.66699 -18.999 8s-8 11.333 -8 18z" />
    <glyph glyph-name="uniFB04" unicode="ffl" horiz-adv-x="1492" 
d="M51 903c0 7.33301 2.83008 13.668 8.49707 19.001s11.834 8 18.501 8h117v129c0 46.667 6.66699 90.167 20 130.5s33.5 76.666 60.5 108.999s63 57.833 108 76.5s96.833 28 155.5 28c6.66699 0 12.667 -2.66699 18 -8s8 -11.666 8 -18.999
c0 -6.66699 -2.5 -12.667 -7.5 -18s-11.167 -8 -18.5 -8c-97.333 0 -168.833 -26 -214.5 -78s-68.5 -123 -68.5 -213v-129h471v129c0 36 3.83301 70.5 11.5 103.5s20 64.167 37 93.5s38 54.833 63 76.5s55.667 38.834 92 51.501s76.5 19 120.5 19
c83.333 0 160.333 -20 231 -60c10.667 -6 16 -14 16 -24v-1114c0 -58.667 10.333 -101.334 31 -128.001s53.334 -40 98.001 -40c7.33301 0 13.666 -2.83301 18.999 -8.5s8 -11.834 8 -18.501s-2.66699 -12.667 -8 -18s-11.666 -8 -18.999 -8
c-62 0 -109.167 18.833 -141.5 56.5s-48.5 92.5 -48.5 164.5v672h-449v-863c0 -8 -3 -15 -9 -21s-13 -9 -21 -9s-15.167 3 -21.5 9s-9.5 13 -9.5 21v863h-471v-863c0 -8 -3.16699 -15 -9.5 -21s-13.5 -9 -21.5 -9s-15 3 -21 9s-9 13 -9 21v863h-117
c-7.33301 0 -13.666 2.66699 -18.999 8s-8 11.333 -8 18zM787.997 930.002l449 -0.000976562v377c-58.667 28.667 -122 43 -190 43c-87.333 0 -152.333 -26.667 -195 -80s-64 -123.666 -64 -210.999v-129z" />
    <glyph glyph-name=".notdef" horiz-adv-x="748" 
d="M68 0v1365h544v-1365h-544zM136 68h408v1229h-408v-1229z" />
    <glyph glyph-name="glyph1" horiz-adv-x="2048" 
 />
    <glyph glyph-name="glyph1" horiz-adv-x="2048" 
 />
    <glyph glyph-name="uni000D" unicode="&#xd;" horiz-adv-x="2048" 
 />
    <glyph glyph-name="space" unicode=" " horiz-adv-x="512" 
 />
    <glyph glyph-name="exclam" unicode="!" horiz-adv-x="288" 
d="M96 31c0 32.667 15.667 49 47 49s47 -16.333 47 -49c0 -31.333 -15.667 -47 -47 -47s-47 15.667 -47 47zM106 1360c0 23.333 12.333 35 37 35s37 -11.667 37 -35l-16 -1088c0 -12 -7 -18 -21 -18c-13.333 0 -20 6 -20 18z" />
    <glyph glyph-name="quotedbl" unicode="&#x22;" horiz-adv-x="604" 
d="M170 1360c0 23.333 11.667 35 35 35s35 -11.667 35 -35l-17 -350c0 -11.333 -6 -17 -18 -17c-14 0 -21 5.66699 -21 17zM365 1360c0 23.333 11.333 35 34 35c23.333 0 35 -11.667 35 -35l-14 -350c0 -11.333 -7 -17 -21 -17c-12 0 -18 5.66699 -18 17z" />
    <glyph glyph-name="numbersign" unicode="#" horiz-adv-x="1062" 
d="M92 483c0 7.33301 2.66309 13.666 7.99609 18.999s11.666 8 18.999 8h164l51 324h-160c-7.33301 0 -13.666 2.66699 -18.999 8s-8 11.333 -8 18s2.83301 12.834 8.5 18.501s11.834 8.5 18.501 8.5h168l70 426c2 14.667 10.667 22 26 22
c7.33301 0 13.666 -2.66699 18.999 -8s8 -11.333 8 -18c0 -3.33301 -1.33301 -13 -4 -29l-64 -393h340l70 426c0.666992 6.66699 3.66699 12 9 16s11.333 6 18 6s12.667 -2.5 18 -7.5s8 -11.167 8 -18.5c0 -3.33301 -1.33301 -13 -4 -29l-63 -393h151
c6.66699 0 12.834 -2.83301 18.501 -8.5s8.5 -11.834 8.5 -18.501s-2.66699 -12.667 -8 -18s-11.666 -8 -18.999 -8h-160l-51 -324h156c6.66699 0 12.667 -2.66699 18 -8s8 -11.666 8 -18.999s-2.5 -13.5 -7.5 -18.5s-11.167 -7.5 -18.5 -7.5h-164l-72 -451
c-2 -14.667 -10.667 -22 -26 -22c-7.33301 0 -13.666 2.66699 -18.999 8s-8 11.333 -8 18c0 3.33301 1.33301 13 4 29l66 418h-340l-72 -451c-0.666992 -6.66699 -3.66699 -12 -9 -16s-11.333 -6 -18 -6c-7.33301 0 -13.5 2.66699 -18.5 8s-7.5 11.333 -7.5 18
c0 3.33301 1.33301 13 4 29l65 418h-155c-7.33301 0 -13.666 2.66699 -18.999 8s-8 11.333 -8 18zM337.996 510h340l51 324h-340z" />
    <glyph glyph-name="dollar" unicode="$" horiz-adv-x="1095" 
d="M59 238c0 8 3.16699 15.002 9.5 21.002s13.5 9 21.5 9c11.333 0 20.333 -5.33301 27 -16c94 -148.667 232.333 -223 415 -223c274.667 0 412 107.667 412 323c0 60 -15 111.5 -45 154.5s-69 76.833 -117 101.5s-100.833 46.667 -158.5 66l-173.5 59.5
c-58 20.333 -111 43.666 -159 69.999s-87 62.5 -117 108.5s-45 101 -45 165c0 90 32.333 165.667 97 227s160.667 95 288 101v178c0 8 3.16699 15.167 9.5 21.5s13.5 9.5 21.5 9.5s15 -3.16699 21 -9.5s9 -13.5 9 -21.5v-178c172 -6 306 -73 402 -201c4 -6 6 -12 6 -18
c0 -8 -3.16699 -15.167 -9.5 -21.5s-13.5 -9.5 -21.5 -9.5c-10 0 -18 4 -24 12c-20 26 -40.167 48.833 -60.5 68.5s-45.5 39 -75.5 58s-65.5 33.5 -106.5 43.5s-86.5 15 -136.5 15c-120.667 0 -209.834 -25.833 -267.501 -77.5s-86.5 -117.5 -86.5 -197.5
c0 -43.333 9.33301 -81.833 28 -115.5s43.667 -61.667 75 -84s67.333 -42.333 108 -60s83.667 -34 129 -49l135.5 -46c45 -15.667 87.833 -34.167 128.5 -55.5s76.667 -45.5 108 -72.5s56.333 -61.167 75 -102.5s28 -88 28 -140c0 -116 -37.5 -206.667 -112.5 -272
s-182.5 -101 -322.5 -107v-176c0 -8 -3 -15 -9 -21s-13 -9 -21 -9s-15.167 3 -21.5 9s-9.5 13 -9.5 21v174c-197.333 5.33301 -346.666 88 -447.999 248c-4.66699 7.33301 -7 13.666 -7 18.999z" />
    <glyph glyph-name="percent" unicode="%" horiz-adv-x="1527" 
d="M102 1073c0 48 5 91.667 15 131s25.833 74.5 47.5 105.5s51.167 55 88.5 72s81.333 25.5 132 25.5s94.667 -8.5 132 -25.5s66.833 -41 88.5 -72s37.5 -66.167 47.5 -105.5s15 -83 15 -131s-5 -91.667 -15 -131s-25.833 -74.5 -47.5 -105.5s-51.167 -55 -88.5 -72
s-81.333 -25.5 -132 -25.5s-94.667 8.5 -132 25.5s-66.833 41 -88.5 72s-37.5 66.167 -47.5 105.5s-15 83 -15 131zM156 1073c0 -188 76.333 -282 229 -282s229 94 229 282c0 188.667 -76.333 283 -229 283s-229 -94.333 -229 -283zM403 10
c0 3.33301 1.66504 8.33398 4.99805 15.001l684 1353c4.66699 11.333 12.667 17 24 17c6.66699 0 12.834 -2.83301 18.501 -8.5s8.5 -11.834 8.5 -18.501c0 -4 -1.33301 -8.66699 -4 -14l-684 -1354c-4 -10.667 -12.333 -16 -25 -16c-7.33301 0 -13.666 2.66699 -18.999 8
s-8 11.333 -8 18zM859.998 307.001c0 48 5 91.667 15 131s25.833 74.5 47.5 105.5s51.167 55 88.5 72s81.333 25.5 132 25.5s94.667 -8.5 132 -25.5s66.666 -41 87.999 -72s37 -66 47 -105s15 -82.833 15 -131.5s-5 -92.5 -15 -131.5s-25.667 -74 -47 -105
s-50.666 -55 -87.999 -72s-81.333 -25.5 -132 -25.5s-94.667 8.5 -132 25.5s-66.833 41 -88.5 72s-37.5 66.167 -47.5 105.5s-15 83 -15 131zM912.998 307.001c0 -188 76.667 -282 230 -282c152.667 0 229 94 229 282c0 188.667 -76.333 283 -229 283
c-153.333 0 -230 -94.333 -230 -283z" />
    <glyph glyph-name="ampersand" unicode="&#x26;" horiz-adv-x="1245" 
d="M90 348c0 78.667 21.499 149.002 64.499 211.002s104.833 123.333 185.5 184c-76.667 132 -115 256.333 -115 373c0 83.333 24 152.666 72 207.999s114.333 83 199 83c74 0 134.833 -23 182.5 -69s71.5 -109 71.5 -189c0 -41.333 -6.83301 -79.333 -20.5 -114
s-38.5 -70.167 -74.5 -106.5s-67.5 -65.5 -94.5 -87.5s-70.5 -55.333 -130.5 -100c-7.33301 -5.33301 -12.666 -9.33301 -15.999 -12c54 -94.667 121.5 -182.334 202.5 -263.001s179.167 -163.667 294.5 -249c49.333 62 89.666 150 120.999 264
c4.66699 15.333 14.334 23 29.001 23c8 0 14.833 -2.83301 20.5 -8.5s8.5 -12.5 8.5 -20.5c0 -6 -1.66699 -15.667 -5 -29c-24.667 -101.333 -66 -190 -124 -266c80.667 -56 165 -103.667 253 -143c15.333 -6 23 -14.333 23 -25c0 -8 -2.83301 -14.667 -8.5 -20
s-12.5 -8 -20.5 -8c-4 0 -10 1.33301 -18 4c-36.667 13.333 -71 28.333 -103 45s-58 31.167 -78 43.5s-49.667 31.833 -89 58.5c-102.667 -109.333 -236.667 -164 -402 -164c-125.333 0 -228 33 -308 99s-120 158.667 -120 278zM151.999 348.002
c0 -100 35 -178.502 105 -235.502s157 -85.5 261 -85.5c147.333 0 265.333 48.333 354 145c-126 97.333 -227.833 184.833 -305.5 262.5s-143.5 164.834 -197.5 261.501c-68.667 -51.333 -122 -103.666 -160 -156.999s-57 -117 -57 -191zM286.999 1116
c0 -63.333 8.66602 -121.499 25.999 -174.499s42.666 -108.167 75.999 -165.5l95 72c20.667 16 46.667 38.333 78 67s54.333 53.334 69 74.001s27.834 45.167 39.501 73.5s17.5 57.166 17.5 86.499c0 66 -18.167 117 -54.5 153s-82.166 54 -137.499 54
c-63.333 0 -114 -21.833 -152 -65.5s-57 -101.834 -57 -174.501z" />
    <glyph glyph-name="quotesingle" unicode="'" horiz-adv-x="407" 
d="M170 1360c0 23.333 11.667 35 35 35s35 -11.667 35 -35l-17 -350c0 -11.333 -6 -17 -18 -17c-14 0 -21 5.66699 -21 17z" />
    <glyph glyph-name="parenleft" unicode="(" horiz-adv-x="622" 
d="M162 606c0 43.333 0.333008 80.668 1 112.001s2.16699 69.833 4.5 115.5s5.66602 85.667 9.99902 120s10.5 73 18.5 116s17.833 80.833 29.5 113.5s26.167 66.667 43.5 102s37 66.166 59 92.499s47.833 51.166 77.5 74.499s62.5 42.333 98.5 57l10 2
c8 0 14.833 -2.66699 20.5 -8s8.5 -12 8.5 -20c0 -12 -5.66699 -20.333 -17 -25c-32.667 -12.667 -62.5 -29.834 -89.5 -51.501s-50.167 -45.167 -69.5 -70.5s-36.833 -55.666 -52.5 -90.999s-28.334 -68.666 -38.001 -99.999s-18.167 -68.5 -25.5 -111.5
s-12.666 -80.167 -15.999 -111.5s-6 -69.166 -8 -113.499s-3.16699 -79.333 -3.5 -105s-0.5 -58.167 -0.5 -97.5s0.166992 -71.833 0.5 -97.5s1.5 -60.667 3.5 -105s4.66699 -82.166 8 -113.499s8.66602 -68.5 15.999 -111.5s15.833 -80.167 25.5 -111.5
s22.334 -64.666 38.001 -99.999s33.167 -65.666 52.5 -90.999s42.5 -48.833 69.5 -70.5s56.833 -38.834 89.5 -51.501c11.333 -4.66699 17 -12.667 17 -24c0 -8 -2.83301 -14.833 -8.5 -20.5s-12.5 -8.5 -20.5 -8.5c-4 0 -7.33301 0.666992 -10 2
c-36 14.667 -68.833 33.667 -98.5 57s-55.5 48.166 -77.5 74.499s-41.667 57.166 -59 92.499s-31.833 69.333 -43.5 102s-21.5 70.5 -29.5 113.5s-14.167 81.667 -18.5 116s-7.66602 74.333 -9.99902 120s-3.83301 84.167 -4.5 115.5s-1 68.666 -1 111.999z" />
    <glyph glyph-name="parenright" unicode=")" horiz-adv-x="622" 
d="M80 -270c0 12 5.33301 19.998 16 23.998c32.667 12.667 62.5 29.834 89.5 51.501s50.167 45.167 69.5 70.5s36.833 55.666 52.5 90.999s28.334 68.666 38.001 99.999s18.167 68.5 25.5 111.5s12.666 80.167 15.999 111.5s6 69.166 8 113.499s3.16699 79.333 3.5 105
s0.5 58.167 0.5 97.5s-0.166992 71.833 -0.5 97.5s-1.5 60.667 -3.5 105s-4.66699 82.166 -8 113.499s-8.66602 68.5 -15.999 111.5s-15.833 80.167 -25.5 111.5s-22.334 64.666 -38.001 99.999s-33.167 65.666 -52.5 90.999s-42.5 48.833 -69.5 70.5
s-56.833 38.834 -89.5 51.501c-10.667 4 -16 12.333 -16 25c0 8 2.83301 14.667 8.5 20s12.5 8 20.5 8c4 0 7.33301 -0.666992 10 -2c36 -14.667 68.833 -33.667 98.5 -57s55.5 -48.166 77.5 -74.499s41.667 -57.166 59 -92.499s31.833 -69.333 43.5 -102
s21.5 -70.5 29.5 -113.5s14.167 -81.667 18.5 -116s7.66602 -74.333 9.99902 -120s3.83301 -84.167 4.5 -115.5s1 -68.666 1 -111.999s-0.333008 -80.666 -1 -111.999s-2.16699 -69.833 -4.5 -115.5s-5.66602 -85.667 -9.99902 -120s-10.5 -73 -18.5 -116
s-17.833 -80.833 -29.5 -113.5s-26.167 -66.667 -43.5 -102s-37 -66.166 -59 -92.499s-47.833 -51.166 -77.5 -74.499s-62.5 -42.333 -98.5 -57l-10 -2c-8 0 -14.833 2.83301 -20.5 8.5s-8.5 12.5 -8.5 20.5z" />
    <glyph glyph-name="asterisk" unicode="*" horiz-adv-x="731" 
d="M61 1202c0 6.66699 2.33398 13.5 7.00098 20.5s10.667 10.5 18 10.5c4 0 10 -1.33301 18 -4l240 -70l-6 246c0 10.667 2.16699 17.834 6.5 21.501s11.166 5.5 20.499 5.5c10 0 17.167 -1.83301 21.5 -5.5s6.5 -10.834 6.5 -21.501l-6 -246l240 70c8 2.66699 14 4 18 4
c7.33301 0 13.333 -3.5 18 -10.5s7 -13.833 7 -20.5c0 -12 -7.66699 -20 -23 -24l-244 -56l154 -207c5.33301 -8 8 -14 8 -18c0 -6.66699 -4.16699 -13.167 -12.5 -19.5s-15.833 -9.5 -22.5 -9.5c-4 0 -9.33301 4.33301 -16 13l-149 223l-148 -223
c-6.66699 -8.66699 -12 -13 -16 -13c-6.66699 0 -14.167 3.16699 -22.5 9.5s-12.5 12.833 -12.5 19.5c0 4 2.66699 10 8 18l154 207l-244 56c-15.333 4 -23 12 -23 24z" />
    <glyph glyph-name="plus" unicode="+" horiz-adv-x="929" 
d="M0 446c0 6.66699 2.66699 12.834 8 18.501s11.666 8.5 18.999 8.5h407v408c0 8 3.16699 15 9.5 21s13.5 9 21.5 9s15.167 -3 21.5 -9s9.5 -13 9.5 -21v-408h407c7.33301 0 13.666 -2.83301 18.999 -8.5s8 -11.834 8 -18.501s-2.66699 -12.667 -8 -18
s-11.666 -8 -18.999 -8h-407v-406c0 -8 -3.16699 -15 -9.5 -21s-13.5 -9 -21.5 -9s-15.167 3 -21.5 9s-9.5 13 -9.5 21v406h-407c-7.33301 0 -13.666 2.66699 -18.999 8s-8 11.333 -8 18z" />
    <glyph glyph-name="comma" unicode="," horiz-adv-x="288" 
d="M86 -221c0 4 1.33301 8.66797 4 14.001c27.333 46.667 41 87.667 41 123c0 20 -5.83301 42.167 -17.5 66.5s-17.5 41.833 -17.5 52.5c0 13.333 3.83301 24.166 11.5 32.499s18.834 12.5 33.501 12.5c18 0 31.167 -6.33301 39.5 -19s12.5 -35 12.5 -67
c0 -42 -6.66699 -83.333 -20 -124s-29.333 -73.667 -48 -99c-5.33301 -7.33301 -12.333 -11 -21 -11c-4.66699 0 -8.83398 1.83301 -12.501 5.5s-5.5 8.16699 -5.5 13.5z" />
    <glyph glyph-name="hyphen" unicode="-" horiz-adv-x="577" 
d="M74 516c0 7.33301 2.66699 13.6699 8 19.0029s11.333 8 18 8h375c7.33301 0 13.666 -2.83301 18.999 -8.5s8 -11.834 8 -18.501s-2.66699 -12.834 -8 -18.501s-11.666 -8.5 -18.999 -8.5h-375c-6.66699 0 -12.667 2.66699 -18 8s-8 11.666 -8 18.999z" />
    <glyph glyph-name="period" unicode="." horiz-adv-x="288" 
d="M96 31c0 32.667 15.667 49 47 49s47 -16.333 47 -49c0 -31.333 -15.667 -47 -47 -47s-47 15.667 -47 47z" />
    <glyph glyph-name="slash" unicode="/" horiz-adv-x="833" 
d="M102 -170c0 4 0.667969 8.00098 2.00098 12.001l566 1674c4 14.667 13.333 22 28 22c9.33301 0 17.166 -3.33301 23.499 -10s9.5 -14.334 9.5 -23.001c0 -2.66699 -0.666992 -6 -2 -10l-565 -1675c-4.66699 -14 -15 -21 -31 -21c-8.66699 0 -16 3.33301 -22 10
s-9 13.667 -9 21z" />
    <glyph glyph-name="zero" unicode="0" horiz-adv-x="1212" 
d="M111 690c0 252.667 39.167 435.333 117.5 548s204.166 169 377.499 169s299.333 -56.5 378 -169.5s118 -295.5 118 -547.5c0 -252.667 -39.333 -435.667 -118 -549s-204.667 -170 -378 -170s-299.166 56.667 -377.499 170s-117.5 296.333 -117.5 549zM174 689.999
c0 -232 34 -400.5 102 -505.5s178 -157.5 330 -157.5s262 52.5 330 157.5s102 273.5 102 505.5s-34 400.667 -102 506s-178 158 -330 158s-262 -52.667 -330 -158s-102 -274 -102 -506z" />
    <glyph glyph-name="one" unicode="1" horiz-adv-x="718" 
d="M109 1118c0 10.667 3.99902 19 11.999 25l350 243c8 6 15.667 9 23 9c8.66699 0 15.834 -2.83301 21.501 -8.5s8.5 -13.167 8.5 -22.5v-1350c0 -8 -3.16699 -15 -9.5 -21s-13.833 -9 -22.5 -9s-16 3 -22 9s-9 13 -9 21v1295l-305 -213c-6 -4 -12.333 -6 -19 -6
c-7.33301 0 -13.833 2.66699 -19.5 8s-8.5 12 -8.5 20z" />
    <glyph glyph-name="two" unicode="2" horiz-adv-x="1083" 
d="M102 29c0 50 9.16699 97.166 27.5 141.499s43.166 83.666 74.499 117.999s67.333 67.166 108 98.499s83.5 61 128.5 89l134.5 84.5c44.667 28.333 87.334 58.333 128.001 90s76.667 64.834 108 99.501s56.166 74.5 74.499 119.5s27.5 93.167 27.5 144.5
c0 100.667 -30.5 181.834 -91.5 243.501s-149.167 92.5 -264.5 92.5c-98.667 0 -175 -20.333 -229 -61s-93.667 -97 -119 -169c-4 -10.667 -13 -16 -27 -16c-8 0 -14.667 2.83301 -20 8.5s-8 12.5 -8 20.5c0 4 0.666992 8 2 12c27.333 82.667 75 147 143 193s154 69 258 69
c134 0 237.833 -35.5 311.5 -106.5s110.5 -166.5 110.5 -286.5c0 -52.667 -9.16699 -102.667 -27.5 -150s-43.166 -89.5 -74.499 -126.5s-67.333 -72.667 -108 -107s-83.5 -66.166 -128.5 -95.499l-134.5 -87c-44.667 -28.667 -87.334 -57.667 -128.001 -87
s-76.667 -59 -108 -89s-56.166 -63.5 -74.499 -100.5s-27.5 -75.167 -27.5 -114.5h805c8 0 14.667 -2.66699 20 -8s8 -12 8 -20s-2.66699 -14.833 -8 -20.5s-12 -8.5 -20 -8.5h-842c-8 -0 -14.833 2.83301 -20.5 8.5s-8.5 12.5 -8.5 20.5z" />
    <glyph glyph-name="three" unicode="3" horiz-adv-x="1095" 
d="M84 215c0 8 2.83398 14.832 8.50098 20.499s12.5 8.5 20.5 8.5c11.333 0 20 -5.66699 26 -17c66 -130.667 193 -196 381 -196c129.333 0 227.166 31.5 293.499 94.5s99.5 152.167 99.5 267.5c0 116 -28.167 205.5 -84.5 268.5s-149.5 94.5 -279.5 94.5h-150
c-8 0 -14.667 2.66699 -20 8s-8 12 -8 20c0 8.66699 3.33301 16.334 10 23.001l448 514h-636c-8 0 -14.833 2.83301 -20.5 8.5s-8.5 12.5 -8.5 20.5s2.83301 14.667 8.5 20s12.5 8 20.5 8h700c8 0 14.833 -2.66699 20.5 -8s8.5 -12 8.5 -20c0 -6.66699 -2.33301 -13 -7 -19
l-454 -518h100c62.667 0 118.334 -7.66699 167.001 -23s88.5 -35.666 119.5 -60.999s56.5 -56.333 76.5 -93s34.167 -74.834 42.5 -114.501s12.5 -82.5 12.5 -128.5c0 -132.667 -39.333 -236.167 -118 -310.5s-192.334 -111.5 -341.001 -111.5
c-212.667 0 -356 74.667 -430 224c-4 8 -6 14.667 -6 20z" />
    <glyph glyph-name="four" unicode="4" horiz-adv-x="1083" 
d="M51 365c0 6 2.00098 11.999 6.00098 17.999l699 993c8.66699 12.667 18 19 28 19c9.33301 0 17.166 -3.16699 23.499 -9.5s9.5 -14.166 9.5 -23.499v-969h166c8 0 14.833 -2.66699 20.5 -8s8.5 -12 8.5 -20s-2.83301 -14.833 -8.5 -20.5s-12.5 -8.5 -20.5 -8.5h-166v-322
c0 -8 -3 -15 -9 -21s-13.333 -9 -22 -9c-9.33301 0 -17 3 -23 9s-9 13 -9 21v322h-674c-8 0 -14.833 2.83301 -20.5 8.5s-8.5 12.5 -8.5 20.5zM135.001 392.999h619v879z" />
    <glyph glyph-name="five" unicode="5" horiz-adv-x="1128" 
d="M86 258c0 8 2.83105 14.833 8.49805 20.5s12.5 8.5 20.5 8.5c11.333 0 20 -5.66699 26 -17c73.333 -160.667 211.333 -241 414 -241c123.333 0 220 32.333 290 97s105 166.667 105 306c0 136 -35.167 236.5 -105.5 301.5s-166.833 97.5 -289.5 97.5
c-84 0 -155.167 -13 -213.5 -39s-114.166 -68 -167.499 -126c-8.66699 -8.66699 -16.667 -13 -24 -13c-8 0 -14.833 2.83301 -20.5 8.5s-8.5 12.5 -8.5 20.5c0 4 0.666992 8.66699 2 14l127 660c2.66699 14.667 11.334 22 26.001 22h660c8 0 14.833 -2.66699 20.5 -8
s8.5 -12 8.5 -20s-2.83301 -14.833 -8.5 -20.5s-12.5 -8.5 -20.5 -8.5h-635l-117 -578c38 42.667 88.167 77.667 150.5 105s135.833 41 220.5 41c141.333 0 253.5 -38.5 336.5 -115.5s124.5 -190.833 124.5 -341.5c0 -154 -41.333 -269.333 -124 -346s-195 -115 -337 -115
c-230 0 -385.667 92.333 -467 277c-1.33301 2.66699 -2 6 -2 10z" />
    <glyph glyph-name="six" unicode="6" horiz-adv-x="1159" 
d="M111 655c0 260 42.3311 450.332 126.998 570.999s210 181 376 181c72.667 0 137.334 -10.667 194.001 -32s99.334 -46.333 128.001 -75c6.66699 -6.66699 10 -14 10 -22c0 -7.33301 -2.66699 -13.666 -8 -18.999s-11.333 -8 -18 -8c-6 0 -13 3 -21 9
c-74 60 -169 90 -285 90c-62 0 -117.333 -9.66699 -166 -29s-90 -46.833 -124 -82.5s-62.333 -79.667 -85 -132s-39.167 -110.5 -49.5 -174.5s-15.5 -135 -15.5 -213v-119c33.333 78.667 84.333 142.667 153 192s153.667 74 255 74c142 0 255.333 -37.5 340 -112.5
s127 -186.167 127 -333.5c0 -152 -42 -264.833 -126 -338.5s-197.667 -110.5 -341 -110.5c-72 0 -135.5 11.167 -190.5 33.5s-100 53 -135 92s-63.5 87.667 -85.5 146s-37.5 120.833 -46.5 187.5s-13.5 141.667 -13.5 225zM183.998 499.999
c7.33301 -152 44.332 -268.168 110.999 -348.501s162.334 -120.5 287.001 -120.5c60.667 0 114.5 6.66699 161.5 20s88.833 34.5 125.5 63.5s64.834 69.167 84.501 120.5s29.5 113 29.5 185c0 134 -35.833 232.333 -107.5 295s-169.5 94 -293.5 94
c-100.667 0 -182.834 -26.667 -246.501 -80s-114.167 -129.666 -151.5 -228.999z" />
    <glyph glyph-name="seven" unicode="7" horiz-adv-x="989" 
d="M61 1350c0 8 2.83008 14.6699 8.49707 20.0029s12.5 8 20.5 8h811c7.33301 0 13.666 -2.66699 18.999 -8s8 -11.333 8 -18c0 -64.667 -11.167 -126.334 -33.5 -185.001s-51.166 -112 -86.499 -160s-74.5 -96.5 -117.5 -145.5s-86 -101.5 -129 -157.5
s-82.167 -115.833 -117.5 -179.5s-64.166 -139.667 -86.499 -228s-33.5 -183.833 -33.5 -286.5c0 -6.66699 -3 -12.667 -9 -18s-12.667 -8 -20 -8s-14.666 2.66699 -21.999 8s-11 11.333 -11 18c0 103.333 11 200.166 33 290.499s50.667 168 86 233
s74.333 126.167 117 183.5s85.334 110.166 128.001 158.499s81.667 95.166 117 140.499s64 93.833 86 145.5s33 104.834 33 159.501h-772c-8 0 -14.833 2.83301 -20.5 8.5s-8.5 12.5 -8.5 20.5z" />
    <glyph glyph-name="eight" unicode="8" horiz-adv-x="1126" 
d="M96 369c0 104.667 27.332 189.667 81.999 255s129 108.666 223 129.999c-73.333 16 -131.5 51 -174.5 105s-64.5 124 -64.5 210c0 112 36 196.333 108 253s169.667 85 293 85c124.667 0 222.834 -28.333 294.501 -85s107.5 -141 107.5 -253c0 -86 -21.5 -156 -64.5 -210
s-101.5 -89 -175.5 -105c94 -21.333 168.333 -64.666 223 -129.999s82 -150.333 82 -255c0 -129.333 -42 -228 -126 -296s-197.667 -102 -341 -102s-257 34 -341 102s-126 166.667 -126 296zM161.999 369c0 -78.667 18.168 -144 54.501 -196s83.666 -89 141.999 -111
s126.5 -33 204.5 -33c58.667 0 111.667 6.33301 159 19s89.5 32.334 126.5 59.001s65.667 62.167 86 106.5s30.5 96.166 30.5 155.499c0 118.667 -36 207 -108 265s-170 87 -294 87c-124.667 0 -222.667 -29 -294 -87s-107 -146.333 -107 -265zM221 1069
c0 -96.667 30.332 -169.667 90.999 -219s144.334 -74 251.001 -74s190.334 24.667 251.001 74s91 122.333 91 219c0 96 -29.5 167.167 -88.5 213.5s-143.5 69.5 -253.5 69.5c-108.667 0 -192.834 -23.167 -252.501 -69.5s-89.5 -117.5 -89.5 -213.5z" />
    <glyph glyph-name="nine" unicode="9" horiz-adv-x="1159" 
d="M111 958c0 152 41.998 264.832 125.998 338.499s197.667 110.5 341 110.5c72 0 135.5 -11.167 190.5 -33.5s100 -53 135 -92s63.5 -87.667 85.5 -146s37.5 -120.833 46.5 -187.5s13.5 -141.667 13.5 -225c0 -260 -42.5 -450.333 -127.5 -571s-210.5 -181 -376.5 -181
c-72.667 0 -137.334 10.667 -194.001 32s-99.334 46.333 -128.001 75c-6.66699 6.66699 -10 14 -10 22c0 6.66699 2.83301 12.834 8.5 18.501s11.834 8.5 18.501 8.5c6 0 12.667 -2.66699 20 -8c74 -60 169 -90 285 -90c76.667 0 143.5 14.667 200.5 44
s102.833 72 137.5 128s60.334 121.833 77.001 197.5s25 162.5 25 260.5v119c-33.333 -78.667 -84.166 -142.667 -152.499 -192s-153.166 -74 -254.499 -74c-142 0 -255.333 37.5 -340 112.5s-127 186.167 -127 333.5zM175.998 957.999c0 -134 36 -232.333 108 -295
s170 -94 294 -94c100.667 0 182.667 26.667 246 80s113.666 130 150.999 230c-7.33301 152 -44.166 268.167 -110.499 348.5s-161.833 120.5 -286.5 120.5c-268 0 -402 -130 -402 -390z" />
    <glyph glyph-name="colon" unicode=":" horiz-adv-x="288" 
d="M96 31c0 32.667 15.667 49 47 49s47 -16.333 47 -49c0 -31.333 -15.667 -47 -47 -47s-47 15.667 -47 47zM96 885c0 32.667 15.667 49 47 49s47 -16.333 47 -49c0 -31.333 -15.667 -47 -47 -47s-47 15.667 -47 47z" />
    <glyph glyph-name="semicolon" unicode=";" horiz-adv-x="288" 
d="M86 -221c0 4 1.33301 8.66797 4 14.001c27.333 46.667 41 87.667 41 123c0 20 -5.83301 42.167 -17.5 66.5s-17.5 41.833 -17.5 52.5c0 13.333 3.83301 24.166 11.5 32.499s18.834 12.5 33.501 12.5c18 0 31.167 -6.33301 39.5 -19s12.5 -35 12.5 -67
c0 -42 -6.66699 -83.333 -20 -124s-29.333 -73.667 -48 -99c-5.33301 -7.33301 -12.333 -11 -21 -11c-4.66699 0 -8.83398 1.83301 -12.501 5.5s-5.5 8.16699 -5.5 13.5zM96 885.001c0 32.667 15.667 49 47 49s47 -16.333 47 -49c0 -31.333 -15.667 -47 -47 -47
s-47 15.667 -47 47z" />
    <glyph glyph-name="less" unicode="&#x3c;" horiz-adv-x="704" 
d="M16 481c0 10.667 5 19.666 15 26.999l610 479c6 4 12 6 18 6c8 0 14.833 -2.66699 20.5 -8s8.5 -12 8.5 -20c0 -10 -3.33301 -17.667 -10 -23l-586 -461l586 -461c6.66699 -5.33301 10 -12.666 10 -21.999c0 -8 -2.83301 -14.833 -8.5 -20.5s-12.5 -8.5 -20.5 -8.5
c-6 0 -12 2 -18 6l-610 480c-10 7.33301 -15 16 -15 26z" />
    <glyph glyph-name="equal" unicode="=" horiz-adv-x="929" 
d="M0 291c0 6.66699 2.66699 12.667 8 18s11.666 8 18.999 8h876c7.33301 0 13.666 -2.66699 18.999 -8s8 -11.333 8 -18c0 -7.33301 -2.66699 -13.666 -8 -18.999s-11.666 -8 -18.999 -8h-876c-7.33301 0 -13.666 2.66699 -18.999 8s-8 11.666 -8 18.999zM0 604
c0 6.66699 2.66699 12.834 8 18.501s11.666 8.5 18.999 8.5h876c7.33301 0 13.666 -2.83301 18.999 -8.5s8 -11.834 8 -18.501s-2.66699 -12.667 -8 -18s-11.666 -8 -18.999 -8h-876c-7.33301 0 -13.666 2.66699 -18.999 8s-8 11.333 -8 18z" />
    <glyph glyph-name="greater" unicode="&#x3e;" horiz-adv-x="704" 
d="M16 -2c0 9.33301 3.66699 16.667 11 22l585 461l-585 461c-7.33301 5.33301 -11 13 -11 23c0 8 2.83301 14.667 8.5 20s12.5 8 20.5 8c6 0 12 -2 18 -6l611 -479c9.33301 -7.33301 14 -16.333 14 -27c0 -10 -4.66699 -18.667 -14 -26l-611 -480c-6 -4 -12 -6 -18 -6
c-8 0 -14.833 2.83301 -20.5 8.5s-8.5 12.5 -8.5 20.5z" />
    <glyph glyph-name="question" unicode="?" horiz-adv-x="944" 
d="M84 1042c0 112 32 200.834 96 266.501s158.333 98.5 283 98.5c122 0 218.333 -31.833 289 -95.5s106 -149.167 106 -256.5c0 -56.667 -8.33301 -107.667 -25 -153s-38.334 -82.5 -65.001 -111.5s-56.167 -55.5 -88.5 -79.5s-64.833 -46 -97.5 -66
s-62.334 -40.167 -89.001 -60.5s-48.334 -44.5 -65.001 -72.5s-25 -59.333 -25 -94c0 -42.667 14.333 -81.667 43 -117c6 -7.33301 9 -14 9 -20c0 -8.66699 -3.16699 -15.667 -9.5 -21s-12.833 -8 -19.5 -8c-10 0 -18.333 3.33301 -25 10c-39.333 39.333 -59 91.333 -59 156
c0 40 8.33301 75.833 25 107.5s38.334 58.667 65.001 81s56.167 43.833 88.5 64.5l97.5 65.5c32.667 23 62.334 48.167 89.001 75.5s48.334 61.666 65.001 102.999s25 88 25 140c0 94 -29.5 167.333 -88.5 220s-140.833 79 -245.5 79c-212 0 -318 -104 -318 -312
c0 -8 -3 -15 -9 -21s-13 -9 -21 -9s-15.167 3 -21.5 9s-9.5 13 -9.5 21zM367 31.001c0 32.667 15.667 49 47 49s47 -16.333 47 -49c0 -31.333 -15.667 -47 -47 -47s-47 15.667 -47 47z" />
    <glyph glyph-name="at" unicode="@" horiz-adv-x="1642" 
d="M86 352c0 249.333 63.334 435.671 190.001 559.004s307.667 185 543 185c108 0 206.667 -14.5 296 -43.5s167 -71.833 233 -128.5s117.167 -129.667 153.5 -219s54.5 -191.333 54.5 -306c0 -38 -3 -75.333 -9 -112s-16.833 -74.334 -32.5 -113.001
s-35.5 -72.334 -59.5 -101.001s-56.167 -52.167 -96.5 -70.5s-86.166 -27.5 -137.499 -27.5c-32.667 0 -60.834 2.66699 -84.501 8s-45.334 15.833 -65.001 31.5s-34.167 36.834 -43.5 63.501c-57.333 -68.667 -145.333 -103 -264 -103c-94 0 -164 20.667 -210 62
s-69 94 -69 158c0 144.667 107.333 217 322 217h213v94c0 57.333 -21.167 101 -63.5 131s-95.5 45 -159.5 45c-76.667 0 -141.667 -26.667 -195 -80c-8 -8 -16 -12 -24 -12c-6.66699 0 -12.5 2.5 -17.5 7.5s-7.5 11.167 -7.5 18.5s2.66699 13.666 8 18.999
c59.333 66.667 138 100 236 100c35.333 0 68.833 -4.33301 100.5 -13s61.334 -22 89.001 -40s49.667 -42.833 66 -74.5s24.5 -68.167 24.5 -109.5v-355c0 -47.333 12 -78.833 36 -94.5s60 -23.5 108 -23.5c38 0 72.667 6.16699 104 18.5s60.166 32.333 86.499 60
s46.833 66.5 61.5 116.5s22 109.667 22 179c0 204.667 -60.333 363 -181 475s-285.667 168 -495 168c-216 0 -382 -57.333 -498 -172s-174 -287.334 -174 -518.001c0 -231.333 57.833 -403.833 173.5 -517.5s281.834 -170.5 498.501 -170.5c206 0 368.667 44.333 488 133
c7.33301 5.33301 14 8 20 8c7.33301 0 13.666 -2.66699 18.999 -8s8 -11.333 8 -18c0 -8.66699 -4.33301 -16.334 -13 -23.001c-118.667 -96.667 -292.667 -145 -522 -145c-235.333 0 -416.333 61.5 -543 184.5s-190 308.5 -190 556.5zM547.001 195.005
c0 -46 17.167 -85.498 51.5 -118.498s89.5 -49.5 165.5 -49.5c84 0 147.667 16.667 191 50s65 72.666 65 117.999v165h-229c-82 0 -143.167 -13.333 -183.5 -40s-60.5 -68.334 -60.5 -125.001z" />
    <glyph glyph-name="A" unicode="A" horiz-adv-x="1261" 
d="M66 16c0 6 1.33398 11.667 4.00098 17l530 1339c5.33301 15.333 15.666 23 30.999 23c16.667 0 27.667 -7.66699 33 -23l528 -1339c2.66699 -5.33301 4 -11 4 -17c0 -9.33301 -3.33301 -17 -10 -23s-15 -9 -25 -9c-15.333 0 -26.333 8 -33 24l-167 430h-660l-170 -432
c-4.66699 -14.667 -15.667 -22 -33 -22c-9.33301 0 -17 3 -23 9s-9 13.667 -9 23zM322.001 498h618l-309 794z" />
    <glyph glyph-name="B" unicode="B" horiz-adv-x="1138" 
d="M184 33l0.000976562 1313c0 8.66699 3.16699 16.167 9.5 22.5s14.166 9.5 23.499 9.5h361c136 0 237.167 -29.667 303.5 -89s99.5 -143 99.5 -251c0 -44.667 -7.16699 -85.5 -21.5 -122.5s-33 -67.167 -56 -90.5s-46.667 -42.333 -71 -57s-49.166 -25 -74.499 -31
c39.333 -5.33301 75.666 -16.166 108.999 -32.499s63.833 -38.666 91.5 -66.999s49.334 -64.833 65.001 -109.5s23.5 -95 23.5 -151c0 -117.333 -34.667 -209.5 -104 -276.5s-168 -100.5 -296 -100.5h-430c-8.66699 0 -16.334 3.33301 -23.001 10s-10 14.334 -10 23.001z
M250.001 56.9971h397c110.667 0 194 28 250 84s84 134.667 84 236c0 214 -112.667 321 -338 321h-393v-641zM250.001 755.997l328 -0.000976562c110 0 193.667 24.333 251 73s86 118.334 86 209.001c0 188.667 -112.333 283 -337 283h-328v-565z" />
    <glyph glyph-name="C" unicode="C" horiz-adv-x="1273" 
d="M90 688c0 238 54.835 417.333 164.502 538s265.167 181 466.5 181c96 0 184.167 -19.167 264.5 -57.5s143.833 -90.166 190.5 -155.499c5.33301 -8 8 -15.667 8 -23c0 -8 -2.83301 -14.667 -8.5 -20s-12.5 -8 -20.5 -8c-10 0 -18.333 4 -25 12
c-42.667 58 -100 105 -172 141s-151 54 -237 54c-183.333 0 -323.333 -54.5 -420 -163.5s-145 -275.167 -145 -498.5c0 -118.667 12.333 -220.5 37 -305.5s61.667 -153.333 111 -205s108.166 -89.334 176.499 -113.001s148.5 -35.5 240.5 -35.5
c81.333 0 158.166 16 230.499 48s131.833 79.333 178.5 142c6.66699 8 15 12 25 12c8 0 14.833 -2.66699 20.5 -8s8.5 -12 8.5 -20c0 -6.66699 -2 -13 -6 -19c-43.333 -66 -106.333 -118 -189 -156s-172 -57 -268 -57c-420.667 0 -631 239 -631 717z" />
    <glyph glyph-name="D" unicode="D" horiz-adv-x="1243" 
d="M184 33l0.00195312 1313c0 8.66699 3.16699 16.167 9.5 22.5s14.166 9.5 23.499 9.5h305c100.667 0 188.834 -12.333 264.501 -37s141.334 -63.834 197.001 -117.501s97.834 -125.167 126.501 -214.5s43 -196.333 43 -321c0 -124 -14.333 -230.667 -43 -320
s-70.834 -160.666 -126.501 -213.999s-121.334 -92.333 -197.001 -117s-163.834 -37 -264.501 -37h-305c-8.66699 0 -16.334 3.33301 -23.001 10s-10 14.334 -10 23.001zM250.002 56.999l271.996 -0.000976562c90.667 0 169.334 10.5 236.001 31.5
s125.334 55.333 176.001 103s88.834 112.834 114.501 195.501s38.5 183 38.5 301c0 116.667 -12.833 216.5 -38.5 299.5s-63.667 148.5 -114 196.5s-109.166 82.833 -176.499 104.5s-146 32.5 -236 32.5h-272v-1264z" />
    <glyph glyph-name="E" unicode="E" horiz-adv-x="1048" 
d="M184 33l0.00195312 1313c0 8.66699 3.16699 16.167 9.5 22.5s14.166 9.5 23.499 9.5h694c8 0 14.833 -2.66699 20.5 -8s8.5 -12 8.5 -20s-2.83301 -14.833 -8.5 -20.5s-12.5 -8.5 -20.5 -8.5h-661v-598h516c8 0 14.833 -2.83301 20.5 -8.5s8.5 -12.5 8.5 -20.5
s-2.83301 -14.667 -8.5 -20s-12.5 -8 -20.5 -8h-516v-609h686c8 0 14.833 -2.66699 20.5 -8s8.5 -12 8.5 -20s-2.83301 -14.833 -8.5 -20.5s-12.5 -8.5 -20.5 -8.5h-719c-8.66699 0 -16.334 3.33301 -23.001 10s-10 14.334 -10 23.001z" />
    <glyph glyph-name="F" unicode="F" horiz-adv-x="1048" 
d="M184 33l0.00292969 1313c0 8.66699 3.16699 16.167 9.5 22.5s14.166 9.5 23.499 9.5h694c8 0 14.833 -2.66699 20.5 -8s8.5 -12 8.5 -20s-2.83301 -14.833 -8.5 -20.5s-12.5 -8.5 -20.5 -8.5h-661v-619h516c8 0 14.833 -2.66699 20.5 -8s8.5 -12 8.5 -20
s-2.83301 -14.833 -8.5 -20.5s-12.5 -8.5 -20.5 -8.5h-516v-612c0 -8.66699 -3.33301 -16.334 -10 -23.001s-14.334 -10 -23.001 -10s-16.334 3.33301 -23.001 10s-10 14.334 -10 23.001z" />
    <glyph glyph-name="G" unicode="G" horiz-adv-x="1376" 
d="M90 688c0 479.333 210.334 719.001 631.001 719.001c96 0 184.167 -19.167 264.5 -57.5s143.833 -90.166 190.5 -155.499c5.33301 -8 8 -15.667 8 -23c0 -8 -2.83301 -14.667 -8.5 -20s-12.5 -8 -20.5 -8c-10 0 -18.333 4 -25 12c-42.667 58 -100 105 -172 141
s-151 54 -237 54c-184 0 -324.167 -52.667 -420.5 -158s-144.5 -273.333 -144.5 -504c0 -118.667 12.333 -220.5 37 -305.5s61.667 -153.333 111 -205s108.166 -89.334 176.499 -113.001s148.5 -35.5 240.5 -35.5c102.667 0 192.667 19.167 270 57.5
s137.333 85.833 180 142.5v359h-401c-8 0 -14.833 2.66699 -20.5 8s-8.5 12 -8.5 20s2.83301 14.833 8.5 20.5s12.5 8.5 20.5 8.5h434c7.33301 0 14 -2.83301 20 -8.5s9 -11.834 9 -18.501v-378c0 -15.333 -6.33301 -30.333 -19 -45c-58 -68 -125.833 -122.333 -203.5 -163
s-174.167 -61 -289.5 -61c-420.667 0 -631 239 -631 717z" />
    <glyph glyph-name="H" unicode="H" horiz-adv-x="1318" 
d="M184 16l-0.00390625 1346c0 9.33301 3.33301 17.166 10 23.499s14.334 9.5 23.001 9.5s16.334 -3.16699 23.001 -9.5s10 -14.166 10 -23.499v-625h819v625c0 9.33301 3.16699 17.166 9.5 23.499s14.166 9.5 23.499 9.5s17.166 -3.16699 23.499 -9.5
s9.5 -14.166 9.5 -23.499v-1346c0 -8.66699 -3.16699 -16.167 -9.5 -22.5s-14.166 -9.5 -23.499 -9.5s-17.166 3.16699 -23.499 9.5s-9.5 13.833 -9.5 22.5v662h-819v-662c0 -8.66699 -3.16699 -16.167 -9.5 -22.5s-14.166 -9.5 -23.499 -9.5s-17.166 3.16699 -23.499 9.5
s-9.5 13.833 -9.5 22.5z" />
    <glyph glyph-name="I" unicode="I" horiz-adv-x="434" 
d="M184 16l-0.00390625 1346c0 9.33301 3.33301 17.166 10 23.499s14.334 9.5 23.001 9.5s16.334 -3.16699 23.001 -9.5s10 -14.166 10 -23.499v-1346c0 -8.66699 -3.16699 -16.167 -9.5 -22.5s-14.166 -9.5 -23.499 -9.5s-17.166 3.16699 -23.499 9.5
s-9.5 13.833 -9.5 22.5z" />
    <glyph glyph-name="J" unicode="J" horiz-adv-x="821" 
d="M33 45c0 8 3.00293 15.165 9.00293 21.498s13 9.5 21 9.5c6 0 14.333 -2.66699 25 -8c49.333 -26 109.333 -39 180 -39s129.334 16.333 176.001 49s79.834 75.834 99.501 129.501s29.5 117.5 29.5 191.5v963c0 9.33301 3.16699 17.166 9.5 23.499s14.166 9.5 23.499 9.5
s17.166 -3.16699 23.499 -9.5s9.5 -14.166 9.5 -23.499v-963c0 -62.667 -6.83301 -119.167 -20.5 -169.5s-34.834 -95.166 -63.501 -134.499s-67.334 -69.833 -116.001 -91.5s-105.667 -32.5 -171 -32.5c-38.667 0 -78.334 4.33301 -119.001 13s-74 20 -100 34
c-10.667 6.66699 -16 15.667 -16 27z" />
    <glyph glyph-name="K" unicode="K" horiz-adv-x="1122" 
d="M184 16l-0.00390625 1346c0 9.33301 3.33301 17.166 10 23.499s14.334 9.5 23.001 9.5s16.334 -3.16699 23.001 -9.5s10 -14.166 10 -23.499v-784l704 804c8.66699 8.66699 17.667 13 27 13c10 0 18.333 -3.33301 25 -10s10 -15 10 -25s-3.33301 -18.333 -10 -25
l-476 -534l545 -764c4 -6 6 -13 6 -21s-3.16699 -15.333 -9.5 -22s-14.5 -10 -24.5 -10c-11.333 0 -21 5.33301 -29 16l-531 750l-237 -265v-469c0 -8.66699 -3.16699 -16.167 -9.5 -22.5s-14.166 -9.5 -23.499 -9.5s-17.166 3.16699 -23.499 9.5s-9.5 13.833 -9.5 22.5z
" />
    <glyph glyph-name="L" unicode="L" horiz-adv-x="976" 
d="M184 29l-0.00195312 1333c0 9.33301 3.33301 17.166 10 23.499s14.334 9.5 23.001 9.5s16.334 -3.16699 23.001 -9.5s10 -14.166 10 -23.499v-1305h637c8 0 14.667 -2.66699 20 -8s8 -12 8 -20s-2.66699 -14.833 -8 -20.5s-12 -8.5 -20 -8.5h-674
c-8 -0 -14.833 2.83301 -20.5 8.5s-8.5 12.5 -8.5 20.5z" />
    <glyph glyph-name="M" unicode="M" horiz-adv-x="1568" 
d="M164 14v1350c0 8 3.16699 15.167 9.5 21.5s13.5 9.5 21.5 9.5c11.333 0 20 -5.66699 26 -17l553 -1056l553 1056c6 11.333 15 17 27 17c8 0 15 -3.16699 21 -9.5s9 -13.5 9 -21.5v-1350c0 -8 -3 -15 -9 -21s-13 -9 -21 -9s-15.167 3 -21.5 9s-9.5 13 -9.5 21v1229
l-520 -993c-6 -14 -15.667 -21 -29 -21s-23 7 -29 21l-520 993v-1229c0 -8 -3 -15 -9 -21s-13 -9 -21 -9s-15.167 3 -21.5 9s-9.5 13 -9.5 21z" />
    <glyph glyph-name="N" unicode="N" horiz-adv-x="1271" 
d="M164 14l-0.000976562 1350c0 8 3.16699 15.167 9.5 21.5s13.5 9.5 21.5 9.5c10 0 18 -4.33301 24 -13l828 -1269v1251c0 8 3 15.167 9 21.5s13 9.5 21 9.5s15.167 -3.16699 21.5 -9.5s9.5 -13.5 9.5 -21.5v-1348c0 -8.66699 -3.16699 -16.167 -9.5 -22.5
s-14.166 -9.5 -23.499 -9.5c-12.667 0 -23 6 -31 18l-819 1262v-1250c0 -8 -3 -15 -9 -21s-13 -9 -21 -9s-15.167 3 -21.5 9s-9.5 13 -9.5 21z" />
    <glyph glyph-name="O" unicode="O" horiz-adv-x="1441" 
d="M90 688c0 238 54.833 417.333 164.5 538s265.167 181 466.5 181s356.833 -60.333 466.5 -181s164.5 -300 164.5 -538c0 -237.333 -54.833 -416.166 -164.5 -536.499s-265.167 -180.5 -466.5 -180.5s-356.833 60.167 -466.5 180.5s-164.5 299.166 -164.5 536.499zM156 688
c0 -222.667 48.333 -388.167 145 -496.5s236.667 -162.5 420 -162.5s323.333 54.167 420 162.5s145 273.833 145 496.5c0 223.333 -48.333 389.5 -145 498.5s-236.667 163.5 -420 163.5s-323.333 -54.5 -420 -163.5s-145 -275.167 -145 -498.5z" />
    <glyph glyph-name="P" unicode="P" horiz-adv-x="1110" 
d="M184 16l-0.000976562 1330c0 8.66699 3.16699 16.167 9.5 22.5s14.166 9.5 23.499 9.5h432c110 0 199.667 -33 269 -99s104 -161.333 104 -286c0 -124 -34.5 -219.167 -103.5 -285.5s-158.833 -99.5 -269.5 -99.5h-399v-592c0 -8.66699 -3.16699 -16.167 -9.5 -22.5
s-14.166 -9.5 -23.499 -9.5s-17.166 3.16699 -23.499 9.5s-9.5 13.833 -9.5 22.5zM249.999 666h377c103.333 0 184 28 242 84s87 137 87 243c0 107.333 -29.167 188.833 -87.5 244.5s-138.833 83.5 -241.5 83.5h-377v-655z" />
    <glyph glyph-name="Q" unicode="Q" horiz-adv-x="1439" 
d="M90 688c0 238 54.834 417.333 164.501 538s265.167 181 466.5 181s356.833 -60.333 466.5 -181s164.5 -300 164.5 -538c0 -189.333 -37 -342.166 -111 -458.499s-177.667 -192.833 -311 -229.5c44.667 -8 84.5 -24.333 119.5 -49s74.833 -59.667 119.5 -105
c7.33301 -7.33301 11 -15.333 11 -24c0 -8 -3.33301 -15.167 -10 -21.5s-14.334 -9.5 -23.001 -9.5s-16.334 3.33301 -23.001 10c-49.333 54 -100.666 95.833 -153.999 125.5s-116 44.5 -188 44.5h-61c-201.333 0 -356.833 60.167 -466.5 180.5
s-164.5 299.166 -164.5 536.499zM156.001 688c0 -222.667 48.333 -388.167 145 -496.5s236.667 -162.5 420 -162.5s323.333 54.167 420 162.5s145 273.833 145 496.5c0 223.333 -48.333 389.5 -145 498.5s-236.667 163.5 -420 163.5s-323.333 -54.5 -420 -163.5
s-145 -275.167 -145 -498.5z" />
    <glyph glyph-name="R" unicode="R" horiz-adv-x="1124" 
d="M184 16l0.000976562 1330c0 8.66699 3.16699 16.167 9.5 22.5s14.166 9.5 23.499 9.5h430c107.333 0 196.666 -36 267.999 -108s107 -160.667 107 -266c0 -106.667 -34.333 -196.167 -103 -268.5s-157.334 -108.5 -266.001 -108.5h-49l73.5 -99.5l142 -192l159.5 -216
c42 -57 62.333 -84.5 61 -82.5c4.66699 -6 7 -13 7 -21c0 -9.33301 -3.33301 -17 -10 -23s-15 -9 -25 -9c-12 0 -21.667 5.33301 -29 16l-453 627h-280v-611c0 -8.66699 -3.16699 -16.167 -9.5 -22.5s-14.166 -9.5 -23.499 -9.5s-17.166 3.16699 -23.499 9.5
s-9.5 13.833 -9.5 22.5zM250.001 686l403.001 -0.000976562c88 0 160.5 30.333 217.5 91s85.5 136.334 85.5 227.001c0 91.333 -28.833 167 -86.5 227s-131.834 90 -222.501 90h-397v-635z" />
    <glyph glyph-name="S" unicode="S" horiz-adv-x="1095" 
d="M59 238c0 8 3.16602 15.002 9.49902 21.002s13.5 9 21.5 9c11.333 0 20.333 -5.33301 27 -16c94 -148.667 232.333 -223 415 -223c274.667 0 412 107.667 412 323c0 60 -15 111.5 -45 154.5s-69 76.833 -117 101.5s-100.833 46.667 -158.5 66l-173.5 59.5
c-58 20.333 -111 43.666 -159 69.999s-87 62.5 -117 108.5s-45 101 -45 165c0 94.667 35.333 173.334 106 236.001s175.334 94 314.001 94c184.667 0 327.334 -67.667 428.001 -203c4 -6 6 -12 6 -18c0 -8 -3.16699 -15.167 -9.5 -21.5s-13.5 -9.5 -21.5 -9.5
c-10 0 -18 4 -24 12c-20 26 -40.167 48.833 -60.5 68.5s-45.5 39 -75.5 58s-65.5 33.5 -106.5 43.5s-86.5 15 -136.5 15c-120.667 0 -209.834 -25.833 -267.501 -77.5s-86.5 -117.5 -86.5 -197.5c0 -43.333 9.33301 -81.833 28 -115.5s43.667 -61.667 75 -84
s67.333 -42.333 108 -60s83.667 -34 129 -49l135.5 -46c45 -15.667 87.833 -34.167 128.5 -55.5s76.667 -45.5 108 -72.5s56.333 -61.167 75 -102.5s28 -88 28 -140c0 -122.667 -41.167 -216.834 -123.5 -282.501s-200.5 -98.5 -354.5 -98.5
c-204.667 0 -360 82.667 -466 248c-4.66699 7.33301 -7 13.666 -7 18.999z" />
    <glyph glyph-name="T" unicode="T" horiz-adv-x="1089" 
d="M59 1350c0 8 2.83105 14.667 8.49805 20s12.5 8 20.5 8h913c8 0 14.833 -2.66699 20.5 -8s8.5 -12 8.5 -20s-2.83301 -14.833 -8.5 -20.5s-12.5 -8.5 -20.5 -8.5h-423v-1305c0 -8.66699 -3.16699 -16.167 -9.5 -22.5s-14.166 -9.5 -23.499 -9.5
s-17.166 3.16699 -23.499 9.5s-9.5 13.833 -9.5 22.5v1305h-424c-8 0 -14.833 2.83301 -20.5 8.5s-8.5 12.5 -8.5 20.5z" />
    <glyph glyph-name="U" unicode="U" horiz-adv-x="1284" 
d="M184 406l-0.00195312 956c0 9.33301 3.33301 17.166 10 23.499s14.334 9.5 23.001 9.5s16.334 -3.16699 23.001 -9.5s10 -14.166 10 -23.499v-956c0 -41.333 3.16699 -79 9.5 -113s18.666 -67.833 36.999 -101.5s42 -62 71 -85s67.833 -41.667 116.5 -56
s105 -21.5 169 -21.5s120.333 7.16699 169 21.5s87.5 33 116.5 56s52.5 51.333 70.5 85s30.167 67.5 36.5 101.5s9.5 71.667 9.5 113v956c0 9.33301 3.16699 17.166 9.5 23.499s13.833 9.5 22.5 9.5s16.334 -3.16699 23.001 -9.5s10 -14.166 10 -23.499v-956
c0 -46.667 -4 -89.667 -12 -129s-22.667 -78.333 -44 -117s-49 -71.5 -83 -98.5s-79 -48.833 -135 -65.5s-120.333 -25 -193 -25s-137 8.33301 -193 25s-101.167 38.5 -135.5 65.5s-62.333 59.833 -84 98.5s-36.5 77.667 -44.5 117s-12 82.333 -12 129z" />
    <glyph glyph-name="V" unicode="V" horiz-adv-x="1163" 
d="M39 1360c0 10 3.16895 18.333 9.50195 25s14.166 10 23.499 10c16 0 26.667 -7.66699 32 -23l480 -1268l475 1268c6 15.333 16.333 23 31 23c10 0 18.167 -3.33301 24.5 -10s9.5 -15 9.5 -25l-4 -17l-506 -1339c-4.66699 -13.333 -15.334 -20 -32.001 -20
c-16 0 -26.333 6.66699 -31 20l-508 1339c-2.66699 6 -4 11.667 -4 17z" />
    <glyph glyph-name="W" unicode="W" horiz-adv-x="1687" 
d="M39 1360c0 10 3.16895 18.333 9.50195 25s14.166 10 23.499 10c16 0 26.667 -7.66699 32 -23l357 -1261l352 1261c4.66699 15.333 15 23 31 23c17.333 0 28.333 -7.66699 33 -23l350 -1255l356 1255c5.33301 15.333 15.666 23 30.999 23c10 0 18.333 -3.33301 25 -10
s10 -15 10 -25c0 -4 -0.666992 -8 -2 -12l-387 -1340c-4.66699 -16 -15.667 -24 -33 -24c-16.667 0 -27 7.33301 -31 22l-352 1247l-352 -1247c-4 -14.667 -15 -22 -33 -22c-16.667 0 -27 7.33301 -31 22l-387 1344c-1.33301 4 -2 7.33301 -2 10z" />
    <glyph glyph-name="X" unicode="X" horiz-adv-x="995" 
d="M8 16c0 8 1.99805 15 5.99805 21l447 672l-420 632c-4 6 -6 12.333 -6 19c0 10 3.16699 18.333 9.5 25s14.166 10 23.499 10c13.333 0 23.333 -5.66699 30 -17l400 -610l397 610c6.66699 11.333 16.334 17 29.001 17c10 0 18.167 -3.33301 24.5 -10s9.5 -15 9.5 -25
c0 -6.66699 -2 -13 -6 -19l-417 -632l444 -672c4 -6 6 -13 6 -21c0 -9.33301 -3.33301 -17 -10 -23s-15 -9 -25 -9c-11.333 0 -20.666 5.33301 -27.999 16l-424 651l-426 -651c-6.66699 -10.667 -17 -16 -31 -16c-9.33301 0 -17.166 3.16699 -23.499 9.5
s-9.5 13.833 -9.5 22.5z" />
    <glyph glyph-name="Y" unicode="Y" horiz-adv-x="1030" 
d="M35 1360c0 10 3.16699 18.333 9.5 25s14.166 10 23.499 10c13.333 0 23.333 -5.66699 30 -17l416 -665l414 665c7.33301 11.333 16.666 17 27.999 17c10 0 18.333 -3.33301 25 -10s10 -15 10 -25c0 -8 -2 -15 -6 -21l-438 -688v-635
c0 -8.66699 -3.16699 -16.167 -9.5 -22.5s-14.166 -9.5 -23.499 -9.5s-17.166 3.16699 -23.499 9.5s-9.5 13.833 -9.5 22.5v635l-440 688c-4 6 -6 13 -6 21z" />
    <glyph glyph-name="Z" unicode="Z" horiz-adv-x="1017" 
d="M23 29c0 6 2 12 6 18l850 1274h-783c-8 0 -14.667 2.83301 -20 8.5s-8 12.5 -8 20.5s2.66699 14.667 8 20s12 8 20 8h832c8 0 14.667 -2.66699 20 -8s8 -12 8 -20c0 -6.66699 -2 -13 -6 -19l-846 -1274h857c8 0 14.667 -2.66699 20 -8s8 -12 8 -20
s-2.66699 -14.833 -8 -20.5s-12 -8.5 -20 -8.5h-912c-7.33301 -0 -13.5 2.83301 -18.5 8.5s-7.5 12.5 -7.5 20.5z" />
    <glyph glyph-name="bracketleft" unicode="[" horiz-adv-x="477" 
d="M150 -272v1757c0 7.33301 2.66699 13.5 8 18.5s11.333 7.5 18 7.5h189c7.33301 0 13.5 -2.5 18.5 -7.5s7.5 -11.167 7.5 -18.5s-2.66699 -13.666 -8 -18.999s-11.333 -8 -18 -8h-154v-1704h154c7.33301 0 13.5 -2.66699 18.5 -8s7.5 -11.333 7.5 -18
c0 -7.33301 -2.66699 -13.666 -8 -18.999s-11.333 -8 -18 -8h-189c-6.66699 0 -12.667 2.66699 -18 8s-8 11.666 -8 18.999z" />
    <glyph glyph-name="backslash" unicode="\" horiz-adv-x="835" 
d="M102 1505c0 8.66699 3.33203 16.333 9.99902 23s14.334 10 23.001 10c15.333 0 25 -7.33301 29 -22l565 -1674c1.33301 -4 2 -8 2 -12c0 -7.33301 -3 -14.333 -9 -21s-13.333 -10 -22 -10c-15.333 0 -25.333 7 -30 21l-566 1675c-1.33301 4 -2 7.33301 -2 10z" />
    <glyph glyph-name="bracketright" unicode="]" horiz-adv-x="479" 
d="M86 -272c0 6.66699 2.66699 12.668 8 18.001s11.666 8 18.999 8h153v1704h-153c-7.33301 0 -13.666 2.66699 -18.999 8s-8 11.666 -8 18.999c0 6.66699 2.66699 12.667 8 18s11.666 8 18.999 8h188c7.33301 0 13.666 -2.66699 18.999 -8s8 -11.333 8 -18v-1757
c0 -6.66699 -2.66699 -12.834 -8 -18.501s-11.666 -8.5 -18.999 -8.5h-188c-7.33301 0 -13.666 2.83301 -18.999 8.5s-8 11.834 -8 18.501z" />
    <glyph glyph-name="asciicircum" unicode="^" horiz-adv-x="958" 
d="M90 784c0 6.66699 2 13 6 19l357 594c7.33301 12 16 18 26 18c10.667 0 19.667 -6 27 -18l356 -594c4 -6 6 -12.333 6 -19c0 -8 -2.66699 -14.667 -8 -20s-12 -8 -20 -8c-12.667 0 -21.667 5.33301 -27 16l-334 563l-334 -563c-5.33301 -10.667 -14 -16 -26 -16
c-8 0 -14.833 2.66699 -20.5 8s-8.5 12 -8.5 20z" />
    <glyph glyph-name="underscore" unicode="_" horiz-adv-x="831" 
d="M-43 -141c0 6.66699 2.66895 12.667 8.00195 18s11.666 8 18.999 8h864c6.66699 0 12.667 -2.5 18 -7.5s8 -11.167 8 -18.5s-2.66699 -13.666 -8 -18.999s-11.333 -8 -18 -8h-864c-6.66699 0 -12.834 2.66699 -18.501 8s-8.5 11.666 -8.5 18.999z" />
    <glyph glyph-name="grave" unicode="`" horiz-adv-x="757" 
d="M246.5 1324c0.333008 8.66699 4.16699 15.999 11.5 21.999c16 14 31 13 45 -3l203 -241c8.66699 -10.667 7.33398 -21.667 -3.99902 -33s-22.333 -10.666 -33 2.00098l-213 229c-6.66699 7.33301 -9.83398 15.333 -9.50098 24z" />
    <glyph glyph-name="a" unicode="a" 
d="M74 258c0 89.333 33.832 159.166 101.499 209.499s160.167 75.5 277.5 75.5h315v94c0 86 -26.5 152.167 -79.5 198.5s-126.833 69.5 -221.5 69.5c-52 0 -97.333 -7.66699 -136 -23s-67.667 -32.666 -87 -51.999s-38.666 -44 -57.999 -74c-6 -10 -14 -15 -24 -15
c-8 0 -14.833 2.83301 -20.5 8.5s-8.5 12.5 -8.5 20.5c0 6 2 12 6 18c30 49.333 72.333 90 127 122s121.667 48 201 48c121.333 0 211.333 -29.667 270 -89s88 -142 88 -248v-607c0 -8 -2.66699 -14.667 -8 -20s-12 -8 -20 -8s-14.833 2.66699 -20.5 8s-8.5 12 -8.5 20v121
c-32.667 -52.667 -79.167 -92.5 -139.5 -119.5s-126.5 -40.5 -198.5 -40.5c-114 0 -201.833 24.667 -263.5 74s-92.5 119 -92.5 209zM136.999 258c0 -72.667 24.5 -128.999 73.5 -168.999s122.167 -60 219.5 -60c61.333 0 117 10.333 167 31s91 53.167 123 97.5
s48 97.5 48 159.5v175h-315c-96 0 -172.667 -19.833 -230 -59.5s-86 -97.834 -86 -174.501z" />
    <glyph glyph-name="b" unicode="b" horiz-adv-x="1038" 
d="M143 371l0.000976562 1056c0 8 3.16699 15.167 9.5 21.5s13.5 9.5 21.5 9.5s15.167 -3.16699 21.5 -9.5s9.5 -13.5 9.5 -21.5v-663c2.66699 5.33301 6.5 12.333 11.5 21s17 24.167 36 46.5s40.167 42 63.5 59s55 32.5 95 46.5s82.667 21 128 21
c134 0 237.333 -40.667 310 -122s109 -204.333 109 -369s-36.333 -288.167 -109 -370.5s-176 -123.5 -310 -123.5c-118.667 0 -214.334 34.167 -287.001 102.5s-109 166.833 -109 295.5zM205.001 371c0 -115.333 30.334 -201.499 91.001 -258.499s141.667 -85.5 243 -85.5
c117.333 0 205.666 35.5 264.999 106.5s89 182.167 89 333.5c0 149.333 -29.667 259.666 -89 330.999s-147.666 107 -264.999 107c-46 0 -88.833 -8.16699 -128.5 -24.5s-71.5 -36.166 -95.5 -59.499s-44.833 -46.833 -62.5 -70.5s-29.834 -43.834 -36.501 -60.501l-11 -24
v-295z" />
    <glyph glyph-name="c" unicode="c" horiz-adv-x="901" 
d="M80 467c0 164.667 36.499 287.666 109.499 368.999s176.5 122 310.5 122c134.667 0 235.667 -45.667 303 -137c4 -6 6 -12 6 -18c0 -7.33301 -2.83301 -13.666 -8.5 -18.999s-11.834 -8 -18.501 -8c-8.66699 0 -16 4 -22 12c-14 16 -25.5 28.333 -34.5 37
s-24.167 20.5 -45.5 35.5s-47 26.167 -77 33.5s-64.333 11 -103 11c-117.333 0 -205.833 -35.667 -265.5 -107s-89.5 -181.666 -89.5 -330.999c0 -150.667 29.833 -261.667 89.5 -333s148.167 -107 265.5 -107c43.333 0 84.333 6.16699 123 18.5s67 24.166 85 35.499
s39.333 26.666 64 45.999c6 4 11.333 6 16 6c6.66699 0 12.834 -2.83301 18.501 -8.5s8.5 -11.834 8.5 -18.501c0 -8 -4 -15.333 -12 -22c-16 -13.333 -30.5 -24.166 -43.5 -32.499s-32.667 -19.666 -59 -33.999s-56.666 -25.333 -90.999 -33s-70.833 -11.5 -109.5 -11.5
c-134 0 -237.5 41.167 -310.5 123.5s-109.5 205.833 -109.5 370.5z" />
    <glyph glyph-name="d" unicode="d" horiz-adv-x="1028" 
d="M80 467c0 164.667 36.5 287.667 109.5 369s176.5 122 310.5 122c47.333 0 91 -6.66699 131 -20s72 -29.5 96 -48.5s44.5 -38 61.5 -57s28.833 -35.167 35.5 -48.5l10 -20v663c0 8 3 15.167 9 21.5s13 9.5 21 9.5s15.167 -3.16699 21.5 -9.5s9.5 -13.5 9.5 -21.5v-1056
c0 -128.667 -36.167 -227.167 -108.5 -295.5s-167.833 -102.5 -286.5 -102.5c-134 0 -237.5 41.167 -310.5 123.5s-109.5 205.833 -109.5 370.5zM145 467c0 -150.667 29.833 -261.669 89.5 -333.002s148.167 -107 265.5 -107c101.333 0 182.333 28.5 243 85.5
s91 143.167 91 258.5v295c-2 6.66699 -5.33301 15.334 -10 26.001s-16.167 29.667 -34.5 57s-39 51.5 -62 72.5s-54.833 40.167 -95.5 57.5s-84.667 26 -132 26c-117.333 0 -205.833 -35.667 -265.5 -107s-89.5 -181.666 -89.5 -330.999z" />
    <glyph glyph-name="e" unicode="e" horiz-adv-x="954" 
d="M82 467c0 157.333 36.665 278.499 109.998 363.499s176 127.5 308 127.5c64.667 0 121.334 -9.5 170.001 -28.5s86.334 -42 113.001 -69s48 -59.5 64 -97.5s26.333 -72 31 -102s7 -61.333 7 -94c0 -33.333 -1.33301 -58.333 -4 -75c-4 -22 -19 -33 -45 -33h-691
c0 -145.333 32.333 -253.666 97 -324.999s158 -107 280 -107c48 0 91.667 5.66699 131 17s69.333 23.333 90 36s43.334 29 68.001 49c6 4 11.333 6 16 6c7.33301 0 13.666 -2.66699 18.999 -8s8 -11.333 8 -18c0 -7.33301 -4 -15 -12 -23
c-80 -75.333 -186.667 -113 -320 -113c-140.667 0 -249.167 40.333 -325.5 121s-114.5 205 -114.5 373zM144.998 509.999h678c1.33301 27.333 2 46.333 2 57c0 44.667 -4.83301 85.667 -14.5 123s-26 72.833 -49 106.5s-56.667 60.167 -101 79.5s-97.833 29 -160.5 29
c-113.333 0 -199.833 -34.667 -259.5 -104s-91.5 -166.333 -95.5 -291z" />
    <glyph glyph-name="f" unicode="f" horiz-adv-x="563" 
d="M51 903c0 7.33301 2.83105 13.666 8.49805 18.999s11.834 8 18.501 8h117v129c0 46.667 6.66699 90.167 20 130.5s33.5 76.666 60.5 108.999s63 57.833 108 76.5s96.833 28 155.5 28c6.66699 0 12.667 -2.66699 18 -8s8 -11.666 8 -18.999
c0 -6.66699 -2.5 -12.667 -7.5 -18s-11.167 -8 -18.5 -8c-97.333 0 -168.833 -26 -214.5 -78s-68.5 -123 -68.5 -213v-129h242c6.66699 0 12.667 -2.66699 18 -8s8 -11.666 8 -18.999s-2.66699 -13.5 -8 -18.5s-11.333 -7.5 -18 -7.5h-242v-863c0 -8 -3.16699 -15 -9.5 -21
s-13.5 -9 -21.5 -9s-15 3 -21 9s-9 13 -9 21v863h-117c-7.33301 0 -13.666 2.66699 -18.999 8s-8 11.333 -8 18z" />
    <glyph glyph-name="g" unicode="g" horiz-adv-x="954" 
d="M76 -139c0 60.667 17.499 110.832 52.499 150.499s76.833 65.167 125.5 76.5c-21.333 6 -38.5 11.667 -51.5 17s-27.833 13.5 -44.5 24.5s-29 26 -37 45s-12 41.5 -12 67.5c0 69.333 34.667 115.666 104 138.999c-64 58 -96 140 -96 246c0 102.667 31.667 183.5 95 242.5
s152.333 88.5 267 88.5c96 0 174.667 -20.333 236 -61c12 38 33.667 67.667 65 89s71 32 119 32c7.33301 0 13.666 -2.66699 18.999 -8s8 -11.666 8 -18.999c0 -6.66699 -2.66699 -12.667 -8 -18s-11.666 -8 -18.999 -8c-43.333 0 -75.666 -8.33301 -96.999 -25
s-36.666 -42.667 -45.999 -78c57.333 -59.333 86 -137.666 86 -234.999c0 -102.667 -31.833 -183.667 -95.5 -243s-152.834 -89 -267.501 -89c-92.667 0 -167.667 17.667 -225 53c-58.667 -14.667 -88 -50 -88 -106c0 -38 14.667 -66 44 -84s78 -27 146 -27h256
c95.333 0 173.166 -22 233.499 -66s90.5 -109.333 90.5 -196c0 -65.333 -19.167 -119.5 -57.5 -162.5s-88.833 -73.5 -151.5 -91.5s-137 -27 -223 -27c-56 0 -108 4.5 -156 13.5s-93.167 23.333 -135.5 43s-75.666 48 -99.999 85s-36.5 80.833 -36.5 131.5z
M138.999 -139.002c0 -40 9.5 -74.6699 28.5 -104.003s46 -52.166 81 -68.499s73.667 -28.166 116 -35.499s89.5 -11 141.5 -11c244 0 366 75.667 366 227c0 72.667 -23.833 125.334 -71.5 158.001s-110.5 49 -188.5 49h-250c-74 -10 -129.667 -33.667 -167 -71
s-56 -85.333 -56 -144zM179.999 626.995c0 -88.667 25.333 -157.334 76 -206.001s125 -73 223 -73s172.333 24.333 223 73s76 117.334 76 206.001s-25.333 157.167 -76 205.5s-125 72.5 -223 72.5s-172.333 -24.167 -223 -72.5s-76 -116.833 -76 -205.5z" />
    <glyph glyph-name="h" unicode="h" horiz-adv-x="1015" 
d="M143 14l-0.000976562 1413c0 8 3.16699 15.167 9.5 21.5s13.5 9.5 21.5 9.5s15.167 -3.16699 21.5 -9.5s9.5 -13.5 9.5 -21.5v-665c8.66699 22.667 20.834 44.5 36.501 65.5s36 41.833 61 62.5s56.833 37.167 95.5 49.5s81.334 18.5 128.001 18.5
c244.667 0 367 -120.667 367 -362v-582c0 -8 -3.16699 -15 -9.5 -21s-13.5 -9 -21.5 -9s-15.167 3 -21.5 9s-9.5 13 -9.5 21v582c0 44.667 -4.5 84.334 -13.5 119.001s-24.333 67 -46 97s-53.334 53 -95.001 69s-92.5 24 -152.5 24c-53.333 0 -101 -9.5 -143 -28.5
s-75.5 -44.5 -100.5 -76.5s-43.833 -67.167 -56.5 -105.5s-19 -78.166 -19 -119.499v-561c0 -8 -3.16699 -15 -9.5 -21s-13.5 -9 -21.5 -9s-15.167 3 -21.5 9s-9.5 13 -9.5 21z" />
    <glyph glyph-name="i" unicode="i" horiz-adv-x="358" 
d="M147 1255c0 28.667 12.333 43 37 43s37 -14.333 37 -43s-12.333 -43 -37 -43s-37 14.333 -37 43zM154 14v901c0 8 3 15.167 9 21.5s13 9.5 21 9.5s15.167 -3.16699 21.5 -9.5s9.5 -13.5 9.5 -21.5v-901c0 -8 -3.16699 -15 -9.5 -21s-13.5 -9 -21.5 -9s-15 3 -21 9
s-9 13 -9 21z" />
    <glyph glyph-name="j" unicode="j" horiz-adv-x="368" 
d="M-86 -385c0 7.33301 2.66699 13.668 8 19.001s11.666 8 18.999 8c65.333 0 118.833 23 160.5 69s62.5 102.667 62.5 170v1034c0 8 3.16699 15.167 9.5 21.5s13.5 9.5 21.5 9.5s15 -3.16699 21 -9.5s9 -13.5 9 -21.5v-1034c0 -82.667 -26.833 -152.167 -80.5 -208.5
s-121.5 -84.5 -203.5 -84.5c-7.33301 0 -13.666 2.66699 -18.999 8s-8 11.666 -8 18.999zM156 1255c0 28.667 12.333 43 37 43c24 0 36 -14.333 36 -43s-12 -43 -36 -43c-24.667 0 -37 14.333 -37 43z" />
    <glyph glyph-name="k" unicode="k" horiz-adv-x="897" 
d="M143 14v1413c0 8 3.16699 15.167 9.5 21.5s13.5 9.5 21.5 9.5s15.167 -3.16699 21.5 -9.5s9.5 -13.5 9.5 -21.5v-974l579 485c7.33301 5.33301 14.333 8 21 8c8 0 15.167 -3.16699 21.5 -9.5s9.5 -13.5 9.5 -21.5c0 -9.33301 -4.33301 -17.333 -13 -24l-401 -330
l424 -526c5.33301 -7.33301 8 -14.333 8 -21c0 -8 -3.16699 -15 -9.5 -21s-13.5 -9 -21.5 -9s-15.333 3.33301 -22 10l-426 530l-170 -145v-365c0 -8 -3.16699 -15 -9.5 -21s-13.5 -9 -21.5 -9s-15.167 3 -21.5 9s-9.5 13 -9.5 21z" />
    <glyph glyph-name="l" unicode="l" horiz-adv-x="399" 
d="M143 205l-0.000976562 1222c0 8 3.16699 15.167 9.5 21.5s13.5 9.5 21.5 9.5s15.167 -3.16699 21.5 -9.5s9.5 -13.5 9.5 -21.5v-1222c0 -58.667 10.333 -101.334 31 -128.001s53.334 -40 98.001 -40c6.66699 0 12.667 -2.66699 18 -8s8 -11.666 8 -18.999
c0 -6.66699 -2.66699 -12.667 -8 -18s-11.333 -8 -18 -8c-62 0 -109.333 18.833 -142 56.5s-49 92.5 -49 164.5z" />
    <glyph glyph-name="m" unicode="m" horiz-adv-x="1654" 
d="M143 14l0.00488281 900.998c0 8 3.16699 15.167 9.5 21.5s13.5 9.5 21.5 9.5s15.167 -3.16699 21.5 -9.5s9.5 -13.5 9.5 -21.5v-155c17.333 52.667 52.166 98.834 104.499 138.501s121.166 59.5 206.499 59.5c92 0 165 -17.167 219 -51.5s91 -80.5 111 -138.5
c17.333 50.667 53.166 95 107.499 133s125.5 57 213.5 57c57.333 0 107.666 -6.66699 150.999 -20s78.333 -31 105 -53s48.334 -49 65.001 -81s28.167 -64.667 34.5 -98s9.5 -70 9.5 -110v-582c0 -8 -3.16699 -15 -9.5 -21s-13.5 -9 -21.5 -9s-15.167 3 -21.5 9
s-9.5 13 -9.5 21v582c0 207.333 -101 311 -303 311c-101.333 0 -176.5 -29.333 -225.5 -88s-73.5 -133.667 -73.5 -225v-580c0 -8 -3 -15 -9 -21s-13 -9 -21 -9s-15.167 3 -21.5 9s-9.5 13 -9.5 21v582c0 35.333 -2.5 67.5 -7.5 96.5s-14.167 57.167 -27.5 84.5
s-30.833 50.166 -52.5 68.499s-50.334 33.166 -86.001 44.499s-76.834 17 -123.501 17c-52 0 -98 -10.167 -138 -30.5s-71.833 -47.666 -95.5 -81.999s-41.5 -72.166 -53.5 -113.499s-18 -84.666 -18 -129.999v-537c0 -8 -3.16699 -15 -9.5 -21s-13.5 -9 -21.5 -9
s-15.167 3 -21.5 9s-9.5 13 -9.5 21z" />
    <glyph glyph-name="n" unicode="n" horiz-adv-x="1015" 
d="M143 14l0.00195312 901c0 8 3.16699 15.167 9.5 21.5s13.5 9.5 21.5 9.5s15.167 -3.16699 21.5 -9.5s9.5 -13.5 9.5 -21.5v-153c8.66699 22.667 21 44.667 37 66s36.667 42.166 62 62.499s57.166 36.666 95.499 48.999s80.5 18.5 126.5 18.5
c244.667 0 367 -120.667 367 -362v-582c0 -8 -3.16699 -15 -9.5 -21s-13.5 -9 -21.5 -9s-15.167 3 -21.5 9s-9.5 13 -9.5 21v582c0 44.667 -4.5 84.334 -13.5 119.001s-24.333 67 -46 97s-53.334 53 -95.001 69s-92.5 24 -152.5 24c-53.333 0 -101 -9.5 -143 -28.5
s-75.5 -44.5 -100.5 -76.5s-43.833 -67.167 -56.5 -105.5s-19 -78.166 -19 -119.499v-561c0 -8 -3.16699 -15 -9.5 -21s-13.5 -9 -21.5 -9s-15.167 3 -21.5 9s-9.5 13 -9.5 21z" />
    <glyph glyph-name="o" unicode="o" horiz-adv-x="999" 
d="M80 467c0 164.667 36.5 287.667 109.5 369s176.5 122 310.5 122s237.5 -40.667 310.5 -122s109.5 -204.333 109.5 -369s-36.5 -288.167 -109.5 -370.5s-176.5 -123.5 -310.5 -123.5s-237.5 41.167 -310.5 123.5s-109.5 205.833 -109.5 370.5zM145 467
c0 -293.333 118.333 -440 355 -440c236 0 354 146.667 354 440c0 292 -118 438 -354 438c-236.667 0 -355 -146 -355 -438z" />
    <glyph glyph-name="p" unicode="p" horiz-adv-x="1042" 
d="M143 -381l-0.000976562 1296c0 8 3.16699 15.167 9.5 21.5s13.5 9.5 21.5 9.5s15.167 -3.16699 21.5 -9.5s9.5 -13.5 9.5 -21.5v-159c54.667 134.667 167.334 202 338.001 202c134 0 237.5 -40.667 310.5 -122s109.5 -204.333 109.5 -369s-36.5 -288.167 -109.5 -370.5
s-176.5 -123.5 -310.5 -123.5c-36.667 0 -71 3.66699 -103 11s-59.167 16.666 -81.5 27.999s-42.666 24 -60.999 38s-33 28.167 -44 42.5s-20.333 27.166 -28 38.499s-12.834 20.666 -15.501 27.999l-5 11v-551c0 -8 -3.16699 -15.167 -9.5 -21.5s-13.5 -9.5 -21.5 -9.5
s-15.167 3.16699 -21.5 9.5s-9.5 13.5 -9.5 21.5zM200.999 467.003c0 -150 30.834 -260.833 92.501 -332.5s144.834 -107.5 249.501 -107.5c117.333 0 205.666 35.5 264.999 106.5s89 182.167 89 333.5c0 292 -120 438 -360 438c-106.667 0 -189.334 -36 -248.001 -108
s-88 -182 -88 -330z" />
    <glyph glyph-name="q" unicode="q" horiz-adv-x="1005" 
d="M92 467c0 164.667 36.499 287.667 109.499 369s176.5 122 310.5 122c120.667 0 217.334 -33.833 290.001 -101.5s109 -165.5 109 -293.5v-944c0 -8 -3 -15.167 -9 -21.5s-13 -9.5 -21 -9.5s-15.167 3.16699 -21.5 9.5s-9.5 13.5 -9.5 21.5v551l-11 -21.5
c-4.66699 -9 -16.5 -24.833 -35.5 -47.5s-40.167 -42.5 -63.5 -59.5s-55.333 -32.667 -96 -47s-84.667 -21.5 -132 -21.5c-134 0 -237.5 41.167 -310.5 123.5s-109.5 205.833 -109.5 370.5zM157.999 467c0 -151.333 29.668 -262.502 89.001 -333.502
s147.666 -106.5 264.999 -106.5c46.667 0 90.167 8.16699 130.5 24.5s72.666 36.166 96.999 59.499s45.333 46.833 63 70.5s30.167 43.834 37.5 60.501l10 24v297c0 114.667 -31 200.334 -93 257.001s-143.667 85 -245 85c-117.333 0 -205.666 -35.667 -264.999 -107
s-89 -181.666 -89 -330.999z" />
    <glyph glyph-name="r" unicode="r" horiz-adv-x="604" 
d="M143 14v901.001c0 8 3.16699 15.167 9.5 21.5s13.5 9.5 21.5 9.5s15.167 -3.16699 21.5 -9.5s9.5 -13.5 9.5 -21.5v-200c22.667 72.667 63.667 131 123 175s135 66 227 66c7.33301 0 13.666 -2.66699 18.999 -8s8 -11.333 8 -18s-2.66699 -12.834 -8 -18.501
s-11.666 -8.5 -18.999 -8.5c-76 0 -140.833 -18.5 -194.5 -55.5s-93 -85.5 -118 -145.5s-37.5 -128 -37.5 -204v-484c0 -8 -3.16699 -15 -9.5 -21s-13.5 -9 -21.5 -9s-15.167 3 -21.5 9s-9.5 13 -9.5 21z" />
    <glyph glyph-name="s" unicode="s" horiz-adv-x="817" 
d="M53 135c0 7.33301 2.83301 13.666 8.5 18.999s11.834 8 18.501 8s12.667 -2.66699 18 -8c37.333 -42 80.333 -73.667 129 -95s109.667 -32 183 -32c38.667 0 74.167 3.66699 106.5 11s61.5 18.5 87.5 33.5s46.167 35.833 60.5 62.5s21.5 57.667 21.5 93
s-10.833 66.5 -32.5 93.5s-49.667 48.833 -84 65.5s-72.333 32.334 -114 47.001l-125 46c-41.667 16 -79.667 34.167 -114 54.5s-62.333 47 -84 80s-32.5 71.5 -32.5 115.5c0 75.333 27.833 132.333 83.5 171s128.167 58 217.5 58c131.333 0 233.333 -40.667 306 -122
c5.33301 -7.33301 8 -14.333 8 -21c0 -7.33301 -2.83301 -13.666 -8.5 -18.999s-11.834 -8 -18.501 -8c-6 0 -12 3 -18 9c-37.333 37.333 -77 64.666 -119 81.999s-92 26 -150 26c-68.667 0 -125.667 -14 -171 -42s-68 -72.667 -68 -134c0 -36.667 10.833 -68.667 32.5 -96
s49.667 -49.5 84 -66.5s72.333 -32.667 114 -47l125 -45c41.667 -15.667 79.667 -33.5 114 -53.5s62.333 -46.333 84 -79s32.5 -71 32.5 -115c0 -83.333 -31.333 -146.5 -94 -189.5s-144 -64.5 -244 -64.5c-80 0 -151.333 14.167 -214 42.5s-107.667 61.5 -135 99.5
c-5.33301 7.33301 -8 14 -8 20z" />
    <glyph glyph-name="t" unicode="t" horiz-adv-x="542" 
d="M41 903c0 7.33301 2.82617 13.667 8.49316 19s11.834 8 18.501 8h127v250c0 8 3 15 9 21s13 9 21 9s15.167 -3 21.5 -9s9.5 -13 9.5 -21v-250h184c6.66699 0 12.834 -2.66699 18.501 -8s8.5 -11.666 8.5 -18.999c0 -6.66699 -2.66699 -12.667 -8 -18
s-11.666 -8 -18.999 -8h-184v-652c0 -60 15.5 -106.333 46.5 -139s72.167 -49 123.5 -49c6.66699 0 12.834 -2.83301 18.501 -8.5s8.5 -11.834 8.5 -18.501s-2.66699 -12.667 -8 -18s-11.666 -8 -18.999 -8c-73.333 0 -130.166 22.333 -170.499 67s-60.5 102.667 -60.5 174
v652h-127c-7.33301 0 -13.666 2.66699 -18.999 8s-8 11.333 -8 18z" />
    <glyph glyph-name="u" unicode="u" horiz-adv-x="995" 
d="M123 338l-0.00390625 577c0 8 3.16699 15.167 9.5 21.5s13.5 9.5 21.5 9.5s15 -3.16699 21 -9.5s9 -13.5 9 -21.5v-577c0 -46 4.33301 -86.167 13 -120.5s24 -66.666 46 -96.999s54.333 -53.5 97 -69.5s95.334 -24 158.001 -24s115.334 8 158.001 24
s74.834 39.167 96.501 69.5s36.834 62.666 45.501 96.999s13 74.5 13 120.5v577c0 8 3.16699 15.167 9.5 21.5s13.5 9.5 21.5 9.5s15 -3.16699 21 -9.5s9 -13.5 9 -21.5v-577c0 -40.667 -3 -77.667 -9 -111s-17.333 -66.333 -34 -99s-38.5 -60 -65.5 -82
s-63 -39.667 -108 -53s-97.5 -20 -157.5 -20s-112.5 6.66699 -157.5 20s-81.167 31 -108.5 53s-49.333 49.333 -66 82s-28 65.667 -34 99s-9 70.333 -9 111z" />
    <glyph glyph-name="v" unicode="v" horiz-adv-x="876" 
d="M37 915c0 8 3.16602 15.167 9.49902 21.5s13.5 9.5 21.5 9.5c14 0 23.333 -6.66699 28 -20l342 -848l342 848c4.66699 13.333 14.334 20 29.001 20c8 0 15.167 -3.16699 21.5 -9.5s9.5 -13.5 9.5 -21.5c0 -5.33301 -1.33301 -10.666 -4 -15.999l-371 -899
c-5.33301 -10.667 -14.333 -16 -27 -16c-12 0 -20.667 5.33301 -26 16l-371 899c-2.66699 5.33301 -4 10.666 -4 15.999z" />
    <glyph glyph-name="w" unicode="w" horiz-adv-x="1343" 
d="M37 915c0 8 2.83398 15.167 8.50098 21.5s12.5 9.5 20.5 9.5c14 0 23.333 -6.66699 28 -20l301 -842l250 844c3.33301 12 11.666 18 24.999 18c14.667 0 23.334 -6 26.001 -18l250 -844l303 842c4.66699 13.333 14.334 20 29.001 20c8 0 14.833 -2.66699 20.5 -8
s8.5 -12 8.5 -20c0 -4.66699 -1.33301 -11 -4 -19l-328 -895c-4.66699 -13.333 -14.334 -20 -29.001 -20c-16 0 -26.333 6.66699 -31 20l-243 827l-246 -827c-4.66699 -13.333 -15 -20 -31 -20c-12.667 0 -21.334 6.66699 -26.001 20l-328 895c-2.66699 8 -4 13.333 -4 16z
" />
    <glyph glyph-name="x" unicode="x" horiz-adv-x="788" 
d="M33 14c0 6.66699 1.99902 13 5.99902 19l323 442l-315 422c-4 6 -6 12 -6 18c0 8 3.16699 15.167 9.5 21.5s13.5 9.5 21.5 9.5c10.667 0 19.334 -4.66699 26.001 -14l301 -412l291 410c8 10.667 17 16 27 16c8 0 15.167 -3.16699 21.5 -9.5s9.5 -13.5 9.5 -21.5
c0 -4.66699 -2.33301 -10.667 -7 -18l-309 -430l318 -434c4 -6 6 -12.333 6 -19c0 -8 -3.16699 -15 -9.5 -21s-13.5 -9 -21.5 -9c-10.667 0 -19 4 -25 12l-305 432l-307 -432c-6 -8 -14.333 -12 -25 -12c-8 0 -15 3 -21 9s-9 13 -9 21z" />
    <glyph glyph-name="y" unicode="y" horiz-adv-x="876" 
d="M4 -385c0 7.33301 2.66504 13.668 7.99805 19.001s11.666 8 18.999 8c32 0 60.833 2.66699 86.5 8s48.334 11.833 68.001 19.5s38.334 20.167 56.001 37.5s32.667 33.833 45 49.5s26.166 38.667 41.499 69s28.166 57.5 38.499 81.5l41.5 101l-367 891
c-2.66699 5.33301 -4 10.666 -4 15.999c0 8 3.16699 15.167 9.5 21.5s13.5 9.5 21.5 9.5c14 0 23.333 -6.66699 28 -20l342 -848l342 848c4.66699 13.333 14.334 20 29.001 20c8 0 15.167 -3.16699 21.5 -9.5s9.5 -13.5 9.5 -21.5c0 -5.33301 -1.33301 -10.666 -4 -15.999
l-433 -1042c-42 -100 -90.667 -169.833 -146 -209.5s-130.666 -59.5 -225.999 -59.5c-7.33301 0 -13.666 2.66699 -18.999 8s-8 11.666 -8 18.999z" />
    <glyph glyph-name="z" unicode="z" horiz-adv-x="794" 
d="M45 27c0 4.66699 2.00098 10 6.00098 16l608 834h-557c-6.66699 0 -12.667 2.5 -18 7.5s-8 11.167 -8 18.5s2.66699 13.666 8 18.999s11.333 8 18 8h611c6.66699 0 12.667 -2.66699 18 -8s8 -11.666 8 -18.999c0 -6.66699 -2.66699 -14 -8 -22l-602 -828h598
c7.33301 0 13.666 -2.66699 18.999 -8s8 -11.333 8 -18c0 -7.33301 -2.66699 -13.666 -8 -18.999s-11.666 -8 -18.999 -8h-655c-6.66699 0 -12.834 2.66699 -18.501 8s-8.5 11.666 -8.5 18.999z" />
    <glyph glyph-name="braceleft" unicode="{" horiz-adv-x="602" 
d="M55 606c0 6.66699 2.5 12.501 7.5 17.501s10.833 7.5 17.5 7.5h20c66 0 118 18 156 54s57 92.333 57 169c0 54 -4.33301 134 -13 240s-13 187.667 -13 245c0 53.333 17.167 95.333 51.5 126s79.166 46 134.499 46c7.33301 0 13.666 -2.66699 18.999 -8s8 -11.333 8 -18
c0 -7.33301 -2.66699 -13.666 -8 -18.999s-11.666 -8 -18.999 -8c-38 0 -67.667 -10 -89 -30s-32 -49.667 -32 -89c0 -53.333 2.16699 -134.666 6.5 -243.999s6.5 -190.333 6.5 -243c0 -72.667 -18.167 -131.834 -54.5 -177.501s-85.833 -68.5 -148.5 -68.5
c62.667 0 112.167 -22.833 148.5 -68.5s54.5 -104.834 54.5 -177.501c0 -52.667 -2.16699 -133.667 -6.5 -243s-6.5 -190.666 -6.5 -243.999c0 -39.333 10.667 -69 32 -89s51 -30 89 -30c7.33301 0 13.666 -2.66699 18.999 -8s8 -11.333 8 -18s-2.66699 -12.834 -8 -18.501
s-11.666 -8.5 -18.999 -8.5c-55.333 0 -100.166 15.5 -134.499 46.5s-51.5 72.833 -51.5 125.5c0 57.333 4.33301 139.166 13 245.499s13 186.166 13 239.499c0 76.667 -19 133.167 -57 169.5s-90 54.5 -156 54.5h-20c-7.33301 0 -13.333 2.33301 -18 7s-7 10.334 -7 17.001
z" />
    <glyph glyph-name="bar" unicode="|" horiz-adv-x="446" 
d="M193 -297v1921c0 8 3 15.167 9 21.5s13 9.5 21 9.5s15.167 -3.16699 21.5 -9.5s9.5 -13.5 9.5 -21.5v-1921c0 -8 -3.16699 -15.167 -9.5 -21.5s-13.5 -9.5 -21.5 -9.5s-15 3.16699 -21 9.5s-9 13.5 -9 21.5z" />
    <glyph glyph-name="braceright" unicode="}" horiz-adv-x="602" 
d="M102 -272c0 6.66699 2.66699 12.666 8 17.999s11.666 8 18.999 8c38 0 67.667 10 89 30s32 49.667 32 89c0 53.333 -2 134.666 -6 243.999s-6 190.333 -6 243c0 72.667 18 131.834 54 177.501s85.333 68.5 148 68.5c-62.667 0 -112 22.833 -148 68.5
s-54 104.834 -54 177.501c0 52.667 2 133.667 6 243s6 190.666 6 243.999c0 39.333 -10.667 69 -32 89s-51 30 -89 30c-7.33301 0 -13.666 2.66699 -18.999 8s-8 11.666 -8 18.999c0 6.66699 2.66699 12.667 8 18s11.666 8 18.999 8c55.333 0 100.166 -15.333 134.499 -46
s51.5 -72.667 51.5 -126c0 -57.333 -4.33301 -139 -13 -245s-13 -186 -13 -240c0 -76.667 19 -133 57 -169s90 -54 156 -54h20c6.66699 0 12.5 -2.5 17.5 -7.5s7.5 -10.833 7.5 -17.5s-2.33301 -12.334 -7 -17.001s-10.667 -7 -18 -7h-20c-66 0 -118 -18.167 -156 -54.5
s-57 -92.833 -57 -169.5c0 -53.333 4.33301 -133.166 13 -239.499s13 -188.166 13 -245.499c0 -52.667 -17.167 -94.5 -51.5 -125.5s-79.166 -46.5 -134.499 -46.5c-7.33301 0 -13.666 2.83301 -18.999 8.5s-8 11.834 -8 18.501z" />
    <glyph glyph-name="asciitilde" unicode="~" horiz-adv-x="976" 
d="M104 549c0 2.66699 2.33105 8.66699 6.99805 18c8 15.333 17.667 30.666 29 45.999s26 31.5 44 48.5s39.5 30.833 64.5 41.5s51.5 16 79.5 16c34.667 0 69.167 -7.66699 103.5 -23s62.833 -32 85.5 -50s49.167 -34.667 79.5 -50s59.5 -23 87.5 -23
c70 0 128 41.667 174 125c6.66699 12.667 15 19 25 19c6.66699 0 12.334 -2.66699 17.001 -8s7 -11 7 -17c0 -5.33301 -1.33301 -10.666 -4 -15.999c-18 -38.667 -45.667 -74 -83 -106s-82.666 -48 -135.999 -48c-31.333 0 -63.666 7.5 -96.999 22.5
s-61.833 31.5 -85.5 49.5s-51.334 34.5 -83.001 49.5s-61.834 22.5 -90.501 22.5c-19.333 0 -37.5 -3.16699 -54.5 -9.5s-30.667 -13 -41 -20s-21.666 -17.667 -33.999 -32s-20.5 -24.833 -24.5 -31.5l-20 -32c-6.66699 -11.333 -15 -17 -25 -17
c-7.33301 0 -13.333 2.33301 -18 7s-7 10.667 -7 18z" />
    <glyph glyph-name="uni00A0" unicode="&#xa0;" horiz-adv-x="579" 
 />
    <glyph glyph-name="exclamdown" unicode="&#xa1;" horiz-adv-x="288" 
d="M96 911c0 31.333 15.667 47 47 47s47 -15.667 47 -47c0 -32.667 -15.667 -49 -47 -49s-47 16.333 -47 49zM106 -418l17 1088c0 12 6.66699 18 20 18c14 0 21 -6 21 -18l16 -1088c0 -23.333 -12.333 -35 -37 -35s-37 11.667 -37 35z" />
    <glyph glyph-name="cent" unicode="&#xa2;" horiz-adv-x="901" 
d="M82 467c0 158 33.5029 277.499 100.503 358.499s163.167 124.5 288.5 130.5v140c0 8 2.83301 14.667 8.5 20s12.5 8 20.5 8s14.667 -2.66699 20 -8s8 -12 8 -20v-140c125.333 -6.66699 220.333 -51.667 285 -135c4 -6 6 -12 6 -18
c0 -7.33301 -2.66699 -13.666 -8 -18.999s-11.333 -8 -18 -8c-9.33301 0 -17 4 -23 12c-12.667 14.667 -24.334 26.834 -35.001 36.501s-26.834 21.667 -48.501 36s-48.334 25.333 -80.001 33s-67.167 11.5 -106.5 11.5c-238 0 -357 -146 -357 -438
c0 -150.667 30 -261.667 90 -333s149 -107 267 -107c43.333 0 84.333 6.16699 123 18.5s67 24.166 85 35.499s39.333 26.666 64 45.999c6 4 11.333 6 16 6c6.66699 0 12.834 -2.83301 18.501 -8.5s8.5 -11.834 8.5 -18.501c0 -8 -4 -15.333 -12 -22
c-84.667 -67.333 -176.334 -103.666 -275.001 -108.999v-165c0 -8 -2.66699 -14.833 -8 -20.5s-12 -8.5 -20 -8.5s-14.833 2.83301 -20.5 8.5s-8.5 12.5 -8.5 20.5v165c-125.333 6 -221.5 49.833 -288.5 131.5s-100.5 201.834 -100.5 360.501z" />
    <glyph glyph-name="sterling" unicode="&#xa3;" horiz-adv-x="1210" 
d="M154 637c0 7.33301 2.66602 13.6631 7.99902 18.9961s11.333 8 18 8h111c-26.667 48 -46.834 86.5 -60.501 115.5s-27.167 66.333 -40.5 112s-20 89.834 -20 132.501c0 112 39.167 203.833 117.5 275.5s182.5 107.5 312.5 107.5c239.333 0 385.333 -89.333 438 -268
c2.66699 -8 4 -14.333 4 -19c0 -8 -3 -15 -9 -21s-13 -9 -21 -9c-16 0 -26.333 8.66699 -31 26c-28.667 81.333 -72.334 141.333 -131.001 180s-142 58 -250 58c-107.333 0 -195.666 -30 -264.999 -90s-104 -140 -104 -240c0 -54.667 10 -108.167 30 -160.5
s52.333 -118.833 97 -199.5h392c6.66699 0 12.667 -2.66699 18 -8s8 -11.666 8 -18.999s-2.66699 -13.666 -8 -18.999s-11.333 -8 -18 -8h-369c38 -78 57 -158.333 57 -241c0 -51.333 -15 -103.666 -45 -156.999s-64 -96 -102 -128c58 27.333 115.333 41 172 41
c40 0 78.333 -5.5 115 -16.5s66.667 -23 90 -36s50.333 -25 81 -36s60.334 -16.5 89.001 -16.5c121.333 0 205.333 48.667 252 146c5.33301 10.667 13.333 16 24 16c8 0 14.833 -2.5 20.5 -7.5s8.5 -11.167 8.5 -18.5s-1.33301 -13.666 -4 -18.999
c-31.333 -62 -71.833 -105.833 -121.5 -131.5s-109.5 -38.5 -179.5 -38.5c-34 0 -68 5.5 -102 16.5s-62.833 23 -86.5 36s-52.167 25 -85.5 36s-66.333 16.5 -99 16.5c-94 0 -175.333 -27.333 -244 -82c-8 -5.33301 -15.333 -8 -22 -8c-9.33301 0 -16.833 2.83301 -22.5 8.5
s-8.5 12.834 -8.5 21.501c0 10.667 4.66699 19.667 14 27c50.667 41.333 95.834 92.333 135.501 153s59.5 119.667 59.5 177c0 73.333 -21.333 153.666 -64 240.999h-133c-6.66699 0 -12.667 2.66699 -18 8s-8 11.666 -8 18.999z" />
    <glyph glyph-name="currency" unicode="&#xa4;" horiz-adv-x="956" 
d="M61 246c0 7.33301 3.66797 14.668 11.001 22.001l125 131c-53.333 69.333 -80 149.333 -80 240c0 92.667 27.333 172.667 82 240l-127 135c-7.33301 7.33301 -11 14.666 -11 21.999c0 6.66699 2.83301 12.834 8.5 18.501s11.834 8.5 18.501 8.5
c7.33301 0 14.333 -3.33301 21 -10l129 -133c68 61.333 149 92 243 92c93.333 0 172.666 -29.333 237.999 -88l127 129c6.66699 6.66699 13.334 10 20.001 10s12.834 -2.83301 18.501 -8.5s8.5 -11.834 8.5 -18.501c0 -8 -3.33301 -15.333 -10 -22l-125 -131
c54.667 -70.667 82 -152 82 -244c0 -94 -27.333 -174.667 -82 -242l125 -129c6.66699 -6.66699 10 -14 10 -22c0 -6.66699 -2.83301 -12.834 -8.5 -18.501s-11.834 -8.5 -18.501 -8.5s-13.334 3.33301 -20.001 10l-125 127c-64 -60 -144 -90 -240 -90
c-95.333 0 -177 30.667 -245 92l-127 -129c-6.66699 -6.66699 -13.667 -10 -21 -10c-6.66699 0 -12.834 2.83301 -18.501 8.5s-8.5 11.834 -8.5 18.501zM174.001 639.002c0 -89.333 29 -165 87 -227s131.333 -93 220 -93s161 30.833 217 92.5s84 137.5 84 227.5
s-28 165.667 -84 227s-128.333 92 -217 92s-162 -30.833 -220 -92.5s-87 -137.167 -87 -226.5z" />
    <glyph glyph-name="yen" unicode="&#xa5;" horiz-adv-x="1028" 
d="M35 1360c0 10 3.16699 18.333 9.5 25s14.166 10 23.499 10c13.333 0 23.333 -5.66699 30 -17l416 -665l414 665c7.33301 11.333 16.666 17 27.999 17c10 0 18.333 -3.33301 25 -10s10 -15 10 -25c0 -8 -2 -15 -6 -21l-438 -688h280c7.33301 0 13.666 -2.66699 18.999 -8
s8 -11.333 8 -18c0 -7.33301 -2.66699 -13.666 -8 -18.999s-11.666 -8 -18.999 -8h-280v-154h280c7.33301 0 13.666 -2.66699 18.999 -8s8 -11.333 8 -18s-2.66699 -12.834 -8 -18.501s-11.666 -8.5 -18.999 -8.5h-280v-375c0 -8.66699 -3.16699 -16.167 -9.5 -22.5
s-14.166 -9.5 -23.499 -9.5s-17.166 3.16699 -23.499 9.5s-9.5 13.833 -9.5 22.5v375h-282c-7.33301 0 -13.666 2.83301 -18.999 8.5s-8 11.834 -8 18.501s2.66699 12.667 8 18s11.666 8 18.999 8h282v154h-282c-7.33301 0 -13.666 2.66699 -18.999 8s-8 11.666 -8 18.999
c0 6.66699 2.66699 12.667 8 18s11.666 8 18.999 8h282l-440 688c-4 6 -6 13 -6 21z" />
    <glyph glyph-name="brokenbar" unicode="&#xa6;" horiz-adv-x="446" 
d="M193 -297v866c0 8 3 15.167 9 21.5s13 9.5 21 9.5s15.167 -3.16699 21.5 -9.5s9.5 -13.5 9.5 -21.5v-866c0 -8 -3.16699 -15.167 -9.5 -21.5s-13.5 -9.5 -21.5 -9.5s-15 3.16699 -21 9.5s-9 13.5 -9 21.5zM193 760v864c0 8 3 15.167 9 21.5s13 9.5 21 9.5
s15.167 -3.16699 21.5 -9.5s9.5 -13.5 9.5 -21.5v-864c0 -8 -3.16699 -15.167 -9.5 -21.5s-13.5 -9.5 -21.5 -9.5s-15 3.16699 -21 9.5s-9 13.5 -9 21.5z" />
    <glyph glyph-name="section" unicode="&#xa7;" horiz-adv-x="1032" 
d="M92 580c0 106 45.6641 200.001 136.997 282.001c-69.333 62.667 -104 140.667 -104 234c0 90.667 33.833 165.167 101.5 223.5s168.834 87.5 303.501 87.5c84.667 0 161.167 -16.167 229.5 -48.5s121.833 -74.833 160.5 -127.5c4 -6 6 -13 6 -21
c0 -6.66699 -2.66699 -12.334 -8 -17.001s-11.666 -7 -18.999 -7c-10 0 -17.333 3.33301 -22 10c-15.333 18 -30 33.667 -44 47s-35.167 29.666 -63.5 48.999s-63 34.5 -104 45.5s-86.167 16.5 -135.5 16.5c-117.333 0 -203.333 -24.167 -258 -72.5
s-82 -110.166 -82 -185.499c0 -54 13.833 -100.5 41.5 -139.5s63.334 -69.667 107.001 -92s92.167 -42.5 145.5 -60.5l160 -56c53.333 -19.333 101.833 -41.666 145.5 -66.999s79.334 -60 107.001 -104s41.5 -96.333 41.5 -157c0 -56 -13 -110.167 -39 -162.5
s-58.667 -93.166 -98 -122.499c69.333 -60.667 104 -137 104 -229c0 -90.667 -34.5 -166.334 -103.5 -227.001s-170.833 -91 -305.5 -91c-83.333 0 -158.166 16 -224.499 48s-119.833 74.667 -160.5 128c-6 8 -9 15 -9 21c0 8 2.66699 14.833 8 20.5s11.666 8.5 18.999 8.5
c12.667 0 22.334 -5.66699 29.001 -17c26.667 -39.333 68.5 -75 125.5 -107s127.833 -48 212.5 -48c116.667 0 203.167 25 259.5 75s84.5 113 84.5 189c0 54.667 -13.833 101.667 -41.5 141s-63.334 70.166 -107.001 92.499s-92.167 42.333 -145.5 60l-160 55
c-53.333 19 -101.833 40.833 -145.5 65.5s-79.334 59 -107.001 103s-41.5 96.333 -41.5 157zM157.997 580.001c0 -55.333 13.166 -101.83 39.499 -139.497s62.5 -67.5 108.5 -89.5s93.333 -40.5 142 -55.5s102.5 -33.5 161.5 -55.5s107.833 -46 146.5 -72
c77.333 55.333 116 139.333 116 252c0 46 -9.66699 86.667 -29 122s-44.166 63.166 -74.499 83.499s-67 39.666 -110 57.999s-85.167 33.333 -126.5 45s-86 27 -134 46s-88.667 38.833 -122 59.5c-78.667 -58.667 -118 -143.334 -118 -254.001z" />
    <glyph glyph-name="dieresis" unicode="&#xa8;" horiz-adv-x="507" 
d="M45 1161c0 31.333 15 47 45 47s45 -15.667 45 -47s-15 -47 -45 -47s-45 15.667 -45 47zM373 1161c0 31.333 15 47 45 47s45 -15.667 45 -47s-15 -47 -45 -47s-45 15.667 -45 47z" />
    <glyph glyph-name="copyright" unicode="&#xa9;" horiz-adv-x="1662" 
d="M117 688c0 238.667 59.167 418.167 177.5 538.5s286.5 180.5 504.5 180.5s386.167 -60.167 504.5 -180.5s177.5 -299.833 177.5 -538.5c0 -237.333 -59.167 -416.166 -177.5 -536.499s-286.5 -180.5 -504.5 -180.5s-386.167 60.167 -504.5 180.5
s-177.5 299.166 -177.5 536.499zM178 688c0 -442 207 -663 621 -663c413.333 0 620 221 620 663c0 444 -206.667 666 -620 666c-414 0 -621 -222 -621 -666zM467 688c0 131.333 28.4971 226.999 85.4971 286.999s139.833 90 248.5 90c59.333 0 112 -12.833 158 -38.5
s77.333 -53.834 94 -84.501c2.66699 -5.33301 4 -10.666 4 -15.999c0 -6.66699 -2.33301 -12.5 -7 -17.5s-10 -7.5 -16 -7.5c-9.33301 0 -16.666 3.33301 -21.999 10c-50 67.333 -120.333 101 -211 101c-44.667 0 -83.167 -5.16699 -115.5 -15.5
s-60.666 -27.666 -84.999 -51.999s-42.5 -57.666 -54.5 -99.999s-18 -94.5 -18 -156.5c0 -62.667 6 -115 18 -157s30.333 -74.333 55 -97s52.667 -38.5 84 -47.5s70 -13.5 116 -13.5c44.667 0 85.834 8.16699 123.501 24.5s66.167 40.833 85.5 73.5c4.66699 8 12 12 22 12
c6 0 11.667 -2.33301 17 -7s8 -10.334 8 -17.001c0 -8 -2 -15 -6 -21c-25.333 -36 -60.5 -65.167 -105.5 -87.5s-93.167 -33.5 -144.5 -33.5c-109.333 0 -192.333 29 -249 87s-85 152.667 -85 284z" />
    <glyph glyph-name="ordfeminine" unicode="&#xaa;" horiz-adv-x="780" 
d="M82 584c0 6.66699 2.66699 12.665 8 17.998s11.666 8 18.999 8h561c6.66699 0 12.667 -2.66699 18 -8s8 -11.333 8 -18c0 -7.33301 -2.66699 -13.666 -8 -18.999s-11.333 -8 -18 -8h-561c-7.33301 0 -13.666 2.83301 -18.999 8.5s-8 11.834 -8 18.501zM123 935.998
c0 57.333 22.498 103.668 67.498 139.001s107.167 53 186.5 53h213v54c0 114.667 -65 172 -195 172c-35.333 0 -66.666 -5.16699 -93.999 -15.5s-45.666 -19.5 -54.999 -27.5s-21 -19.667 -35 -35c-5.33301 -5.33301 -11.333 -8 -18 -8
c-7.33301 0 -13.666 2.66699 -18.999 8s-8 11.333 -8 18c0 5.33301 2 11 6 17c18.667 26.667 48.167 49.334 88.5 68.001s85.166 28 134.499 28c84 0 146.667 -21.5 188 -64.5s62 -100.833 62 -173.5v-397c0 -6.66699 -2.83301 -12.834 -8.5 -18.501
s-11.834 -8.5 -18.501 -8.5s-12.667 2.66699 -18 8s-8 11.666 -8 18.999v76c-22 -36 -52.5 -63.167 -91.5 -81.5s-82.833 -27.5 -131.5 -27.5c-77.333 0 -137.666 17.667 -180.999 53s-65 83.333 -65 144zM179.998 936c0 -46 16.168 -81.333 48.501 -106
s79.166 -37 140.499 -37c62 0 114.333 15.833 157 47.5s64 75.834 64 132.501v104h-219c-58.667 0 -105.167 -11.833 -139.5 -35.5s-51.5 -58.834 -51.5 -105.501z" />
    <glyph glyph-name="guillemotleft" unicode="&#xab;" horiz-adv-x="950" 
d="M123 434c0 6 2 11 6 15l360 423c6 6 13 9 21 9s14.833 -2.83301 20.5 -8.5s8.5 -12.5 8.5 -20.5c0 -7.33301 -2.33301 -13.333 -7 -18l-346 -400l346 -399c4.66699 -4.66699 7 -11 7 -19s-2.83301 -14.667 -8.5 -20s-12.5 -8 -20.5 -8c-8.66699 0 -15.667 2.66699 -21 8
l-360 424c-4 4 -6 8.66699 -6 14zM410 434c0 6 2 11 6 15l360 423c6 6 13 9 21 9s14.667 -2.83301 20 -8.5s8 -12.5 8 -20.5s-2 -14 -6 -18l-346 -400l346 -399c4 -4 6 -10.333 6 -19c0 -8 -2.66699 -14.667 -8 -20s-12 -8 -20 -8c-8.66699 0 -15.667 2.66699 -21 8
l-360 424c-4 4 -6 8.66699 -6 14z" />
    <glyph glyph-name="logicalnot" unicode="&#xac;" horiz-adv-x="1153" 
d="M106 602c0 6.66699 2.66699 12.8311 8 18.498s11.666 8.5 18.999 8.5h885c6.66699 0 12.667 -2.66699 18 -8s8 -11.666 8 -18.999v-473c0 -8 -3 -15.167 -9 -21.5s-13 -9.5 -21 -9.5s-15.167 3.16699 -21.5 9.5s-9.5 13.5 -9.5 21.5v446h-850
c-7.33301 0 -13.666 2.83301 -18.999 8.5s-8 11.834 -8 18.501z" />
    <glyph glyph-name="uni00AD" unicode="&#xad;" horiz-adv-x="577" 
d="M74 516c0 7.33301 2.66699 13.6699 8 19.0029s11.333 8 18 8h375c7.33301 0 13.666 -2.83301 18.999 -8.5s8 -11.834 8 -18.501s-2.66699 -12.834 -8 -18.501s-11.666 -8.5 -18.999 -8.5h-375c-6.66699 0 -12.667 2.66699 -18 8s-8 11.666 -8 18.999z" />
    <glyph glyph-name="registered" unicode="&#xae;" horiz-adv-x="772" 
d="M86 1096c0 104 26 181.833 78 233.5s125.667 77.5 221 77.5c97.333 0 171.833 -25.667 223.5 -77s77.5 -129.333 77.5 -234s-26 -183.167 -78 -235.5s-126.333 -78.5 -223 -78.5c-95.333 0 -169 26.167 -221 78.5s-78 130.833 -78 235.5zM131 1096
c0 -182 84.667 -272.999 254 -272.999c170.667 0 256 91 256 273c0 180 -85.333 270 -256 270c-82.667 0 -145.667 -22.333 -189 -67s-65 -112.334 -65 -203.001zM274 956.001l0.000976562 276.998c0 6 2.33301 11.167 7 15.5s10 6.5 16 6.5h119
c30 0 53.167 -9.5 69.5 -28.5s24.5 -42.167 24.5 -69.5c0 -25.333 -7.83301 -47.166 -23.5 -65.499s-35.834 -28.5 -60.501 -30.5l70 -86c5.33301 -5.33301 8 -11.666 8 -18.999c0 -6 -2.33301 -11.167 -7 -15.5s-10 -6.5 -16 -6.5c-7.33301 0 -14 4 -20 12l-84 115h-58
v-105c0 -6 -2.16699 -11.167 -6.5 -15.5s-9.5 -6.5 -15.5 -6.5s-11.333 2.16699 -16 6.5s-7 9.5 -7 15.5zM319.001 1102h87c18 0 32 5 42 15s15 23.333 15 40c0 38 -19 57 -57 57h-87v-112z" />
    <glyph glyph-name="macron" unicode="&#xaf;" horiz-adv-x="782" 
d="M150 1161c0 7.33301 2.66504 13.666 7.99805 18.999s11.333 8 18 8h430c6.66699 0 12.834 -2.66699 18.501 -8s8.5 -11.666 8.5 -18.999c0 -6.66699 -2.66699 -12.667 -8 -18s-11.666 -8 -18.999 -8h-430c-6.66699 0 -12.667 2.5 -18 7.5s-8 11.167 -8 18.5z" />
    <glyph glyph-name="degree" unicode="&#xb0;" horiz-adv-x="729" 
d="M86 1126c0 78 27.333 144.333 82 199s121 82 199 82s144.167 -27.333 198.5 -82s81.5 -121 81.5 -199s-27.167 -144.167 -81.5 -198.5s-120.5 -81.5 -198.5 -81.5s-144.333 27.167 -199 81.5s-82 120.5 -82 198.5zM139 1124c0 -62 21.667 -115 65 -159s97 -66 161 -66
s118.167 22 162.5 66s66.5 97 66.5 159s-22.167 115.833 -66.5 161.5s-98.5 68.5 -162.5 68.5c-63.333 0 -116.833 -22.667 -160.5 -68s-65.5 -99.333 -65.5 -162z" />
    <glyph glyph-name="plusminus" unicode="&#xb1;" horiz-adv-x="929" 
d="M0 27c0 6.66699 2.66699 12.667 8 18s11.666 8 18.999 8h876c7.33301 0 13.666 -2.66699 18.999 -8s8 -11.333 8 -18c0 -7.33301 -2.66699 -13.666 -8 -18.999s-11.666 -8 -18.999 -8h-876c-7.33301 0 -13.666 2.66699 -18.999 8s-8 11.666 -8 18.999zM0 627
c0 6.66699 2.66699 12.667 8 18s11.666 8 18.999 8h407v408c0 8 3.16699 15.167 9.5 21.5s13.5 9.5 21.5 9.5s15.167 -3.16699 21.5 -9.5s9.5 -13.5 9.5 -21.5v-408h407c7.33301 0 13.666 -2.66699 18.999 -8s8 -11.333 8 -18c0 -7.33301 -2.66699 -13.666 -8 -18.999
s-11.666 -8 -18.999 -8h-407v-405c0 -8 -3.16699 -15.167 -9.5 -21.5s-13.5 -9.5 -21.5 -9.5s-15.167 3.16699 -21.5 9.5s-9.5 13.5 -9.5 21.5v405h-407c-7.33301 0 -13.666 2.66699 -18.999 8s-8 11.666 -8 18.999z" />
    <glyph glyph-name="uni00B2" unicode="&#xb2;" horiz-adv-x="530" 
d="M49 893c0 32 6.83398 60.832 20.501 86.499s31.667 47 54 64s46.833 33 73.5 48l79.5 43.5c26.333 14 50.666 28.833 72.999 44.5s40.333 35 54 58s20.5 48.833 20.5 77.5c0 40 -13.167 72.5 -39.5 97.5s-67.166 37.5 -122.499 37.5
c-38.667 0 -69.167 -8.33301 -91.5 -25s-40.833 -41 -55.5 -73c-4 -10 -11 -15 -21 -15c-6 0 -11.167 2.33301 -15.5 7s-6.5 10 -6.5 16c0 4 0.666992 8 2 12c13.333 37.333 36.833 67.166 70.5 89.499s72.834 33.5 117.501 33.5c67.333 0 120 -16.5 158 -49.5
s57 -76.5 57 -130.5c0 -36 -9.33301 -68.667 -28 -98s-41.834 -53.166 -69.501 -71.499s-57.667 -36.833 -90 -55.5l-90 -50.5c-27.667 -15 -50.834 -33.167 -69.501 -54.5s-28 -44.666 -28 -69.999h349c6 0 11.167 -2.16699 15.5 -6.5s6.5 -9.5 6.5 -15.5
s-2.16699 -11.333 -6.5 -16s-9.5 -7 -15.5 -7h-379c-6 0 -11.333 2.33301 -16 7s-7 10 -7 16z" />
    <glyph glyph-name="uni00B3" unicode="&#xb3;" horiz-adv-x="526" 
d="M47 979c0 13.333 6.99902 20 20.999 20c7.33301 0 13.333 -3.33301 18 -10c18 -30 39.833 -51.833 65.5 -65.5s59.167 -20.5 100.5 -20.5c59.333 0 102.833 11.833 130.5 35.5s41.5 61.167 41.5 112.5c0 49.333 -12.5 86.166 -37.5 110.499s-67.833 36.5 -128.5 36.5h-65
c-4 0 -7.16699 1.83301 -9.5 5.5s-3.5 7.16699 -3.5 10.5c0 4.66699 1.33301 8.33398 4 11.001l195 213h-279c-6 0 -11.167 2.16699 -15.5 6.5s-6.5 9.5 -6.5 15.5s2.16699 11.333 6.5 16s9.5 7 15.5 7h326c6 0 11.333 -2.33301 16 -7s7 -10 7 -16s-3 -12 -9 -18l-180 -199
h23c66.667 0 115.667 -18.5 147 -55.5s47 -82.5 47 -136.5c0 -60 -18.667 -107.167 -56 -141.5s-93.666 -51.5 -168.999 -51.5c-48.667 0 -90 9.16699 -124 27.5s-59 43.5 -75 75.5c-4 8 -6 14 -6 18z" />
    <glyph glyph-name="acute" unicode="&#xb4;" horiz-adv-x="757" 
d="M252 1102l203.001 241.001c14 16 29 17 45 3c7.33301 -6 11.166 -13.333 11.499 -22s-2.83398 -16.667 -9.50098 -24l-213 -229c-10.667 -12.667 -21.667 -13.334 -33 -2.00098s-12.666 22.333 -3.99902 33z" />
    <glyph glyph-name="uni00B5" unicode="&#xb5;" horiz-adv-x="995" 
d="M123 -389l-0.00292969 1304c0 8 3.16699 15.167 9.5 21.5s13.5 9.5 21.5 9.5s15 -3.16699 21 -9.5s9 -13.5 9 -21.5v-577c0 -46 4.33301 -86.167 13 -120.5s24 -66.666 46 -96.999s54.333 -53.5 97 -69.5s95.334 -24 158.001 -24s115.334 8 158.001 24
s74.834 39.167 96.501 69.5s36.834 62.666 45.501 96.999s13 74.5 13 120.5v577c0 8 3.16699 15.167 9.5 21.5s13.5 9.5 21.5 9.5s15 -3.16699 21 -9.5s9 -13.5 9 -21.5v-577c0 -40.667 -3 -77.667 -9 -111s-17.333 -66.333 -34 -99s-38.5 -60 -65.5 -82
s-63 -39.667 -108 -53s-97.5 -20 -157.5 -20c-79.333 0 -146.333 13.833 -201 41.5s-92.334 63.167 -113.001 106.5v-510c0 -8 -3 -15.167 -9 -21.5s-13 -9.5 -21 -9.5s-15.167 3.16699 -21.5 9.5s-9.5 13.5 -9.5 21.5z" />
    <glyph glyph-name="paragraph" unicode="&#xb6;" horiz-adv-x="888" 
d="M43 -23c0 8 2.50098 14.501 7.50098 19.501s11.5 7.5 19.5 7.5c2.66699 0 6 -0.666992 10 -2c37.333 -10.667 74 -16 110 -16c97.333 0 169.5 36.333 216.5 109s70.5 172.667 70.5 300v340h-112c-88 0 -163.333 31.5 -226 94.5s-94 138.833 -94 227.5
c0 88 31.333 163.5 94 226.5s138 94.5 226 94.5h460c7.33301 0 13.666 -2.66699 18.999 -8s8 -11.333 8 -18s-2.66699 -12.834 -8 -18.501s-11.666 -8.5 -18.999 -8.5h-65v-674c0 -249.333 -46.833 -431.5 -140.5 -546.5s-236.834 -172.5 -429.501 -172.5
c-54.667 0 -99 7.66699 -133 23c-9.33301 4.66699 -14 12 -14 22zM418.001 23.001c186.667 78.667 280 288 280 628v674h-159v-924c0 -87.333 -9.83301 -159.5 -29.5 -216.5s-50.167 -110.833 -91.5 -161.5z" />
    <glyph glyph-name="periodcentered" unicode="&#xb7;" horiz-adv-x="335" 
d="M106 614c0 42.667 20 64 60 64c40.667 0 61 -21.333 61 -64c0 -39.333 -20.333 -59 -61 -59c-40 0 -60 19.667 -60 59z" />
    <glyph glyph-name="cedilla" unicode="&#xb8;" horiz-adv-x="645" 
d="M154 -408c0 6 1.66797 11.001 5.00098 15.001s7.66602 6 12.999 6c4.66699 0 10 -2 16 -6c32 -19.333 64.333 -29 97 -29c92.667 0 139 45.667 139 137c0 45.333 -11.667 78.166 -35 98.499s-52.666 30.5 -87.999 30.5c-16 0 -32.333 -2 -49 -6s-25.667 -6 -27 -6
c-6 0 -11.167 2.33301 -15.5 7s-6.5 10 -6.5 16l8 145h41l-10 -127c17.333 5.33301 37 8 59 8c53.333 0 95.333 -14.333 126 -43s46 -69.667 46 -123c0 -52 -16.333 -94 -49 -126s-79 -48 -139 -48c-26.667 0 -51.334 3.66699 -74.001 11s-39.667 16 -51 26
c-4 4 -6 8.66699 -6 14z" />
    <glyph glyph-name="uni00B9" unicode="&#xb9;" horiz-adv-x="356" 
d="M41 1356c0 10 4.00098 17.333 12.001 22l150 103c8 5.33301 14.667 8 20 8c7.33301 0 13.333 -2.5 18 -7.5s7 -10.833 7 -17.5v-575c0 -7.33301 -2.33301 -13.333 -7 -18s-10.667 -7 -18 -7c-6.66699 0 -12.334 2.33301 -17.001 7s-7 10.667 -7 18v530l-117 -80
c-6 -4 -12.333 -6 -19 -6c-6 0 -11.167 2.33301 -15.5 7s-6.5 10 -6.5 16z" />
    <glyph glyph-name="ordmasculine" unicode="&#xba;" horiz-adv-x="681" 
d="M18 584c0 6.66699 2.66699 12.667 8 18s11.666 8 18.999 8h592c7.33301 0 13.666 -2.66699 18.999 -8s8 -11.333 8 -18s-2.66699 -12.834 -8 -18.501s-11.666 -8.5 -18.999 -8.5h-592c-7.33301 0 -13.666 2.83301 -18.999 8.5s-8 11.834 -8 18.501zM53 1073
c0 110.667 24.833 194 74.5 250s120.5 84 212.5 84s162.833 -28 212.5 -84s74.5 -139.333 74.5 -250s-24.833 -194 -74.5 -250s-120.5 -84 -212.5 -84s-162.833 28 -212.5 84s-74.5 139.333 -74.5 250zM111 1073c0 -186.667 76.333 -280 229 -280s229 93.333 229 280
c0 92.667 -19.833 162.667 -59.5 210s-96.167 71 -169.5 71s-129.833 -23.667 -169.5 -71s-59.5 -117.333 -59.5 -210z" />
    <glyph glyph-name="guillemotright" unicode="&#xbb;" 
d="M123 16c0 8.66699 2 15.001 6 19.001l346 399l-346 400c-4 4 -6 10 -6 18s2.83301 14.833 8.5 20.5s12.5 8.5 20.5 8.5c7.33301 0 14 -3 20 -9l360 -423c4.66699 -4.66699 7 -9.66699 7 -15c0 -4.66699 -2.33301 -9.33398 -7 -14.001l-360 -424
c-5.33301 -5.33301 -12 -8 -20 -8s-14.833 2.66699 -20.5 8s-8.5 12 -8.5 20zM410 16.001c0 8.66699 2 15 6 19l346 399l-346 400c-4 4 -6 10 -6 18s2.66699 14.833 8 20.5s12 8.5 20 8.5s15 -3 21 -9l360 -423c4 -4 6 -9 6 -15c0 -5.33301 -2 -10 -6 -14l-360 -424
c-5.33301 -5.33301 -12.333 -8 -21 -8c-8 0 -14.667 2.66699 -20 8s-8 12 -8 20z" />
    <glyph glyph-name="onequarter" unicode="&#xbc;" horiz-adv-x="960" 
d="M78 1268c0 10 4.00098 17.333 12.001 22l150 103c8 5.33301 14.667 8 20 8c6.66699 0 12.5 -2.5 17.5 -7.5s7.5 -10.833 7.5 -17.5v-575c0 -7.33301 -2.5 -13.333 -7.5 -18s-10.833 -7 -17.5 -7s-12.334 2.33301 -17.001 7s-7 10.667 -7 18v530l-117 -80
c-6 -4 -12.333 -6 -19 -6c-6 0 -11.167 2.33301 -15.5 7s-6.5 10 -6.5 16zM182.001 6c0 3.33301 1.33301 8.99902 4 16.999l525 1355c4 11.333 11.333 17 22 17c6 0 11.333 -2.33301 16 -7s7 -10 7 -16c0 -5.33301 -1.33301 -10.666 -4 -15.999l-527 -1358
c-3.33301 -9.33301 -10 -14 -20 -14c-6 0 -11.333 2.16699 -16 6.5s-7 9.5 -7 15.5zM438.001 161.999c0 6.66699 1.33301 11.334 4 14.001l306 418c6 9.33301 13.333 14 22 14c7.33301 0 13.333 -2.33301 18 -7s7 -10.334 7 -17.001v-400h63c6 0 11.333 -2.16699 16 -6.5
s7 -9.5 7 -15.5s-2.33301 -11.333 -7 -16s-10 -7 -16 -7h-63v-131c0 -6.66699 -2.33301 -12.334 -7 -17.001s-10.667 -7 -18 -7s-13.333 2.33301 -18 7s-7 10.334 -7 17.001v131h-284c-6 0 -11.333 2.33301 -16 7s-7 10 -7 16zM504.001 183.999h241v332z" />
    <glyph glyph-name="onehalf" unicode="&#xbd;" horiz-adv-x="1044" 
d="M78 1268c0 10 4.00098 17.333 12.001 22l150 103c8 5.33301 14.667 8 20 8c6.66699 0 12.5 -2.5 17.5 -7.5s7.5 -10.833 7.5 -17.5v-575c0 -7.33301 -2.5 -13.333 -7.5 -18s-10.833 -7 -17.5 -7s-12.334 2.33301 -17.001 7s-7 10.667 -7 18v530l-117 -80
c-6 -4 -12.333 -6 -19 -6c-6 0 -11.167 2.33301 -15.5 7s-6.5 10 -6.5 16zM182.001 6c0 3.33301 1.33301 8.99902 4 16.999l525 1355c4 11.333 11.333 17 22 17c6 0 11.333 -2.33301 16 -7s7 -10 7 -16c0 -5.33301 -1.33301 -10.666 -4 -15.999l-527 -1358
c-3.33301 -9.33301 -10 -14 -20 -14c-6 0 -11.333 2.16699 -16 6.5s-7 9.5 -7 15.5zM563.001 22.999c0 32 6.83301 60.834 20.5 86.501s31.667 47 54 64s46.833 32.833 73.5 47.5l79.5 43c26.333 14 50.666 28.833 72.999 44.5s40.333 35 54 58s20.5 48.833 20.5 77.5
c0 40 -13.167 72.667 -39.5 98s-67.166 38 -122.499 38c-38.667 0 -69.167 -8.33301 -91.5 -25s-40.833 -41.334 -55.5 -74.001c-4 -9.33301 -11 -14 -21 -14c-6 0 -11.167 2.16699 -15.5 6.5s-6.5 9.5 -6.5 15.5c0 4.66699 0.666992 9 2 13
c13.333 37.333 36.833 67.166 70.5 89.499s72.834 33.5 117.501 33.5c67.333 0 120 -16.667 158 -50s57 -77 57 -131c0 -42 -12.833 -79.5 -38.5 -112.5s-56.834 -60 -93.501 -81s-73.5 -41 -110.5 -60s-68.333 -40.667 -94 -65s-38.5 -51.166 -38.5 -80.499h349
c6 0 11.167 -2.16699 15.5 -6.5s6.5 -9.5 6.5 -15.5s-2.16699 -11.333 -6.5 -16s-9.5 -7 -15.5 -7h-379c-6 0 -11.333 2.33301 -16 7s-7 10 -7 16z" />
    <glyph glyph-name="threequarters" unicode="&#xbe;" horiz-adv-x="1071" 
d="M47 891c0 13.333 6.99902 20.002 20.999 20.002c7.33301 0 13.333 -3.33301 18 -10c18 -30 39.833 -51.833 65.5 -65.5s59.167 -20.5 100.5 -20.5c59.333 0 102.833 11.833 130.5 35.5s41.5 61.167 41.5 112.5c0 49.333 -12.5 86.166 -37.5 110.499
s-67.833 36.5 -128.5 36.5h-43c-6 0 -11.167 2.33301 -15.5 7s-6.5 10 -6.5 16c0 6.66699 2.66699 12.667 8 18l178 199h-279c-6 0 -11.167 2.16699 -15.5 6.5s-6.5 9.5 -6.5 15.5s2.16699 11.333 6.5 16s9.5 7 15.5 7h326c6 0 11.333 -2.33301 16 -7s7 -10 7 -16
s-3 -12 -9 -18l-182 -199h25c66.667 0 115.667 -18.5 147 -55.5s47 -82.5 47 -136.5c0 -60 -18.667 -107.167 -56 -141.5s-93.666 -51.5 -168.999 -51.5c-48.667 0 -90 9.16699 -124 27.5s-59 43.166 -75 74.499c-4 8 -6 14.333 -6 19zM292.999 6.00195
c0 3.33301 1.33301 8.99902 4 16.999l524 1355c4 11.333 11.667 17 23 17c6 0 11.167 -2.33301 15.5 -7s6.5 -10 6.5 -16c0 -5.33301 -1.33301 -10.666 -4 -15.999l-526 -1358c-3.33301 -9.33301 -10.333 -14 -21 -14c-6 0 -11.167 2.16699 -15.5 6.5s-6.5 9.5 -6.5 15.5z
M548.999 162.001c0 6.66699 1.33301 11.334 4 14.001l305 418c6 9.33301 13.667 14 23 14c7.33301 0 13.166 -2.33301 17.499 -7s6.5 -10.334 6.5 -17.001v-400h64c6 0 11.167 -2.16699 15.5 -6.5s6.5 -9.5 6.5 -15.5s-2.16699 -11.333 -6.5 -16s-9.5 -7 -15.5 -7h-64v-131
c0 -6.66699 -2.16699 -12.334 -6.5 -17.001s-10.166 -7 -17.499 -7s-13.333 2.33301 -18 7s-7 10.334 -7 17.001v131h-285c-6 0 -11.167 2.33301 -15.5 7s-6.5 10 -6.5 16zM613.999 184.001h242v332z" />
    <glyph glyph-name="questiondown" unicode="&#xbf;" horiz-adv-x="944" 
d="M86 -113c0 56.667 8.33301 107.666 25 152.999s38.334 82.5 65.001 111.5s56.167 55.5 88.5 79.5s64.833 46 97.5 66s62.334 40.167 89.001 60.5s48.334 44.5 65.001 72.5s25 59.333 25 94c0 42.667 -14.333 81.667 -43 117c-6 7.33301 -9 14.333 -9 21
c0 8 3.16699 14.667 9.5 20s12.833 8 19.5 8c10 0 18.333 -3.33301 25 -10c39.333 -39.333 59 -91.333 59 -156c0 -40 -8.33301 -75.833 -25 -107.5s-38.334 -58.667 -65.001 -81s-56.167 -43.833 -88.5 -64.5l-97.5 -65.5c-32.667 -23 -62.334 -48.167 -89.001 -75.5
s-48.334 -61.666 -65.001 -102.999s-25 -88 -25 -140c0 -94 29.5 -167.333 88.5 -220s140.833 -79 245.5 -79c212 0 318 104 318 312c0 8 3 15 9 21s13 9 21 9s15.167 -3 21.5 -9s9.5 -13 9.5 -21c0 -112 -32 -200.833 -96 -266.5s-158.333 -98.5 -283 -98.5
c-122 0 -218.333 31.833 -289 95.5s-106 149.167 -106 256.5zM483 910.999c0 31.333 15.667 47 47 47c32 0 48 -15.667 48 -47c0 -32.667 -16 -49 -48 -49c-31.333 0 -47 16.333 -47 49z" />
    <glyph glyph-name="Agrave" unicode="&#xc0;" horiz-adv-x="1261" 
d="M66 16c0 6 1.33398 11.667 4.00098 17l530 1339c5.33301 15.333 15.666 23 30.999 23c16.667 0 27.667 -7.66699 33 -23l528 -1339c2.66699 -5.33301 4 -11 4 -17c0 -9.33301 -3.33301 -17 -10 -23s-15 -9 -25 -9c-15.333 0 -26.333 8 -33 24l-167 430h-660l-170 -432
c-4.66699 -14.667 -15.667 -22 -33 -22c-9.33301 0 -17 3 -23 9s-9 13.667 -9 23zM322.001 498h618l-309 794zM471.001 1716c-15.333 15.333 -14.668 30.332 1.99902 44.999s31.667 14 45 -2l203 -241c8.66699 -10.667 7.33398 -21.667 -3.99902 -33
s-22.333 -10.666 -33 2.00098z" />
    <glyph glyph-name="Aacute" unicode="&#xc1;" horiz-adv-x="1261" 
d="M66 16c0 6 1.33398 11.667 4.00098 17l530 1339c5.33301 15.333 15.666 23 30.999 23c16.667 0 27.667 -7.66699 33 -23l528 -1339c2.66699 -5.33301 4 -11 4 -17c0 -9.33301 -3.33301 -17 -10 -23s-15 -9 -25 -9c-15.333 0 -26.333 8 -33 24l-167 430h-660l-170 -432
c-4.66699 -14.667 -15.667 -22 -33 -22c-9.33301 0 -17 3 -23 9s-9 13.667 -9 23zM322.001 498h618l-309 794zM526.001 1518l202.998 241.001c13.333 16 28.333 16.667 45 2s17.334 -29.667 2.00098 -45l-213 -229c-10.667 -12.667 -21.667 -13.334 -33 -2.00098
s-12.666 22.333 -3.99902 33z" />
    <glyph glyph-name="Acircumflex" unicode="&#xc2;" horiz-adv-x="1261" 
d="M66 16c0 6 1.33398 11.667 4.00098 17l530 1339c5.33301 15.333 15.666 23 30.999 23c16.667 0 27.667 -7.66699 33 -23l528 -1339c2.66699 -5.33301 4 -11 4 -17c0 -9.33301 -3.33301 -17 -10 -23s-15 -9 -25 -9c-15.333 0 -26.333 8 -33 24l-167 430h-660l-170 -432
c-4.66699 -14.667 -15.667 -22 -33 -22c-9.33301 0 -17 3 -23 9s-9 13.667 -9 23zM322.001 498h618l-309 794zM395.001 1511c0 6.66699 3.66406 13.667 10.9971 21l202 182c6.66699 6.66699 14.334 10 23.001 10c8 0 15.333 -3.33301 22 -10l203 -182
c6.66699 -6.66699 10 -13.667 10 -21s-2.66699 -13.5 -8 -18.5s-11.333 -7.5 -18 -7.5c-7.33301 0 -13.666 2.66699 -18.999 8l-190 172l-191 -172c-5.33301 -5.33301 -11.333 -8 -18 -8c-7.33301 0 -13.666 2.66699 -18.999 8s-8 11.333 -8 18z" />
    <glyph glyph-name="Atilde" unicode="&#xc3;" horiz-adv-x="1261" 
d="M66 16c0 6 1.33398 11.667 4.00098 17l530 1339c5.33301 15.333 15.666 23 30.999 23c16.667 0 27.667 -7.66699 33 -23l528 -1339c2.66699 -5.33301 4 -11 4 -17c0 -9.33301 -3.33301 -17 -10 -23s-15 -9 -25 -9c-15.333 0 -26.333 8 -33 24l-167 430h-660l-170 -432
c-4.66699 -14.667 -15.667 -22 -33 -22c-9.33301 0 -17 3 -23 9s-9 13.667 -9 23zM322.001 498h618l-309 794zM338.001 1520c0 5.33301 1.33496 10.666 4.00195 15.999c11.333 26.667 29.666 50.334 54.999 71.001s57.666 31 96.999 31c32.667 0 64.5 -7.33301 95.5 -22
l90 -44c29 -14.667 57.167 -22 84.5 -22c30 0 52.333 7 67 21s27 33.667 37 59c4.66699 11.333 13 17 25 17c7.33301 0 13.666 -2.83301 18.999 -8.5s8 -11.834 8 -18.501c0 -4 -1.66699 -9.33301 -5 -16c-12 -27.333 -30.333 -52 -55 -74s-56.667 -33 -96 -33
c-32.667 0 -64.5 7.33301 -95.5 22l-90 44c-29 14.667 -57.167 22 -84.5 22c-48 0 -83 -25.333 -105 -76c-4 -10.667 -12 -16 -24 -16c-7.33301 0 -13.666 2.83301 -18.999 8.5s-8 11.834 -8 18.501z" />
    <glyph glyph-name="Adieresis" unicode="&#xc4;" horiz-adv-x="1261" 
d="M66 16c0 6 1.33398 11.667 4.00098 17l530 1339c5.33301 15.333 15.666 23 30.999 23c16.667 0 27.667 -7.66699 33 -23l528 -1339c2.66699 -5.33301 4 -11 4 -17c0 -9.33301 -3.33301 -17 -10 -23s-15 -9 -25 -9c-15.333 0 -26.333 8 -33 24l-167 430h-660l-170 -432
c-4.66699 -14.667 -15.667 -22 -33 -22c-9.33301 0 -17 3 -23 9s-9 13.667 -9 23zM322.001 498h618l-309 794zM422.001 1565c0 31.333 15 47 45 47s45 -15.667 45 -47s-15 -47 -45 -47s-45 15.667 -45 47zM750.001 1565c0 31.333 15 47 45 47s45 -15.667 45 -47
s-15 -47 -45 -47s-45 15.667 -45 47z" />
    <glyph glyph-name="Aring" unicode="&#xc5;" horiz-adv-x="1261" 
d="M66 16c0 6 1.33398 11.667 4.00098 17l530 1339c5.33301 15.333 15.666 23 30.999 23c16.667 0 27.667 -7.66699 33 -23l528 -1339c2.66699 -5.33301 4 -11 4 -17c0 -9.33301 -3.33301 -17 -10 -23s-15 -9 -25 -9c-15.333 0 -26.333 8 -33 24l-167 430h-660l-170 -432
c-4.66699 -14.667 -15.667 -22 -33 -22c-9.33301 0 -17 3 -23 9s-9 13.667 -9 23zM322.001 498h618l-309 794zM418.001 1640c0 64 17.8291 113.5 53.4961 148.5s88.834 52.5 159.501 52.5s123.834 -17.5 159.501 -52.5s53.5 -84.5 53.5 -148.5s-17.667 -113.333 -53 -148
s-88.666 -52 -159.999 -52s-124.666 17.333 -159.999 52s-53 84 -53 148zM470.997 1640c0 -53.333 12.667 -92.5 38 -117.5s66 -37.5 122 -37.5s96.667 12.5 122 37.5s38 64.167 38 117.5s-12.667 92.666 -38 117.999s-66 38 -122 38s-96.667 -12.667 -122 -38
s-38 -64.666 -38 -117.999z" />
    <glyph glyph-name="AE" unicode="&#xc6;" horiz-adv-x="1748" 
d="M29 16c0 8 2.66602 15.666 7.99902 22.999l848 1317c10.667 14.667 23.667 22 39 22h688c8 0 14.667 -2.66699 20 -8s8 -12 8 -20s-2.66699 -14.833 -8 -20.5s-12 -8.5 -20 -8.5h-662v-598h516c8 0 14.833 -2.83301 20.5 -8.5s8.5 -12.5 8.5 -20.5
s-2.83301 -14.667 -8.5 -20s-12.5 -8 -20.5 -8h-516v-609h686c8 0 14.833 -2.66699 20.5 -8s8.5 -12 8.5 -20s-2.83301 -14.833 -8.5 -20.5s-12.5 -8.5 -20.5 -8.5h-718c-9.33301 0 -17.166 3.33301 -23.499 10s-9.5 14.334 -9.5 23.001v405h-516l-279 -438
c-7.33301 -10.667 -17 -16 -29 -16c-8.66699 0 -16.167 3 -22.5 9s-9.5 13.667 -9.5 23zM402.999 497.999h482v753z" />
    <glyph glyph-name="Ccedilla" unicode="&#xc7;" horiz-adv-x="1273" 
d="M90 688c0 238 54.835 417.332 164.502 537.999s265.167 181 466.5 181c96 0 184.167 -19.167 264.5 -57.5s143.833 -90.166 190.5 -155.499c5.33301 -8 8 -15.667 8 -23c0 -8 -2.83301 -14.667 -8.5 -20s-12.5 -8 -20.5 -8c-10 0 -18.333 4 -25 12
c-42.667 58 -100 105 -172 141s-151 54 -237 54c-183.333 0 -323.333 -54.5 -420 -163.5s-145 -275.167 -145 -498.5c0 -118.667 12.333 -220.5 37 -305.5s61.667 -153.333 111 -205s108.166 -89.334 176.499 -113.001s148.5 -35.5 240.5 -35.5
c81.333 0 158.166 16 230.499 48s131.833 79.333 178.5 142c6.66699 8 15 12 25 12c8 0 14.833 -2.66699 20.5 -8s8.5 -12 8.5 -20c0 -6.66699 -2 -13 -6 -19c-43.333 -66 -106.333 -118 -189 -156s-172 -57 -268 -57h-27l-8 -98c17.333 5.33301 37 8 59 8
c53.333 0 95.5 -14.333 126.5 -43s46.5 -69.667 46.5 -123c0 -51.333 -16.5 -93.166 -49.5 -125.499s-79.5 -48.5 -139.5 -48.5c-26.667 0 -51.334 3.66699 -74.001 11s-39.667 16 -51 26c-4 4 -6 8.66699 -6 14c0 6 1.66699 11 5 15s7.66602 6 12.999 6s11 -2 17 -6
c32 -19.333 64 -29 96 -29c92.667 0 139 45.667 139 137c0 45.333 -11.667 78.166 -35 98.499s-52.666 30.5 -87.999 30.5c-16 0 -32.167 -2 -48.5 -6s-25.166 -6 -26.499 -6c-6 0 -11.333 2.33301 -16 7s-7 10 -7 16l6 120c-375.333 24.667 -563 262.334 -563 713.001z" />
    <glyph glyph-name="Egrave" unicode="&#xc8;" horiz-adv-x="1048" 
d="M184 33l0.00195312 1313c0 8.66699 3.16699 16.167 9.5 22.5s14.166 9.5 23.499 9.5h694c8 0 14.833 -2.66699 20.5 -8s8.5 -12 8.5 -20s-2.83301 -14.833 -8.5 -20.5s-12.5 -8.5 -20.5 -8.5h-661v-598h516c8 0 14.833 -2.83301 20.5 -8.5s8.5 -12.5 8.5 -20.5
s-2.83301 -14.667 -8.5 -20s-12.5 -8 -20.5 -8h-516v-609h686c8 0 14.833 -2.66699 20.5 -8s8.5 -12 8.5 -20s-2.83301 -14.833 -8.5 -20.5s-12.5 -8.5 -20.5 -8.5h-719c-8.66699 0 -16.334 3.33301 -23.001 10s-10 14.334 -10 23.001zM440.002 1716
c-15.333 15.333 -14.668 30.332 1.99902 44.999s31.667 14 45 -2l203 -241c8.66699 -10.667 7.33398 -21.667 -3.99902 -33s-22.333 -10.666 -33 2.00098z" />
    <glyph glyph-name="Eacute" unicode="&#xc9;" horiz-adv-x="1048" 
d="M184 33l0.00195312 1313c0 8.66699 3.16699 16.167 9.5 22.5s14.166 9.5 23.499 9.5h694c8 0 14.833 -2.66699 20.5 -8s8.5 -12 8.5 -20s-2.83301 -14.833 -8.5 -20.5s-12.5 -8.5 -20.5 -8.5h-661v-598h516c8 0 14.833 -2.83301 20.5 -8.5s8.5 -12.5 8.5 -20.5
s-2.83301 -14.667 -8.5 -20s-12.5 -8 -20.5 -8h-516v-609h686c8 0 14.833 -2.66699 20.5 -8s8.5 -12 8.5 -20s-2.83301 -14.833 -8.5 -20.5s-12.5 -8.5 -20.5 -8.5h-719c-8.66699 0 -16.334 3.33301 -23.001 10s-10 14.334 -10 23.001zM475.002 1518l202.998 241.001
c13.333 16 28.333 16.667 45 2s17.334 -29.667 2.00098 -45l-213 -229c-10.667 -12.667 -21.667 -13.334 -33 -2.00098s-12.666 22.333 -3.99902 33z" />
    <glyph glyph-name="Ecircumflex" unicode="&#xca;" horiz-adv-x="1048" 
d="M184 33l0.00195312 1313c0 8.66699 3.16699 16.167 9.5 22.5s14.166 9.5 23.499 9.5h694c8 0 14.833 -2.66699 20.5 -8s8.5 -12 8.5 -20s-2.83301 -14.833 -8.5 -20.5s-12.5 -8.5 -20.5 -8.5h-661v-598h516c8 0 14.833 -2.83301 20.5 -8.5s8.5 -12.5 8.5 -20.5
s-2.83301 -14.667 -8.5 -20s-12.5 -8 -20.5 -8h-516v-609h686c8 0 14.833 -2.66699 20.5 -8s8.5 -12 8.5 -20s-2.83301 -14.833 -8.5 -20.5s-12.5 -8.5 -20.5 -8.5h-719c-8.66699 0 -16.334 3.33301 -23.001 10s-10 14.334 -10 23.001zM340.002 1511
c0 7.33301 3.33008 14.333 9.99707 21l203 182c6.66699 6.66699 14 10 22 10c8.66699 0 16.334 -3.33301 23.001 -10l203 -182c6.66699 -6.66699 10 -13.667 10 -21c0 -6.66699 -2.66699 -12.667 -8 -18s-11.666 -8 -18.999 -8c-6.66699 0 -12.667 2.66699 -18 8l-191 172
l-190 -172c-5.33301 -5.33301 -11.333 -8 -18 -8c-7.33301 0 -13.666 2.66699 -18.999 8s-8 11.333 -8 18z" />
    <glyph glyph-name="Edieresis" unicode="&#xcb;" horiz-adv-x="1048" 
d="M184 33l0.00195312 1313c0 8.66699 3.16699 16.167 9.5 22.5s14.166 9.5 23.499 9.5h694c8 0 14.833 -2.66699 20.5 -8s8.5 -12 8.5 -20s-2.83301 -14.833 -8.5 -20.5s-12.5 -8.5 -20.5 -8.5h-661v-598h516c8 0 14.833 -2.83301 20.5 -8.5s8.5 -12.5 8.5 -20.5
s-2.83301 -14.667 -8.5 -20s-12.5 -8 -20.5 -8h-516v-609h686c8 0 14.833 -2.66699 20.5 -8s8.5 -12 8.5 -20s-2.83301 -14.833 -8.5 -20.5s-12.5 -8.5 -20.5 -8.5h-719c-8.66699 0 -16.334 3.33301 -23.001 10s-10 14.334 -10 23.001zM369.002 1565c0 31.333 15 47 45 47
s45 -15.667 45 -47s-15 -47 -45 -47s-45 15.667 -45 47zM696.002 1565c0 31.333 15 47 45 47s45 -15.667 45 -47s-15 -47 -45 -47s-45 15.667 -45 47z" />
    <glyph glyph-name="Igrave" unicode="&#xcc;" horiz-adv-x="434" 
d="M54 1739.5c0.666992 8.33301 4.66602 15.5 11.999 21.5c16.667 14.667 31.667 14 45 -2l202 -241c8.66699 -10.667 7.33398 -21.667 -3.99902 -33s-22.333 -10.666 -33 2.00098l-213 229c-6.66699 7.33301 -9.66699 15.166 -9 23.499zM183.999 16l-0.00390625 1346
c0 9.33301 3.33301 17.166 10 23.499s14.334 9.5 23.001 9.5s16.334 -3.16699 23.001 -9.5s10 -14.166 10 -23.499v-1346c0 -8.66699 -3.16699 -16.167 -9.5 -22.5s-14.166 -9.5 -23.499 -9.5s-17.166 3.16699 -23.499 9.5s-9.5 13.833 -9.5 22.5z" />
    <glyph glyph-name="Iacute" unicode="&#xcd;" horiz-adv-x="434" 
d="M133 1518l202.998 241.001c13.333 16 28.333 16.667 45 2s17.334 -29.667 2.00098 -45l-213 -229c-10.667 -12.667 -21.667 -13.334 -33 -2.00098s-12.666 22.333 -3.99902 33zM183.998 16.001l-0.00390625 1346c0 9.33301 3.33301 17.166 10 23.499
s14.334 9.5 23.001 9.5s16.334 -3.16699 23.001 -9.5s10 -14.166 10 -23.499v-1346c0 -8.66699 -3.16699 -16.167 -9.5 -22.5s-14.166 -9.5 -23.499 -9.5s-17.166 3.16699 -23.499 9.5s-9.5 13.833 -9.5 22.5z" />
    <glyph glyph-name="Icircumflex" unicode="&#xce;" horiz-adv-x="434" 
d="M-20 1511c0 7.33301 3.33008 14.333 9.99707 21l203 182c6.66699 6.66699 14 10 22 10c8.66699 0 16.334 -3.33301 23.001 -10l202 -182c7.33301 -7.33301 11 -14.333 11 -21s-2.66699 -12.667 -8 -18s-11.666 -8 -18.999 -8c-6.66699 0 -12.667 2.66699 -18 8l-191 172
l-190 -172c-5.33301 -5.33301 -11.666 -8 -18.999 -8c-6.66699 0 -12.667 2.5 -18 7.5s-8 11.167 -8 18.5zM183.997 16l-0.00390625 1346c0 9.33301 3.33301 17.166 10 23.499s14.334 9.5 23.001 9.5s16.334 -3.16699 23.001 -9.5s10 -14.166 10 -23.499v-1346
c0 -8.66699 -3.16699 -16.167 -9.5 -22.5s-14.166 -9.5 -23.499 -9.5s-17.166 3.16699 -23.499 9.5s-9.5 13.833 -9.5 22.5z" />
    <glyph glyph-name="Idieresis" unicode="&#xcf;" horiz-adv-x="434" 
d="M6 1565c0 31.333 15 47 45 47s45 -15.667 45 -47s-15 -47 -45 -47s-45 15.667 -45 47zM184 16l-0.00390625 1346c0 9.33301 3.33301 17.166 10 23.499s14.334 9.5 23.001 9.5s16.334 -3.16699 23.001 -9.5s10 -14.166 10 -23.499v-1346
c0 -8.66699 -3.16699 -16.167 -9.5 -22.5s-14.166 -9.5 -23.499 -9.5s-17.166 3.16699 -23.499 9.5s-9.5 13.833 -9.5 22.5zM333.996 1565c0 31.333 15 47 45 47s45 -15.667 45 -47s-15 -47 -45 -47s-45 15.667 -45 47z" />
    <glyph glyph-name="Eth" unicode="&#xd0;" horiz-adv-x="1243" 
d="M49 715c0 6.66699 2.6709 12.667 8.00391 18s11.666 8 18.999 8h108v605c0 8.66699 3.16699 16.167 9.5 22.5s14.166 9.5 23.499 9.5h305c100.667 0 188.834 -12.333 264.501 -37s141.334 -63.834 197.001 -117.501s97.834 -125.167 126.501 -214.5s43 -196.333 43 -321
c0 -124 -14.333 -230.667 -43 -320s-70.834 -160.666 -126.501 -213.999s-121.334 -92.333 -197.001 -117s-163.834 -37 -264.501 -37h-305c-8.66699 -0 -16.334 3.33301 -23.001 10s-10 14.334 -10 23.001v655h-108c-6.66699 0 -12.834 2.66699 -18.501 8
s-8.5 11.666 -8.5 18.999zM250.004 57l271.996 -0.00195312c90.667 0 169.334 10.5 236.001 31.5s125.334 55.333 176.001 103s88.834 112.834 114.501 195.501s38.5 183 38.5 301c0 116.667 -12.833 216.5 -38.5 299.5s-63.667 148.5 -114 196.5
s-109.166 82.833 -176.499 104.5s-146 32.5 -236 32.5h-272v-580h471c7.33301 0 13.666 -2.66699 18.999 -8s8 -11.333 8 -18c0 -7.33301 -2.66699 -13.666 -8 -18.999s-11.666 -8 -18.999 -8h-471v-631z" />
    <glyph glyph-name="Ntilde" unicode="&#xd1;" horiz-adv-x="1271" 
d="M164 14l-0.000976562 1350c0 8 3.16699 15.167 9.5 21.5s13.5 9.5 21.5 9.5c10 0 18 -4.33301 24 -13l828 -1269v1251c0 8 3 15.167 9 21.5s13 9.5 21 9.5s15.167 -3.16699 21.5 -9.5s9.5 -13.5 9.5 -21.5v-1348c0 -8.66699 -3.16699 -16.167 -9.5 -22.5
s-14.166 -9.5 -23.499 -9.5c-12.667 0 -23 6 -31 18l-819 1262v-1250c0 -8 -3 -15 -9 -21s-13 -9 -21 -9s-15.167 3 -21.5 9s-9.5 13 -9.5 21zM366.999 1520c0 5.33301 1.33301 10.667 4 16c11.333 27.333 29.5 51.166 54.5 71.499s57.167 30.5 96.5 30.5
c32.667 0 64.667 -7.33301 96 -22l90.5 -44c29 -14.667 57.167 -22 84.5 -22c30 0 52.333 7 67 21s27 33.667 37 59c4.66699 11.333 13 17 25 17c6.66699 0 12.667 -2.66699 18 -8s8 -11.666 8 -18.999c0 -5.33301 -1.33301 -10.666 -4 -15.999
c-12 -27.333 -30.333 -52 -55 -74s-56.667 -33 -96 -33c-32.667 0 -64.667 7.33301 -96 22l-90.5 44c-29 14.667 -57.167 22 -84.5 22c-28 0 -49.667 -6.66699 -65 -20s-28.333 -32 -39 -56c-4 -10.667 -12.333 -16 -25 -16c-6.66699 0 -12.667 2.66699 -18 8
s-8 11.666 -8 18.999z" />
    <glyph glyph-name="Ograve" unicode="&#xd2;" horiz-adv-x="1441" 
d="M90 688c0 238 54.833 417.333 164.5 538s265.167 181 466.5 181s356.833 -60.333 466.5 -181s164.5 -300 164.5 -538c0 -237.333 -54.833 -416.166 -164.5 -536.499s-265.167 -180.5 -466.5 -180.5s-356.833 60.167 -466.5 180.5s-164.5 299.166 -164.5 536.499zM156 688
c0 -222.667 48.333 -388.167 145 -496.5s236.667 -162.5 420 -162.5s323.333 54.167 420 162.5s145 273.833 145 496.5c0 223.333 -48.333 389.5 -145 498.5s-236.667 163.5 -420 163.5s-323.333 -54.5 -420 -163.5s-145 -275.167 -145 -498.5zM537 1716
c-15.333 15.333 -14.667 30.333 2 45s31.667 14 45 -2l202 -241c8.66699 -10.667 7.33398 -21.667 -3.99902 -33c-10.667 -10.667 -21.334 -10 -32.001 2z" />
    <glyph glyph-name="Oacute" unicode="&#xd3;" horiz-adv-x="1441" 
d="M90 688c0 238 54.833 417.333 164.5 538s265.167 181 466.5 181s356.833 -60.333 466.5 -181s164.5 -300 164.5 -538c0 -237.333 -54.833 -416.166 -164.5 -536.499s-265.167 -180.5 -466.5 -180.5s-356.833 60.167 -466.5 180.5s-164.5 299.166 -164.5 536.499zM156 688
c0 -222.667 48.333 -388.167 145 -496.5s236.667 -162.5 420 -162.5s323.333 54.167 420 162.5s145 273.833 145 496.5c0 223.333 -48.333 389.5 -145 498.5s-236.667 163.5 -420 163.5s-323.333 -54.5 -420 -163.5s-145 -275.167 -145 -498.5zM641 1518l202.998 241.001
c13.333 16 28.333 16.667 45 2s17.334 -29.667 2.00098 -45l-213 -229c-10.667 -12.667 -21.667 -13.334 -33 -2.00098s-12.666 22.333 -3.99902 33z" />
    <glyph glyph-name="Ocircumflex" unicode="&#xd4;" horiz-adv-x="1441" 
d="M90 688c0 238 54.833 417.333 164.5 538s265.167 181 466.5 181s356.833 -60.333 466.5 -181s164.5 -300 164.5 -538c0 -237.333 -54.833 -416.166 -164.5 -536.499s-265.167 -180.5 -466.5 -180.5s-356.833 60.167 -466.5 180.5s-164.5 299.166 -164.5 536.499zM156 688
c0 -222.667 48.333 -388.167 145 -496.5s236.667 -162.5 420 -162.5s323.333 54.167 420 162.5s145 273.833 145 496.5c0 223.333 -48.333 389.5 -145 498.5s-236.667 163.5 -420 163.5s-323.333 -54.5 -420 -163.5s-145 -275.167 -145 -498.5zM485 1511
c0 6.66699 3.66406 13.667 10.9971 21l202 182c6.66699 6.66699 14.334 10 23.001 10c8 0 15.333 -3.33301 22 -10l203 -182c6.66699 -6.66699 10 -13.667 10 -21s-2.66699 -13.5 -8 -18.5s-11.333 -7.5 -18 -7.5c-7.33301 0 -13.666 2.66699 -18.999 8l-190 172l-191 -172
c-5.33301 -5.33301 -11.333 -8 -18 -8c-7.33301 0 -13.666 2.66699 -18.999 8s-8 11.333 -8 18z" />
    <glyph glyph-name="Otilde" unicode="&#xd5;" horiz-adv-x="1441" 
d="M90 688c0 238 54.833 417.333 164.5 538s265.167 181 466.5 181s356.833 -60.333 466.5 -181s164.5 -300 164.5 -538c0 -237.333 -54.833 -416.166 -164.5 -536.499s-265.167 -180.5 -466.5 -180.5s-356.833 60.167 -466.5 180.5s-164.5 299.166 -164.5 536.499zM156 688
c0 -222.667 48.333 -388.167 145 -496.5s236.667 -162.5 420 -162.5s323.333 54.167 420 162.5s145 273.833 145 496.5c0 223.333 -48.333 389.5 -145 498.5s-236.667 163.5 -420 163.5s-323.333 -54.5 -420 -163.5s-145 -275.167 -145 -498.5zM430 1520
c0 5.33301 1.33496 10.665 4.00195 15.998c11.333 26.667 29.666 50.334 54.999 71.001s57.666 31 96.999 31c32.667 0 64.5 -7.33301 95.5 -22l90 -44c29 -14.667 57.167 -22 84.5 -22c30 0 52.5 7 67.5 21s27.5 33.667 37.5 59c4.66699 11.333 12.667 17 24 17
c7.33301 0 13.666 -2.83301 18.999 -8.5s8 -11.834 8 -18.501c0 -5.33301 -1.33301 -10.666 -4 -15.999c-12 -27.333 -30.5 -52 -55.5 -74s-57.167 -33 -96.5 -33c-32.667 0 -64.5 7.33301 -95.5 22l-90 44c-29 14.667 -57.167 22 -84.5 22c-48 0 -83 -25.333 -105 -76
c-4 -10.667 -12 -16 -24 -16c-7.33301 0 -13.666 2.83301 -18.999 8.5s-8 11.834 -8 18.501z" />
    <glyph glyph-name="Odieresis" unicode="&#xd6;" horiz-adv-x="1441" 
d="M90 688c0 238 54.833 417.333 164.5 538s265.167 181 466.5 181s356.833 -60.333 466.5 -181s164.5 -300 164.5 -538c0 -237.333 -54.833 -416.166 -164.5 -536.499s-265.167 -180.5 -466.5 -180.5s-356.833 60.167 -466.5 180.5s-164.5 299.166 -164.5 536.499zM156 688
c0 -222.667 48.333 -388.167 145 -496.5s236.667 -162.5 420 -162.5s323.333 54.167 420 162.5s145 273.833 145 496.5c0 223.333 -48.333 389.5 -145 498.5s-236.667 163.5 -420 163.5s-323.333 -54.5 -420 -163.5s-145 -275.167 -145 -498.5zM512 1565
c0 31.333 15 47 45 47s45 -15.667 45 -47s-15 -47 -45 -47s-45 15.667 -45 47zM840 1565c0 31.333 15 47 45 47s45 -15.667 45 -47s-15 -47 -45 -47s-45 15.667 -45 47z" />
    <glyph glyph-name="multiply" unicode="&#xd7;" horiz-adv-x="696" 
d="M0 129c0 10 2.66699 17.667 8 23l299 294l-299 295c-5.33301 5.33301 -8 13 -8 23c0 8 3 14.833 9 20.5s13.333 8.5 22 8.5c7.33301 0 14 -3 20 -9l297 -297l297 297c6 6 13 9 21 9c8.66699 0 15.834 -2.83301 21.501 -8.5s8.5 -12.5 8.5 -20.5
c0 -10 -2.66699 -17.667 -8 -23l-299 -295l299 -294c5.33301 -5.33301 8 -13 8 -23c0 -8 -2.83301 -14.833 -8.5 -20.5s-12.834 -8.5 -21.501 -8.5c-8 0 -15 3 -21 9l-297 297l-297 -297c-6 -6 -12.667 -9 -20 -9c-8.66699 0 -16 2.83301 -22 8.5s-9 12.5 -9 20.5z" />
    <glyph glyph-name="Oslash" unicode="&#xd8;" horiz-adv-x="1441" 
d="M90 688c0 238 54.834 417.332 164.501 537.999s265.167 181 466.5 181c178 0 320 -47 426 -141l119 151c5.33301 6.66699 12 10 20 10c7.33301 0 13.666 -2.66699 18.999 -8s8 -11.333 8 -18c0 -6 -1.33301 -11 -4 -15l-125 -157c112 -122 168 -302.333 168 -541
c0 -237.333 -54.833 -416.166 -164.5 -536.499s-265.167 -180.5 -466.5 -180.5c-180 0 -322.667 46.667 -428 140l-119 -150c-6.66699 -6.66699 -13.334 -10 -20.001 -10c-7.33301 0 -13.666 2.66699 -18.999 8s-8 11.333 -8 18c0 7.33301 2 13 6 17l123 156
c-110.667 124 -166 303.333 -166 538zM156.001 687.999c0 -216 46.332 -379 138.999 -489l811 1020c-93.333 87.333 -221.666 131 -384.999 131c-183.333 0 -323.333 -54.5 -420 -163.5s-145 -275.167 -145 -498.5zM334 159.999c91.333 -87.333 220.333 -131 387 -131
c183.333 0 323.333 54.167 420 162.5s145 273.833 145 496.5c0 216.667 -47 380.667 -141 492z" />
    <glyph glyph-name="Ugrave" unicode="&#xd9;" horiz-adv-x="1284" 
d="M184 406l-0.00195312 956c0 9.33301 3.33301 17.166 10 23.499s14.334 9.5 23.001 9.5s16.334 -3.16699 23.001 -9.5s10 -14.166 10 -23.499v-956c0 -41.333 3.16699 -79 9.5 -113s18.666 -67.833 36.999 -101.5s42 -62 71 -85s67.833 -41.667 116.5 -56
s105 -21.5 169 -21.5s120.333 7.16699 169 21.5s87.5 33 116.5 56s52.5 51.333 70.5 85s30.167 67.5 36.5 101.5s9.5 71.667 9.5 113v956c0 9.33301 3.16699 17.166 9.5 23.499s13.833 9.5 22.5 9.5s16.334 -3.16699 23.001 -9.5s10 -14.166 10 -23.499v-956
c0 -46.667 -4 -89.667 -12 -129s-22.667 -78.333 -44 -117s-49 -71.5 -83 -98.5s-79 -48.833 -135 -65.5s-120.333 -25 -193 -25s-137 8.33301 -193 25s-101.167 38.5 -135.5 65.5s-62.333 59.833 -84 98.5s-36.5 77.667 -44.5 117s-12 82.333 -12 129zM536.998 1716
c-15.333 15.333 -14.667 30.333 2 45s31.667 14 45 -2l202 -241c8.66699 -10.667 7.33398 -21.667 -3.99902 -33c-10.667 -10.667 -21.334 -10 -32.001 2z" />
    <glyph glyph-name="Uacute" unicode="&#xda;" horiz-adv-x="1284" 
d="M184 406l-0.00195312 956c0 9.33301 3.33301 17.166 10 23.499s14.334 9.5 23.001 9.5s16.334 -3.16699 23.001 -9.5s10 -14.166 10 -23.499v-956c0 -41.333 3.16699 -79 9.5 -113s18.666 -67.833 36.999 -101.5s42 -62 71 -85s67.833 -41.667 116.5 -56
s105 -21.5 169 -21.5s120.333 7.16699 169 21.5s87.5 33 116.5 56s52.5 51.333 70.5 85s30.167 67.5 36.5 101.5s9.5 71.667 9.5 113v956c0 9.33301 3.16699 17.166 9.5 23.499s13.833 9.5 22.5 9.5s16.334 -3.16699 23.001 -9.5s10 -14.166 10 -23.499v-956
c0 -46.667 -4 -89.667 -12 -129s-22.667 -78.333 -44 -117s-49 -71.5 -83 -98.5s-79 -48.833 -135 -65.5s-120.333 -25 -193 -25s-137 8.33301 -193 25s-101.167 38.5 -135.5 65.5s-62.333 59.833 -84 98.5s-36.5 77.667 -44.5 117s-12 82.333 -12 129zM566.998 1518
l202.998 241.001c13.333 16 28.333 16.667 45 2s17.334 -29.667 2.00098 -45l-213 -229c-10.667 -12.667 -21.667 -13.334 -33 -2.00098s-12.666 22.333 -3.99902 33z" />
    <glyph glyph-name="Ucircumflex" unicode="&#xdb;" horiz-adv-x="1284" 
d="M184 406l-0.00195312 956c0 9.33301 3.33301 17.166 10 23.499s14.334 9.5 23.001 9.5s16.334 -3.16699 23.001 -9.5s10 -14.166 10 -23.499v-956c0 -41.333 3.16699 -79 9.5 -113s18.666 -67.833 36.999 -101.5s42 -62 71 -85s67.833 -41.667 116.5 -56
s105 -21.5 169 -21.5s120.333 7.16699 169 21.5s87.5 33 116.5 56s52.5 51.333 70.5 85s30.167 67.5 36.5 101.5s9.5 71.667 9.5 113v956c0 9.33301 3.16699 17.166 9.5 23.499s13.833 9.5 22.5 9.5s16.334 -3.16699 23.001 -9.5s10 -14.166 10 -23.499v-956
c0 -46.667 -4 -89.667 -12 -129s-22.667 -78.333 -44 -117s-49 -71.5 -83 -98.5s-79 -48.833 -135 -65.5s-120.333 -25 -193 -25s-137 8.33301 -193 25s-101.167 38.5 -135.5 65.5s-62.333 59.833 -84 98.5s-36.5 77.667 -44.5 117s-12 82.333 -12 129zM425.998 1511
c0 7.33301 3.33008 14.333 9.99707 21l203 182c6.66699 6.66699 14.334 10 23.001 10c8 0 15.333 -3.33301 22 -10l203 -182c6.66699 -6.66699 10 -13.667 10 -21c0 -6.66699 -2.66699 -12.667 -8 -18s-11.666 -8 -18.999 -8c-6.66699 0 -12.667 2.66699 -18 8l-190 172
l-191 -172c-5.33301 -5.33301 -11.333 -8 -18 -8c-7.33301 0 -13.666 2.66699 -18.999 8s-8 11.333 -8 18z" />
    <glyph glyph-name="Udieresis" unicode="&#xdc;" horiz-adv-x="1284" 
d="M184 406l-0.00195312 956c0 9.33301 3.33301 17.166 10 23.499s14.334 9.5 23.001 9.5s16.334 -3.16699 23.001 -9.5s10 -14.166 10 -23.499v-956c0 -41.333 3.16699 -79 9.5 -113s18.666 -67.833 36.999 -101.5s42 -62 71 -85s67.833 -41.667 116.5 -56
s105 -21.5 169 -21.5s120.333 7.16699 169 21.5s87.5 33 116.5 56s52.5 51.333 70.5 85s30.167 67.5 36.5 101.5s9.5 71.667 9.5 113v956c0 9.33301 3.16699 17.166 9.5 23.499s13.833 9.5 22.5 9.5s16.334 -3.16699 23.001 -9.5s10 -14.166 10 -23.499v-956
c0 -46.667 -4 -89.667 -12 -129s-22.667 -78.333 -44 -117s-49 -71.5 -83 -98.5s-79 -48.833 -135 -65.5s-120.333 -25 -193 -25s-137 8.33301 -193 25s-101.167 38.5 -135.5 65.5s-62.333 59.833 -84 98.5s-36.5 77.667 -44.5 117s-12 82.333 -12 129zM443.998 1565
c0 31.333 15 47 45 47c30.667 0 46 -15.667 46 -47s-15.333 -47 -46 -47c-30 0 -45 15.667 -45 47zM771.998 1565c0 31.333 15 47 45 47s45 -15.667 45 -47s-15 -47 -45 -47s-45 15.667 -45 47z" />
    <glyph glyph-name="Yacute" unicode="&#xdd;" horiz-adv-x="1030" 
d="M35 1360c0 10 3.16699 18.333 9.5 25s14.166 10 23.499 10c13.333 0 23.333 -5.66699 30 -17l416 -665l414 665c7.33301 11.333 16.666 17 27.999 17c10 0 18.333 -3.33301 25 -10s10 -15 10 -25c0 -8 -2 -15 -6 -21l-438 -688v-635
c0 -8.66699 -3.16699 -16.167 -9.5 -22.5s-14.166 -9.5 -23.499 -9.5s-17.166 3.16699 -23.499 9.5s-9.5 13.833 -9.5 22.5v635l-440 688c-4 6 -6 13 -6 21zM438 1518l202.998 241.001c13.333 16 28.333 16.667 45 2s17.334 -29.667 2.00098 -45l-213 -229
c-10.667 -12.667 -21.667 -13.334 -33 -2.00098s-12.666 22.333 -3.99902 33z" />
    <glyph glyph-name="Thorn" unicode="&#xde;" horiz-adv-x="1110" 
d="M184 16l-0.00390625 1346c0 9.33301 3.33301 17.166 10 23.499s14.334 9.5 23.001 9.5s16.334 -3.16699 23.001 -9.5s10 -14.166 10 -23.499v-260h399c110 0 199.667 -33 269 -99s104 -161.333 104 -286c0 -124 -34.5 -219.167 -103.5 -285.5
s-158.833 -99.5 -269.5 -99.5h-399v-316c0 -8.66699 -3.16699 -16.167 -9.5 -22.5s-14.166 -9.5 -23.499 -9.5s-17.166 3.16699 -23.499 9.5s-9.5 13.833 -9.5 22.5zM249.996 389l377 0.000976562c103.333 0 184 28.167 242 84.5s87 137.5 87 243.5
c0 107.333 -29.167 188.666 -87.5 243.999s-138.833 83 -241.5 83h-377v-655z" />
    <glyph glyph-name="germandbls" unicode="&#xdf;" horiz-adv-x="1040" 
d="M143 12l-0.00390625 1055c0 47.333 4.66699 89.833 14 127.5s24.833 72.834 46.5 105.501s52.5 58 92.5 76s88 27 144 27c77.333 0 142.166 -22.333 194.499 -67s78.5 -102.334 78.5 -173.001c0 -36 -6 -68.5 -18 -97.5s-27.833 -53 -47.5 -72s-41.167 -36.5 -64.5 -52.5
s-46.666 -31.167 -69.999 -45.5s-44.833 -28.833 -64.5 -43.5s-35.5 -32.5 -47.5 -53.5s-18 -44.167 -18 -69.5c0 -36.667 10.833 -68.667 32.5 -96s49.667 -49.5 84 -66.5s72.333 -32.667 114 -47l125 -45c41.667 -15.667 79.667 -33.5 114 -53.5s62.333 -46.333 84 -79
s32.5 -71 32.5 -115c0 -83.333 -31.333 -146.5 -94 -189.5s-144 -64.5 -244 -64.5c-80 0 -151.167 14.167 -213.5 42.5s-107.166 61.5 -134.499 99.5c-6 8 -9 14.667 -9 20c0 7.33301 2.83301 13.666 8.5 18.999s11.834 8 18.501 8s12.667 -2.66699 18 -8
c37.333 -42 80.333 -73.667 129 -95s109.667 -32 183 -32c38.667 0 74.167 3.66699 106.5 11s61.5 18.5 87.5 33.5s46.167 35.833 60.5 62.5s21.5 57.667 21.5 93s-10.833 66.5 -32.5 93.5s-49.667 48.833 -84 65.5s-72.333 32.334 -114 47.001l-124.5 46
c-41.333 16 -79.166 34.167 -113.499 54.5s-62.333 47 -84 80s-32.5 71.5 -32.5 115.5c0 30.667 6 58.167 18 82.5s27.667 44.666 47 60.999s40.666 31.833 63.999 46.5l70.5 44.5c23.667 15 45.167 31 64.5 48s35 38.333 47 64s18 54.834 18 87.501
c0 55.333 -19 100.333 -57 135s-89.333 52 -154 52c-44.667 0 -82.667 -6.83301 -114 -20.5s-55.666 -33.667 -72.999 -60s-29.666 -55.833 -36.999 -88.5s-11 -70.667 -11 -114v-1055c0 -8 -3.16699 -15 -9.5 -21s-13.5 -9 -21.5 -9s-15.167 3 -21.5 9s-9.5 13 -9.5 21z
" />
    <glyph glyph-name="agrave" unicode="&#xe0;" 
d="M74 258c0 89.333 33.832 159.166 101.499 209.499s160.167 75.5 277.5 75.5h315v94c0 86 -26.5 152.167 -79.5 198.5s-126.833 69.5 -221.5 69.5c-52 0 -97.333 -7.66699 -136 -23s-67.667 -32.666 -87 -51.999s-38.666 -44 -57.999 -74c-6 -10 -14 -15 -24 -15
c-8 0 -14.833 2.83301 -20.5 8.5s-8.5 12.5 -8.5 20.5c0 6 2 12 6 18c30 49.333 72.333 90 127 122s121.667 48 201 48c121.333 0 211.333 -29.667 270 -89s88 -142 88 -248v-607c0 -8 -2.66699 -14.667 -8 -20s-12 -8 -20 -8s-14.833 2.66699 -20.5 8s-8.5 12 -8.5 20v121
c-32.667 -52.667 -79.167 -92.5 -139.5 -119.5s-126.5 -40.5 -198.5 -40.5c-114 0 -201.833 24.667 -263.5 74s-92.5 119 -92.5 209zM136.999 258c0 -72.667 24.5 -128.999 73.5 -168.999s122.167 -60 219.5 -60c61.333 0 117 10.333 167 31s91 53.167 123 97.5
s48 97.5 48 159.5v175h-315c-96 0 -172.667 -19.833 -230 -59.5s-86 -97.834 -86 -174.501zM340.499 1324c0.333008 8.66699 4.16699 15.999 11.5 21.999c16 14 31 13 45 -3l203 -241c8.66699 -10.667 7.33398 -21.667 -3.99902 -33s-22.333 -10.666 -33 2.00098l-213 229
c-6.66699 7.33301 -9.83398 15.333 -9.50098 24z" />
    <glyph glyph-name="aacute" unicode="&#xe1;" 
d="M74 258c0 89.333 33.832 159.166 101.499 209.499s160.167 75.5 277.5 75.5h315v94c0 86 -26.5 152.167 -79.5 198.5s-126.833 69.5 -221.5 69.5c-52 0 -97.333 -7.66699 -136 -23s-67.667 -32.666 -87 -51.999s-38.666 -44 -57.999 -74c-6 -10 -14 -15 -24 -15
c-8 0 -14.833 2.83301 -20.5 8.5s-8.5 12.5 -8.5 20.5c0 6 2 12 6 18c30 49.333 72.333 90 127 122s121.667 48 201 48c121.333 0 211.333 -29.667 270 -89s88 -142 88 -248v-607c0 -8 -2.66699 -14.667 -8 -20s-12 -8 -20 -8s-14.833 2.66699 -20.5 8s-8.5 12 -8.5 20v121
c-32.667 -52.667 -79.167 -92.5 -139.5 -119.5s-126.5 -40.5 -198.5 -40.5c-114 0 -201.833 24.667 -263.5 74s-92.5 119 -92.5 209zM136.999 258c0 -72.667 24.5 -128.999 73.5 -168.999s122.167 -60 219.5 -60c61.333 0 117 10.333 167 31s91 53.167 123 97.5
s48 97.5 48 159.5v175h-315c-96 0 -172.667 -19.833 -230 -59.5s-86 -97.834 -86 -174.501zM372.999 1102l202.001 241.001c14 16.667 29.333 17.667 46 3c7.33301 -6 11.166 -13.333 11.499 -22s-2.83398 -16.667 -9.50098 -24l-213 -229
c-10.667 -12.667 -21.667 -13.334 -33 -2.00098s-12.666 22.333 -3.99902 33z" />
    <glyph glyph-name="acircumflex" unicode="&#xe2;" 
d="M74 258c0 89.333 33.832 159.166 101.499 209.499s160.167 75.5 277.5 75.5h315v94c0 86 -26.5 152.167 -79.5 198.5s-126.833 69.5 -221.5 69.5c-52 0 -97.333 -7.66699 -136 -23s-67.667 -32.666 -87 -51.999s-38.666 -44 -57.999 -74c-6 -10 -14 -15 -24 -15
c-8 0 -14.833 2.83301 -20.5 8.5s-8.5 12.5 -8.5 20.5c0 6 2 12 6 18c30 49.333 72.333 90 127 122s121.667 48 201 48c121.333 0 211.333 -29.667 270 -89s88 -142 88 -248v-607c0 -8 -2.66699 -14.667 -8 -20s-12 -8 -20 -8s-14.833 2.66699 -20.5 8s-8.5 12 -8.5 20v121
c-32.667 -52.667 -79.167 -92.5 -139.5 -119.5s-126.5 -40.5 -198.5 -40.5c-114 0 -201.833 24.667 -263.5 74s-92.5 119 -92.5 209zM136.999 258c0 -72.667 24.5 -128.999 73.5 -168.999s122.167 -60 219.5 -60c61.333 0 117 10.333 167 31s91 53.167 123 97.5
s48 97.5 48 159.5v175h-315c-96 0 -172.667 -19.833 -230 -59.5s-86 -97.834 -86 -174.501zM251.999 1118c0 7.33301 3.33008 14.333 9.99707 21l203 182c6.66699 6.66699 14 10 22 10c8.66699 0 16.334 -3.33301 23.001 -10l203 -182c6.66699 -6.66699 10 -13.667 10 -21
c0 -6.66699 -2.66699 -12.667 -8 -18s-11.666 -8 -18.999 -8c-6.66699 0 -12.667 2.66699 -18 8l-191 172l-190 -172c-5.33301 -5.33301 -11.333 -8 -18 -8c-7.33301 0 -13.666 2.66699 -18.999 8s-8 11.333 -8 18z" />
    <glyph glyph-name="atilde" unicode="&#xe3;" 
d="M74 258c0 89.333 33.832 159.166 101.499 209.499s160.167 75.5 277.5 75.5h315v94c0 86 -26.5 152.167 -79.5 198.5s-126.833 69.5 -221.5 69.5c-52 0 -97.333 -7.66699 -136 -23s-67.667 -32.666 -87 -51.999s-38.666 -44 -57.999 -74c-6 -10 -14 -15 -24 -15
c-8 0 -14.833 2.83301 -20.5 8.5s-8.5 12.5 -8.5 20.5c0 6 2 12 6 18c30 49.333 72.333 90 127 122s121.667 48 201 48c121.333 0 211.333 -29.667 270 -89s88 -142 88 -248v-607c0 -8 -2.66699 -14.667 -8 -20s-12 -8 -20 -8s-14.833 2.66699 -20.5 8s-8.5 12 -8.5 20v121
c-32.667 -52.667 -79.167 -92.5 -139.5 -119.5s-126.5 -40.5 -198.5 -40.5c-114 0 -201.833 24.667 -263.5 74s-92.5 119 -92.5 209zM136.999 258c0 -72.667 24.5 -128.999 73.5 -168.999s122.167 -60 219.5 -60c61.333 0 117 10.333 167 31s91 53.167 123 97.5
s48 97.5 48 159.5v175h-315c-96 0 -172.667 -19.833 -230 -59.5s-86 -97.834 -86 -174.501zM179.999 1118c0 6 1.33496 11.666 4.00195 16.999c11.333 26.667 29.666 50.334 54.999 71.001s57.666 31 96.999 31c32.667 0 64.5 -7.33301 95.5 -22l90 -44
c29 -14.667 57.167 -22 84.5 -22c30 0 52.5 7 67.5 21s27.5 33.667 37.5 59c4 10.667 12 16 24 16c7.33301 0 13.666 -2.66699 18.999 -8s8 -11.333 8 -18c0 -6 -1.33301 -11.667 -4 -17c-12 -27.333 -30.5 -51.833 -55.5 -73.5s-57.167 -32.5 -96.5 -32.5
c-32.667 0 -64.5 7.33301 -95.5 22l-90 44c-29 14.667 -57.167 22 -84.5 22c-48 0 -83 -25.333 -105 -76c-4 -10.667 -12 -16 -24 -16c-7.33301 0 -13.666 2.66699 -18.999 8s-8 11.333 -8 18z" />
    <glyph glyph-name="adieresis" unicode="&#xe4;" 
d="M74 258c0 89.333 33.832 159.166 101.499 209.499s160.167 75.5 277.5 75.5h315v94c0 86 -26.5 152.167 -79.5 198.5s-126.833 69.5 -221.5 69.5c-52 0 -97.333 -7.66699 -136 -23s-67.667 -32.666 -87 -51.999s-38.666 -44 -57.999 -74c-6 -10 -14 -15 -24 -15
c-8 0 -14.833 2.83301 -20.5 8.5s-8.5 12.5 -8.5 20.5c0 6 2 12 6 18c30 49.333 72.333 90 127 122s121.667 48 201 48c121.333 0 211.333 -29.667 270 -89s88 -142 88 -248v-607c0 -8 -2.66699 -14.667 -8 -20s-12 -8 -20 -8s-14.833 2.66699 -20.5 8s-8.5 12 -8.5 20v121
c-32.667 -52.667 -79.167 -92.5 -139.5 -119.5s-126.5 -40.5 -198.5 -40.5c-114 0 -201.833 24.667 -263.5 74s-92.5 119 -92.5 209zM136.999 258c0 -72.667 24.5 -128.999 73.5 -168.999s122.167 -60 219.5 -60c61.333 0 117 10.333 167 31s91 53.167 123 97.5
s48 97.5 48 159.5v175h-315c-96 0 -172.667 -19.833 -230 -59.5s-86 -97.834 -86 -174.501zM273.999 1161c0 31.333 15 47 45 47c30.667 0 46 -15.667 46 -47s-15.333 -47 -46 -47c-30 0 -45 15.667 -45 47zM601.999 1161c0 31.333 15 47 45 47s45 -15.667 45 -47
s-15 -47 -45 -47s-45 15.667 -45 47z" />
    <glyph glyph-name="aring" unicode="&#xe5;" 
d="M74 258c0 89.333 33.832 159.166 101.499 209.499s160.167 75.5 277.5 75.5h315v94c0 86 -26.5 152.167 -79.5 198.5s-126.833 69.5 -221.5 69.5c-52 0 -97.333 -7.66699 -136 -23s-67.667 -32.666 -87 -51.999s-38.666 -44 -57.999 -74c-6 -10 -14 -15 -24 -15
c-8 0 -14.833 2.83301 -20.5 8.5s-8.5 12.5 -8.5 20.5c0 6 2 12 6 18c30 49.333 72.333 90 127 122s121.667 48 201 48c121.333 0 211.333 -29.667 270 -89s88 -142 88 -248v-607c0 -8 -2.66699 -14.667 -8 -20s-12 -8 -20 -8s-14.833 2.66699 -20.5 8s-8.5 12 -8.5 20v121
c-32.667 -52.667 -79.167 -92.5 -139.5 -119.5s-126.5 -40.5 -198.5 -40.5c-114 0 -201.833 24.667 -263.5 74s-92.5 119 -92.5 209zM136.999 258c0 -72.667 24.5 -128.999 73.5 -168.999s122.167 -60 219.5 -60c61.333 0 117 10.333 167 31s91 53.167 123 97.5
s48 97.5 48 159.5v175h-315c-96 0 -172.667 -19.833 -230 -59.5s-86 -97.834 -86 -174.501zM257.999 1229c0 64 17.833 113.5 53.5 148.5s88.834 52.5 159.501 52.5s123.834 -17.5 159.501 -52.5s53.5 -84.5 53.5 -148.5s-17.833 -113.5 -53.5 -148.5
s-88.834 -52.5 -159.501 -52.5s-123.834 17.5 -159.501 52.5s-53.5 84.5 -53.5 148.5zM310.999 1229c0 -53.333 12.667 -92.666 38 -117.999s66 -38 122 -38s96.667 12.667 122 38s38 64.666 38 117.999s-12.667 92.5 -38 117.5s-66 37.5 -122 37.5
s-96.667 -12.5 -122 -37.5s-38 -64.167 -38 -117.5z" />
    <glyph glyph-name="ae" unicode="&#xe6;" horiz-adv-x="1638" 
d="M70 248c0 89.333 34.8281 158.002 104.495 206.002s168.5 72 296.5 72h297v113c0 86 -26.333 151.833 -79 197.5s-126.667 68.5 -222 68.5c-52 0 -97.333 -7.66699 -136 -23s-67.667 -32.666 -87 -51.999s-38.666 -44 -57.999 -74c-6 -10 -14 -15 -24 -15
c-8 0 -14.833 2.83301 -20.5 8.5s-8.5 12.5 -8.5 20.5c0 6 2 12 6 18c30 49.333 72.333 90 127 122s121.667 48 201 48c195.333 0 310 -77.667 344 -233c25.333 74.667 70.5 132.167 135.5 172.5s143.5 60.5 235.5 60.5c64.667 0 121.334 -8.83301 170.001 -26.5
s86.334 -39.334 113.001 -65.001s48 -56.5 64 -92.5s26.333 -68.667 31 -98s7 -60 7 -92c0 -34 -1.33301 -59.333 -4 -76c-4 -22 -19 -33 -45 -33h-693c0 -148 31.667 -259.667 95 -335s158 -113 284 -113c48 0 91.667 5.66699 131 17s69.333 23.333 90 36
s43.334 29 68.001 49c6 4 11.333 6 16 6c7.33301 0 13.666 -2.66699 18.999 -8s8 -11.333 8 -18c0 -7.33301 -4 -15 -12 -23c-80 -75.333 -186.667 -113 -320 -113c-101.333 0 -186 21.333 -254 64s-115 106 -141 190c-26.667 -84.667 -73.667 -147.834 -141 -189.501
s-146.666 -62.5 -237.999 -62.5c-115.333 0 -204.166 23.167 -266.499 69.5s-93.5 114.166 -93.5 203.499zM132.995 248.002c0 -71.333 24.832 -125.665 74.499 -162.998s123.834 -56 222.501 -56c60.667 0 116.167 11.167 166.5 33.5s91.5 56.166 123.5 101.499
s48 98.666 48 159.999v151h-315c-96.667 0 -174.167 -18.833 -232.5 -56.5s-87.5 -94.5 -87.5 -170.5zM824.994 526.003l680.001 0.000976562c1.33301 25.333 2 44.666 2 57.999c0 214 -108.333 321 -325 321c-112.667 0 -200.334 -32.667 -263.001 -98s-94 -159 -94 -281z
" />
    <glyph glyph-name="ccedilla" unicode="&#xe7;" horiz-adv-x="901" 
d="M80 467c0 164.667 36.501 287.667 109.501 369s176.5 122 310.5 122c134.667 0 235.667 -45.667 303 -137c4 -6 6 -12 6 -18c0 -7.33301 -2.83301 -13.666 -8.5 -18.999s-11.834 -8 -18.501 -8c-8.66699 0 -16 4 -22 12c-14 16 -25.5 28.333 -34.5 37
s-24.167 20.5 -45.5 35.5s-47 26.167 -77 33.5s-64.333 11 -103 11c-117.333 0 -205.833 -35.667 -265.5 -107s-89.5 -181.666 -89.5 -330.999c0 -150.667 29.833 -261.667 89.5 -333s148.167 -107 265.5 -107c43.333 0 84.333 6.16699 123 18.5s67 24.166 85 35.499
s39.333 26.666 64 45.999c6 4 11.333 6 16 6c6.66699 0 12.834 -2.83301 18.501 -8.5s8.5 -11.834 8.5 -18.501c0 -8 -4 -15.333 -12 -22c-16 -13.333 -30.5 -24.166 -43.5 -32.499s-32.667 -19.666 -59 -33.999s-56.666 -25.333 -90.999 -33s-70.833 -11.5 -109.5 -11.5
c-16.667 0 -28.334 0.666992 -35.001 2l-8 -102c17.333 5.33301 37 8 59 8c53.333 0 95.333 -14.333 126 -43s46 -69.667 46 -123c0 -52 -16.333 -94 -49 -126s-79 -48 -139 -48c-26.667 0 -51.334 3.66699 -74.001 11s-39.667 16 -51 26c-4 4 -6 8.66699 -6 14
c0 6 1.66699 11 5 15s7.66602 6 12.999 6c4.66699 0 10 -2 16 -6c32 -19.333 64.333 -29 97 -29c92.667 0 139 45.667 139 137c0 45.333 -11.667 78.166 -35 98.499s-52.666 30.5 -87.999 30.5c-16 0 -32.333 -2 -49 -6s-25.667 -6 -27 -6c-6 0 -11.167 2.33301 -15.5 7
s-6.5 10 -6.5 16l6 125c-110.667 14 -195.667 61.5 -255 142.5s-89 195.833 -89 344.5z" />
    <glyph glyph-name="egrave" unicode="&#xe8;" horiz-adv-x="954" 
d="M82 467c0 157.333 36.665 278.499 109.998 363.499s176 127.5 308 127.5c64.667 0 121.334 -9.5 170.001 -28.5s86.334 -42 113.001 -69s48 -59.5 64 -97.5s26.333 -72 31 -102s7 -61.333 7 -94c0 -33.333 -1.33301 -58.333 -4 -75c-4 -22 -19 -33 -45 -33h-691
c0 -145.333 32.333 -253.666 97 -324.999s158 -107 280 -107c48 0 91.667 5.66699 131 17s69.333 23.333 90 36s43.334 29 68.001 49c6 4 11.333 6 16 6c7.33301 0 13.666 -2.66699 18.999 -8s8 -11.333 8 -18c0 -7.33301 -4 -15 -12 -23
c-80 -75.333 -186.667 -113 -320 -113c-140.667 0 -249.167 40.333 -325.5 121s-114.5 205 -114.5 373zM144.998 509.999h678c1.33301 27.333 2 46.333 2 57c0 44.667 -4.83301 85.667 -14.5 123s-26 72.833 -49 106.5s-56.667 60.167 -101 79.5s-97.833 29 -160.5 29
c-113.333 0 -199.833 -34.667 -259.5 -104s-91.5 -166.333 -95.5 -291zM346.498 1324c0.333008 8.66699 4.16699 15.999 11.5 21.999c16 14 31 13 45 -3l203 -241c8.66699 -10.667 7.33398 -21.667 -3.99902 -33s-22.333 -10.666 -33 2.00098l-213 229
c-6.66699 7.33301 -9.83398 15.333 -9.50098 24z" />
    <glyph glyph-name="eacute" unicode="&#xe9;" horiz-adv-x="954" 
d="M82 467c0 157.333 36.665 278.499 109.998 363.499s176 127.5 308 127.5c64.667 0 121.334 -9.5 170.001 -28.5s86.334 -42 113.001 -69s48 -59.5 64 -97.5s26.333 -72 31 -102s7 -61.333 7 -94c0 -33.333 -1.33301 -58.333 -4 -75c-4 -22 -19 -33 -45 -33h-691
c0 -145.333 32.333 -253.666 97 -324.999s158 -107 280 -107c48 0 91.667 5.66699 131 17s69.333 23.333 90 36s43.334 29 68.001 49c6 4 11.333 6 16 6c7.33301 0 13.666 -2.66699 18.999 -8s8 -11.333 8 -18c0 -7.33301 -4 -15 -12 -23
c-80 -75.333 -186.667 -113 -320 -113c-140.667 0 -249.167 40.333 -325.5 121s-114.5 205 -114.5 373zM144.998 509.999h678c1.33301 27.333 2 46.333 2 57c0 44.667 -4.83301 85.667 -14.5 123s-26 72.833 -49 106.5s-56.667 60.167 -101 79.5s-97.833 29 -160.5 29
c-113.333 0 -199.833 -34.667 -259.5 -104s-91.5 -166.333 -95.5 -291zM407.998 1102l202.002 241c14 16 29 17 45 3c7.33301 -6 11.166 -13.333 11.499 -22s-2.83398 -16.667 -9.50098 -24l-213 -229c-10.667 -12 -21.334 -12.667 -32.001 -2
c-11.333 11.333 -12.666 22.333 -3.99902 33z" />
    <glyph glyph-name="ecircumflex" unicode="&#xea;" horiz-adv-x="954" 
d="M82 467c0 157.333 36.665 278.499 109.998 363.499s176 127.5 308 127.5c64.667 0 121.334 -9.5 170.001 -28.5s86.334 -42 113.001 -69s48 -59.5 64 -97.5s26.333 -72 31 -102s7 -61.333 7 -94c0 -33.333 -1.33301 -58.333 -4 -75c-4 -22 -19 -33 -45 -33h-691
c0 -145.333 32.333 -253.666 97 -324.999s158 -107 280 -107c48 0 91.667 5.66699 131 17s69.333 23.333 90 36s43.334 29 68.001 49c6 4 11.333 6 16 6c7.33301 0 13.666 -2.66699 18.999 -8s8 -11.333 8 -18c0 -7.33301 -4 -15 -12 -23
c-80 -75.333 -186.667 -113 -320 -113c-140.667 0 -249.167 40.333 -325.5 121s-114.5 205 -114.5 373zM144.998 509.999h678c1.33301 27.333 2 46.333 2 57c0 44.667 -4.83301 85.667 -14.5 123s-26 72.833 -49 106.5s-56.667 60.167 -101 79.5s-97.833 29 -160.5 29
c-113.333 0 -199.833 -34.667 -259.5 -104s-91.5 -166.333 -95.5 -291zM271.998 1118c0 6.66699 3.66406 13.667 10.9971 21l202 182c6.66699 6.66699 14.334 10 23.001 10c8 0 15.333 -3.33301 22 -10l203 -182c6.66699 -6.66699 10 -13.667 10 -21
c0 -6.66699 -2.5 -12.667 -7.5 -18s-11.167 -8 -18.5 -8s-13.666 2.66699 -18.999 8l-190 172l-191 -172c-5.33301 -5.33301 -11.333 -8 -18 -8c-7.33301 0 -13.666 2.66699 -18.999 8s-8 11.333 -8 18z" />
    <glyph glyph-name="edieresis" unicode="&#xeb;" horiz-adv-x="954" 
d="M82 467c0 157.333 36.665 278.499 109.998 363.499s176 127.5 308 127.5c64.667 0 121.334 -9.5 170.001 -28.5s86.334 -42 113.001 -69s48 -59.5 64 -97.5s26.333 -72 31 -102s7 -61.333 7 -94c0 -33.333 -1.33301 -58.333 -4 -75c-4 -22 -19 -33 -45 -33h-691
c0 -145.333 32.333 -253.666 97 -324.999s158 -107 280 -107c48 0 91.667 5.66699 131 17s69.333 23.333 90 36s43.334 29 68.001 49c6 4 11.333 6 16 6c7.33301 0 13.666 -2.66699 18.999 -8s8 -11.333 8 -18c0 -7.33301 -4 -15 -12 -23
c-80 -75.333 -186.667 -113 -320 -113c-140.667 0 -249.167 40.333 -325.5 121s-114.5 205 -114.5 373zM144.998 509.999h678c1.33301 27.333 2 46.333 2 57c0 44.667 -4.83301 85.667 -14.5 123s-26 72.833 -49 106.5s-56.667 60.167 -101 79.5s-97.833 29 -160.5 29
c-113.333 0 -199.833 -34.667 -259.5 -104s-91.5 -166.333 -95.5 -291zM304.998 1161c0 31.333 15 47 45 47s45 -15.667 45 -47s-15 -47 -45 -47s-45 15.667 -45 47zM632.998 1161c0 31.333 15 47 45 47s45 -15.667 45 -47s-15 -47 -45 -47s-45 15.667 -45 47z" />
    <glyph glyph-name="igrave" unicode="&#xec;" horiz-adv-x="358" 
d="M2.5 1324c0.333008 8.66699 4.16699 15.999 11.5 21.999c16 14 31 13 45 -3l203 -241c8.66699 -10.667 7.33398 -21.667 -3.99902 -33s-22.333 -10.666 -33 2.00098l-213 229c-6.66699 7.33301 -9.83398 15.333 -9.50098 24zM154.001 13.999v901c0 8 3 15.167 9 21.5
s13 9.5 21 9.5s15.167 -3.16699 21.5 -9.5s9.5 -13.5 9.5 -21.5v-901c0 -8 -3.16699 -15 -9.5 -21s-13.5 -9 -21.5 -9s-15 3 -21 9s-9 13 -9 21z" />
    <glyph glyph-name="iacute" unicode="&#xed;" horiz-adv-x="358" 
d="M115 1102l201.999 241.001c14 16 29 17 45 3c7.33301 -6 11.333 -13.333 12 -22s-2.33301 -16.667 -9 -24l-213 -229c-10.667 -12.667 -21.667 -13.334 -33 -2.00098s-12.666 22.333 -3.99902 33zM153.999 14.001v901c0 8 3 15.167 9 21.5s13 9.5 21 9.5
s15.167 -3.16699 21.5 -9.5s9.5 -13.5 9.5 -21.5v-901c0 -8 -3.16699 -15 -9.5 -21s-13.5 -9 -21.5 -9s-15 3 -21 9s-9 13 -9 21z" />
    <glyph glyph-name="icircumflex" unicode="&#xee;" horiz-adv-x="358" 
d="M-55 1118c0 7.33301 3.33008 14.333 9.99707 21l203 182c6.66699 6.66699 14 10 22 10c8.66699 0 16.334 -3.33301 23.001 -10l203 -182c6.66699 -6.66699 10 -13.667 10 -21c0 -6.66699 -2.66699 -12.667 -8 -18s-11.666 -8 -18.999 -8
c-6.66699 0 -12.667 2.66699 -18 8l-191 172l-190 -172c-5.33301 -5.33301 -11.666 -8 -18.999 -8s-13.5 2.66699 -18.5 8s-7.5 11.333 -7.5 18zM153.997 14v901c0 8 3 15.167 9 21.5s13 9.5 21 9.5s15.167 -3.16699 21.5 -9.5s9.5 -13.5 9.5 -21.5v-901
c0 -8 -3.16699 -15 -9.5 -21s-13.5 -9 -21.5 -9s-15 3 -21 9s-9 13 -9 21z" />
    <glyph glyph-name="idieresis" unicode="&#xef;" horiz-adv-x="358" 
d="M-25 1161c0 31.333 15 47 45 47c30.667 0 46 -15.667 46 -47s-15.333 -47 -46 -47c-30 0 -45 15.667 -45 47zM154 14v901c0 8 3 15.167 9 21.5s13 9.5 21 9.5s15.167 -3.16699 21.5 -9.5s9.5 -13.5 9.5 -21.5v-901c0 -8 -3.16699 -15 -9.5 -21s-13.5 -9 -21.5 -9
s-15 3 -21 9s-9 13 -9 21zM303 1161c0 31.333 15 47 45 47s45 -15.667 45 -47s-15 -47 -45 -47s-45 15.667 -45 47z" />
    <glyph glyph-name="eth" unicode="&#xf0;" horiz-adv-x="999" 
d="M82 467c0 164.667 36.168 287.666 108.501 368.999s175.5 122 309.5 122c153.333 0 266.666 -55.667 339.999 -167c-43.333 176 -113.666 315.667 -210.999 419l-160 -102l-14 -4c-7.33301 0 -13.333 2.33301 -18 7s-7 10.334 -7 17.001c0 10 4 17.667 12 23l152 96
c-58.667 63.333 -133 118.666 -223 165.999c-10 6 -15 13.667 -15 23c0 6 2.33301 11.167 7 15.5s10 6.5 16 6.5c5.33301 0 10.666 -1.33301 15.999 -4c91.333 -47.333 171.333 -106.666 240 -177.999l127 82c4 2.66699 8.66699 4 14 4c6 0 11.667 -2.66699 17 -8
s8 -11 8 -17c0 -8.66699 -3.33301 -15.334 -10 -20.001l-121 -78c84.667 -99.333 147.167 -208.166 187.5 -326.499s60.5 -266.833 60.5 -445.5c0 -164.667 -36.167 -288.167 -108.5 -370.5s-175.5 -123.5 -309.5 -123.5s-237.167 41.167 -309.5 123.5
s-108.5 205.833 -108.5 370.5zM143.001 466.999c0 -150.667 30 -261.667 90 -333s149 -107 267 -107s206.833 35.667 266.5 107s89.5 182.333 89.5 333c0 292 -118.667 438 -356 438c-238 0 -357 -146 -357 -438z" />
    <glyph glyph-name="ntilde" unicode="&#xf1;" horiz-adv-x="1015" 
d="M152 14l0.000976562 901.002c0 8 3 15.167 9 21.5s13 9.5 21 9.5s15.167 -3.16699 21.5 -9.5s9.5 -13.5 9.5 -21.5v-153c8.66699 22.667 21 44.667 37 66s36.833 42.166 62.5 62.499s57.667 36.666 96 48.999s80.5 18.5 126.5 18.5c244 0 366 -120.667 366 -362v-582
c0 -8 -3.16699 -15 -9.5 -21s-13.5 -9 -21.5 -9s-15 3 -21 9s-9 13 -9 21v582c0 35.333 -2.66699 67.333 -8 96s-15 56.667 -29 84s-32.167 50.166 -54.5 68.499s-51.833 33 -88.5 44s-79.334 16.5 -128.001 16.5c-53.333 0 -101 -9.5 -143 -28.5s-75.5 -44.5 -100.5 -76.5
s-43.833 -67.167 -56.5 -105.5s-19 -78.166 -19 -119.499v-561c0 -8 -3.16699 -15 -9.5 -21s-13.5 -9 -21.5 -9s-15 3 -21 9s-9 13 -9 21zM217.001 1118c0 6 1.33496 11.666 4.00195 16.999c11.333 26.667 29.666 50.334 54.999 71.001s57.666 31 96.999 31
c32.667 0 64.5 -7.33301 95.5 -22l90 -44c29 -14.667 57.167 -22 84.5 -22c30 0 52.5 7 67.5 21s27.5 33.667 37.5 59c4 10.667 12 16 24 16c7.33301 0 13.666 -2.66699 18.999 -8s8 -11.333 8 -18c0 -6 -1.33301 -11.667 -4 -17c-12 -27.333 -30.5 -51.833 -55.5 -73.5
s-57.167 -32.5 -96.5 -32.5c-32.667 0 -64.5 7.33301 -95.5 22l-90 44c-29 14.667 -57.167 22 -84.5 22c-48 0 -83 -25.333 -105 -76c-4 -10.667 -12 -16 -24 -16c-7.33301 0 -13.666 2.66699 -18.999 8s-8 11.333 -8 18z" />
    <glyph glyph-name="ograve" unicode="&#xf2;" horiz-adv-x="999" 
d="M80 467c0 164.667 36.5 287.667 109.5 369s176.5 122 310.5 122s237.5 -40.667 310.5 -122s109.5 -204.333 109.5 -369s-36.5 -288.167 -109.5 -370.5s-176.5 -123.5 -310.5 -123.5s-237.5 41.167 -310.5 123.5s-109.5 205.833 -109.5 370.5zM145 467
c0 -293.333 118.333 -440 355 -440c236 0 354 146.667 354 440c0 292 -118 438 -354 438c-236.667 0 -355 -146 -355 -438zM367.5 1324c0.333008 8.66699 4.16699 15.999 11.5 21.999c16 14 31 13 45 -3l203 -241c8.66699 -10.667 7.33398 -21.667 -3.99902 -33
s-22.333 -10.666 -33 2.00098l-213 229c-6.66699 7.33301 -9.83398 15.333 -9.50098 24z" />
    <glyph glyph-name="oacute" unicode="&#xf3;" horiz-adv-x="999" 
d="M80 467c0 164.667 36.5 287.667 109.5 369s176.5 122 310.5 122s237.5 -40.667 310.5 -122s109.5 -204.333 109.5 -369s-36.5 -288.167 -109.5 -370.5s-176.5 -123.5 -310.5 -123.5s-237.5 41.167 -310.5 123.5s-109.5 205.833 -109.5 370.5zM145 467
c0 -293.333 118.333 -440 355 -440c236 0 354 146.667 354 440c0 292 -118 438 -354 438c-236.667 0 -355 -146 -355 -438zM420 1102l203.001 241.001c14 16 29 17 45 3c7.33301 -6 11.166 -13.333 11.499 -22s-2.83398 -16.667 -9.50098 -24l-213 -229
c-10.667 -12.667 -21.667 -13.334 -33 -2.00098s-12.666 22.333 -3.99902 33z" />
    <glyph glyph-name="ocircumflex" unicode="&#xf4;" horiz-adv-x="999" 
d="M80 467c0 164.667 36.5 287.667 109.5 369s176.5 122 310.5 122s237.5 -40.667 310.5 -122s109.5 -204.333 109.5 -369s-36.5 -288.167 -109.5 -370.5s-176.5 -123.5 -310.5 -123.5s-237.5 41.167 -310.5 123.5s-109.5 205.833 -109.5 370.5zM145 467
c0 -293.333 118.333 -440 355 -440c236 0 354 146.667 354 440c0 292 -118 438 -354 438c-236.667 0 -355 -146 -355 -438zM268 1118c0 6.66699 3.66406 13.667 10.9971 21l202 182c6.66699 6.66699 14.334 10 23.001 10c8 0 15.333 -3.33301 22 -10l203 -182
c6.66699 -6.66699 10 -13.667 10 -21c0 -6.66699 -2.5 -12.667 -7.5 -18s-11.167 -8 -18.5 -8s-13.666 2.66699 -18.999 8l-190 172l-191 -172c-5.33301 -5.33301 -11.333 -8 -18 -8c-7.33301 0 -13.666 2.66699 -18.999 8s-8 11.333 -8 18z" />
    <glyph glyph-name="otilde" unicode="&#xf5;" horiz-adv-x="999" 
d="M80 467c0 164.667 36.5 287.667 109.5 369s176.5 122 310.5 122s237.5 -40.667 310.5 -122s109.5 -204.333 109.5 -369s-36.5 -288.167 -109.5 -370.5s-176.5 -123.5 -310.5 -123.5s-237.5 41.167 -310.5 123.5s-109.5 205.833 -109.5 370.5zM145 467
c0 -293.333 118.333 -440 355 -440c236 0 354 146.667 354 440c0 292 -118 438 -354 438c-236.667 0 -355 -146 -355 -438zM209 1118c0 6 1.33496 11.667 4.00195 17c11.333 26.667 29.666 50.334 54.999 71.001s57.666 31 96.999 31c32.667 0 64.5 -7.33301 95.5 -22
l90 -44c29 -14.667 57.167 -22 84.5 -22c30 0 52.333 7 67 21s27 33.667 37 59c4 10.667 12.333 16 25 16c7.33301 0 13.666 -2.66699 18.999 -8s8 -11.333 8 -18c0 -4.66699 -1.66699 -10.334 -5 -17.001c-12 -27.333 -30.333 -51.833 -55 -73.5s-56.667 -32.5 -96 -32.5
c-32.667 0 -64.5 7.33301 -95.5 22l-90 44c-29 14.667 -57.167 22 -84.5 22c-48 0 -83 -25.333 -105 -76c-4 -10.667 -12 -16 -24 -16c-7.33301 0 -13.666 2.66699 -18.999 8s-8 11.333 -8 18z" />
    <glyph glyph-name="odieresis" unicode="&#xf6;" horiz-adv-x="999" 
d="M80 467c0 164.667 36.5 287.667 109.5 369s176.5 122 310.5 122s237.5 -40.667 310.5 -122s109.5 -204.333 109.5 -369s-36.5 -288.167 -109.5 -370.5s-176.5 -123.5 -310.5 -123.5s-237.5 41.167 -310.5 123.5s-109.5 205.833 -109.5 370.5zM145 467
c0 -293.333 118.333 -440 355 -440c236 0 354 146.667 354 440c0 292 -118 438 -354 438c-236.667 0 -355 -146 -355 -438zM291 1161c0 31.333 15 47 45 47s45 -15.667 45 -47s-15 -47 -45 -47s-45 15.667 -45 47zM618 1161c0 31.333 15.333 47 46 47
c30 0 45 -15.667 45 -47s-15 -47 -45 -47c-30.667 0 -46 15.667 -46 47z" />
    <glyph glyph-name="divide" unicode="&#xf7;" horiz-adv-x="929" 
d="M0 446c0 6.66699 2.66699 12.834 8 18.501s11.666 8.5 18.999 8.5h876c7.33301 0 13.666 -2.83301 18.999 -8.5s8 -11.834 8 -18.501s-2.66699 -12.667 -8 -18s-11.666 -8 -18.999 -8h-876c-7.33301 0 -13.666 2.66699 -18.999 8s-8 11.333 -8 18zM418 197
c0 12.667 4.66699 23.667 14 33s20.333 14 33 14c13.333 0 24.5 -4.66699 33.5 -14s13.5 -20.333 13.5 -33c0 -14 -4.5 -25.833 -13.5 -35.5s-20.167 -14.5 -33.5 -14.5c-12.667 0 -23.667 5 -33 15s-14 21.667 -14 35zM418 696c0 13.333 4.66699 24.5 14 33.5
s20.333 13.5 33 13.5c13.333 0 24.5 -4.5 33.5 -13.5s13.5 -20.167 13.5 -33.5c0 -12.667 -4.5 -23.667 -13.5 -33s-20.167 -14 -33.5 -14c-12.667 0 -23.667 4.66699 -33 14s-14 20.333 -14 33z" />
    <glyph glyph-name="oslash" unicode="&#xf8;" horiz-adv-x="1019" 
d="M55 14c0 8.66699 2.66602 15.666 7.99902 20.999l103 108c-49.333 78.667 -74 186.667 -74 324c0 164.667 36.167 287.667 108.5 369s175.5 122 309.5 122c136.667 0 240.334 -41.333 311.001 -124l97 100c5.33301 5.33301 11.333 8 18 8c8 0 14.5 -2.5 19.5 -7.5
s7.5 -11.5 7.5 -19.5c0 -6 -3 -12 -9 -18l-102 -106c50.667 -82.667 76 -190.667 76 -324c0 -164.667 -36.167 -288.167 -108.5 -370.5s-175.5 -123.5 -309.5 -123.5c-138 0 -242.333 42.333 -313 127l-95 -100c-6.66699 -6.66699 -14 -10 -22 -10
c-7.33301 0 -13.333 2.33301 -18 7s-7 10.334 -7 17.001zM155.999 466.999c0 -119.333 16.999 -213.001 50.999 -281.001l573 605c-57.333 76 -147.333 114 -270 114c-117.333 0 -205.666 -35.667 -264.999 -107s-89 -181.666 -89 -330.999zM235.998 140.998
c58 -76 149.334 -114.001 274.001 -114.001c117.333 0 205.666 35.5 264.999 106.5s89 182.167 89 333.5c0 120.667 -17.667 213.334 -53 278.001z" />
    <glyph glyph-name="ugrave" unicode="&#xf9;" horiz-adv-x="995" 
d="M123 338l-0.00390625 577c0 8 3.16699 15.167 9.5 21.5s13.5 9.5 21.5 9.5s15 -3.16699 21 -9.5s9 -13.5 9 -21.5v-577c0 -46 4.33301 -86.167 13 -120.5s24 -66.666 46 -96.999s54.333 -53.5 97 -69.5s95.334 -24 158.001 -24s115.334 8 158.001 24
s74.834 39.167 96.501 69.5s36.834 62.666 45.501 96.999s13 74.5 13 120.5v577c0 8 3.16699 15.167 9.5 21.5s13.5 9.5 21.5 9.5s15 -3.16699 21 -9.5s9 -13.5 9 -21.5v-577c0 -40.667 -3 -77.667 -9 -111s-17.333 -66.333 -34 -99s-38.5 -60 -65.5 -82
s-63 -39.667 -108 -53s-97.5 -20 -157.5 -20s-112.5 6.66699 -157.5 20s-81.167 31 -108.5 53s-49.333 49.333 -66 82s-28 65.667 -34 99s-9 70.333 -9 111zM340.496 1324c0.333008 8.66699 4.16699 15.999 11.5 21.999c16 14 31 13 45 -3l203 -241
c8.66699 -10.667 7.33398 -21.667 -3.99902 -33s-22.333 -10.666 -33 2.00098l-213 229c-6.66699 7.33301 -9.83398 15.333 -9.50098 24z" />
    <glyph glyph-name="uacute" unicode="&#xfa;" horiz-adv-x="995" 
d="M123 338l-0.00390625 577c0 8 3.16699 15.167 9.5 21.5s13.5 9.5 21.5 9.5s15 -3.16699 21 -9.5s9 -13.5 9 -21.5v-577c0 -46 4.33301 -86.167 13 -120.5s24 -66.666 46 -96.999s54.333 -53.5 97 -69.5s95.334 -24 158.001 -24s115.334 8 158.001 24
s74.834 39.167 96.501 69.5s36.834 62.666 45.501 96.999s13 74.5 13 120.5v577c0 8 3.16699 15.167 9.5 21.5s13.5 9.5 21.5 9.5s15 -3.16699 21 -9.5s9 -13.5 9 -21.5v-577c0 -40.667 -3 -77.667 -9 -111s-17.333 -66.333 -34 -99s-38.5 -60 -65.5 -82
s-63 -39.667 -108 -53s-97.5 -20 -157.5 -20s-112.5 6.66699 -157.5 20s-81.167 31 -108.5 53s-49.333 49.333 -66 82s-28 65.667 -34 99s-9 70.333 -9 111zM392.996 1102l203.001 241.001c14 16 29 17 45 3c7.33301 -6 11.166 -13.333 11.499 -22
s-2.83398 -16.667 -9.50098 -24l-213 -229c-10.667 -12.667 -21.667 -13.334 -33 -2.00098s-12.666 22.333 -3.99902 33z" />
    <glyph glyph-name="ucircumflex" unicode="&#xfb;" horiz-adv-x="995" 
d="M123 338l-0.00390625 577c0 8 3.16699 15.167 9.5 21.5s13.5 9.5 21.5 9.5s15 -3.16699 21 -9.5s9 -13.5 9 -21.5v-577c0 -46 4.33301 -86.167 13 -120.5s24 -66.666 46 -96.999s54.333 -53.5 97 -69.5s95.334 -24 158.001 -24s115.334 8 158.001 24
s74.834 39.167 96.501 69.5s36.834 62.666 45.501 96.999s13 74.5 13 120.5v577c0 8 3.16699 15.167 9.5 21.5s13.5 9.5 21.5 9.5s15 -3.16699 21 -9.5s9 -13.5 9 -21.5v-577c0 -40.667 -3 -77.667 -9 -111s-17.333 -66.333 -34 -99s-38.5 -60 -65.5 -82
s-63 -39.667 -108 -53s-97.5 -20 -157.5 -20s-112.5 6.66699 -157.5 20s-81.167 31 -108.5 53s-49.333 49.333 -66 82s-28 65.667 -34 99s-9 70.333 -9 111zM269.996 1118c0 6.66699 3.66406 13.667 10.9971 21l202 182c6.66699 6.66699 14.334 10 23.001 10
c8 0 15.333 -3.33301 22 -10l203 -182c6.66699 -6.66699 10 -13.667 10 -21c0 -6.66699 -2.5 -12.667 -7.5 -18s-11.167 -8 -18.5 -8s-13.666 2.66699 -18.999 8l-190 172l-191 -172c-5.33301 -5.33301 -11.333 -8 -18 -8c-7.33301 0 -13.666 2.66699 -18.999 8
s-8 11.333 -8 18z" />
    <glyph glyph-name="udieresis" unicode="&#xfc;" horiz-adv-x="995" 
d="M123 338l-0.00390625 577c0 8 3.16699 15.167 9.5 21.5s13.5 9.5 21.5 9.5s15 -3.16699 21 -9.5s9 -13.5 9 -21.5v-577c0 -46 4.33301 -86.167 13 -120.5s24 -66.666 46 -96.999s54.333 -53.5 97 -69.5s95.334 -24 158.001 -24s115.334 8 158.001 24
s74.834 39.167 96.501 69.5s36.834 62.666 45.501 96.999s13 74.5 13 120.5v577c0 8 3.16699 15.167 9.5 21.5s13.5 9.5 21.5 9.5s15 -3.16699 21 -9.5s9 -13.5 9 -21.5v-577c0 -40.667 -3 -77.667 -9 -111s-17.333 -66.333 -34 -99s-38.5 -60 -65.5 -82
s-63 -39.667 -108 -53s-97.5 -20 -157.5 -20s-112.5 6.66699 -157.5 20s-81.167 31 -108.5 53s-49.333 49.333 -66 82s-28 65.667 -34 99s-9 70.333 -9 111zM288.996 1161c0 31.333 15 47 45 47s45 -15.667 45 -47s-15 -47 -45 -47s-45 15.667 -45 47zM615.996 1161
c0 31.333 15.333 47 46 47c30 0 45 -15.667 45 -47s-15 -47 -45 -47c-30.667 0 -46 15.667 -46 47z" />
    <glyph glyph-name="yacute" unicode="&#xfd;" horiz-adv-x="876" 
d="M4 -385c0 7.33301 2.66504 13.668 7.99805 19.001s11.666 8 18.999 8c32 0 60.833 2.66699 86.5 8s48.334 11.833 68.001 19.5s38.334 20.167 56.001 37.5s32.667 33.833 45 49.5s26.166 38.667 41.499 69s28.166 57.5 38.499 81.5l41.5 101l-367 891
c-2.66699 5.33301 -4 10.666 -4 15.999c0 8 3.16699 15.167 9.5 21.5s13.5 9.5 21.5 9.5c14 0 23.333 -6.66699 28 -20l342 -848l342 848c4.66699 13.333 14.334 20 29.001 20c8 0 15.167 -3.16699 21.5 -9.5s9.5 -13.5 9.5 -21.5c0 -5.33301 -1.33301 -10.666 -4 -15.999
l-433 -1042c-42 -100 -90.667 -169.833 -146 -209.5s-130.666 -59.5 -225.999 -59.5c-7.33301 0 -13.666 2.66699 -18.999 8s-8 11.666 -8 18.999zM357.998 1102l203.001 241.001c14 16 29 17 45 3c7.33301 -6 11.166 -13.333 11.499 -22s-2.83398 -16.667 -9.50098 -24
l-213 -229c-10.667 -12.667 -21.667 -13.334 -33 -2.00098s-12.666 22.333 -3.99902 33z" />
    <glyph glyph-name="thorn" unicode="&#xfe;" horiz-adv-x="1042" 
d="M143 -381l-0.000976562 1808c0 8 3.16699 15.167 9.5 21.5s13.5 9.5 21.5 9.5s15.167 -3.16699 21.5 -9.5s9.5 -13.5 9.5 -21.5v-671c54.667 134.667 167.334 202 338.001 202c134 0 237.167 -40.667 309.5 -122s108.5 -204.333 108.5 -369
s-36.167 -288.167 -108.5 -370.5s-175.5 -123.5 -309.5 -123.5c-36.667 0 -71 3.66699 -103 11s-59.167 16.666 -81.5 27.999s-42.666 24 -60.999 38s-33 28.167 -44 42.5s-20.333 27.166 -28 38.499s-12.834 20.666 -15.501 27.999l-5 11v-551
c0 -8 -3.16699 -15.167 -9.5 -21.5s-13.5 -9.5 -21.5 -9.5s-15.167 3.16699 -21.5 9.5s-9.5 13.5 -9.5 21.5zM200.999 467.003c0 -150 30.833 -260.833 92.5 -332.5s144.834 -107.5 249.501 -107.5c118 0 206.833 35.667 266.5 107s89.5 182.333 89.5 333
c0 292 -120.667 438 -362 438c-106.667 0 -189.334 -36 -248.001 -108s-88 -182 -88 -330z" />
    <glyph glyph-name="ydieresis" unicode="&#xff;" horiz-adv-x="876" 
d="M4 -385c0 7.33301 2.66504 13.668 7.99805 19.001s11.666 8 18.999 8c32 0 60.833 2.66699 86.5 8s48.334 11.833 68.001 19.5s38.334 20.167 56.001 37.5s32.667 33.833 45 49.5s26.166 38.667 41.499 69s28.166 57.5 38.499 81.5l41.5 101l-367 891
c-2.66699 5.33301 -4 10.666 -4 15.999c0 8 3.16699 15.167 9.5 21.5s13.5 9.5 21.5 9.5c14 0 23.333 -6.66699 28 -20l342 -848l342 848c4.66699 13.333 14.334 20 29.001 20c8 0 15.167 -3.16699 21.5 -9.5s9.5 -13.5 9.5 -21.5c0 -5.33301 -1.33301 -10.666 -4 -15.999
l-433 -1042c-42 -100 -90.667 -169.833 -146 -209.5s-130.666 -59.5 -225.999 -59.5c-7.33301 0 -13.666 2.66699 -18.999 8s-8 11.666 -8 18.999zM228.998 1161c0 31.333 15 47 45 47s45 -15.667 45 -47s-15 -47 -45 -47s-45 15.667 -45 47zM556.998 1161
c0 31.333 15 47 45 47s45 -15.667 45 -47s-15 -47 -45 -47s-45 15.667 -45 47z" />
    <glyph glyph-name="OE" unicode="&#x152;" horiz-adv-x="1929" 
d="M90 688c0 238 54.833 417.333 164.5 538s265.167 181 466.5 181c130 0 244.667 -27.333 344 -82v21c0 8.66699 3.16699 16.167 9.5 22.5s14.166 9.5 23.499 9.5h694c8 0 14.833 -2.66699 20.5 -8s8.5 -12 8.5 -20s-2.83301 -14.833 -8.5 -20.5s-12.5 -8.5 -20.5 -8.5
h-662v-598h517c8 0 14.667 -2.83301 20 -8.5s8 -12.5 8 -20.5s-2.66699 -14.667 -8 -20s-12 -8 -20 -8h-517v-609h687c8 0 14.667 -2.66699 20 -8s8 -12 8 -20s-2.66699 -14.833 -8 -20.5s-12 -8.5 -20 -8.5h-719c-9.33301 -0 -17.166 3.33301 -23.499 10
s-9.5 14.334 -9.5 23.001v20c-99.333 -54.667 -214 -82 -344 -82c-201.333 0 -356.833 60.167 -466.5 180.5s-164.5 299.166 -164.5 536.499zM156 688c0 -222.667 48.334 -388.167 145.001 -496.5s236.667 -162.5 420 -162.5c140 0 254.667 31.333 344 94v1132
c-90.667 63.333 -205.334 95 -344.001 95c-183.333 0 -323.333 -54.5 -420 -163.5s-145 -275.167 -145 -498.5z" />
    <glyph glyph-name="oe" unicode="&#x153;" horiz-adv-x="1726" 
d="M82 467c0 164.667 36.168 287.667 108.501 369s175.5 122 309.5 122c203.333 0 333 -90.667 389 -272c27.333 88 73.666 155.333 138.999 202s146.666 70 243.999 70c64.667 0 121.334 -9.5 170.001 -28.5s86.334 -42 113.001 -69s48 -59.5 64 -97.5s26.333 -72 31 -102
s7 -61.333 7 -94c0 -33.333 -1.33301 -58.333 -4 -75c-4 -22 -19 -33 -45 -33h-690c0 -288 125.333 -432 376 -432c48 0 91.667 5.66699 131 17s69.333 23.333 90 36s43.334 29 68.001 49c6 4 11.333 6 16 6c7.33301 0 13.666 -2.66699 18.999 -8s8 -11.333 8 -18
c0 -7.33301 -4 -15 -12 -23c-80 -75.333 -186.667 -113 -320 -113c-214.667 0 -350.334 90.333 -407.001 271c-54 -180.667 -183 -271 -387 -271c-134 0 -237.167 41.167 -309.5 123.5s-108.5 205.833 -108.5 370.5zM143.001 467c0 -150.667 30 -261.667 90 -333
s149 -107 267 -107s206.833 35.667 266.5 107s89.5 182.333 89.5 333c0 292 -118.667 438 -356 438c-238 0 -357 -146 -357 -438zM918.001 510h679.001c1.33301 24.667 2 43.667 2 57c0 44.667 -5 85.667 -15 123s-26.5 72.833 -49.5 106.5s-56.833 60.167 -101.5 79.5
s-98.334 29 -161.001 29c-114 0 -201 -34.5 -261 -103.5s-91 -166.167 -93 -291.5z" />
    <glyph glyph-name="Ydieresis" unicode="&#x178;" horiz-adv-x="1028" 
d="M35 1360c0 10 3.16699 18.333 9.5 25s14.166 10 23.499 10c13.333 0 23.333 -5.66699 30 -17l416 -665l414 665c7.33301 11.333 16.666 17 27.999 17c10 0 18.333 -3.33301 25 -10s10 -15 10 -25c0 -8 -2 -15 -6 -21l-438 -688v-635
c0 -8.66699 -3.16699 -16.167 -9.5 -22.5s-14.166 -9.5 -23.499 -9.5s-17.166 3.16699 -23.499 9.5s-9.5 13.833 -9.5 22.5v635l-440 688c-4 6 -6 13 -6 21zM303 1565c0 31.333 15 47 45 47s45 -15.667 45 -47s-15 -47 -45 -47s-45 15.667 -45 47zM631 1565
c0 31.333 15 47 45 47s45 -15.667 45 -47s-15 -47 -45 -47s-45 15.667 -45 47z" />
    <glyph glyph-name="circumflex" unicode="&#x2c6;" horiz-adv-x="684" 
d="M106 1118c0 6.66699 3.66113 13.667 10.9941 21l202 182c6.66699 6.66699 14.334 10 23.001 10s16.334 -3.33301 23.001 -10l202 -182c7.33301 -7.33301 11 -14.333 11 -21s-2.66699 -12.667 -8 -18s-11.666 -8 -18.999 -8s-13.666 2.66699 -18.999 8l-190 172l-190 -172
c-5.33301 -5.33301 -11.666 -8 -18.999 -8s-13.666 2.66699 -18.999 8s-8 11.333 -8 18z" />
    <glyph glyph-name="tilde" unicode="&#x2dc;" horiz-adv-x="774" 
d="M96 1118c0 6 1.33496 11.666 4.00195 16.999c11.333 26.667 29.666 50.334 54.999 71.001s57.666 31 96.999 31c32.667 0 64.5 -7.33301 95.5 -22l90 -44c29 -14.667 57.167 -22 84.5 -22c30 0 52.5 7 67.5 21s27.5 33.667 37.5 59c4 10.667 12 16 24 16
c7.33301 0 13.666 -2.66699 18.999 -8s8 -11.333 8 -18c0 -6 -1.33301 -11.667 -4 -17c-12 -27.333 -30.5 -51.833 -55.5 -73.5s-57.167 -32.5 -96.5 -32.5c-32.667 0 -64.5 7.33301 -95.5 22l-90 44c-29 14.667 -57.167 22 -84.5 22c-48 0 -83 -25.333 -105 -76
c-4 -10.667 -12 -16 -24 -16c-7.33301 0 -13.666 2.66699 -18.999 8s-8 11.333 -8 18z" />
    <glyph glyph-name="uni2000" unicode="&#x2000;" horiz-adv-x="920" 
 />
    <glyph glyph-name="uni2001" unicode="&#x2001;" horiz-adv-x="1841" 
 />
    <glyph glyph-name="uni2002" unicode="&#x2002;" horiz-adv-x="920" 
 />
    <glyph glyph-name="uni2003" unicode="&#x2003;" horiz-adv-x="1841" 
 />
    <glyph glyph-name="uni2004" unicode="&#x2004;" horiz-adv-x="613" 
 />
    <glyph glyph-name="uni2005" unicode="&#x2005;" horiz-adv-x="460" 
 />
    <glyph glyph-name="uni2006" unicode="&#x2006;" horiz-adv-x="306" 
 />
    <glyph glyph-name="uni2007" unicode="&#x2007;" horiz-adv-x="306" 
 />
    <glyph glyph-name="uni2008" unicode="&#x2008;" horiz-adv-x="230" 
 />
    <glyph glyph-name="uni2009" unicode="&#x2009;" horiz-adv-x="368" 
 />
    <glyph glyph-name="uni200A" unicode="&#x200a;" horiz-adv-x="102" 
 />
    <glyph glyph-name="uni2010" unicode="&#x2010;" horiz-adv-x="577" 
d="M74 516c0 7.33301 2.66699 13.6699 8 19.0029s11.333 8 18 8h375c7.33301 0 13.666 -2.83301 18.999 -8.5s8 -11.834 8 -18.501s-2.66699 -12.834 -8 -18.501s-11.666 -8.5 -18.999 -8.5h-375c-6.66699 0 -12.667 2.66699 -18 8s-8 11.666 -8 18.999z" />
    <glyph glyph-name="uni2011" unicode="&#x2011;" horiz-adv-x="577" 
d="M74 516c0 7.33301 2.66699 13.6699 8 19.0029s11.333 8 18 8h375c7.33301 0 13.666 -2.83301 18.999 -8.5s8 -11.834 8 -18.501s-2.66699 -12.834 -8 -18.501s-11.666 -8.5 -18.999 -8.5h-375c-6.66699 0 -12.667 2.66699 -18 8s-8 11.666 -8 18.999z" />
    <glyph glyph-name="figuredash" unicode="&#x2012;" horiz-adv-x="577" 
d="M74 516c0 7.33301 2.66699 13.6699 8 19.0029s11.333 8 18 8h375c7.33301 0 13.666 -2.83301 18.999 -8.5s8 -11.834 8 -18.501s-2.66699 -12.834 -8 -18.501s-11.666 -8.5 -18.999 -8.5h-375c-6.66699 0 -12.667 2.66699 -18 8s-8 11.666 -8 18.999z" />
    <glyph glyph-name="endash" unicode="&#x2013;" horiz-adv-x="1196" 
d="M211 578c0 6.66699 2.6709 12.667 8.00391 18s11.666 8 18.999 8h720c7.33301 0 13.666 -2.66699 18.999 -8s8 -11.333 8 -18s-2.83301 -12.834 -8.5 -18.501s-11.834 -8.5 -18.501 -8.5h-720c-6.66699 0 -12.834 2.83301 -18.501 8.5s-8.5 11.834 -8.5 18.501z" />
    <glyph glyph-name="emdash" unicode="&#x2014;" horiz-adv-x="1880" 
d="M211 578c0 6.66699 2.6709 12.667 8.00391 18s11.666 8 18.999 8h1404c7.33301 0 13.666 -2.66699 18.999 -8s8 -11.333 8 -18s-2.83301 -12.834 -8.5 -18.501s-11.834 -8.5 -18.501 -8.5h-1404c-6.66699 0 -12.834 2.83301 -18.501 8.5s-8.5 11.834 -8.5 18.501z" />
    <glyph glyph-name="quoteleft" unicode="&#x2018;" horiz-adv-x="280" 
d="M92 1161c0 42 6.66797 83.332 20.001 123.999s29.333 73.667 48 99c5.33301 7.33301 12 11 20 11c5.33301 0 9.83301 -1.83301 13.5 -5.5s5.5 -8.16699 5.5 -13.5c0 -4 -1.33301 -8.66699 -4 -14c-27.333 -46.667 -41 -87.667 -41 -123c0 -20 5.66699 -42.167 17 -66.5
s17 -41.833 17 -52.5c0 -13.333 -3.83301 -24.166 -11.5 -32.499s-18.834 -12.5 -33.501 -12.5c-18 0 -31 6.33301 -39 19s-12 35 -12 67z" />
    <glyph glyph-name="quoteright" unicode="&#x2019;" horiz-adv-x="280" 
d="M82 1094c0 4 1.33301 8.66797 4 14.001c27.333 46.667 41 87.667 41 123c0 20 -5.83301 42.167 -17.5 66.5s-17.5 41.833 -17.5 52.5c0 13.333 3.83301 24.166 11.5 32.499s18.834 12.5 33.501 12.5c18 0 31 -6.33301 39 -19s12 -35 12 -67
c0 -42 -6.5 -83.667 -19.5 -125s-28.833 -74.333 -47.5 -99c-5.33301 -6.66699 -12.333 -10 -21 -10c-4.66699 0 -8.83398 1.83301 -12.501 5.5s-5.5 8.16699 -5.5 13.5z" />
    <glyph glyph-name="quotesinglbase" unicode="&#x201a;" horiz-adv-x="288" 
d="M86 -221c0 4 1.33301 8.66797 4 14.001c27.333 46.667 41 87.667 41 123c0 20 -5.83301 42.167 -17.5 66.5s-17.5 41.833 -17.5 52.5c0 13.333 3.83301 24.166 11.5 32.499s18.834 12.5 33.501 12.5c18 0 31.167 -6.33301 39.5 -19s12.5 -35 12.5 -67
c0 -42 -6.66699 -83.333 -20 -124s-29.333 -73.667 -48 -99c-5.33301 -7.33301 -12.333 -11 -21 -11c-4.66699 0 -8.83398 1.83301 -12.501 5.5s-5.5 8.16699 -5.5 13.5z" />
    <glyph glyph-name="quotedblleft" unicode="&#x201c;" horiz-adv-x="479" 
d="M92 1161c0 42 6.66797 83.332 20.001 123.999s29.333 73.667 48 99c5.33301 7.33301 12 11 20 11c5.33301 0 9.83301 -1.83301 13.5 -5.5s5.5 -8.16699 5.5 -13.5c0 -4 -1.33301 -8.66699 -4 -14c-27.333 -46.667 -41 -87.667 -41 -123c0 -20 5.66699 -42.167 17 -66.5
s17 -41.833 17 -52.5c0 -13.333 -3.83301 -24.166 -11.5 -32.499s-18.834 -12.5 -33.501 -12.5c-18 0 -31 6.33301 -39 19s-12 35 -12 67zM291.001 1161c0 42 6.5 83.332 19.5 123.999s28.833 73.667 47.5 99c5.33301 7.33301 12.333 11 21 11
c4.66699 0 8.83398 -1.83301 12.501 -5.5s5.5 -8.16699 5.5 -13.5c0 -4 -1.33301 -8.66699 -4 -14c-27.333 -46.667 -41 -87.667 -41 -123c0 -20 5.83301 -42.167 17.5 -66.5s17.5 -41.833 17.5 -52.5c0 -13.333 -3.83301 -24.166 -11.5 -32.499
s-18.834 -12.5 -33.501 -12.5c-18 0 -31 6.33301 -39 19s-12 35 -12 67z" />
    <glyph glyph-name="quotedblright" unicode="&#x201d;" horiz-adv-x="479" 
d="M82 1094c0 4 1.33301 8.66797 4 14.001c27.333 46.667 41 87.667 41 123c0 20 -5.83301 42.167 -17.5 66.5s-17.5 41.833 -17.5 52.5c0 13.333 3.83301 24.166 11.5 32.499s18.834 12.5 33.501 12.5c18 0 31 -6.33301 39 -19s12 -35 12 -67
c0 -42 -6.5 -83.667 -19.5 -125s-28.833 -74.333 -47.5 -99c-5.33301 -6.66699 -12.333 -10 -21 -10c-4.66699 0 -8.83398 1.83301 -12.501 5.5s-5.5 8.16699 -5.5 13.5zM281 1094c0 4 1.33301 8.66797 4 14.001c27.333 46.667 41 87.667 41 123
c0 20 -5.83301 42.167 -17.5 66.5s-17.5 41.833 -17.5 52.5c0 13.333 3.83301 24.166 11.5 32.499s18.834 12.5 33.501 12.5c18 0 31 -6.33301 39 -19s12 -35 12 -67c0 -42 -6.66699 -83.5 -20 -124.5s-29.333 -74.167 -48 -99.5c-5.33301 -6.66699 -12 -10 -20 -10
c-4.66699 0 -8.83398 1.83301 -12.501 5.5s-5.5 8.16699 -5.5 13.5z" />
    <glyph glyph-name="quotedblbase" unicode="&#x201e;" horiz-adv-x="487" 
d="M86 -221c0 4 1.33301 8.66797 4 14.001c27.333 46.667 41 87.667 41 123c0 20 -5.83301 42.167 -17.5 66.5s-17.5 41.833 -17.5 52.5c0 13.333 3.83301 24.166 11.5 32.499s18.834 12.5 33.501 12.5c18 0 31.167 -6.33301 39.5 -19s12.5 -35 12.5 -67
c0 -42 -6.66699 -83.333 -20 -124s-29.333 -73.667 -48 -99c-5.33301 -7.33301 -12.333 -11 -21 -11c-4.66699 0 -8.83398 1.83301 -12.501 5.5s-5.5 8.16699 -5.5 13.5zM285 -220.999c0 4 1.33301 8.66797 4 14.001c27.333 46.667 41 87.667 41 123
c0 20 -5.83301 42.167 -17.5 66.5s-17.5 41.833 -17.5 52.5c0 13.333 3.83301 24.166 11.5 32.499s18.834 12.5 33.501 12.5c18 0 31 -6.33301 39 -19s12 -35 12 -67c0 -42 -6.5 -83.333 -19.5 -124s-28.833 -73.667 -47.5 -99c-5.33301 -7.33301 -12.333 -11 -21 -11
c-4.66699 0 -8.83398 1.83301 -12.501 5.5s-5.5 8.16699 -5.5 13.5z" />
    <glyph glyph-name="bullet" unicode="&#x2022;" horiz-adv-x="856" 
d="M162 571c0 186 88.667 279 266 279s266 -93 266 -279c0 -88.667 -22.833 -155.167 -68.5 -199.5s-111.5 -66.5 -197.5 -66.5s-151.833 22.167 -197.5 66.5s-68.5 110.833 -68.5 199.5z" />
    <glyph glyph-name="uni202F" unicode="&#x202f;" horiz-adv-x="368" 
 />
    <glyph glyph-name="guilsinglleft" unicode="&#x2039;" horiz-adv-x="663" 
d="M123 434c0 6 2 11 6 15l360 423c6 6 13 9 21 9s14.833 -2.83301 20.5 -8.5s8.5 -12.5 8.5 -20.5c0 -7.33301 -2.33301 -13.333 -7 -18l-346 -400l346 -399c4.66699 -4.66699 7 -11 7 -19s-2.83301 -14.667 -8.5 -20s-12.5 -8 -20.5 -8c-8.66699 0 -15.667 2.66699 -21 8
l-360 424c-4 4 -6 8.66699 -6 14z" />
    <glyph glyph-name="guilsinglright" unicode="&#x203a;" horiz-adv-x="661" 
d="M123 16c0 8.66699 2 15.001 6 19.001l346 399l-346 400c-4 4 -6 10 -6 18s2.83301 14.833 8.5 20.5s12.5 8.5 20.5 8.5c7.33301 0 14 -3 20 -9l360 -423c4.66699 -4.66699 7 -9.66699 7 -15c0 -4.66699 -2.33301 -9.33398 -7 -14.001l-360 -424
c-5.33301 -5.33301 -12 -8 -20 -8s-14.833 2.66699 -20.5 8s-8.5 12 -8.5 20z" />
    <glyph glyph-name="uni205F" unicode="&#x205f;" horiz-adv-x="460" 
 />
    <glyph glyph-name="Euro" unicode="&#x20ac;" horiz-adv-x="1273" 
d="M-8 561c0 7.33301 2.66895 13.666 8.00195 18.999s11.333 8 18 8h76c-2.66699 41.333 -4 74.666 -4 99.999c0 38 0.666992 66 2 84h-74c-6.66699 0 -12.667 2.66699 -18 8s-8 11.666 -8 18.999s2.66699 13.5 8 18.5s11.333 7.5 18 7.5h78
c20 192.667 84 337.834 192 435.501s252.333 146.5 433 146.5c96 0 184.167 -19.167 264.5 -57.5s143.833 -90.166 190.5 -155.499c5.33301 -8 8 -15.667 8 -23c0 -8 -2.83301 -14.667 -8.5 -20s-12.5 -8 -20.5 -8c-10 0 -18.333 4 -25 12c-42.667 58 -100 105 -172 141
s-151 54 -237 54c-163.333 0 -292.5 -43.333 -387.5 -130s-152.167 -218.334 -171.5 -395.001h428c6.66699 0 12.667 -2.5 18 -7.5s8 -11.167 8 -18.5s-2.66699 -13.666 -8 -18.999s-11.333 -8 -18 -8h-432c-1.33301 -18 -2 -46 -2 -84c0 -46 0.666992 -79.333 2 -100h432
c6.66699 0 12.667 -2.66699 18 -8s8 -11.666 8 -18.999s-2.66699 -13.5 -8 -18.5s-11.333 -7.5 -18 -7.5h-426c20 -178 76.5 -306.833 169.5 -386.5s222.167 -119.5 387.5 -119.5c81.333 0 158.166 16 230.499 48s131.833 79.333 178.5 142c6.66699 8 15 12 25 12
c8 0 14.833 -2.66699 20.5 -8s8.5 -12 8.5 -20c0 -6.66699 -2 -13 -6 -19c-43.333 -66 -106.333 -118 -189 -156s-172 -57 -268 -57c-374.667 0 -582.334 188 -623.001 564h-80c-6.66699 0 -12.667 2.5 -18 7.5s-8 11.167 -8 18.5z" />
    <glyph glyph-name="trademark" unicode="&#x2122;" horiz-adv-x="817" 
d="M43 1315c0 13.333 6.66699 20 20 20h269c13.333 0 20 -6.66699 20 -20c0 -14 -6.66699 -21 -20 -21h-113v-315c0 -6 -2.16699 -11.333 -6.5 -16s-9.5 -7 -15.5 -7s-11.333 2.33301 -16 7s-7 10 -7 16v315h-111c-13.333 0 -20 7 -20 21zM414 977v342
c0 6 2.16699 11.167 6.5 15.5s9.5 6.5 15.5 6.5c10 0 17.667 -5.33301 23 -16l112 -229l113 229c5.33301 10.667 13 16 23 16c6 0 11.167 -2.16699 15.5 -6.5s6.5 -9.5 6.5 -15.5v-342c0 -14 -6.66699 -21 -20 -21c-6 0 -11 2 -15 6s-6 9 -6 15v270l-94 -190
c-5.33301 -11.333 -13 -17 -23 -17c-8.66699 0 -16 5.66699 -22 17l-94 190v-270c0 -6 -2 -11 -6 -15s-9 -6 -15 -6c-13.333 0 -20 7 -20 21z" />
    <glyph glyph-name="uniE000" unicode="&#xe000;" horiz-adv-x="942" 
d="M0 0v942h942v-942h-942z" />
  </font>
</defs>
</svg>
