<?xml version="1.0" standalone="no"?>
<!DOCTYPE svg PUBLIC "-//W3C//DTD SVG 1.1//EN" "http://www.w3.org/Graphics/SVG/1.1/DTD/svg11.dtd" >
<svg>
<metadata>
Created by FontForge 20090914 at Sat Oct  5 09:45:02 2013
 By www-data
Copyright (c) 2012 by atipo. All rights reserved.
</metadata>
<defs>
<font id="Bariol-Thin" horiz-adv-x="1040" >
  <font-face 
    font-family="Bariol Thin"
    font-weight="250"
    font-stretch="normal"
    units-per-em="2048"
    panose-1="2 0 5 6 4 0 0 2 0 3"
    ascent="1612"
    descent="-436"
    x-height="930"
    cap-height="1395"
    bbox="-66 -465 1835 1835"
    underline-thickness="40"
    underline-position="-231"
    unicode-range="U+000D-U+FB04"
  />
<missing-glyph horiz-adv-x="748" 
d="M68 0v1365h544v-1365h-544zM136 68h408v1229h-408v-1229z" />
    <glyph glyph-name="ellipsis" unicode="&#x2e;&#x2e;&#x2e;" horiz-adv-x="1501" 
d="M109 23c0 26.667 11.333 40 34 40c23.333 0 35 -13.333 35 -40c0 -26 -11.667 -39 -35 -39c-22.667 0 -34 13 -34 39zM715 23c0 26.667 11.667 40 35 40c22.667 0 34 -13.333 34 -40c0 -26 -11.333 -39 -34 -39c-23.333 0 -35 13 -35 39zM1321 23
c0 26.667 11.667 40 35 40s35 -13.333 35 -40c0 -26 -11.667 -39 -35 -39s-35 13 -35 39z" />
    <glyph glyph-name="uniFB01" unicode="fi" horiz-adv-x="917" 
d="M61 913c0 4 1.83496 7.83594 5.50195 11.5029s7.5 5.5 11.5 5.5h129v131c0 104 27.5 187 82.5 249s136.833 93 245.5 93c36 0 73.167 -4.66699 111.5 -14s69.166 -20.333 92.499 -33c8.66699 -4 13 -9.66699 13 -17c0 -3.33301 -1.66699 -6.83301 -5 -10.5
s-7.33301 -5.5 -12 -5.5c-1.33301 0 -8.66602 2.66699 -21.999 8c-59.333 26 -118.666 39 -177.999 39c-96.667 0 -169.334 -26.667 -218.001 -80s-73 -129.666 -73 -228.999v-131h491c4.66699 0 9 -2 13 -6s6 -8.33301 6 -13v-909
c0 -4.66699 -1.83301 -8.83398 -5.5 -12.501s-8.16699 -5.5 -13.5 -5.5c-4.66699 0 -8.83398 1.66699 -12.501 5s-5.5 7.66602 -5.5 12.999v895h-473v-895c0 -4.66699 -1.83301 -8.83398 -5.5 -12.501s-8.16699 -5.5 -13.5 -5.5c-4.66699 0 -8.83398 1.66699 -12.501 5
s-5.5 7.66602 -5.5 12.999v895h-129c-4 0 -7.83301 1.66699 -11.5 5s-5.5 7 -5.5 11z" />
    <glyph glyph-name="uniFB02" unicode="fl" horiz-adv-x="968" 
d="M61 913c0 4 1.83301 7.83398 5.5 11.501s7.5 5.5 11.5 5.5h129v131c0 104 27.5 187 82.5 249s136.833 93 245.5 93c36 0 73.833 -4.83301 113.5 -14.5s69.834 -20.5 90.501 -32.5c10 -6 15 -14.333 15 -25v-1126c0 -63.333 9 -110.666 27 -141.999s53.333 -47 106 -47
c10.667 0 16 -5.33301 16 -16s-5.33301 -16 -16 -16c-64.667 0 -109.167 18.833 -133.5 56.5s-36.5 92.5 -36.5 164.5v692h-473v-895c0 -4.66699 -1.83301 -8.83398 -5.5 -12.501s-8.16699 -5.5 -13.5 -5.5c-4.66699 0 -8.83398 1.66699 -12.501 5s-5.5 7.66602 -5.5 12.999
v895h-129c-4 0 -7.83301 1.66699 -11.5 5s-5.5 7 -5.5 11zM244 930.001l473.001 -0.000976562v399c-20 9.33301 -47.667 18.5 -83 27.5s-68.333 13.5 -99 13.5c-96.667 0 -169.334 -26.667 -218.001 -80s-73 -129.666 -73 -228.999v-131z" />
    <glyph glyph-name="uniFB03" unicode="ffi" horiz-adv-x="1439" 
d="M61 913c0 4 1.83398 7.83301 5.50098 11.5s7.5 5.5 11.5 5.5h129v131c0 104 27.5 187 82.5 249s136.833 93 245.5 93c4.66699 0 8.5 -1.83301 11.5 -5.5s4.5 -7.5 4.5 -11.5c0 -10.667 -5.33301 -16 -16 -16c-96.667 0 -169.334 -26.667 -218.001 -80
s-73 -129.666 -73 -228.999v-131h485v131c0 104 27.5 187 82.5 249s136.833 93 245.5 93c36 0 73.333 -4.66699 112 -14s69.667 -20.333 93 -33c8 -4 12 -9.66699 12 -17c0 -3.33301 -1.66699 -6.83301 -5 -10.5s-7.33301 -5.5 -12 -5.5
c-1.33301 0 -8.66602 2.66699 -21.999 8c-59.333 26 -118.666 39 -177.999 39c-96.667 0 -169.334 -26.667 -218.001 -80s-73 -129.666 -73 -228.999v-131h491c4.66699 0 9 -2 13 -6s6 -8.33301 6 -13v-909c0 -4.66699 -1.83301 -8.83398 -5.5 -12.501
s-8.16699 -5.5 -13.5 -5.5c-4.66699 0 -8.83398 1.66699 -12.501 5s-5.5 7.66602 -5.5 12.999v895h-473v-895c0 -5.33301 -1.66699 -9.66602 -5 -12.999s-7.66602 -5 -12.999 -5s-9.83301 1.83301 -13.5 5.5s-5.5 7.83398 -5.5 12.501v895h-485v-895
c0 -4.66699 -1.83301 -8.83398 -5.5 -12.501s-8.16699 -5.5 -13.5 -5.5c-4.66699 0 -8.83398 1.66699 -12.501 5s-5.5 7.66602 -5.5 12.999v895h-129c-4 0 -7.83301 1.66699 -11.5 5s-5.5 7 -5.5 11z" />
    <glyph glyph-name="uniFB04" unicode="ffl" horiz-adv-x="1490" 
d="M61 913c0 4 1.83203 7.83008 5.49902 11.4971s7.5 5.5 11.5 5.5h129v131c0 104 27.5 187 82.5 249s136.833 93 245.5 93c4.66699 0 8.5 -1.83301 11.5 -5.5s4.5 -7.5 4.5 -11.5c0 -10.667 -5.33301 -16 -16 -16c-96.667 0 -169.334 -26.667 -218.001 -80
s-73 -129.666 -73 -228.999v-131h485v131c0 104 27.5 187 82.5 249s136.833 93 245.5 93c36.667 0 74.834 -4.83301 114.501 -14.5s69.834 -20.5 90.501 -32.5c9.33301 -5.33301 14 -13.666 14 -24.999v-1126c0 -63.333 9 -110.666 27 -141.999s53.333 -47 106 -47
c10.667 0 16 -5.33301 16 -16s-5.33301 -16 -16 -16c-64.667 0 -109.167 18.833 -133.5 56.5s-36.5 92.5 -36.5 164.5v692h-473v-895c0 -5.33301 -1.66699 -9.66602 -5 -12.999s-7.66602 -5 -12.999 -5s-9.83301 1.83301 -13.5 5.5s-5.5 7.83398 -5.5 12.501v895h-485v-895
c0 -4.66699 -1.83301 -8.83398 -5.5 -12.501s-8.16699 -5.5 -13.5 -5.5c-4.66699 0 -8.83398 1.66699 -12.501 5s-5.5 7.66602 -5.5 12.999v895h-129c-4 0 -7.83301 1.66699 -11.5 5s-5.5 7 -5.5 11zM765.999 929.997l473.001 -0.000976562v399
c-20 9.33301 -47.667 18.5 -83 27.5s-68.333 13.5 -99 13.5c-96.667 0 -169.334 -26.667 -218.001 -80s-73 -129.666 -73 -228.999v-131z" />
    <glyph glyph-name=".notdef" horiz-adv-x="748" 
d="M68 0v1365h544v-1365h-544zM136 68h408v1229h-408v-1229z" />
    <glyph glyph-name="glyph1" horiz-adv-x="2048" 
 />
    <glyph glyph-name="glyph1" horiz-adv-x="2048" 
 />
    <glyph glyph-name="uni000D" unicode="&#xd;" horiz-adv-x="2048" 
 />
    <glyph glyph-name="space" unicode=" " horiz-adv-x="512" 
 />
    <glyph glyph-name="exclam" unicode="!" horiz-adv-x="288" 
d="M109 23c0 26.667 11.333 40 34 40c23.333 0 35 -13.333 35 -40c0 -26 -11.667 -39 -35 -39c-22.667 0 -34 13 -34 39zM121 1370c0 16.667 7.33301 25 22 25c15.333 0 23 -8.33301 23 -25l-10 -1102c0 -9.33301 -4.33301 -14 -13 -14c-8 0 -12 4.66699 -12 14z" />
    <glyph glyph-name="quotedbl" unicode="&#x22;" horiz-adv-x="604" 
d="M186 1368c0 18 8.33301 27 25 27s25 -9 25 -27l-11 -362c0 -8.66699 -4.66699 -13 -14 -13s-14 4.33301 -14 13zM367 1368c0 18 8 27 24 27c16.667 0 25 -9 25 -27l-10 -362c0 -8.66699 -5 -13 -15 -13c-9.33301 0 -14 4.33301 -14 13z" />
    <glyph glyph-name="numbersign" unicode="#" horiz-adv-x="1062" 
d="M92 483c0 4 1.66699 7.83301 5 11.5s7.33301 5.5 12 5.5h182l53 344h-180c-4.66699 0 -8.66699 1.66699 -12 5s-5 7 -5 11s1.66699 7.83301 5 11.5s7.33301 5.5 12 5.5h186l70 442c2 10.667 8 16 18 16c4 0 7.83301 -1.5 11.5 -4.5s5.5 -6.83301 5.5 -11.5
s-0.666992 -11 -2 -19l-68 -423h360l70 442c2 10.667 8.33301 16 19 16s16 -5.33301 16 -16c0 -4.66699 -0.666992 -11 -2 -19l-68 -423h174c4.66699 0 8.66699 -1.83301 12 -5.5s5 -7.5 5 -11.5s-1.66699 -7.66699 -5 -11s-7.33301 -5 -12 -5h-178l-53 -344h176
c4.66699 0 8.5 -1.83301 11.5 -5.5s4.5 -7.5 4.5 -11.5c0 -10.667 -5.33301 -16 -16 -16h-182l-72 -467c-2 -10.667 -8 -16 -18 -16c-4 0 -7.83301 1.5 -11.5 4.5s-5.5 6.83301 -5.5 11.5c0 4 0.666992 10 2 18l70 449h-360l-72 -467c-2 -10.667 -8.33301 -16 -19 -16
s-16 5.33301 -16 16c0 4 0.666992 10 2 18l70 449h-178c-4.66699 0 -8.66699 1.66699 -12 5s-5 7 -5 11zM328 500h358l53 344h-358z" />
    <glyph glyph-name="dollar" unicode="$" horiz-adv-x="1116" 
d="M82 225c0 5.33301 1.83008 9.83691 5.49707 13.5039s7.83398 5.5 12.501 5.5c7.33301 0 14.333 -5.66699 21 -17c40 -66.667 95 -120.5 165 -161.5s153.667 -61.5 251 -61.5c140.667 0 246.834 30.167 318.501 90.5s107.5 146.166 107.5 257.499
c0 60 -15 112.167 -45 156.5s-68.833 79.666 -116.5 105.999s-100.5 50.166 -158.5 71.499l-173.5 64c-57.667 21.333 -110.334 44.833 -158.001 70.5s-86.5 60.167 -116.5 103.5s-45 94.333 -45 153c0 94 30.833 171.5 92.5 232.5s158.167 93.5 289.5 97.5v190
c0 4 1.66699 7.83301 5 11.5s7.33301 5.5 12 5.5s8.5 -1.83301 11.5 -5.5s4.5 -7.5 4.5 -11.5v-190c91.333 -2 169.5 -19.667 234.5 -53s120.833 -82 167.5 -146c2.66699 -4 4 -8 4 -12c0 -4.66699 -1.83301 -8.5 -5.5 -11.5s-7.5 -4.5 -11.5 -4.5
c-7.33301 0 -12.666 2.66699 -15.999 8c-82.667 124 -211 186 -385 186c-67.333 0 -125.666 -8.5 -174.999 -25.5s-87.5 -40.167 -114.5 -69.5s-46.667 -60.666 -59 -93.999s-18.5 -69.333 -18.5 -108c0 -42.667 9.33301 -80.834 28 -114.501s43.667 -61.834 75 -84.501
s67.333 -43.167 108 -61.5s83.5 -35.333 128.5 -51l134.5 -47.5c44.667 -16 87.334 -34.833 128.001 -56.5s76.667 -45.834 108 -72.501s56.333 -60.167 75 -100.5s28 -85.833 28 -136.5c0 -117.333 -36.5 -209.166 -109.5 -275.499s-181.167 -101.5 -324.5 -105.5v-188
c0 -10.667 -5.33301 -16 -16 -16c-4.66699 0 -8.66699 1.66699 -12 5s-5 7 -5 11v188c-104.667 0.666992 -193.834 22.667 -267.501 66s-132.5 100 -176.5 170c-4 6 -6 12 -6 18z" />
    <glyph glyph-name="percent" unicode="%" horiz-adv-x="1527" 
d="M111 1073c0 222.667 91.333 334 274 334s274 -111.333 274 -334s-91.333 -334 -274 -334s-274 111.333 -274 334zM143 1073c0 -94.667 18.5 -168.834 55.5 -222.501s99.167 -80.5 186.5 -80.5s149.5 26.833 186.5 80.5s55.5 127.834 55.5 222.501
s-18.5 168.834 -55.5 222.501s-99.167 80.5 -186.5 80.5s-149.5 -26.833 -186.5 -80.5s-55.5 -127.834 -55.5 -222.501zM397 0c0 4 1.33203 8.66699 3.99902 14l691 1364c4.66699 11.333 11.334 17 20.001 17c4.66699 0 8.5 -1.83301 11.5 -5.5s4.5 -7.5 4.5 -11.5
s-1.33301 -8.66699 -4 -14l-690 -1364c-4 -10.667 -10.667 -16 -20 -16c-4.66699 0 -8.66699 1.66699 -12 5s-5 7 -5 11zM867.999 307c0 222.667 91.667 334 275 334c182.667 0 274 -111.333 274 -334s-91.333 -334 -274 -334c-183.333 0 -275 111.333 -275 334z
M900.999 307c0 -94.667 18.5 -168.83 55.5 -222.497s99.167 -80.5 186.5 -80.5s149.333 26.667 186 80s55 127.666 55 222.999s-18.333 169.666 -55 222.999s-98.667 80 -186 80s-149.5 -26.833 -186.5 -80.5s-55.5 -127.834 -55.5 -222.501z" />
    <glyph glyph-name="ampersand" unicode="&#x26;" horiz-adv-x="1228" 
d="M92 348c0 53.333 11.668 103.833 35.001 151.5s52 88.5 86 122.5s77.667 70.333 131 109c-79.333 136.667 -119 265 -119 385c0 84 22.833 153.5 68.5 208.5s110.834 82.5 195.501 82.5c74 0 133.5 -21.333 178.5 -64s67.5 -104 67.5 -184
c0 -74.667 -27.333 -145 -82 -211s-141.334 -141.667 -260.001 -227c103.333 -181.333 268 -355.333 494 -522c74.667 88 121 181.333 139 280c2 11.333 8 17 18 17c3.33301 0 6.66602 -1.33301 9.99902 -4s5 -6.33398 5 -11.001c0 -5.33301 -0.666992 -11.333 -2 -18
c-18 -89.333 -65.333 -184.333 -142 -285c105.333 -73.333 201 -127.333 287 -162c10 -4 15 -9.33301 15 -16c0 -4 -1.66699 -7.66699 -5 -11s-7.33301 -5 -12 -5c-2.66699 0 -8 1.33301 -16 4c-103.333 44.667 -200.333 99.334 -291 164.001
c-114.667 -120.667 -245 -181 -391 -181c-122 0 -220.833 33.833 -296.5 101.5s-113.5 159.5 -113.5 275.5zM129.001 348c0 -72 17.502 -134.499 52.502 -187.499s80.167 -92.333 135.5 -118s117 -38.5 185 -38.5c75.333 0 144.5 16.667 207.5 50
s115.167 72.666 156.5 117.999c-119.333 92 -218 178.167 -296 258.5s-146.333 170.166 -205 269.499c-24.667 -17.333 -47.167 -34.333 -67.5 -51s-41.333 -36.667 -63 -60s-39.834 -46.666 -54.501 -69.999s-26.834 -49.833 -36.501 -79.5s-14.5 -60.167 -14.5 -91.5z
M262.003 1116c0 -116 37.668 -237.332 113.001 -363.999c47.333 34 88.166 65.167 122.499 93.5s67.833 60 100.5 95s57.5 70.833 74.5 107.5s25.5 73.667 25.5 111c0 67.333 -19 120 -57 158s-88.667 57 -152 57c-70.667 0 -126.167 -24.333 -166.5 -73
s-60.5 -110.334 -60.5 -185.001z" />
    <glyph glyph-name="quotesingle" unicode="'" horiz-adv-x="407" 
d="M186 1368c0 18 8.33301 27 25 27s25 -9 25 -27l-11 -362c0 -8.66699 -4.66699 -13 -14 -13s-14 4.33301 -14 13z" />
    <glyph glyph-name="parenleft" unicode="(" horiz-adv-x="620" 
d="M164 606c0 56.667 0.5 104.83 1.5 144.497s3.83301 88.667 8.5 147s11.167 108.666 19.5 150.999s20.5 88.833 36.5 139.5s35.167 94.334 57.5 131.001s50.666 71.834 84.999 105.501s73.166 61.167 116.499 82.5c5.33301 2.66699 10.333 4 15 4
c4 0 7.66699 -1.33301 11 -4s5 -6 5 -10c0 -8 -4.66699 -14.667 -14 -20c-41.333 -20.667 -78.333 -48.167 -111 -82.5s-59.5 -70 -80.5 -107s-39 -81.167 -54 -132.5s-26.167 -97.5 -33.5 -138.5s-13.166 -90 -17.499 -147s-6.83301 -102.5 -7.5 -136.5s-1 -76.333 -1 -127
s0.333008 -93 1 -127s3.16699 -79.333 7.5 -136s10.166 -105.5 17.499 -146.5s18.5 -87.167 33.5 -138.5s33 -95.5 54 -132.5s47.833 -72.667 80.5 -107s69.667 -61.833 111 -82.5c9.33301 -5.33301 14 -12.333 14 -21c0 -4 -1.66699 -7.33301 -5 -10s-7 -4 -11 -4
c-4.66699 0 -9.66699 1.33301 -15 4c-43.333 21.333 -82.166 48.833 -116.499 82.5s-62.666 68.834 -84.999 105.501s-41.5 80.334 -57.5 131.001s-28.167 97.167 -36.5 139.5s-14.833 92.666 -19.5 150.999s-7.5 107.333 -8.5 147s-1.5 87.834 -1.5 144.501z" />
    <glyph glyph-name="parenright" unicode=")" horiz-adv-x="620" 
d="M100 -285c0 8 5 15.002 15 21.002c41.333 20.667 78.333 48.167 111 82.5s59.5 70 80.5 107s39 81.167 54 132.5s26.167 97.5 33.5 138.5s13.166 89.833 17.499 146.5s6.83301 102 7.5 136s1 76.333 1 127s-0.333008 93 -1 127s-3.16699 79.5 -7.5 136.5
s-10.166 106 -17.499 147s-18.5 87.167 -33.5 138.5s-33 95.5 -54 132.5s-47.833 72.667 -80.5 107s-69.667 61.833 -111 82.5c-10 6 -15 12.667 -15 20c0 4 1.83301 7.33301 5.5 10s7.5 4 11.5 4s8.66699 -1.33301 14 -4c43.333 -21.333 82.166 -48.833 116.499 -82.5
s62.666 -69 84.999 -106s41.666 -80.5 57.999 -130.5s28.666 -96.5 36.999 -139.5s14.833 -93.5 19.5 -151.5s7.5 -106.833 8.5 -146.5s1.5 -87.834 1.5 -144.501s-0.5 -104.834 -1.5 -144.501s-3.83301 -88.5 -8.5 -146.5s-11.167 -108.5 -19.5 -151.5
s-20.666 -89.5 -36.999 -139.5s-35.666 -93.5 -57.999 -130.5s-50.666 -72.333 -84.999 -106s-73.166 -61.167 -116.499 -82.5c-5.33301 -2.66699 -10 -4 -14 -4s-7.83301 1.33301 -11.5 4s-5.5 6 -5.5 10z" />
    <glyph glyph-name="asterisk" unicode="*" horiz-adv-x="731" 
d="M74 1204c0 12.667 5.33301 19 16 19c3.33301 0 10.333 -1.33301 21 -4l243 -70l-6 262c0 14 5.66699 21 17 21c10.667 0 16 -7 16 -21l-6 -262l243 70c10.667 2.66699 17.667 4 21 4c10.667 0 16 -6.33301 16 -19c0 -8.66699 -5.33301 -14 -16 -16l-258 -58l164 -219
c4 -6 6 -11.333 6 -16c0 -4 -2 -7.66699 -6 -11s-8.33301 -5 -13 -5s-10 4 -16 12l-151 227l-152 -227c-6 -8 -11.333 -12 -16 -12s-9 1.66699 -13 5s-6 7 -6 11c0 4.66699 2 10 6 16l164 219l-258 58c-10.667 2 -16 7.33301 -16 16z" />
    <glyph glyph-name="plus" unicode="+" horiz-adv-x="909" 
d="M0 446c0 4 1.5 7.83301 4.5 11.5s6.83301 5.5 11.5 5.5h422v432c0 4.66699 1.83301 8.5 5.5 11.5s7.5 4.5 11.5 4.5c10.667 0 16 -5.33301 16 -16v-432h422c4.66699 0 8.5 -1.83301 11.5 -5.5s4.5 -7.5 4.5 -11.5c0 -10.667 -5.33301 -16 -16 -16h-422v-430
c0 -10.667 -5.33301 -16 -16 -16c-4 0 -7.83301 1.5 -11.5 4.5s-5.5 6.83301 -5.5 11.5v430h-422c-10.667 0 -16 5.33301 -16 16z" />
    <glyph glyph-name="comma" unicode="," horiz-adv-x="288" 
d="M96 -203c0 3.33301 1.33301 7.66602 4 12.999c19.333 30 29 65.333 29 106c0 20 -3.33301 40.167 -10 60.5s-10 35.833 -10 46.5c0 26.667 11.333 40 34 40c23.333 0 35 -15.667 35 -47c0 -41.333 -5 -82.833 -15 -124.5s-23.333 -74.5 -40 -98.5
c-3.33301 -5.33301 -8 -8 -14 -8c-3.33301 0 -6.33301 1.33301 -9 4s-4 5.33398 -4 8.00098z" />
    <glyph glyph-name="hyphen" unicode="-" horiz-adv-x="577" 
d="M84 516c0 10.667 5.33301 16 16 16h375c4.66699 0 8.66699 -1.66699 12 -5s5 -7 5 -11s-1.66699 -7.66699 -5 -11s-7.33301 -5 -12 -5h-375c-10.667 0 -16 5.33301 -16 16z" />
    <glyph glyph-name="period" unicode="." horiz-adv-x="288" 
d="M109 23c0 26.667 11.333 40 34 40c23.333 0 35 -13.333 35 -40c0 -26 -11.667 -39 -35 -39c-22.667 0 -34 13 -34 39z" />
    <glyph glyph-name="slash" unicode="/" horiz-adv-x="833" 
d="M115 -182c0 2.66699 1.33301 8.00098 4 16.001l561 1690c3.33301 9.33301 9.33301 14 18 14c5.33301 0 9.83301 -1.83301 13.5 -5.5s5.5 -7.83398 5.5 -12.501c0 -3.33301 -1.33301 -9 -4 -17l-561 -1689c-3.33301 -10 -9.66602 -15 -18.999 -15
c-4.66699 0 -8.83398 1.83301 -12.501 5.5s-5.5 8.16699 -5.5 13.5z" />
    <glyph glyph-name="zero" unicode="0" horiz-adv-x="1208" 
d="M121 690c0 254 37.333 437 112 549s198.334 168 371.001 168s296.334 -56 371.001 -168s112 -295 112 -549c0 -254.667 -37.333 -438.167 -112 -550.5s-198.334 -168.5 -371.001 -168.5s-296.334 56.167 -371.001 168.5s-112 295.833 -112 550.5zM158 690
c0 -244 34.167 -419.333 102.5 -526s182.833 -160 343.5 -160s275.334 53.333 344.001 160s103 282 103 526c0 243.333 -34.333 418.166 -103 524.499s-183.334 159.5 -344.001 159.5s-275.167 -53.167 -343.5 -159.5s-102.5 -281.166 -102.5 -524.499z" />
    <glyph glyph-name="one" unicode="1" horiz-adv-x="702" 
d="M100 1122c0 6.66699 3.66797 12.334 11.001 17.001l352 250c6 4 11.333 6 16 6s9 -1.83301 13 -5.5s6 -8.16699 6 -13.5v-1374c0 -4.66699 -1.83301 -8.83398 -5.5 -12.501s-8.16699 -5.5 -13.5 -5.5c-4.66699 0 -8.83398 1.66699 -12.501 5s-5.5 7.66602 -5.5 12.999
v1339l-328 -231c-6 -4 -10.667 -6 -14 -6c-5.33301 0 -9.83301 1.83301 -13.5 5.5s-5.5 7.83398 -5.5 12.501z" />
    <glyph glyph-name="two" unicode="2" horiz-adv-x="1073" 
d="M113 18c0 52 9.33398 100.664 28.001 145.997s43.667 85.166 75 119.499s67.5 67 108.5 98s84.167 60.167 129.5 87.5l135.5 82.5c45 27.667 88 57.334 129 89.001s77.167 65.167 108.5 100.5s56.333 76.166 75 122.499s28 96.5 28 150.5
c0 102.667 -34.5 188.334 -103.5 257.001s-160.167 103 -273.5 103c-98 0 -174.333 -19.333 -229 -58s-95 -95.667 -121 -171c-3.33301 -10 -10.333 -15 -21 -15c-4 0 -7.66699 1.66699 -11 5s-5 7.33301 -5 12c0 2.66699 0.666992 6 2 10c54.667 166.667 183 250 385 250
c124 0 224 -37 300 -111s114 -168 114 -282c0 -70 -15 -134.667 -45 -194s-69 -110.166 -117 -152.499s-100.833 -82.5 -158.5 -120.5l-173.5 -110.5c-58 -35.667 -111 -72.167 -159 -109.5s-87 -80.666 -117 -129.999s-45 -102.666 -45 -159.999h817
c4.66699 0 8.83398 -1.83301 12.501 -5.5s5.5 -8.16699 5.5 -13.5s-1.83301 -9.66602 -5.5 -12.999s-7.83398 -5 -12.501 -5h-838c-4.66699 0 -8.83398 1.66699 -12.501 5s-5.5 7.66602 -5.5 12.999z" />
    <glyph glyph-name="three" unicode="3" horiz-adv-x="1089" 
d="M84 205c0 9.33301 5.33398 14.001 16.001 14.001c8.66699 0 15.667 -5.33301 21 -16c30 -64.667 80 -114 150 -148s153 -51 249 -51c137.333 0 240.333 33.5 309 100.5s103 163.167 103 288.5c0 52.667 -7.33301 100.834 -22 144.501s-36.834 82.667 -66.501 117
s-69.5 61.166 -119.5 80.499s-108.333 29 -175 29h-143c-5.33301 0 -9.83301 1.83301 -13.5 5.5s-5.5 7.83398 -5.5 12.501c0 7.33301 3.33301 14.333 10 21l465 538h-669c-4.66699 0 -9 1.83301 -13 5.5s-6 8.16699 -6 13.5c0 4.66699 1.83301 8.83398 5.5 12.501
s8.16699 5.5 13.5 5.5h708c5.33301 0 9.83301 -1.83301 13.5 -5.5s5.5 -7.83398 5.5 -12.501s-2.33301 -9.33398 -7 -14.001l-471 -547h107c140.667 0 246.167 -36.667 316.5 -110s105.5 -172 105.5 -296c0 -133.333 -38.167 -237 -114.5 -311s-188.5 -111 -336.5 -111
c-108.667 0 -199.667 19.667 -273 59s-126.333 92.666 -159 159.999c-2.66699 5.33301 -4 10.333 -4 15z" />
    <glyph glyph-name="four" unicode="4" horiz-adv-x="1069" 
d="M59 354c0 4 2.33301 9.66699 7 17l700 1011c6 8.66699 12 13 18 13c5.33301 0 9.83301 -1.83301 13.5 -5.5s5.5 -8.16699 5.5 -13.5v-1005h168c12 0 18 -5.66699 18 -17c0 -5.33301 -1.83301 -9.66602 -5.5 -12.999s-7.83398 -5 -12.501 -5h-168v-334
c0 -4.66699 -1.83301 -8.83398 -5.5 -12.501s-8.16699 -5.5 -13.5 -5.5s-9.66602 1.66699 -12.999 5s-5 7.66602 -5 12.999v334h-688c-5.33301 0 -9.83301 1.83301 -13.5 5.5s-5.5 7.83398 -5.5 12.501zM113 371h653v948z" />
    <glyph glyph-name="five" unicode="5" horiz-adv-x="1126" 
d="M113 238c0 10.667 5.33301 15.999 16 15.999c6.66699 0 12 -4 16 -12c80.667 -158.667 218.667 -238 414 -238c122 0 220.833 36.333 296.5 109s113.5 179 113.5 319c0 136 -37.833 239.333 -113.5 310s-174.5 106 -296.5 106c-80.667 0 -149 -11.667 -205 -35
s-111.333 -64.333 -166 -123c-5.33301 -5.33301 -11.333 -8 -18 -8c-6 0 -11.333 2 -16 6s-7 9.66699 -7 17c0 0.666992 1 6 3 16l122 635c2.66699 14.667 11.667 22 27 22h641c10.667 0 16 -5.33301 16 -16s-5.33301 -16 -16 -16h-635l-119 -615
c86.667 100 211 150 373 150c137.333 0 246.5 -39.333 327.5 -118s121.5 -189 121.5 -331c0 -152 -40.833 -266.833 -122.5 -344.5s-190.5 -116.5 -326.5 -116.5c-208.667 0 -356.667 85.333 -444 256c-1.33301 2.66699 -2 6.33398 -2 11.001z" />
    <glyph glyph-name="six" unicode="6" horiz-adv-x="1159" 
d="M123 655c0 261.333 40.4961 451.998 121.496 571.998s204.167 180 369.5 180c72.667 0 137.334 -10.667 194.001 -32s99.334 -46.333 128.001 -75c5.33301 -5.33301 8 -10.666 8 -15.999c0 -10.667 -5.33301 -16 -16 -16c-6 0 -11.667 2.66699 -17 8
c-73.333 65.333 -172.333 98 -297 98c-304 0 -456 -228 -456 -684v-94c39.333 79.333 94.333 143.5 165 192.5s157 73.5 259 73.5c139.333 0 249.833 -38 331.5 -114s122.5 -185.333 122.5 -328c0 -152.667 -40.167 -265.667 -120.5 -339s-191.5 -110 -333.5 -110
c-79.333 0 -148.666 16 -207.999 48s-107.166 78.333 -143.499 139s-63.333 132.334 -81 215.001s-26.5 176.667 -26.5 282zM165.996 552.998c0 -60.667 4.83105 -117.501 14.498 -170.501s25.167 -103 46.5 -150s47.833 -87.167 79.5 -120.5s71 -59.666 118 -78.999
s99.5 -29 157.5 -29c128.667 0 230.334 33 305.001 99s112 171.667 112 317c0 92 -18 169 -54 231s-84.667 107.167 -146 135.5s-133.666 42.5 -216.999 42.5c-184 0 -322.667 -92 -416 -276z" />
    <glyph glyph-name="seven" unicode="7" horiz-adv-x="983" 
d="M70 1362c0 10.667 5.33203 15.9971 15.999 15.9971h813c10.667 0 16 -5.33301 16 -16c0 -60.667 -11.167 -119.667 -33.5 -177s-51.333 -110.333 -87 -159s-75.167 -98.334 -118.5 -149.001s-86.666 -105.5 -129.999 -164.5s-82.833 -121.333 -118.5 -187
s-64.667 -143.667 -87 -234s-33.5 -186.833 -33.5 -289.5c0 -5.33301 -1.83301 -9.66602 -5.5 -12.999s-7.83398 -5 -12.501 -5c-5.33301 0 -9.83301 1.83301 -13.5 5.5s-5.5 7.83398 -5.5 12.501c0 81.333 7 159 21 233s32.667 140 56 198s50.333 113.333 81 166
s62.834 100.834 96.501 144.501l100.5 126.5l96 118.5c30.667 38.333 57.667 76 81 113s42 76.333 56 118s21 83.834 21 126.501h-793c-10.667 0 -16 5.33301 -16 16z" />
    <glyph glyph-name="eight" unicode="8" horiz-adv-x="1126" 
d="M106 367c0 106.667 28 193 84 259s134.667 108 236 126c-74.667 16 -135.667 51.667 -183 107s-71 125.333 -71 210c0 108.667 35.333 192.167 106 250.5s165.667 87.5 285 87.5s214.333 -29.167 285 -87.5s106 -141.833 106 -250.5c0 -84.667 -23.667 -154.667 -71 -210
s-108.333 -91 -183 -107c101.333 -18 180 -60 236 -126s84 -152.333 84 -259c0 -130 -40.333 -228.5 -121 -295.5s-192.667 -100.5 -336 -100.5s-255.333 33.5 -336 100.5s-121 165.5 -121 295.5zM143 367c0 -118.667 38 -208.834 114 -270.501s178 -92.5 306 -92.5
s230 30.833 306 92.5s114 151.834 114 270.501c0 121.333 -36.5 212.666 -109.5 273.999s-176.5 92 -310.5 92s-237.5 -30.667 -310.5 -92s-109.5 -152.666 -109.5 -273.999zM209 1069c0 -96.667 32.3311 -171.334 96.998 -224.001s150.334 -79 257.001 -79
s192.5 26.333 257.5 79s97.5 127.334 97.5 224.001c0 99.333 -31.833 175 -95.5 227s-150.167 78 -259.5 78s-195.666 -26 -258.999 -78s-95 -127.667 -95 -227z" />
    <glyph glyph-name="nine" unicode="9" horiz-adv-x="1159" 
d="M123 958c0 152.667 40.168 265.669 120.501 339.002s191.833 110 334.5 110c79.333 0 148.5 -16 207.5 -48s106.667 -78.333 143 -139s63.333 -132.334 81 -215.001s26.5 -176.667 26.5 -282c0 -261.333 -40.5 -452 -121.5 -572s-204.167 -180 -369.5 -180
c-72.667 0 -137.334 10.667 -194.001 32s-99.334 46.333 -128.001 75c-5.33301 5.33301 -8 10.666 -8 15.999c0 4.66699 1.66699 8.66699 5 12s7 5 11 5c5.33301 0 11 -3 17 -9c73.333 -65.333 172.333 -98 297 -98c304 0 456 228 456 684v94
c-39.333 -79.333 -94.166 -143.5 -164.499 -192.5s-156.5 -73.5 -258.5 -73.5c-139.333 0 -250 38.167 -332 114.5s-123 185.5 -123 327.5zM160.001 958.002c0 -136 37.667 -238.165 113 -306.498s177 -102.5 305 -102.5c183.333 0 321.666 92 414.999 276
c0 76 -7.83301 146.167 -23.5 210.5s-39.5 122.333 -71.5 174s-75.167 92 -129.5 121s-117.833 43.5 -190.5 43.5c-62 0 -117.667 -7.5 -167 -22.5s-93.166 -38.333 -131.499 -70s-67.833 -74.834 -88.5 -129.501s-31 -119.334 -31 -194.001z" />
    <glyph glyph-name="colon" unicode=":" horiz-adv-x="288" 
d="M109 23c0 26.667 11.333 40 34 40c23.333 0 35 -13.333 35 -40c0 -26 -11.667 -39 -35 -39c-22.667 0 -34 13 -34 39zM109 893c0 27.333 11.333 41 34 41c23.333 0 35 -13.667 35 -41c0 -26 -11.667 -39 -35 -39c-22.667 0 -34 13 -34 39z" />
    <glyph glyph-name="semicolon" unicode=";" horiz-adv-x="288" 
d="M96 -203c0 3.33301 1.33301 7.66602 4 12.999c19.333 30 29 65.333 29 106c0 20 -3.33301 40.167 -10 60.5s-10 35.833 -10 46.5c0 26.667 11.333 40 34 40c23.333 0 35 -15.667 35 -47c0 -41.333 -5 -82.833 -15 -124.5s-23.333 -74.5 -40 -98.5
c-3.33301 -5.33301 -8 -8 -14 -8c-3.33301 0 -6.33301 1.33301 -9 4s-4 5.33398 -4 8.00098zM109 893c0 27.333 11.333 41 34 41c23.333 0 35 -13.667 35 -41c0 -26 -11.667 -39 -35 -39c-22.667 0 -34 13 -34 39z" />
    <glyph glyph-name="less" unicode="&#x3c;" horiz-adv-x="704" 
d="M23 481c0 6.66699 3.33301 12.333 10 17l618 491c4 2.66699 8.33301 4 13 4c10.667 0 16 -5.33301 16 -16c0 -6 -2.66699 -10.667 -8 -14l-604 -482l604 -481c5.33301 -3.33301 8 -8 8 -14c0 -4 -1.5 -7.83301 -4.5 -11.5s-6.83301 -5.5 -11.5 -5.5s-9 1.33301 -13 4
l-618 492c-6.66699 4.66699 -10 10 -10 16z" />
    <glyph glyph-name="equal" unicode="=" horiz-adv-x="909" 
d="M0 291c0 10.667 5.33301 16 16 16h877c10.667 0 16 -5.33301 16 -16c0 -4 -1.5 -7.83301 -4.5 -11.5s-6.83301 -5.5 -11.5 -5.5h-877c-4.66699 0 -8.5 1.83301 -11.5 5.5s-4.5 7.5 -4.5 11.5zM0 604c0 4 1.5 7.83301 4.5 11.5s6.83301 5.5 11.5 5.5h877
c4.66699 0 8.5 -1.83301 11.5 -5.5s4.5 -7.5 4.5 -11.5c0 -10.667 -5.33301 -16 -16 -16h-877c-10.667 0 -16 5.33301 -16 16z" />
    <glyph glyph-name="greater" unicode="&#x3e;" horiz-adv-x="704" 
d="M25 -14c0 6 2.66699 10.668 8 14.001l604 481l-604 482c-5.33301 3.33301 -8 8 -8 14c0 10.667 5.33301 16 16 16c4 0 8 -1.33301 12 -4l619 -491c6.66699 -4.66699 10 -10.334 10 -17.001c0 -6 -3.33301 -11.333 -10 -16l-619 -492c-4 -2.66699 -8 -4 -12 -4
c-4.66699 0 -8.5 1.83301 -11.5 5.5s-4.5 7.5 -4.5 11.5z" />
    <glyph glyph-name="question" unicode="?" horiz-adv-x="944" 
d="M94 1051c0 112 30.333 199.333 91 262s153.334 94 278.001 94c121.333 0 215.833 -31.667 283.5 -95s101.5 -149 101.5 -257c0 -54.667 -8.5 -104.667 -25.5 -150s-39 -83.166 -66 -113.499s-56.833 -58.333 -89.5 -84s-65.167 -49.5 -97.5 -71.5s-62 -44 -89 -66
s-49 -47.667 -66 -77s-25.5 -61.333 -25.5 -96c0 -52 17 -95 51 -129c6 -6 9 -12 9 -18c0 -5.33301 -1.83301 -9.83301 -5.5 -13.5s-8.16699 -5.5 -13.5 -5.5c-4.66699 0 -10.667 3.66699 -18 11c-40 40 -60 91.667 -60 155c0 38 8.5 73 25.5 105s39 59.667 66 83
s56.833 46.166 89.5 68.499s65.167 46.166 97.5 71.499s62 52.333 89 81s49 64.334 66 107.001s25.5 90 25.5 142c0 96.667 -30 174 -90 232s-146 87 -258 87s-195.333 -27.833 -250 -83.5s-82 -135.5 -82 -239.5c0 -5.33301 -1.83301 -9.83301 -5.5 -13.5
s-7.83398 -5.5 -12.501 -5.5s-9 2 -13 6s-6 8.33301 -6 13zM379 23c0 26.667 11.667 40 35 40s35 -13.333 35 -40c0 -26 -11.667 -39 -35 -39s-35 13 -35 39z" />
    <glyph glyph-name="at" unicode="@" horiz-adv-x="1642" 
d="M92 352c0 246 62.6621 431.504 187.995 556.504s305 187.5 539 187.5c108 0 206.167 -14.5 294.5 -43.5s165 -71.833 230 -128.5s115.333 -129.667 151 -219s53.5 -191.333 53.5 -306c0 -38.667 -2.66699 -76 -8 -112s-15.5 -73.5 -30.5 -112.5
s-34.167 -72.833 -57.5 -101.5s-54.833 -52.167 -94.5 -70.5s-85.167 -27.5 -136.5 -27.5c-48 0 -90 10.833 -126 32.5s-58.333 52.5 -67 92.5c-46.667 -83.333 -132 -125 -256 -125c-91.333 0 -160.166 20.167 -206.499 60.5s-69.5 91.833 -69.5 154.5
c0 70.667 26.167 124.334 78.5 161.001s127.833 55 226.5 55h219v106c0 59.333 -20.333 105.833 -61 139.5s-94.667 50.5 -162 50.5c-87.333 0 -153.666 -30.667 -198.999 -92c-5.33301 -6.66699 -11.333 -10 -18 -10c-10 0 -15 4.66699 -15 14c0 5.33301 2 11 6 17
c46.667 69.333 122 104 226 104c34.667 0 66.834 -4.33301 96.501 -13s57 -22 82 -40s44.5 -42.667 58.5 -74s21 -68 21 -110v-353c0 -47.333 15.833 -82 47.5 -104s71.167 -33 118.5 -33s88.833 8.5 124.5 25.5s63.834 38.667 84.501 65s37.5 57.5 50.5 93.5
s21.667 70.5 26 103.5s6.5 67.5 6.5 103.5c0 111.333 -16.667 209.666 -50 294.999s-80.666 154.666 -141.999 207.999s-134.166 93.5 -218.499 120.5s-178.833 40.5 -283.5 40.5c-225.333 0 -396.666 -60 -513.999 -180s-176 -297 -176 -531
c0 -121.333 16 -227.333 48 -318s78.167 -164.334 138.5 -221.001s132.5 -99 216.5 -127s179.667 -42 287 -42c207.333 0 370.666 44.333 489.999 133c7.33301 5.33301 14 8 20 8c4 0 7.83301 -1.5 11.5 -4.5s5.5 -6.83301 5.5 -11.5c0 -8 -5.66699 -15.667 -17 -23
c-70.667 -50.667 -144.834 -85.834 -222.501 -105.501s-173.5 -29.5 -287.5 -29.5c-230.667 0 -409.5 61.667 -536.5 185s-190.5 308.666 -190.5 555.999zM531.995 190.004c0 -52.667 19.332 -96.167 57.999 -130.5s99.334 -51.5 182.001 -51.5
c84.667 0 147.167 17.5 187.5 52.5s60.5 79.833 60.5 134.5v176h-219c-88.667 0 -155.667 -15.667 -201 -47s-68 -76 -68 -134z" />
    <glyph glyph-name="A" unicode="A" horiz-adv-x="1236" 
d="M63 0c0 2.66699 0.999023 6 2.99902 10l538 1374c2.66699 7.33301 7.33398 11 14.001 11c7.33301 0 12.333 -3.66699 15 -11l538 -1374c2 -4 3 -7.33301 3 -10c0 -4.66699 -2 -8.5 -6 -11.5s-8.33301 -4.5 -13 -4.5c-8 0 -14 4.66699 -18 14l-179 457h-679l-179 -457
c-4 -9.33301 -10 -14 -18 -14c-4.66699 0 -9 1.5 -13 4.5s-6 6.83301 -6 11.5zM290.999 487h655l-328 842z" />
    <glyph glyph-name="B" unicode="B" horiz-adv-x="1118" 
d="M195 18l-0.00195312 1342c0 5.33301 1.83301 9.66602 5.5 12.999s7.83398 5 12.501 5h356c135.333 0 234 -28.5 296 -85.5s93 -139.833 93 -248.5c0 -48.667 -8 -92.5 -24 -131.5s-37.167 -70.5 -63.5 -94.5s-54.166 -43 -83.499 -57s-59.666 -23.333 -90.999 -28
c92.667 -4 170.5 -37.333 233.5 -100s94.5 -149.334 94.5 -260.001c0 -118.667 -32 -210.5 -96 -275.5s-160.333 -97.5 -289 -97.5h-426c-4.66699 0 -8.83398 1.66699 -12.501 5s-5.5 7.66602 -5.5 12.999zM230.998 33.0029h408c120 0 208.667 29.5 266 88.5
s86 142.833 86 251.5c0 107.333 -31.667 190.5 -95 249.5s-150.333 88.5 -261 88.5h-404v-678zM230.998 743.003h338c108 0 193.833 26.333 257.5 79s95.5 126.667 95.5 222c0 201.333 -117.667 302 -353 302h-338v-603z" />
    <glyph glyph-name="C" unicode="C" horiz-adv-x="1288" 
d="M100 688c0 239.333 52.8301 419 158.497 539s258.5 180 458.5 180c96.667 0 184.834 -18.5 264.501 -55.5s142.834 -88.167 189.501 -153.5c3.33301 -5.33301 5 -9.33301 5 -12c0 -5.33301 -2 -9.83301 -6 -13.5s-8.33301 -5.5 -13 -5.5c-6.66699 0 -12 3 -16 9
c-39.333 58 -97.833 105.5 -175.5 142.5s-160.5 55.5 -248.5 55.5c-190 0 -334.167 -57.667 -432.5 -173s-147.5 -286.333 -147.5 -513c0 -226 49.167 -396.5 147.5 -511.5s242.5 -172.5 432.5 -172.5c88.667 0 173.334 18.5 254.001 55.5s140.667 84.833 180 143.5
c3.33301 5.33301 8.66602 8 15.999 8c5.33301 0 9.83301 -1.83301 13.5 -5.5s5.5 -7.83398 5.5 -12.501s-1.33301 -9 -4 -13c-46 -64.667 -110.667 -115.667 -194 -153s-173.666 -56 -270.999 -56c-200 0 -352.833 59.833 -458.5 179.5s-158.5 298.834 -158.5 537.501z" />
    <glyph glyph-name="D" unicode="D" horiz-adv-x="1234" 
d="M195 18l0.000976562 1342c0 5.33301 1.83301 9.66602 5.5 12.999s7.83398 5 12.501 5h301c100 0 187.5 -12.333 262.5 -37s139.667 -63.834 194 -117.501s95.333 -125.167 123 -214.5s41.5 -196.333 41.5 -321s-13.833 -231.5 -41.5 -320.5s-68.667 -160.167 -123 -213.5
s-118.833 -92.333 -193.5 -117s-162.334 -37 -263.001 -37h-301c-4.66699 0 -8.83398 1.66699 -12.501 5s-5.5 7.66602 -5.5 12.999zM231.001 33.0029l283 -0.000976562c94 0 176.167 11.667 246.5 35s131.166 60.5 182.499 111.5s90 118.833 116 203.5
s39 186.334 39 305.001c0 117.333 -13 218.5 -39 303.5s-64.667 153.333 -116 205s-112.166 89.5 -182.499 113.5s-152.5 36 -246.5 36h-283v-1313z" />
    <glyph glyph-name="E" unicode="E" 
d="M195 18v1342c0 12 5.33301 18 16 18h700c4.66699 0 8.66699 -1.66699 12 -5s5 -7 5 -11s-1.66699 -7.66699 -5 -11s-7.33301 -5 -12 -5h-680v-635h535c4.66699 0 8.5 -1.83301 11.5 -5.5s4.5 -7.5 4.5 -11.5c0 -10.667 -5.33301 -16 -16 -16h-535v-645h705
c4.66699 0 8.5 -1.83301 11.5 -5.5s4.5 -7.5 4.5 -11.5c0 -10.667 -5.33301 -16 -16 -16h-725c-10.667 0 -16 6 -16 18z" />
    <glyph glyph-name="F" unicode="F" 
d="M195 2l0.00195312 1358c0 12 5.33301 18 16 18h700c4.66699 0 8.66699 -1.66699 12 -5s5 -7 5 -11s-1.66699 -7.66699 -5 -11s-7.33301 -5 -12 -5h-680v-656h535c10.667 0 16 -5.33301 16 -16c0 -4 -1.5 -7.83301 -4.5 -11.5s-6.83301 -5.5 -11.5 -5.5h-535v-655
c0 -5.33301 -1.83301 -9.66602 -5.5 -12.999s-7.83398 -5 -12.501 -5s-8.83398 1.66699 -12.501 5s-5.5 7.66602 -5.5 12.999z" />
    <glyph glyph-name="G" unicode="G" horiz-adv-x="1372" 
d="M100 688c0 239.333 52.832 419 158.499 539s258.5 180 458.5 180c96.667 0 184.834 -18.5 264.501 -55.5s142.834 -88.167 189.501 -153.5c3.33301 -5.33301 5 -9.33301 5 -12c0 -5.33301 -2 -9.83301 -6 -13.5s-8.33301 -5.5 -13 -5.5c-6.66699 0 -12 3 -16 9
c-39.333 58 -97.833 105.5 -175.5 142.5s-160.5 55.5 -248.5 55.5c-190 0 -334.167 -57.667 -432.5 -173s-147.5 -286.333 -147.5 -513c0 -226 49.167 -396.5 147.5 -511.5s242.5 -172.5 432.5 -172.5c95.333 0 184.666 21 267.999 63s145.333 95.333 186 160v375h-401
c-10.667 0 -16 5.33301 -16 16c0 4 1.5 7.83301 4.5 11.5s6.83301 5.5 11.5 5.5h410c7.33301 0 13.833 -2.83301 19.5 -8.5s8.5 -11.834 8.5 -18.501v-368c0 -14 -5.33301 -28.333 -16 -43c-50 -68 -117.167 -122.667 -201.5 -164s-175.5 -62 -273.5 -62
c-200 0 -352.833 59.833 -458.5 179.5s-158.5 298.834 -158.5 537.501z" />
    <glyph glyph-name="H" unicode="H" horiz-adv-x="1310" 
d="M195 2l-0.00195312 1374c0 5.33301 1.83301 9.83301 5.5 13.5s7.83398 5.5 12.501 5.5s8.83398 -1.83301 12.501 -5.5s5.5 -8.16699 5.5 -13.5v-649h848v649c0 5.33301 1.83301 9.83301 5.5 13.5s8.16699 5.5 13.5 5.5c4.66699 0 8.83398 -1.83301 12.501 -5.5
s5.5 -8.16699 5.5 -13.5v-1374c0 -5.33301 -1.66699 -9.66602 -5 -12.999s-7.66602 -5 -12.999 -5s-9.83301 1.83301 -13.5 5.5s-5.5 7.83398 -5.5 12.501v692h-848v-692c0 -5.33301 -1.83301 -9.66602 -5.5 -12.999s-7.83398 -5 -12.501 -5s-8.83398 1.66699 -12.501 5
s-5.5 7.66602 -5.5 12.999z" />
    <glyph glyph-name="I" unicode="I" horiz-adv-x="425" 
d="M195 2v1374c0 5.33301 1.83301 9.83301 5.5 13.5s7.83398 5.5 12.501 5.5s8.83398 -1.83301 12.501 -5.5s5.5 -8.16699 5.5 -13.5v-1374c0 -5.33301 -1.83301 -9.66602 -5.5 -12.999s-7.83398 -5 -12.501 -5s-8.83398 1.66699 -12.501 5s-5.5 7.66602 -5.5 12.999z" />
    <glyph glyph-name="J" unicode="J" horiz-adv-x="815" 
d="M55 33c0 4 1.66602 7.66699 4.99902 11s7.33301 5 12 5c4 0 11.333 -2.66699 22 -8c47.333 -23.333 108 -35 182 -35c59.333 0 109.5 9 150.5 27s72.833 44.667 95.5 80s38.667 75 48 119s14 95.667 14 155v989c0 5.33301 1.83301 9.83301 5.5 13.5
s7.83398 5.5 12.501 5.5c5.33301 0 9.83301 -1.83301 13.5 -5.5s5.5 -8.16699 5.5 -13.5v-989c0 -64 -5.5 -120 -16.5 -168s-29.167 -91.333 -54.5 -130s-61 -68 -107 -88s-101.667 -30 -167 -30c-85.333 0 -155.333 15 -210 45c-7.33301 4 -11 9.66699 -11 17z" />
    <glyph glyph-name="K" unicode="K" horiz-adv-x="1107" 
d="M195 2l-0.000976562 1374c0 5.33301 1.83301 9.83301 5.5 13.5s7.83398 5.5 12.501 5.5s8.83398 -1.83301 12.501 -5.5s5.5 -8.16699 5.5 -13.5v-831l732 844c4 4 8.66699 6 14 6c4.66699 0 8.83398 -1.83301 12.501 -5.5s5.5 -8.16699 5.5 -13.5s-2 -10 -6 -14
l-487 -557l563 -791c2.66699 -4 4 -8.66699 4 -14c0 -3.33301 -1.5 -6.83301 -4.5 -10.5s-6.83301 -5.5 -11.5 -5.5c-8 0 -13.667 2.66699 -17 8l-559 784l-246 -284v-490c0 -5.33301 -1.83301 -9.66602 -5.5 -12.999s-7.83398 -5 -12.501 -5s-8.83398 1.66699 -12.501 5
s-5.5 7.66602 -5.5 12.999z" />
    <glyph glyph-name="L" unicode="L" horiz-adv-x="958" 
d="M195 18l-0.00195312 1358c0 5.33301 1.83301 9.83301 5.5 13.5s7.83398 5.5 12.501 5.5s8.83398 -1.83301 12.501 -5.5s5.5 -8.16699 5.5 -13.5v-1343h654c4.66699 0 8.5 -1.83301 11.5 -5.5s4.5 -7.5 4.5 -11.5c0 -10.667 -5.33301 -16 -16 -16h-674
c-10.667 0 -16 6 -16 18z" />
    <glyph glyph-name="M" unicode="M" horiz-adv-x="1562" 
d="M174 2l-0.000976562 1374c0 5.33301 2 9.83301 6 13.5s8.33301 5.5 13 5.5c6 0 10.667 -3 14 -9l563 -1103l561 1099c4.66699 8.66699 11 13 19 13c4.66699 0 8.83398 -1.83301 12.501 -5.5s5.5 -8.16699 5.5 -13.5v-1374c0 -5.33301 -1.66699 -9.66602 -5 -12.999
s-7.66602 -5 -12.999 -5s-9.83301 1.83301 -13.5 5.5s-5.5 7.83398 -5.5 12.501v1294l-540 -1054c-4.66699 -8.66699 -11.667 -13 -21 -13c-8 0 -14 4.33301 -18 13l-541 1054v-1294c0 -5.33301 -1.83301 -9.66602 -5.5 -12.999s-7.83398 -5 -12.501 -5
c-5.33301 0 -9.83301 1.83301 -13.5 5.5s-5.5 7.83398 -5.5 12.501z" />
    <glyph glyph-name="N" unicode="N" horiz-adv-x="1267" 
d="M174 2v1374c0 5.33301 2 9.83301 6 13.5s8.33301 5.5 13 5.5c6 0 11.333 -3.66699 16 -11l848 -1318v1310c0 5.33301 1.83301 9.83301 5.5 13.5s7.83398 5.5 12.501 5.5s9 -1.83301 13 -5.5s6 -8.16699 6 -13.5v-1374c0 -4.66699 -1.83301 -8.83398 -5.5 -12.501
s-8.16699 -5.5 -13.5 -5.5c-7.33301 0 -13.333 3.33301 -18 10l-846 1319v-1311c0 -5.33301 -1.83301 -9.66602 -5.5 -12.999s-7.83398 -5 -12.501 -5c-5.33301 0 -9.83301 1.83301 -13.5 5.5s-5.5 7.83398 -5.5 12.501z" />
    <glyph glyph-name="O" unicode="O" horiz-adv-x="1433" 
d="M100 688c0 239.333 52.833 419 158.5 539s258.5 180 458.5 180s352.667 -60 458 -180s158 -299.667 158 -539c0 -238.667 -52.667 -417.834 -158 -537.501s-258 -179.5 -458 -179.5s-352.833 59.833 -458.5 179.5s-158.5 298.834 -158.5 537.501zM137 688
c0 -226 49.167 -396.5 147.5 -511.5s242.5 -172.5 432.5 -172.5s334 57.5 432 172.5s147 285.5 147 511.5c0 226.667 -49 397.667 -147 513s-242 173 -432 173s-334.167 -57.667 -432.5 -173s-147.5 -286.333 -147.5 -513z" />
    <glyph glyph-name="P" unicode="P" horiz-adv-x="1093" 
d="M195 2l0.000976562 1358c0 5.33301 1.83301 9.66602 5.5 12.999s7.83398 5 12.501 5h414c112 0 201 -32.667 267 -98s99 -161 99 -287c0 -124.667 -33 -220 -99 -286s-155 -99 -267 -99h-396v-606c0 -5.33301 -1.83301 -9.66602 -5.5 -12.999s-7.83398 -5 -12.501 -5
s-8.83398 1.66699 -12.501 5s-5.5 7.66602 -5.5 12.999zM231.001 641.001h396c102.667 0 183.167 31.667 241.5 95s87.5 149 87.5 257c0 110 -28.833 196.333 -86.5 259s-138.5 94 -242.5 94h-396v-705z" />
    <glyph glyph-name="Q" unicode="Q" horiz-adv-x="1433" 
d="M100 688c0 239.333 52.834 418.998 158.501 538.998s258.5 180 458.5 180s352.667 -60 458 -180s158 -299.667 158 -539c0 -202 -37.667 -361.167 -113 -477.5s-185 -189.833 -329 -220.5c46.667 -10 93.667 -30.167 141 -60.5s89.666 -66.166 126.999 -107.499
c5.33301 -5.33301 8 -10.333 8 -15c0 -4 -1.66699 -7.66699 -5 -11s-7 -5 -11 -5s-8.66699 2.66699 -14 8c-107.333 114.667 -227 172 -359 172h-61c-200 0 -352.833 59.833 -458.5 179.5s-158.5 298.834 -158.5 537.501zM137.001 687.998
c0 -226 49.167 -396.5 147.5 -511.5s242.5 -172.5 432.5 -172.5s334 57.5 432 172.5s147 285.5 147 511.5c0 226.667 -49 397.667 -147 513s-242 173 -432 173s-334.167 -57.667 -432.5 -173s-147.5 -286.333 -147.5 -513z" />
    <glyph glyph-name="R" unicode="R" horiz-adv-x="1114" 
d="M195 2v1358c0 5.33301 1.83301 9.66602 5.5 12.999s7.83398 5 12.501 5h420c108 0 197.5 -35.667 268.5 -107s106.5 -159.666 106.5 -264.999s-35.5 -193.833 -106.5 -265.5s-160.5 -107.5 -268.5 -107.5h-43l75.5 -103.5l145 -200.5l163 -225
c43 -59.333 63.833 -88 62.5 -86c4 -5.33301 6 -10.666 6 -15.999c0 -4.66699 -1.66699 -8.83398 -5 -12.501s-7.66602 -5.5 -12.999 -5.5c-7.33301 0 -13.333 3.33301 -18 10l-457 639h-318v-631c0 -5.33301 -1.83301 -9.66602 -5.5 -12.999s-7.83398 -5 -12.501 -5
s-8.83398 1.66699 -12.501 5s-5.5 7.66602 -5.5 12.999zM231 666h402c100.667 0 182.167 33.167 244.5 99.5s93.5 146.5 93.5 240.5s-31.167 174.167 -93.5 240.5s-143.833 99.5 -244.5 99.5h-402v-680z" />
    <glyph glyph-name="S" unicode="S" horiz-adv-x="1116" 
d="M82 225c0 5.33301 1.8291 9.83691 5.49609 13.5039s7.83398 5.5 12.501 5.5c7.33301 0 14.333 -5.66699 21 -17c40 -66.667 95 -120.5 165 -161.5s153.667 -61.5 251 -61.5c140.667 0 246.834 30.167 318.501 90.5s107.5 146.166 107.5 257.499
c0 60 -15 112.167 -45 156.5s-68.833 79.666 -116.5 105.999s-100.5 50.166 -158.5 71.499l-173.5 64c-57.667 21.333 -110.334 44.833 -158.001 70.5s-86.5 60.167 -116.5 103.5s-45 94.333 -45 153c0 46 7.5 88.167 22.5 126.5s37.833 73 68.5 104s72.667 55.333 126 73
s115.333 26.5 186 26.5c95.333 0 176.166 -16.667 242.499 -50s123.5 -83 171.5 -149c2.66699 -4 4 -8 4 -12c0 -4.66699 -1.83301 -8.5 -5.5 -11.5s-7.5 -4.5 -11.5 -4.5c-7.33301 0 -12.666 2.66699 -15.999 8c-82.667 124 -211 186 -385 186
c-67.333 0 -125.666 -8.5 -174.999 -25.5s-87.5 -40.167 -114.5 -69.5s-46.667 -60.666 -59 -93.999s-18.5 -69.333 -18.5 -108c0 -42.667 9.33301 -80.834 28 -114.501s43.667 -61.834 75 -84.501s67.333 -43.167 108 -61.5s83.5 -35.333 128.5 -51l134.5 -47.5
c44.667 -16 87.334 -34.833 128.001 -56.5s76.667 -45.834 108 -72.501s56.333 -60.167 75 -100.5s28 -85.833 28 -136.5c0 -121.333 -38.833 -215.166 -116.5 -281.499s-192.834 -99.5 -345.501 -99.5c-105.333 0 -195.166 21.667 -269.499 65
s-134.166 100.333 -179.499 171c-4 6 -6 12 -6 18z" />
    <glyph glyph-name="T" unicode="T" horiz-adv-x="1101" 
d="M78 1362c0 10.667 5.33398 15.998 16.001 15.998h914c10.667 0 16 -5.33301 16 -16s-5.33301 -16 -16 -16h-439v-1344c0 -5.33301 -1.83301 -9.66602 -5.5 -12.999s-7.83398 -5 -12.501 -5c-5.33301 0 -9.83301 1.83301 -13.5 5.5s-5.5 7.83398 -5.5 12.501v1344h-438
c-10.667 0 -16 5.33301 -16 16z" />
    <glyph glyph-name="U" unicode="U" horiz-adv-x="1280" 
d="M195 381l-0.00292969 994.999c0 5.33301 1.83301 9.83301 5.5 13.5s7.83398 5.5 12.501 5.5s8.83398 -1.83301 12.501 -5.5s5.5 -8.16699 5.5 -13.5v-995c0 -44 3.33301 -83.5 10 -118.5s19.5 -69.167 38.5 -102.5s43.833 -61 74.5 -83s71.334 -39.667 122.001 -53
s109.667 -20 177 -20s126.166 6.66699 176.499 20s90.5 31 120.5 53s54.167 49.833 72.5 83.5s30.666 67.834 36.999 102.501s9.5 74 9.5 118v995c0 5.33301 1.83301 9.83301 5.5 13.5s7.83398 5.5 12.501 5.5s9 -1.83301 13 -5.5s6 -8.16699 6 -13.5v-995
c0 -46.667 -3.5 -88.834 -10.5 -126.501s-20.5 -74.667 -40.5 -111s-46.5 -66.666 -79.5 -90.999s-76.667 -44 -131 -59s-118.166 -22.5 -191.499 -22.5s-137.333 7.5 -192 22.5s-98.667 34.667 -132 59s-60.333 54.666 -81 90.999s-34.667 73.333 -42 111
s-11 79.834 -11 126.501z" />
    <glyph glyph-name="V" unicode="V" horiz-adv-x="1179" 
d="M61 1376c0 5.33301 1.83496 9.83398 5.50195 13.501s8.16699 5.5 13.5 5.5c8.66699 0 14.667 -5 18 -15l492 -1337l491 1337c3.33301 10 9.66602 15 18.999 15c4.66699 0 8.83398 -1.83301 12.501 -5.5s5.5 -8.16699 5.5 -13.5c0 -1.33301 -1.33301 -6 -4 -14l-506 -1364
c-4 -9.33301 -10 -14 -18 -14c-8.66699 0 -15 4.66699 -19 14l-505 1364c-0.666992 1.33301 -1.33398 3 -2.00098 5s-1.33398 3.66699 -2.00098 5s-1 2.66602 -1 3.99902z" />
    <glyph glyph-name="W" unicode="W" horiz-adv-x="1691" 
d="M63 1376c0 5.33301 1.83301 9.83203 5.5 13.499s8.16699 5.5 13.5 5.5c10 0 16 -5.66699 18 -17l361 -1329l366 1331c2.66699 10 9 15 19 15c9.33301 0 15.333 -5 18 -15l367 -1331l360 1329c2 11.333 8.33301 17 19 17c4.66699 0 8.83398 -1.83301 12.501 -5.5
s5.5 -8.16699 5.5 -13.5c0 -2.66699 -0.666992 -6.66699 -2 -12l-377 -1366c-2 -9.33301 -8 -14 -18 -14c-8.66699 0 -15 4.66699 -19 14l-366 1321l-367 -1321c-4 -9.33301 -10 -14 -18 -14c-10.667 0 -17 4.66699 -19 14l-376 1366
c-0.666992 2 -1.33398 4.33301 -2.00098 7s-1 4.33398 -1 5.00098z" />
    <glyph glyph-name="X" unicode="X" horiz-adv-x="995" 
d="M27 2c0 4 1.33301 8.00195 4 12.002l446 695l-420 655c-2.66699 4 -4 8 -4 12c0 5.33301 1.83301 9.83301 5.5 13.5s8.16699 5.5 13.5 5.5c6.66699 0 12.667 -4.33301 18 -13l408 -639l407 639c5.33301 8.66699 11.666 13 18.999 13
c4.66699 0 8.83398 -1.83301 12.501 -5.5s5.5 -8.16699 5.5 -13.5c0 -4 -1.33301 -8 -4 -12l-420 -655l447 -695c2.66699 -4 4 -8 4 -12c0 -4.66699 -1.83301 -8.83398 -5.5 -12.501s-8.16699 -5.5 -13.5 -5.5s-10.666 3.33301 -15.999 10l-436 678l-437 -678
c-4.66699 -6.66699 -10 -10 -16 -10c-4.66699 0 -8.83398 1.66699 -12.501 5s-5.5 7.66602 -5.5 12.999z" />
    <glyph glyph-name="Y" unicode="Y" 
d="M57 1376c0 5.33301 1.83008 9.83496 5.49707 13.502s8.16699 5.5 13.5 5.5c6 0 11.333 -3.66699 16 -11l428 -679l428 679c4.66699 7.33301 10.334 11 17.001 11c4.66699 0 8.83398 -1.83301 12.501 -5.5s5.5 -8.16699 5.5 -13.5c0 -4 -1.33301 -8 -4 -12l-440 -698v-664
c0 -4.66699 -1.83301 -8.83398 -5.5 -12.501s-8.16699 -5.5 -13.5 -5.5s-9.66602 1.66699 -12.999 5s-5 7.66602 -5 12.999v664l-441 698c-2.66699 4 -4 8 -4 12z" />
    <glyph glyph-name="Z" unicode="Z" horiz-adv-x="1017" 
d="M33 16c0 5.33301 2 11 6 17l856 1313h-799c-10.667 0 -16 5.33301 -16 16s5.33301 16 16 16h832c10.667 0 16 -5.33301 16 -16c0 -3.33301 -2 -8 -6 -14l-854 -1315h877c4.66699 0 8.5 -1.83301 11.5 -5.5s4.5 -7.5 4.5 -11.5c0 -10.667 -5.33301 -16 -16 -16h-912
c-10.667 -0 -16 5.33301 -16 16z" />
    <glyph glyph-name="bracketleft" unicode="[" horiz-adv-x="477" 
d="M154 -281v1774c0 4.66699 1.66699 8.83398 5 12.501s7.66602 5.5 12.999 5.5h172c10.667 0 16 -5.33301 16 -16s-5.33301 -16 -16 -16h-154v-1745h154c4.66699 0 8.5 -1.83301 11.5 -5.5s4.5 -7.5 4.5 -11.5c0 -10.667 -5.33301 -16 -16 -16h-172
c-5.33301 0 -9.66602 1.83301 -12.999 5.5s-5 7.83398 -5 12.501z" />
    <glyph glyph-name="backslash" unicode="\" horiz-adv-x="833" 
d="M117 1520c0 5.33301 1.83301 9.66699 5.5 13s7.83398 5 12.501 5c9.33301 0 15.666 -4.66699 18.999 -14l561 -1690c2.66699 -8 4 -13.333 4 -16c0 -5.33301 -1.83301 -9.83301 -5.5 -13.5s-8.16699 -5.5 -13.5 -5.5c-8.66699 0 -14.667 5 -18 15l-561 1689
c-2.66699 8 -4 13.667 -4 17z" />
    <glyph glyph-name="bracketright" unicode="]" horiz-adv-x="479" 
d="M117 -283c0 4 1.5 7.83496 4.5 11.502s6.83301 5.5 11.5 5.5h154v1745h-154c-10.667 0 -16 5.33301 -16 16s5.33301 16 16 16h172c5.33301 0 9.83301 -1.83301 13.5 -5.5s5.5 -7.83398 5.5 -12.501v-1774c0 -4.66699 -1.83301 -8.83398 -5.5 -12.501
s-8.16699 -5.5 -13.5 -5.5h-172c-10.667 0 -16 5.33301 -16 16z" />
    <glyph glyph-name="asciicircum" unicode="^" horiz-adv-x="958" 
d="M90 770c0 4 2.00098 9.33301 6.00098 16l361 615c5.33301 9.33301 12.666 14 21.999 14c10 0 17.667 -4.66699 23 -14l360 -615c4 -6.66699 6 -12 6 -16c0 -9.33301 -4.66699 -14 -14 -14c-6 0 -10.667 2.66699 -14 8l-361 614l-360 -614
c-3.33301 -5.33301 -8.33301 -8 -15 -8c-9.33301 0 -14 4.66699 -14 14z" />
    <glyph glyph-name="underscore" unicode="_" horiz-adv-x="831" 
d="M-33 -141c0 4 1.66699 7.66699 5 11s7.33301 5 12 5h864c10.667 0 16 -5.33301 16 -16c0 -4 -1.5 -7.83301 -4.5 -11.5s-6.83301 -5.5 -11.5 -5.5h-864c-4.66699 0 -8.66699 1.83301 -12 5.5s-5 7.5 -5 11.5z" />
    <glyph glyph-name="grave" unicode="`" horiz-adv-x="757" 
d="M264 1309c-11.333 11.333 -11.332 21.999 0.000976562 31.999c11.333 9.33301 21.666 8 30.999 -4l207 -243c6.66699 -6.66699 6.66699 -13.667 0 -21c-7.33301 -5.33301 -14.333 -4.66602 -21 2.00098z" />
    <glyph glyph-name="a" unicode="a" horiz-adv-x="946" 
d="M82 254c0 88.667 31.001 156.832 93.001 204.499s145.667 71.5 251 71.5h342v107c0 92 -27 163.167 -81 213.5s-128.667 75.5 -224 75.5c-137.333 0 -235 -49.333 -293 -148c-4 -8 -10 -12 -18 -12c-4 0 -7.83301 1.66699 -11.5 5s-5.5 7 -5.5 11c0 5.33301 2 11 6 17
c65.333 106 172.666 159 321.999 159c110.667 0 195 -28.667 253 -86s87 -135.666 87 -234.999v-635c0 -10.667 -6.33301 -16 -19 -16c-10.667 0 -16 5.33301 -16 16v150c-26.667 -58 -71 -102 -133 -132s-133 -45 -213 -45c-110.667 0 -195 25.5 -253 76.5
s-87 118.5 -87 202.5zM119.001 253.998c0 -76.667 26 -136.834 78 -180.501s127 -65.5 225 -65.5c46 0 89.167 5.5 129.5 16.5s77 27.167 110 48.5s59 50 78 86s28.5 77.333 28.5 124v217h-342c-92.667 0 -167 -21.667 -223 -65s-84 -103.666 -84 -180.999z" />
    <glyph glyph-name="b" unicode="b" horiz-adv-x="1034" 
d="M164 371v1069c0 5.33301 1.66699 9.66602 5 12.999s7.66602 5 12.999 5s9.83301 -1.83301 13.5 -5.5s5.5 -7.83398 5.5 -12.501v-686l11.5 22c5 9.33301 17.333 25.666 37 48.999s41.667 44 66 62s57.833 34.333 100.5 49s88.334 22 137.001 22
c131.333 0 229 -40 293 -120s96 -203.667 96 -371s-32 -291.5 -96 -372.5s-161.667 -121.5 -293 -121.5c-118.667 0 -213.167 34 -283.5 102s-105.5 166.667 -105.5 296zM201 371.003c0 -117.333 31.668 -207.5 95.001 -270.5s149 -94.5 257 -94.5
c234.667 0 352 153.667 352 461c0 306 -117.333 459 -352 459c-36.667 0 -71.334 -4.33301 -104.001 -13s-60.5 -20.167 -83.5 -34.5s-44.167 -30 -63.5 -47s-35 -34 -47 -51s-22.333 -32.667 -31 -47s-14.667 -25.833 -18 -34.5l-5 -13v-315z" />
    <glyph glyph-name="c" unicode="c" horiz-adv-x="907" 
d="M92 465c0 165.333 34.667 288.832 104 370.499s170.666 122.5 303.999 122.5c72.667 0 132.834 -11.5 180.501 -34.5s83.5 -48.167 107.5 -75.5c6 -6 9 -10.667 9 -14c0 -4 -1.66699 -7.83301 -5 -11.5s-7.33301 -5.5 -12 -5.5c-5.33301 0 -10 2 -14 6
c-68.667 68.667 -157.334 103 -266.001 103c-247.333 0 -371 -153.667 -371 -461c0 -306 123.667 -459 371 -459c100.667 0 194 34.333 280 103c6 4 11 6 15 6c4.66699 0 8.5 -1.83301 11.5 -5.5s4.5 -7.5 4.5 -11.5c0 -5.33301 -3.33301 -10.666 -10 -15.999
c-91.333 -72.667 -191.666 -109 -300.999 -109c-272 0 -408 164 -408 492z" />
    <glyph glyph-name="d" unicode="d" horiz-adv-x="1024" 
d="M92 467c0 167.333 32.0049 291 96.0049 371s161.667 120 293 120c48.667 0 94.167 -7 136.5 -21s76.166 -31 101.499 -51s47.166 -40 65.499 -60s31.166 -37 38.499 -51l11 -21v686c0 5.33301 1.66699 9.66602 5 12.999s7.66602 5 12.999 5s9.66602 -1.66699 12.999 -5
s5 -7.66602 5 -12.999v-1069c0 -129.333 -35.167 -228 -105.5 -296s-164.833 -102 -283.5 -102c-131.333 0 -229 40.5 -293 121.5s-96 205.167 -96 372.5zM129.005 467c0 -307.333 117.334 -461.001 352.001 -461.001c108 0 193.833 31.5 257.5 94.5
s95.5 153.167 95.5 270.5v315l-5.5 13.5c-2.33301 5.66699 -8.16602 16.834 -17.499 33.501s-19.833 32.5 -31.5 47.5s-27.5 31.833 -47.5 50.5s-41.333 34.667 -64 48s-50.334 24.5 -83.001 33.5s-67.334 13.5 -104.001 13.5c-234.667 0 -352 -153 -352 -459z" />
    <glyph glyph-name="e" unicode="e" horiz-adv-x="954" 
d="M92 467c0 327.333 136.001 490.999 408.001 490.999c64.667 0 121 -9.5 169 -28.5s84.667 -42 110 -69s45.5 -59.667 60.5 -98s24.5 -72.166 28.5 -101.499s6 -60.666 6 -93.999c0 -28.667 -2 -55.334 -6 -80.001c-3.33301 -16 -14 -24 -32 -24h-707
c0 -304.667 123.667 -457 371 -457c116 0 219.667 33.333 311 100c8.66699 6 14 9 16 9c4 0 7.83301 -1.66699 11.5 -5s5.5 -7.33301 5.5 -12c0 -4 -2 -8 -6 -12c-92.667 -75.333 -205.334 -113 -338.001 -113c-272 0 -408 164.667 -408 494zM131.001 495.999
l706.999 -0.000976562c1.33301 36.667 2 60.334 2 71.001c0 36 -2.66699 69.667 -8 101s-15.5 63.333 -30.5 96s-34.667 60.5 -59 83.5s-57.166 41.833 -98.499 56.5s-89.333 22 -144 22c-122 0 -214 -36.833 -276 -110.5s-93 -180.167 -93 -319.5z" />
    <glyph glyph-name="f" unicode="f" horiz-adv-x="561" 
d="M61 913c0 4 1.83496 7.83398 5.50195 11.501s7.5 5.5 11.5 5.5h129v131c0 104 27.5 187 82.5 249s136.833 93 245.5 93c4.66699 0 8.5 -1.83301 11.5 -5.5s4.5 -7.5 4.5 -11.5c0 -10.667 -5.33301 -16 -16 -16c-96.667 0 -169.334 -26.667 -218.001 -80
s-73 -129.666 -73 -228.999v-131h254c4 0 7.66699 -1.83301 11 -5.5s5 -7.5 5 -11.5s-1.66699 -7.66699 -5 -11s-7 -5 -11 -5h-254v-895c0 -4.66699 -1.83301 -8.83398 -5.5 -12.501s-8.16699 -5.5 -13.5 -5.5c-4.66699 0 -8.83398 1.66699 -12.501 5
s-5.5 7.66602 -5.5 12.999v895h-129c-4 0 -7.83301 1.66699 -11.5 5s-5.5 7 -5.5 11z" />
    <glyph glyph-name="g" unicode="g" horiz-adv-x="954" 
d="M90 -139c0 57.333 19.833 107.665 59.5 150.998s82.834 70 129.501 80c-42 4 -77.833 17 -107.5 39s-44.5 57.667 -44.5 107c0 64.667 33.333 110.334 100 137.001c-66.667 56 -100 140 -100 252c0 103.333 30.5 184.333 91.5 243s147.833 88 260.5 88
c94.667 0 172 -21.667 232 -65c30 83.333 92.667 125 188 125c4 0 7.66699 -1.83301 11 -5.5s5 -7.5 5 -11.5s-1.66699 -7.66699 -5 -11s-7 -5 -11 -5c-44.667 0 -79.834 -8.83301 -105.501 -26.5s-45.167 -46.5 -58.5 -86.5c64 -58 96 -139.667 96 -245
c0 -103.333 -30.5 -184.5 -91.5 -243.5s-147.833 -88.5 -260.5 -88.5c-92.667 0 -167.667 19.667 -225 59c-34.667 -12 -58.667 -27.167 -72 -45.5s-20 -41.833 -20 -70.5c0 -39.333 11.333 -68.666 34 -87.999s60.334 -29 113.001 -29h264
c107.333 0 192.333 -20.5 255 -61.5s94 -104.5 94 -190.5c0 -93.333 -37.5 -163.5 -112.5 -210.5s-176.833 -70.5 -305.5 -70.5c-54.667 0 -105.834 5 -153.501 15s-91.5 25.333 -131.5 46s-71.5 49.167 -94.5 85.5s-34.5 78.5 -34.5 126.5zM127 -139.001
c0 -42.667 10.168 -80.001 30.501 -112.001s48.666 -57 84.999 -75s76.333 -31.333 120 -40s91.5 -13 143.5 -13c114.667 0 206.5 20.5 275.5 61.5s103.5 103.167 103.5 186.5c0 74.667 -27.5 129.834 -82.5 165.501s-131.5 53.5 -229.5 53.5h-202
c-75.333 -10 -134.833 -35.833 -178.5 -77.5s-65.5 -91.5 -65.5 -149.5zM164.001 626.998c0 -90.667 26.667 -163.167 80 -217.5s131.666 -81.5 234.999 -81.5s181.833 27.167 235.5 81.5s80.5 126.833 80.5 217.5s-26.833 163.167 -80.5 217.5s-132.167 81.5 -235.5 81.5
s-181.666 -27.167 -234.999 -81.5s-80 -126.833 -80 -217.5z" />
    <glyph glyph-name="h" unicode="h" horiz-adv-x="1024" 
d="M164 2l-0.00390625 1438c0 5.33301 1.66699 9.66602 5 12.999s7.66602 5 12.999 5s9.83301 -1.83301 13.5 -5.5s5.5 -7.83398 5.5 -12.501v-697c8 24.667 20.333 49 37 73s38 47 64 69s59 39.667 99 53s83.667 20 131 20c56 0 105 -6.66699 147 -20
s75.667 -30.833 101 -52.5s45.666 -48.667 60.999 -81s25.833 -65 31.5 -98s8.5 -69.833 8.5 -110.5v-594c0 -4.66699 -1.83301 -8.83398 -5.5 -12.501s-8.16699 -5.5 -13.5 -5.5s-9.66602 1.66699 -12.999 5s-5 7.66602 -5 12.999v612c0 44.667 -4.66699 84.5 -14 119.5
s-25.166 67.333 -47.499 97s-54.666 52.667 -96.999 69s-93.5 24.5 -153.5 24.5c-53.333 0 -101.666 -9.16699 -144.999 -27.5s-78.166 -42.666 -104.499 -72.999s-46.5 -64.166 -60.5 -101.499s-21 -76 -21 -116v-604c0 -4.66699 -1.83301 -8.83398 -5.5 -12.501
s-8.16699 -5.5 -13.5 -5.5s-9.66602 1.66699 -12.999 5s-5 7.66602 -5 12.999z" />
    <glyph glyph-name="i" unicode="i" horiz-adv-x="364" 
d="M158 1266c0 21.333 8 32 24 32c16.667 0 25 -10.667 25 -32c0 -20.667 -8.33301 -31 -25 -31c-16 0 -24 10.333 -24 31zM164 2v926.004c0 5.33301 1.66699 9.66602 5 12.999s7.66602 5 12.999 5s9.83301 -1.83301 13.5 -5.5s5.5 -7.83398 5.5 -12.501v-926
c0 -4.66699 -1.83301 -8.83398 -5.5 -12.501s-8.16699 -5.5 -13.5 -5.5s-9.66602 1.66699 -12.999 5s-5 7.66602 -5 12.999z" />
    <glyph glyph-name="j" unicode="j" horiz-adv-x="374" 
d="M-66 -395c0 4 1.66602 7.66504 4.99902 10.998s7.33301 5 12 5c68 0 122.167 24.167 162.5 72.5s60.5 110.833 60.5 187.5v1047c0 4.66699 1.83301 8.83398 5.5 12.501s8.16699 5.5 13.5 5.5c4.66699 0 8.83398 -1.66699 12.501 -5s5.5 -7.66602 5.5 -12.999v-1047
c0 -84.667 -23.167 -154.667 -69.5 -210s-109.833 -83 -190.5 -83c-4.66699 0 -8.66699 1.83301 -12 5.5s-5 7.5 -5 11.5zM165.999 1266c0 21.333 8 32 24 32c16.667 0 25 -10.667 25 -32c0 -20.667 -8.33301 -31 -25 -31c-16 0 -24 10.333 -24 31z" />
    <glyph glyph-name="k" unicode="k" horiz-adv-x="888" 
d="M164 2l-0.000976562 1438c0 5.33301 1.66699 9.66602 5 12.999s7.66602 5 12.999 5s9.83301 -1.83301 13.5 -5.5s5.5 -7.83398 5.5 -12.501v-998l594 498c4 4 8.66699 6 14 6c4.66699 0 8.83398 -1.66699 12.501 -5s5.5 -7.66602 5.5 -12.999
c0 -6.66699 -2.66699 -11.667 -8 -15l-422 -354l441 -541c5.33301 -5.33301 8 -10.666 8 -15.999c0 -4.66699 -1.83301 -8.83398 -5.5 -12.501s-8.16699 -5.5 -13.5 -5.5c-6.66699 0 -12 2.66699 -16 8l-442 543l-168 -140v-393c0 -4.66699 -1.83301 -8.83398 -5.5 -12.501
s-8.16699 -5.5 -13.5 -5.5s-9.66602 1.66699 -12.999 5s-5 7.66602 -5 12.999z" />
    <glyph glyph-name="l" unicode="l" horiz-adv-x="405" 
d="M154 205l0.00195312 1235c0 5.33301 1.66699 9.66602 5 12.999s7.66602 5 12.999 5s9.66602 -1.66699 12.999 -5s5 -7.66602 5 -12.999v-1235c0 -63.333 9.16699 -110.666 27.5 -141.999s53.833 -47 106.5 -47c10.667 0 16 -5.33301 16 -16s-5.33301 -16 -16 -16
c-64.667 0 -109.167 18.833 -133.5 56.5s-36.5 92.5 -36.5 164.5z" />
    <glyph glyph-name="m" unicode="m" horiz-adv-x="1654" 
d="M164 2l0.000976562 926.009c0 5.33301 1.66699 9.66602 5 12.999s7.66602 5 12.999 5s9.83301 -1.83301 13.5 -5.5s5.5 -7.83398 5.5 -12.501v-185c8 26 19.333 50.667 34 74s34 46.166 58 68.499s55 40 93 53s80.667 19.5 128 19.5c104 0 183 -21.833 237 -65.5
s86.333 -101.5 97 -173.5c9.33301 41.333 25.833 79.166 49.5 113.499s59.5 63.833 107.5 88.5s104.333 37 169 37c56 0 104.833 -6.66699 146.5 -20s74.834 -30.833 99.501 -52.5s44.5 -48.834 59.5 -81.501s25.167 -65.334 30.5 -98.001s8 -69.334 8 -110.001v-594
c0 -4.66699 -1.83301 -8.83398 -5.5 -12.501s-8.16699 -5.5 -13.5 -5.5c-4.66699 0 -8.83398 1.66699 -12.501 5s-5.5 7.66602 -5.5 12.999v612c0 44.667 -4.5 84.334 -13.5 119.001s-24.333 67.167 -46 97.5s-53.334 53.5 -95.001 69.5s-92.5 24 -152.5 24
c-52.667 0 -99.834 -9.16699 -141.501 -27.5s-74.834 -42.833 -99.501 -73.5s-43.334 -64.5 -56.001 -101.5s-19 -75.5 -19 -115.5v-604c0 -5.33301 -1.66699 -9.66602 -5 -12.999s-7.66602 -5 -12.999 -5s-9.83301 1.83301 -13.5 5.5s-5.5 7.83398 -5.5 12.501v637
c0 38.667 -5 74.167 -15 106.5s-26.167 62.333 -48.5 90s-54.166 49.334 -95.499 65.001s-90.666 23.5 -147.999 23.5c-53.333 0 -100.833 -9.16699 -142.5 -27.5s-74.5 -42.833 -98.5 -73.5s-42 -64.334 -54 -101.001s-18 -75.334 -18 -116.001v-604
c0 -4.66699 -1.83301 -8.83398 -5.5 -12.501s-8.16699 -5.5 -13.5 -5.5s-9.66602 1.66699 -12.999 5s-5 7.66602 -5 12.999z" />
    <glyph glyph-name="n" unicode="n" horiz-adv-x="1024" 
d="M164 2l-0.00390625 926.004c0 5.33301 1.66699 9.66602 5 12.999s7.66602 5 12.999 5s9.83301 -1.83301 13.5 -5.5s5.5 -7.83398 5.5 -12.501v-185c8 25.333 20.333 50 37 74s38 46.833 64 68.5s59 39.167 99 52.5s83.667 20 131 20c56 0 105 -6.66699 147 -20
s75.667 -30.833 101 -52.5s45.666 -48.667 60.999 -81s25.833 -65 31.5 -98s8.5 -69.833 8.5 -110.5v-594c0 -4.66699 -1.83301 -8.83398 -5.5 -12.501s-8.16699 -5.5 -13.5 -5.5s-9.66602 1.66699 -12.999 5s-5 7.66602 -5 12.999v612c0 44.667 -4.66699 84.5 -14 119.5
s-25.166 67.333 -47.499 97s-54.666 52.667 -96.999 69s-93.5 24.5 -153.5 24.5c-53.333 0 -101.666 -9.16699 -144.999 -27.5s-78.166 -42.666 -104.499 -72.999s-46.5 -64.166 -60.5 -101.499s-21 -76 -21 -116v-604c0 -4.66699 -1.83301 -8.83398 -5.5 -12.501
s-8.16699 -5.5 -13.5 -5.5s-9.66602 1.66699 -12.999 5s-5 7.66602 -5 12.999z" />
    <glyph glyph-name="o" unicode="o" horiz-adv-x="999" 
d="M92 465c0 328.667 136 493 408 493c271.333 0 407 -164.333 407 -493c0 -328 -135.667 -492 -407 -492c-272 0 -408 164 -408 492zM129 465c0 -306 123.667 -459.001 371 -459.001c123.333 0 215.833 37.833 277.5 113.5s92.5 190.834 92.5 345.501
c0 156 -30.833 271.833 -92.5 347.5s-154.167 113.5 -277.5 113.5c-247.333 0 -371 -153.667 -371 -461z" />
    <glyph glyph-name="p" unicode="p" horiz-adv-x="1034" 
d="M164 -393l0.000976562 1321c0 5.33301 1.66699 9.66602 5 12.999s7.66602 5 12.999 5s9.83301 -1.83301 13.5 -5.5s5.5 -7.83398 5.5 -12.501v-213c48.667 162 164.667 243 348 243c132 0 230.5 -40.333 295.5 -121s97.5 -204.667 97.5 -372
s-32.5 -291.166 -97.5 -371.499s-163.5 -120.5 -295.5 -120.5c-40 0 -77.167 4.5 -111.5 13.5s-63 20.667 -86 35s-43.833 30.166 -62.5 47.499s-33.167 34.666 -43.5 51.999s-19.166 33.166 -26.499 47.499s-12.333 26.166 -15 35.499l-3 13v-610
c0 -4.66699 -1.83301 -9 -5.5 -13s-8.16699 -6 -13.5 -6c-4.66699 0 -8.83398 1.83301 -12.501 5.5s-5.5 8.16699 -5.5 13.5zM197.001 467.005c0 -152 30 -266.831 90 -344.498s147.333 -116.5 262 -116.5c118 0 206.833 38.667 266.5 116s89.5 191.666 89.5 342.999
c0 307.333 -118.667 461 -356 461c-114.667 0 -202 -38.333 -262 -115s-90 -191.334 -90 -344.001z" />
    <glyph glyph-name="q" unicode="q" horiz-adv-x="1011" 
d="M92 465c0 167.333 32.0029 291.334 96.0029 372.001s161.667 121 293 121c118.667 0 213.167 -33.833 283.5 -101.5s105.5 -166.167 105.5 -295.5v-954c0 -5.33301 -1.83301 -9.83301 -5.5 -13.5s-7.83398 -5.5 -12.501 -5.5s-8.83398 1.83301 -12.501 5.5
s-5.5 8.16699 -5.5 13.5v571l-11.5 -22c-5 -9.33301 -17.5 -25.833 -37.5 -49.5s-42.167 -44.5 -66.5 -62.5s-57.833 -34.333 -100.5 -49s-88.334 -22 -137.001 -22c-131.333 0 -229 40.167 -293 120.5s-96 204.166 -96 371.499zM129.003 465.001
c0 -306 117.335 -459 352.002 -459c36.667 0 71.334 4.33301 104.001 13s60.5 20.167 83.5 34.5s44.167 30 63.5 47s35.166 34 47.499 51s22.666 32.667 30.999 47s14.166 25.833 17.499 34.5l6 13v315c0 117.333 -31.833 207.5 -95.5 270.5s-149.5 94.5 -257.5 94.5
c-234.667 0 -352 -153.667 -352 -461z" />
    <glyph glyph-name="r" unicode="r" horiz-adv-x="579" 
d="M164 2l0.000976562 920.005c0 5.33301 1.66699 9.66602 5 12.999s7.66602 5 12.999 5s9.83301 -1.83301 13.5 -5.5s5.5 -7.83398 5.5 -12.501v-207c6.66699 28 18.334 55.5 35.001 82.5s38.167 52.5 64.5 76.5s59.666 43.333 99.999 58s84.166 22 131.499 22
c4.66699 0 8.66699 -1.66699 12 -5s5 -7 5 -11s-1.66699 -7.66699 -5 -11s-7.33301 -5 -12 -5c-45.333 0 -86.833 -7.16699 -124.5 -21.5s-69 -33.333 -94 -57s-46.167 -50.834 -63.5 -81.501s-29.833 -62.167 -37.5 -94.5s-11.5 -64.5 -11.5 -96.5v-569
c0 -4.66699 -1.83301 -8.83398 -5.5 -12.501s-8.16699 -5.5 -13.5 -5.5s-9.66602 1.66699 -12.999 5s-5 7.66602 -5 12.999z" />
    <glyph glyph-name="s" unicode="s" horiz-adv-x="817" 
d="M63 125c0 4 1.49902 7.66797 4.49902 11.001s7.16699 5 12.5 5c4 0 8.66699 -2.66699 14 -8c82 -84.667 186 -127 312 -127c90 0 160.833 18 212.5 54s77.5 91.667 77.5 167c0 40.667 -10.833 76 -32.5 106s-49.834 53.833 -84.501 71.5s-73 33.667 -115 48l-126 43.5
c-42 14.667 -80.333 31.167 -115 49.5s-62.834 43 -84.501 74s-32.5 67.5 -32.5 109.5c0 75.333 27.167 132.333 81.5 171s125.5 58 213.5 58c65.333 0 124.333 -12.333 177 -37s92.667 -57.334 120 -98.001c2.66699 -4 4 -8 4 -12s-1.66699 -7.66699 -5 -11s-7 -5 -11 -5
c-6 0 -10.667 2.66699 -14 8c-25.333 38 -62 68 -110 90s-101.667 33 -161 33c-79.333 0 -142.166 -16.667 -188.499 -50s-69.5 -82.333 -69.5 -147c0 -38 10.833 -70.833 32.5 -98.5s49.834 -49.834 84.501 -66.501s73 -32 115 -46l126 -44
c42 -15.333 80.333 -32.666 115 -51.999s62.834 -45.5 84.501 -78.5s32.5 -71.833 32.5 -116.5c0 -86 -29.333 -149.833 -88 -191.5s-138.334 -62.5 -239.001 -62.5c-76 0 -142.167 14 -198.5 42s-102.166 60.667 -137.499 98c-4.66699 4.66699 -7 8.66699 -7 12z" />
    <glyph glyph-name="t" unicode="t" horiz-adv-x="528" 
d="M51 913c0 4 1.83105 7.83301 5.49805 11.5s7.5 5.5 11.5 5.5h127v262c0 5.33301 1.83301 9.66602 5.5 12.999s7.83398 5 12.501 5s8.83398 -1.66699 12.501 -5s5.5 -7.66602 5.5 -12.999v-262h185c4 0 7.66699 -1.83301 11 -5.5s5 -7.5 5 -11.5s-1.66699 -7.66699 -5 -11
s-7 -5 -11 -5h-185v-672c0 -69.333 13 -121.5 39 -156.5s69 -52.5 129 -52.5c4.66699 0 8.66699 -1.66699 12 -5s5 -7 5 -11s-1.66699 -7.66699 -5 -11s-7.33301 -5 -12 -5c-136 0 -204 80.333 -204 241v672h-127c-4 0 -7.83301 1.66699 -11.5 5s-5.5 7 -5.5 11z" />
    <glyph glyph-name="u" unicode="u" horiz-adv-x="1003" 
d="M143 336l0.00195312 591.996c0 4.66699 1.83301 8.83398 5.5 12.501s8.16699 5.5 13.5 5.5s9.66602 -1.66699 12.999 -5s5 -7.66602 5 -12.999v-611c0 -206 107.333 -309 322 -309c214 0 321 103 321 309v611c0 4.66699 1.83301 8.83398 5.5 12.501s8.16699 5.5 13.5 5.5
s9.66602 -1.66699 12.999 -5s5 -7.66602 5 -12.999v-592c0 -242 -119.333 -363 -358 -363c-239.333 0 -359 121 -359 363z" />
    <glyph glyph-name="v" unicode="v" horiz-adv-x="876" 
d="M49 928c0 4.66699 1.83203 8.83203 5.49902 12.499s8.16699 5.5 13.5 5.5c8 0 14 -4.66699 18 -14l352 -891l353 891c4 9.33301 10 14 18 14c4.66699 0 8.83398 -1.66699 12.501 -5s5.5 -7.66602 5.5 -12.999c0 -2 -1.33301 -7 -4 -15l-366 -915
c-4 -9.33301 -10.333 -14 -19 -14c-8 0 -14 4.66699 -18 14l-367 915c-2.66699 8 -4 13 -4 15z" />
    <glyph glyph-name="w" unicode="w" horiz-adv-x="1343" 
d="M49 928c0 4.66699 1.83594 8.83203 5.50293 12.499s8.16699 5.5 13.5 5.5c8.66699 0 14.667 -4.66699 18 -14l309 -885l258 885c2 9.33301 8.33301 14 19 14c9.33301 0 15.333 -4.66699 18 -14l258 -885l309 885c3.33301 9.33301 9.66602 14 18.999 14
c5.33301 0 9.66602 -1.66699 12.999 -5s5 -7.66602 5 -12.999c0 -3.33301 -1.33301 -9 -4 -17l-323 -911c-2.66699 -10.667 -9 -16 -19 -16c-10.667 0 -17.334 5.33301 -20.001 16l-256 881l-256 -881c-2.66699 -10.667 -9.66699 -16 -21 -16
c-9.33301 0 -15.333 5.33301 -18 16l-324 911c-2.66699 8 -4 13.667 -4 17z" />
    <glyph glyph-name="x" unicode="x" horiz-adv-x="786" 
d="M43 2c0 4 1.33398 7.99805 4.00098 11.998l322 459l-314 442c-2.66699 4 -4 8.33301 -4 13s1.83301 8.83398 5.5 12.501s8.16699 5.5 13.5 5.5c6 0 11.333 -3.33301 16 -10l307 -436l305 436c4.66699 6.66699 10.334 10 17.001 10c4.66699 0 8.83398 -1.66699 12.501 -5
s5.5 -7.66602 5.5 -12.999c0 -4.66699 -1.33301 -9 -4 -13l-313 -446l321 -455c2.66699 -4 4 -8 4 -12c0 -5.33301 -1.83301 -9.66602 -5.5 -12.999s-7.83398 -5 -12.501 -5c-6 0 -11.333 3.33301 -16 10l-316 446l-313 -446c-4.66699 -6.66699 -10.334 -10 -17.001 -10
c-4.66699 0 -8.83398 1.66699 -12.501 5s-5.5 7.66602 -5.5 12.999z" />
    <glyph glyph-name="y" unicode="y" horiz-adv-x="876" 
d="M35 -395c0 10.667 5.3291 15.9971 15.9961 15.9971c24.667 0 46.834 1.33301 66.501 4s37.834 6 54.501 10s32.334 11 47.001 21s27.5 19.333 38.5 28s22.5 22 34.5 40s22.333 34.333 31 49s19 35.834 31 63.501l31 73l35 88.5l-367 915c-2.66699 8 -4 13 -4 15
c0 4.66699 1.83301 8.83398 5.5 12.501s8.16699 5.5 13.5 5.5c8 0 14 -4.66699 18 -14l352 -891l353 891c4 9.33301 10 14 18 14c4.66699 0 8.83398 -1.66699 12.501 -5s5.5 -7.66602 5.5 -12.999c0 -2 -1.33301 -7 -4 -15l-424 -1056
c-41.333 -102.667 -86.333 -173.167 -135 -211.5s-119.667 -57.5 -213 -57.5c-4.66699 0 -8.5 1.83301 -11.5 5.5s-4.5 7.5 -4.5 11.5z" />
    <glyph glyph-name="z" unicode="z" horiz-adv-x="798" 
d="M59 16c0 2.66699 2.33301 7.66699 7 15l614 866h-561c-4.66699 0 -8.66699 1.66699 -12 5s-5 7 -5 11s1.66699 7.83301 5 11.5s7.33301 5.5 12 5.5h592c4.66699 0 8.5 -1.83301 11.5 -5.5s4.5 -7.5 4.5 -11.5c0 -3.33301 -2 -8 -6 -14l-612 -866h614
c4 0 7.66699 -1.83301 11 -5.5s5 -7.5 5 -11.5s-1.66699 -7.66699 -5 -11s-7 -5 -11 -5h-647c-4 0 -7.83301 1.5 -11.5 4.5s-5.5 6.83301 -5.5 11.5z" />
    <glyph glyph-name="braceleft" unicode="{" horiz-adv-x="606" 
d="M72 606c0 4 1.5 7.83203 4.5 11.499s6.83301 5.5 11.5 5.5h27c71.333 0 122.833 18.333 154.5 55s47.5 95.334 47.5 176.001c0 54 -4.33301 134 -13 240s-13 187.667 -13 245c0 54 15.667 96.167 47 126.5s74.333 45.5 129 45.5c10.667 0 16 -5.33301 16 -16
s-5.33301 -16 -16 -16c-42.667 0 -76.5 -11.667 -101.5 -35s-37.5 -58.333 -37.5 -105c0 -53.333 3.66699 -134.666 11 -243.999s11 -190.333 11 -243c0 -74.667 -16 -134.334 -48 -179.001s-78.667 -67 -140 -67c61.333 0 108 -22.333 140 -67s48 -104.334 48 -179.001
c0 -52.667 -3.66699 -133.667 -11 -243s-11 -190.666 -11 -243.999c0 -46.667 12.5 -81.5 37.5 -104.5s58.833 -34.5 101.5 -34.5c4.66699 0 8.5 -1.83301 11.5 -5.5s4.5 -7.5 4.5 -11.5c0 -10.667 -5.33301 -16 -16 -16c-54.667 0 -97.667 15.167 -129 45.5
s-47 72.5 -47 126.5c0 57.333 4.33301 139 13 245s13 186 13 240c0 80.667 -15.833 139.5 -47.5 176.5s-83.167 55.5 -154.5 55.5h-27c-10.667 0 -16 5.33301 -16 16z" />
    <glyph glyph-name="bar" unicode="|" horiz-adv-x="446" 
d="M205 -309v1945c0 5.33301 1.83301 9.83301 5.5 13.5s7.83398 5.5 12.501 5.5s9 -1.83301 13 -5.5s6 -8.16699 6 -13.5v-1945c0 -4.66699 -2 -9 -6 -13s-8.33301 -6 -13 -6s-8.83398 1.83301 -12.501 5.5s-5.5 8.16699 -5.5 13.5z" />
    <glyph glyph-name="braceright" unicode="}" horiz-adv-x="606" 
d="M123 -283c0 4 1.5 7.83398 4.5 11.501s6.83301 5.5 11.5 5.5c42.667 0 76.667 11.667 102 35s38 58 38 104c0 53.333 -3.83301 134.666 -11.5 243.999s-11.5 190.333 -11.5 243c0 74.667 16 134.334 48 179.001s78.667 67 140 67c-61.333 0 -108 22.333 -140 67
s-48 104.334 -48 179.001c0 52.667 3.83301 133.667 11.5 243s11.5 190.666 11.5 243.999c0 46.667 -12.667 81.667 -38 105s-59.333 35 -102 35c-10.667 0 -16 5.33301 -16 16s5.33301 16 16 16c54.667 0 97.667 -15.167 129 -45.5s47 -72.5 47 -126.5
c0 -57.333 -4.33301 -139 -13 -245s-13 -186 -13 -240c0 -80.667 16 -139.334 48 -176.001s83.667 -55 155 -55h26c4.66699 0 8.66699 -1.83301 12 -5.5s5 -7.5 5 -11.5s-1.66699 -7.66699 -5 -11s-7.33301 -5 -12 -5h-26c-71.333 0 -123 -18.5 -155 -55.5
s-48 -95.833 -48 -176.5c0 -54 4.33301 -134 13 -240s13 -187.667 13 -245c0 -54 -15.667 -96.167 -47 -126.5s-74.333 -45.5 -129 -45.5c-10.667 0 -16 5.33301 -16 16z" />
    <glyph glyph-name="asciitilde" unicode="~" horiz-adv-x="976" 
d="M90 569c0 4.66699 1.33008 9.66699 3.99707 15c16.667 33.333 43.334 64.166 80.001 92.499s81.667 42.5 135 42.5c34.667 0 69.167 -7.5 103.5 -22.5s63 -31.5 86 -49.5s49.667 -34.5 80 -49.5s59.5 -22.5 87.5 -22.5c45.333 0 83.666 11.833 114.999 35.5
s55 52.167 71 85.5c4 8.66699 10 13 18 13c10 0 15 -5.66699 15 -17c0 -4 -1.33301 -8.66699 -4 -14c-16.667 -33.333 -43.334 -64.166 -80.001 -92.499s-81.667 -42.5 -135 -42.5c-31.333 0 -63.166 7.5 -95.499 22.5s-60.166 31.333 -83.499 49s-51.166 34 -83.499 49
s-63.833 22.5 -94.5 22.5c-45.333 0 -83.666 -11.833 -114.999 -35.5s-55 -52.167 -71 -85.5c-4 -8 -10.333 -12 -19 -12c-9.33301 0 -14 5.33301 -14 16z" />
    <glyph glyph-name="uni00A0" unicode="&#xa0;" horiz-adv-x="579" 
 />
    <glyph glyph-name="exclamdown" unicode="&#xa1;" horiz-adv-x="288" 
d="M109 920c0 25.333 11.333 38 34 38c23.333 0 35 -12.667 35 -38c0 -27.333 -11.667 -41 -35 -41c-22.667 0 -34 13.667 -34 41zM121 -428l10 1102c0 9.33301 4 14 12 14c8.66699 0 13 -4.66699 13 -14l10 -1102c0 -16.667 -7.66699 -25 -23 -25
c-14.667 0 -22 8.33301 -22 25z" />
    <glyph glyph-name="cent" unicode="&#xa2;" horiz-adv-x="907" 
d="M92 465c0 320.667 129.668 484.998 389.001 492.998v148c0 4.66699 1.83301 8.83398 5.5 12.501s8.16699 5.5 13.5 5.5s9.66602 -1.66699 12.999 -5s5 -7.66602 5 -12.999v-148c115.333 -4.66699 205.333 -41.334 270 -110.001c6 -6 9 -10.667 9 -14
c0 -4 -1.66699 -7.83301 -5 -11.5s-7.33301 -5.5 -12 -5.5c-5.33301 0 -10 2 -14 6c-68.667 68.667 -157.334 103 -266.001 103c-247.333 0 -371 -153.667 -371 -461c0 -306 123.667 -459 371 -459c100.667 0 194 34.333 280 103c6 4 11 6 15 6
c4.66699 0 8.5 -1.83301 11.5 -5.5s4.5 -7.5 4.5 -11.5c0 -5.33301 -3.33301 -10.666 -10 -15.999c-86.667 -68.667 -181 -105 -283 -109v-174c0 -4.66699 -1.66699 -8.83398 -5 -12.501s-7.66602 -5.5 -12.999 -5.5s-9.83301 1.83301 -13.5 5.5s-5.5 7.83398 -5.5 12.501
v174c-259.333 8 -389 172 -389 492z" />
    <glyph glyph-name="sterling" unicode="&#xa3;" horiz-adv-x="1196" 
d="M156 637c0 10.667 5.33008 16.001 15.9971 16.001h121c-4 7.33301 -13.167 25.166 -27.5 53.499s-24 48 -29 59s-12.833 29.333 -23.5 55s-18.167 47.334 -22.5 65.001s-8.5 39 -12.5 64s-6 49.833 -6 74.5c0 112.667 38 204.667 114 276s178.667 107 308 107
c211.333 0 351.333 -90.667 420 -272c2.66699 -8 4 -14.333 4 -19c0 -10.667 -5.66699 -16 -17 -16c-8.66699 0 -14.667 5.33301 -18 16c-27.333 76.667 -72.833 138.834 -136.5 186.501s-147.834 71.5 -252.501 71.5c-118 0 -211.667 -32.5 -281 -97.5
s-104 -149.167 -104 -252.5c0 -24.667 2 -49.5 6 -74.5s8.16699 -46.167 12.5 -63.5s11.833 -38.833 22.5 -64.5s18.667 -43.834 24 -54.501l30 -59.5c14.667 -29 24 -47.167 28 -54.5h405c4.66699 0 8.66699 -1.66699 12 -5s5 -7 5 -11s-1.66699 -7.66699 -5 -11
s-7.33301 -5 -12 -5h-389c42.667 -87.333 64 -171.333 64 -252c0 -52.667 -14.167 -107 -42.5 -163s-61.5 -102 -99.5 -138c56.667 32.667 118.334 49 185.001 49c36.667 0 74.167 -6 112.5 -18s71.166 -25.167 98.499 -39.5s58 -27.5 92 -39.5s65.333 -18 94 -18
c56.667 0 104.834 11.5 144.501 34.5s72.167 62.833 97.5 119.5c4.66699 9.33301 10.667 14 18 14c4.66699 0 8.83398 -1.66699 12.501 -5s5.5 -7 5.5 -11c0 -6 -1.33301 -11.667 -4 -17c-31.333 -61.333 -68.166 -105 -110.499 -131s-96.833 -39 -163.5 -39
c-34 0 -69.167 6.16699 -105.5 18.5s-68 25.666 -95 39.999s-58.333 27.666 -94 39.999s-69.834 18.5 -102.501 18.5c-38.667 0 -74.167 -5 -106.5 -15s-56.666 -20.167 -72.999 -30.5s-37.166 -25.833 -62.499 -46.5c-8 -5.33301 -14 -8 -18 -8
c-5.33301 0 -9.83301 1.83301 -13.5 5.5s-5.5 7.83398 -5.5 12.501c0 5.33301 3.33301 11.333 10 18c127.333 124.667 191 241 191 349c0 74.667 -22.667 158.667 -68 252h-137c-10.667 0 -16 5.33301 -16 16z" />
    <glyph glyph-name="currency" unicode="&#xa4;" horiz-adv-x="956" 
d="M63 242c0 4.66699 2.99805 9.99805 8.99805 15.998l133 135c-58.667 70.667 -88 152.667 -88 246c0 94 30.667 176.667 92 248l-137 139c-6 6 -9 11.333 -9 16c0 5.33301 1.83301 9.83301 5.5 13.5s8.16699 5.5 13.5 5.5c6.66699 0 12 -2.66699 16 -8l135 -140
c71.333 66 154 99 248 99c94.667 0 175.334 -31.333 242.001 -94l133 135c4 5.33301 9.33301 8 16 8c5.33301 0 9.83301 -1.83301 13.5 -5.5s5.5 -8.16699 5.5 -13.5s-2.66699 -10.666 -8 -15.999l-133 -135c64 -71.333 96 -155.333 96 -252
c0 -92 -31.333 -175.333 -94 -250l131 -131c5.33301 -5.33301 8 -10.666 8 -15.999s-1.83301 -9.83301 -5.5 -13.5s-8.16699 -5.5 -13.5 -5.5c-6.66699 0 -12 2.66699 -16 8l-129 131c-69.333 -64 -151.333 -96 -246 -96c-99.333 0 -182.666 33.667 -249.999 101l-133 -136
c-4 -5.33301 -9.33301 -8 -16 -8c-5.33301 0 -9.83301 1.83301 -13.5 5.5s-5.5 8.16699 -5.5 13.5zM153.998 638.998c0 -94.667 31.167 -174.667 93.5 -240s140.166 -98 233.499 -98s171.333 32.667 234 98s94 145.333 94 240s-31.333 174.667 -94 240s-140.667 98 -234 98
s-171.166 -32.667 -233.499 -98s-93.5 -145.333 -93.5 -240z" />
    <glyph glyph-name="yen" unicode="&#xa5;" 
d="M57 1376c0 5.33301 1.83008 9.83496 5.49707 13.502s8.16699 5.5 13.5 5.5c6 0 11.333 -3.66699 16 -11l428 -679l428 679c4.66699 7.33301 10.334 11 17.001 11c4.66699 0 8.83398 -1.83301 12.501 -5.5s5.5 -8.16699 5.5 -13.5c0 -4 -1.33301 -8 -4 -12l-440 -698v-25
h295c10.667 0 16 -5.33301 16 -16c0 -4 -1.5 -7.83301 -4.5 -11.5s-6.83301 -5.5 -11.5 -5.5h-295v-174h295c10.667 0 16 -5.33301 16 -16c0 -4 -1.5 -7.83301 -4.5 -11.5s-6.83301 -5.5 -11.5 -5.5h-295v-399c0 -4.66699 -1.83301 -8.83398 -5.5 -12.501
s-8.16699 -5.5 -13.5 -5.5s-9.66602 1.66699 -12.999 5s-5 7.66602 -5 12.999v399h-297c-4.66699 0 -8.66699 1.83301 -12 5.5s-5 7.5 -5 11.5s1.66699 7.66699 5 11s7.33301 5 12 5h297v174h-297c-4.66699 0 -8.66699 1.83301 -12 5.5s-5 7.5 -5 11.5s1.66699 7.66699 5 11
s7.33301 5 12 5h297v25l-441 698c-2.66699 4 -4 8 -4 12z" />
    <glyph glyph-name="brokenbar" unicode="&#xa6;" horiz-adv-x="446" 
d="M205 -309v889.002c0 5.33301 1.83301 9.66602 5.5 12.999s7.83398 5 12.501 5c5.33301 0 9.83301 -1.83301 13.5 -5.5s5.5 -7.83398 5.5 -12.501v-889c0 -4.66699 -2 -9 -6 -13s-8.33301 -6 -13 -6s-8.83398 1.83301 -12.501 5.5s-5.5 8.16699 -5.5 13.5zM205 748.002
v888c0 5.33301 1.83301 9.83301 5.5 13.5s7.83398 5.5 12.501 5.5s9 -1.83301 13 -5.5s6 -8.16699 6 -13.5v-888c0 -5.33301 -2 -9.83301 -6 -13.5s-8.33301 -5.5 -13 -5.5s-8.83398 1.83301 -12.501 5.5s-5.5 8.16699 -5.5 13.5z" />
    <glyph glyph-name="section" unicode="&#xa7;" horiz-adv-x="1032" 
d="M98 580c0 103.333 48.001 197.999 144.001 283.999c-74 60 -111 137.333 -111 232c0 88 33.667 161.833 101 221.5s166.666 89.5 297.999 89.5c83.333 0 158.166 -16.5 224.499 -49.5s117.833 -75.833 154.5 -128.5c4 -6 6 -11.667 6 -17c0 -4 -1.5 -7.33301 -4.5 -10
s-6.16699 -4 -9.5 -4c-6 0 -11.333 3.33301 -16 10c-84.667 110.667 -203 166 -355 166c-64.667 0 -121.167 -7.83301 -169.5 -23.5s-86 -37.167 -113 -64.5s-47 -56.833 -60 -88.5s-19.5 -65.5 -19.5 -101.5c0 -44 8.66699 -83.167 26 -117.5s40.833 -62.333 70.5 -84
s63.5 -41 101.5 -58s78.167 -32.167 120.5 -45.5l127 -40c42.333 -13.333 82.5 -29.333 120.5 -48s71.833 -39.834 101.5 -63.501s53.167 -54.167 70.5 -91.5s26 -80 26 -128c0 -106.667 -48 -203 -144 -289c74 -60 111 -137 111 -231c0 -88 -33.667 -162 -101 -222
s-166.666 -90 -297.999 -90c-83.333 0 -158 16.667 -224 50s-117.667 76.333 -155 129c-4 6 -6 11.333 -6 16c0 4 1.5 7.33301 4.5 10s6.16699 4 9.5 4c6 0 11.333 -3.33301 16 -10c84.667 -110.667 203 -166 355 -166c64.667 0 121.167 8 169.5 24s86 37.5 113 64.5
s47 56.5 60 88.5s19.5 66 19.5 102c0 44 -8.66699 83.167 -26 117.5s-40.833 62.333 -70.5 84s-63.5 41 -101.5 58s-78.167 32.167 -120.5 45.5l-127 40.5c-42.333 13.667 -82.5 29.834 -120.5 48.501s-71.833 40 -101.5 64s-53.167 54.833 -70.5 92.5
s-26 80.834 -26 129.501zM135.001 579.999c0 -48 10.3301 -90.1689 30.9971 -126.502s47.167 -65.166 79.5 -86.499s71.166 -41.666 116.499 -60.999s89.5 -35.166 132.5 -47.499s89.333 -28 139 -47s91.167 -38.833 124.5 -59.5c91.333 77.333 137 166.666 137 267.999
c0 47.333 -10.333 89 -31 125s-47.167 64.5 -79.5 85.5s-71.166 41 -116.499 60s-89.666 34.667 -132.999 47s-89.666 28 -138.999 47s-90.666 38.833 -123.999 59.5c-91.333 -77.333 -137 -165.333 -137 -264z" />
    <glyph glyph-name="dieresis" unicode="&#xa8;" horiz-adv-x="507" 
d="M98 1161c0 22 10.333 33 31 33s31 -11 31 -33s-10.333 -33 -31 -33s-31 11 -31 33zM348 1161c0 22 10.333 33 31 33s31 -11 31 -33s-10.333 -33 -31 -33s-31 11 -31 33z" />
    <glyph glyph-name="copyright" unicode="&#xa9;" horiz-adv-x="1662" 
d="M150 688c0 238.667 59 418.167 177 538.5s286 180.5 504 180.5s386.167 -60.167 504.5 -180.5s177.5 -299.833 177.5 -538.5c0 -237.333 -59.167 -416.166 -177.5 -536.499s-286.5 -180.5 -504.5 -180.5s-386 60.167 -504 180.5s-177 299.166 -177 536.499zM186 688
c0 -228 55.668 -399 167.001 -513s270.666 -171 477.999 -171c208 0 367.667 57 479 171s167 285 167 513c0 228.667 -55.667 400.167 -167 514.5s-271 171.5 -479 171.5s-367.5 -57.167 -478.5 -171.5s-166.5 -285.833 -166.5 -514.5zM520.001 688
c0 125.333 26.333 219.166 79 281.499s129.334 93.5 230.001 93.5c55.333 0 101.666 -8.5 138.999 -25.5s65 -36.5 83 -58.5c4 -5.33301 6 -10.666 6 -15.999c0 -4 -1.66699 -7.5 -5 -10.5s-6.66602 -4.5 -9.99902 -4.5c-5.33301 0 -10 2 -14 6
c-48 50.667 -114.333 76 -199 76c-181.333 0 -272 -114 -272 -342c0 -115.333 22.5 -200.833 67.5 -256.5s113.167 -83.5 204.5 -83.5c90 0 160.333 25.333 211 76c4 4 9 6 15 6c3.33301 0 6.5 -1.33301 9.5 -4s4.5 -6 4.5 -10c0 -4.66699 -2 -9.66699 -6 -15
c-20 -21.333 -50.333 -41 -91 -59s-88.334 -27 -143.001 -27c-206 0 -309 124.333 -309 373z" />
    <glyph glyph-name="ordfeminine" unicode="&#xaa;" horiz-adv-x="780" 
d="M102 584c0 4 1.66699 7.66699 5 11s7.33301 5 12 5h540c4.66699 0 8.66699 -1.66699 12 -5s5 -7 5 -11s-1.66699 -7.83301 -5 -11.5s-7.33301 -5.5 -12 -5.5h-540c-4.66699 0 -8.66699 1.83301 -12 5.5s-5 7.5 -5 11.5zM145 928c0 58 20.8291 103.834 62.4961 137.501
s102.167 50.5 181.5 50.5h213v68c0 57.333 -18.667 103.666 -56 138.999s-87.666 53 -150.999 53c-76.667 0 -136.667 -29.333 -180 -88c-3.33301 -5.33301 -8.66602 -8 -15.999 -8c-3.33301 0 -6.66602 1.33301 -9.99902 4s-5 6 -5 10c0 5.33301 2 11 6 17
c18.667 27.333 45.334 50.166 80.001 68.499s76.334 27.5 125.001 27.5c78 0 137.5 -21.167 178.5 -63.5s61.5 -95.5 61.5 -159.5v-422c0 -11.333 -5.66699 -17 -17 -17c-10.667 0 -16 5.66699 -16 17v90c-20 -35.333 -49.167 -63 -87.5 -83s-83.5 -30 -135.5 -30
c-74.667 0 -132.334 16.833 -173.001 50.5s-61 79.834 -61 138.501zM179.996 928.001c0 -50 17.5 -88.833 52.5 -116.5s83.833 -41.5 146.5 -41.5c64 0 117.167 17.167 159.5 51.5s63.5 86.833 63.5 157.5v104h-213c-66.667 0 -118.167 -13.667 -154.5 -41
s-54.5 -65.333 -54.5 -114z" />
    <glyph glyph-name="guillemotleft" unicode="&#xab;" horiz-adv-x="950" 
d="M129 434c0 6 4 12.998 12 20.998l363 419c4.66699 4.66699 8.66699 7 12 7c4.66699 0 8.5 -1.83301 11.5 -5.5s4.5 -7.5 4.5 -11.5c0 -5.33301 -2.66699 -10.666 -8 -15.999l-358 -414l358 -414c5.33301 -5.33301 8 -10.666 8 -15.999c0 -10.667 -5.33301 -16 -16 -16
c-4 0 -8 2 -12 6l-363 420c-8 8 -12 14.667 -12 20zM416 433.998c0 6 4 12.998 12 20.998l363 419c4.66699 4.66699 8.66699 7 12 7c4.66699 0 8.5 -1.83301 11.5 -5.5s4.5 -7.5 4.5 -11.5c0 -5.33301 -2.66699 -10.666 -8 -15.999l-358 -414l358 -414
c5.33301 -5.33301 8 -10.666 8 -15.999c0 -10.667 -5.33301 -16 -16 -16c-4 0 -8 2 -12 6l-363 420c-8 8 -12 14.667 -12 20z" />
    <glyph glyph-name="logicalnot" unicode="&#xac;" horiz-adv-x="1153" 
d="M117 602c0 10.667 5.33301 16 16 16h885c10.667 0 16 -5.33301 16 -16v-487c0 -4.66699 -1.66699 -8.66699 -5 -12s-7 -5 -11 -5s-7.83301 1.66699 -11.5 5s-5.5 7.33301 -5.5 12v471h-868c-10.667 0 -16 5.33301 -16 16z" />
    <glyph glyph-name="uni00AD" unicode="&#xad;" horiz-adv-x="577" 
d="M84 516c0 10.667 5.33301 16 16 16h375c4.66699 0 8.66699 -1.66699 12 -5s5 -7 5 -11s-1.66699 -7.66699 -5 -11s-7.33301 -5 -12 -5h-375c-10.667 0 -16 5.33301 -16 16z" />
    <glyph glyph-name="registered" unicode="&#xae;" horiz-adv-x="772" 
d="M86 1096c0 104 26 181.833 78 233.5s125.667 77.5 221 77.5c97.333 0 171.833 -25.667 223.5 -77s77.5 -129.333 77.5 -234s-26 -183.167 -78 -235.5s-126.333 -78.5 -223 -78.5c-95.333 0 -169 26.167 -221 78.5s-78 130.833 -78 235.5zM117 1096
c0 -190 89.333 -285 268 -285c180 0 270 95 270 285c0 188 -90 282 -270 282c-178.667 0 -268 -94 -268 -282zM279 950l0.000976562 283c0 6 2.16699 11.167 6.5 15.5s9.5 6.5 15.5 6.5h109c30 0 53.167 -8.83301 69.5 -26.5s24.5 -40.167 24.5 -67.5
c0 -25.333 -7.83301 -46.833 -23.5 -64.5s-35.834 -27.5 -60.501 -29.5l69 -100c6 -8 9 -13.667 9 -17c0 -4 -1.83301 -7.66699 -5.5 -11s-7.5 -5 -11.5 -5c-6 0 -10.667 2.66699 -14 8l-84 125h-72v-117c0 -10.667 -5.33301 -16 -16 -16s-16 5.33301 -16 16zM311.001 1098
l99 0.000976562c18 0 32.333 6.16699 43 18.5s16 27.166 16 44.499c0 18.667 -5.33301 34 -16 46s-25 18 -43 18h-99v-127z" />
    <glyph glyph-name="macron" unicode="&#xaf;" horiz-adv-x="782" 
d="M160 1161c0 4 1.5 7.83301 4.5 11.5s6.83301 5.5 11.5 5.5h430c4.66699 0 8.66699 -1.83301 12 -5.5s5 -7.5 5 -11.5s-1.66699 -7.66699 -5 -11s-7.33301 -5 -12 -5h-430c-10.667 0 -16 5.33301 -16 16z" />
    <glyph glyph-name="degree" unicode="&#xb0;" horiz-adv-x="729" 
d="M86 1126c0 78 27.333 144.333 82 199s121 82 199 82s144.167 -27.333 198.5 -82s81.5 -121 81.5 -199s-27.167 -144.167 -81.5 -198.5s-120.5 -81.5 -198.5 -81.5s-144.333 27.167 -199 81.5s-82 120.5 -82 198.5zM119 1124c0 -68 23.498 -126.167 70.498 -174.5
s105.5 -72.5 175.5 -72.5s129 24.167 177 72.5s72 106.5 72 174.5c0 68.667 -24.167 127.834 -72.5 177.501s-107.166 74.5 -176.499 74.5s-127.666 -24.833 -174.999 -74.5s-71 -108.834 -71 -177.501z" />
    <glyph glyph-name="plusminus" unicode="&#xb1;" horiz-adv-x="909" 
d="M0 16c0 4 1.5 7.83301 4.5 11.5s6.83301 5.5 11.5 5.5h877c4.66699 0 8.5 -1.83301 11.5 -5.5s4.5 -7.5 4.5 -11.5c0 -10.667 -5.33301 -16 -16 -16h-877c-10.667 -0 -16 5.33301 -16 16zM0 627c0 10.667 5.33301 16 16 16h422v432c0 4.66699 1.83301 8.66699 5.5 12
s7.5 5 11.5 5s7.66699 -1.66699 11 -5s5 -7.33301 5 -12v-432h422c10.667 0 16 -5.33301 16 -16c0 -4 -1.5 -7.83301 -4.5 -11.5s-6.83301 -5.5 -11.5 -5.5h-422v-430c0 -10.667 -5.33301 -16 -16 -16c-4 0 -7.83301 1.5 -11.5 4.5s-5.5 6.83301 -5.5 11.5v430h-422
c-4.66699 0 -8.5 1.83301 -11.5 5.5s-4.5 7.5 -4.5 11.5z" />
    <glyph glyph-name="uni00B2" unicode="&#xb2;" horiz-adv-x="530" 
d="M59 885c0 32.667 6.83496 62.167 20.502 88.5s31.334 48.5 53.001 66.5s45.5 35 71.5 51l78.5 47c26.333 15.333 50.333 31.166 72 47.499s39.334 36.166 53.001 59.499s20.5 49.333 20.5 78c0 40.667 -13.5 74.667 -40.5 102s-68.833 41 -125.5 41
c-40.667 0 -72.834 -7.83301 -96.501 -23.5s-41.167 -40.5 -52.5 -74.5c-2.66699 -8 -8.33398 -12 -17.001 -12c-9.33301 0 -14 4.66699 -14 14c0 2.66699 0.666992 6 2 10c26.667 76.667 86 115 178 115c64.667 0 114 -15.833 148 -47.5s51 -73.167 51 -124.5
c0 -30.667 -6.83301 -58.667 -20.5 -84s-31.334 -47.166 -53.001 -65.499s-45.5 -35.666 -71.5 -51.999l-78.5 -47.5c-26.333 -15.333 -50.333 -31 -72 -47s-39.334 -35 -53.001 -57s-20.5 -45.667 -20.5 -71h352c10 0 15 -4.66699 15 -14c0 -4 -1.5 -7.5 -4.5 -10.5
s-6.5 -4.5 -10.5 -4.5h-370c-4 0 -7.5 1.5 -10.5 4.5s-4.5 6.5 -4.5 10.5z" />
    <glyph glyph-name="uni00B3" unicode="&#xb3;" horiz-adv-x="520" 
d="M47 971c0 9.33301 4.66895 14.001 14.002 14.001c5.33301 0 10.333 -3.33301 15 -10c37.333 -58.667 92.666 -88 165.999 -88c125.333 0 188 53.333 188 160c0 50 -14 89.333 -42 118s-71.333 43 -130 43h-47c-9.33301 0 -14 5 -14 15c0 4 2 8 6 12l188 219h-297
c-9.33301 0 -14 4.66699 -14 14c0 10 4.66699 15 14 15h326c9.33301 0 14 -5 14 -15c0 -5.33301 -2 -10 -6 -14l-188 -217h22c69.333 0 120.166 -18.167 152.499 -54.5s48.5 -81.5 48.5 -135.5c0 -60.667 -17.167 -107.334 -51.5 -140.001s-90.833 -49 -169.5 -49
c-46 0 -85.167 9.5 -117.5 28.5s-56.833 42.167 -73.5 69.5c-2.66699 5.33301 -4 10.333 -4 15z" />
    <glyph glyph-name="acute" unicode="&#xb4;" horiz-adv-x="757" 
d="M258 1073c-6.66699 7.33301 -6.66602 14.334 0.000976562 21.001l207 243c9.33301 12 19.666 13.333 30.999 4c11.333 -10 11.333 -20.667 0 -32l-217 -234c-6.66699 -6.66699 -13.667 -7.33398 -21 -2.00098z" />
    <glyph glyph-name="uni00B5" unicode="&#xb5;" horiz-adv-x="1003" 
d="M143 -401l0.00195312 1329c0 4.66699 1.83301 8.83398 5.5 12.501s8.16699 5.5 13.5 5.5s9.66602 -1.66699 12.999 -5s5 -7.66602 5 -12.999v-611c0 -206 107.333 -309 322 -309c214 0 321 103 321 309v611c0 4.66699 1.83301 8.83398 5.5 12.501s8.16699 5.5 13.5 5.5
s9.66602 -1.66699 12.999 -5s5 -7.66602 5 -12.999v-592c0 -242 -119.333 -363 -358 -363c-85.333 0 -155.166 15.833 -209.499 47.5s-91.833 73.167 -112.5 124.5v-546c0 -5.33301 -1.83301 -9.83301 -5.5 -13.5s-7.83398 -5.5 -12.501 -5.5c-5.33301 0 -9.83301 2 -13.5 6
s-5.5 8.33301 -5.5 13z" />
    <glyph glyph-name="paragraph" unicode="&#xb6;" horiz-adv-x="888" 
d="M45 1057c0 88 31.333 163.5 94 226.5s138 94.5 226 94.5h421c4.66699 0 8.66699 -1.66699 12 -5s5 -7 5 -11s-1.66699 -7.66699 -5 -11s-7.33301 -5 -12 -5h-65v-830c0 -92 -9.16699 -172.5 -27.5 -241.5s-42.833 -125 -73.5 -168s-69.167 -77.833 -115.5 -104.5
s-94.5 -45 -144.5 -55s-106.667 -15 -170 -15c-44 0 -87.667 8.33301 -131 25c-8 4 -12 9.33301 -12 16c0 10 4.66699 15 14 15c3.33301 0 9 -1.33301 17 -4c36.667 -12.667 74 -19 112 -19c98 0 172 36.833 222 110.5s75 173.5 75 299.5v360h-122
c-88 0 -163.333 31.5 -226 94.5s-94 138.833 -94 227.5zM356 -20c106 23.333 187.166 77.832 243.499 163.499s84.5 209.834 84.5 372.501v830h-160v-965c0 -98 -12.667 -179.5 -38 -244.5s-68.666 -117.167 -129.999 -156.5z" />
    <glyph glyph-name="periodcentered" unicode="&#xb7;" horiz-adv-x="335" 
d="M131 614c0 27.333 11.667 41 35 41s35 -13.667 35 -41c0 -26 -11.667 -39 -35 -39s-35 13 -35 39z" />
    <glyph glyph-name="cedilla" unicode="&#xb8;" horiz-adv-x="645" 
d="M168 -406c0 10 4.66602 15 13.999 15c4 0 9 -2 15 -6c27.333 -19.333 60 -29 98 -29c99.333 0 149 47 149 141c0 44.667 -13 77.334 -39 98.001s-57.333 31 -94 31c-16 0 -31.5 -1.66699 -46.5 -5s-23.167 -5 -24.5 -5c-11.333 0 -17 6.33301 -17 19l8 147h29l-10 -139
c18.667 6.66699 39 10 61 10c52.667 0 93.167 -13.333 121.5 -40s42.5 -65.334 42.5 -116.001c0 -52 -15.167 -93.333 -45.5 -124s-75.166 -46 -134.499 -46c-24 0 -48 4.16699 -72 12.5s-40.333 16.5 -49 24.5c-4 4 -6 8 -6 12z" />
    <glyph glyph-name="uni00B9" unicode="&#xb9;" horiz-adv-x="321" 
d="M29 1366c0 6 2.66699 10.667 8 14l151 103c8 4 13 6 15 6c4 0 7.66699 -1.66699 11 -5s5 -7 5 -11v-592c0 -4.66699 -1.66699 -8.66699 -5 -12s-7 -5 -11 -5s-7.83301 1.66699 -11.5 5s-5.5 7.33301 -5.5 12v563l-129 -86c-6 -4 -10.667 -6 -14 -6
c-4 0 -7.33301 1.5 -10 4.5s-4 6.16699 -4 9.5z" />
    <glyph glyph-name="ordmasculine" unicode="&#xba;" horiz-adv-x="681" 
d="M53 584c0 4 1.66699 7.66699 5 11s7.33301 5 12 5h540c4.66699 0 8.66699 -1.66699 12 -5s5 -7 5 -11s-1.66699 -7.83301 -5 -11.5s-7.33301 -5.5 -12 -5.5h-540c-4.66699 0 -8.66699 1.83301 -12 5.5s-5 7.5 -5 11.5zM63 1073c0 222.667 92.333 334 277 334
c184 0 276 -111.333 276 -334s-92 -334 -276 -334c-184.667 0 -277 111.333 -277 334zM98 1073c0 -202 80.667 -303 242 -303s242 101 242 303s-80.667 303 -242 303s-242 -101 -242 -303z" />
    <glyph glyph-name="guillemotright" unicode="&#xbb;" horiz-adv-x="950" 
d="M131 4c0 5.33301 2.66699 10.6689 8 16.002l359 414l-359 414c-5.33301 5.33301 -8 10.666 -8 15.999c0 4 1.5 7.83301 4.5 11.5s6.83301 5.5 11.5 5.5c4 0 8.33301 -2.33301 13 -7l362 -419c8.66699 -8.66699 13 -15.667 13 -21
c0 -4.66699 -4.33301 -11.334 -13 -20.001l-362 -420c-4 -4 -8.33301 -6 -13 -6c-10.667 0 -16 5.33301 -16 16zM418 4.00293c0 5.33301 2.66699 10.668 8 16.001l358 414l-358 414c-5.33301 5.33301 -8 10.666 -8 15.999c0 4 1.5 7.83301 4.5 11.5s6.83301 5.5 11.5 5.5
c3.33301 0 7.33301 -2.33301 12 -7l363 -419c8 -8 12 -15 12 -21c0 -5.33301 -4 -12 -12 -20l-363 -420c-4 -4 -8 -6 -12 -6c-10.667 0 -16 5.33301 -16 16z" />
    <glyph glyph-name="onequarter" unicode="&#xbc;" horiz-adv-x="960" 
d="M86 1278c0 6 2.66699 10.667 8 14l152 103c8 4 12.667 6 14 6c4 0 7.66699 -1.83301 11 -5.5s5 -7.5 5 -11.5v-591c0 -4.66699 -1.66699 -8.66699 -5 -12s-7 -5 -11 -5s-7.66699 1.66699 -11 5s-5 7.33301 -5 12v563l-129 -86c-6 -4 -11 -6 -15 -6s-7.33301 1.5 -10 4.5
s-4 6.16699 -4 9.5zM182 2c0 2.66699 1.33301 7.99902 4 15.999l529 1362c4 10 10 15 18 15c4.66699 0 9 -1.83301 13 -5.5s6 -8.16699 6 -13.5c0 -2.66699 -1.33301 -8 -4 -16l-529 -1362c-4 -9.33301 -10 -14 -18 -14c-5.33301 0 -9.83301 1.83301 -13.5 5.5
s-5.5 7.83398 -5.5 12.501zM440 153.999c0 1.33301 3.00098 6.66699 9.00098 16l305 426c5.33301 8 10.666 12 15.999 12c10.667 0 16 -5.33301 16 -16v-424h64c9.33301 0 14 -4.66699 14 -14c0 -10 -4.66699 -15 -14 -15h-64v-139c0 -10.667 -5.33301 -16 -16 -16
s-16 5.33301 -16 16v139h-299c-4 0 -7.5 1.5 -10.5 4.5s-4.5 6.5 -4.5 10.5zM483.001 168h271v377z" />
    <glyph glyph-name="onehalf" unicode="&#xbd;" horiz-adv-x="1044" 
d="M86 1278c0 6 2.66699 10.667 8 14l152 103c8 4 12.667 6 14 6c4 0 7.66699 -1.83301 11 -5.5s5 -7.5 5 -11.5v-591c0 -4.66699 -1.66699 -8.66699 -5 -12s-7 -5 -11 -5s-7.66699 1.66699 -11 5s-5 7.33301 -5 12v563l-129 -86c-6 -4 -11 -6 -15 -6s-7.33301 1.5 -10 4.5
s-4 6.16699 -4 9.5zM182 2c0 2.66699 1.33301 7.99902 4 15.999l529 1362c4 10 10 15 18 15c4.66699 0 9 -1.83301 13 -5.5s6 -8.16699 6 -13.5c0 -2.66699 -1.33301 -8 -4 -16l-529 -1362c-4 -9.33301 -10 -14 -18 -14c-5.33301 0 -9.83301 1.83301 -13.5 5.5
s-5.5 7.83398 -5.5 12.501zM573 13.999c0 32.667 6.83496 62.166 20.502 88.499s31.334 48.666 53.001 66.999s45.5 35.5 71.5 51.5l78.5 46.5c26.333 15 50.333 30.833 72 47.5s39.334 36.667 53.001 60s20.5 49.333 20.5 78c0 40.667 -13.5 74.667 -40.5 102
s-68.833 41 -125.5 41c-40.667 0 -72.834 -7.83301 -96.501 -23.5s-41.167 -40.5 -52.5 -74.5c-2.66699 -8.66699 -8.33398 -13 -17.001 -13c-9.33301 0 -14 5 -14 15c0 2.66699 0.666992 6 2 10c26.667 76.667 86 115 178 115c64.667 0 114 -15.833 148 -47.5
s51 -73.167 51 -124.5c0 -30.667 -6.83301 -58.667 -20.5 -84s-31.334 -47.166 -53.001 -65.499s-45.5 -35.666 -71.5 -51.999l-78.5 -47.5c-26.333 -15.333 -50.333 -31 -72 -47s-39.334 -35 -53.001 -57s-20.5 -45.667 -20.5 -71h352c4 0 7.5 -1.5 10.5 -4.5
s4.5 -6.5 4.5 -10.5c0 -9.33301 -5 -14 -15 -14h-370c-10 0 -15 4.66699 -15 14z" />
    <glyph glyph-name="threequarters" unicode="&#xbe;" horiz-adv-x="1071" 
d="M53 883c0 9.33301 5.00098 14 15.001 14c4.66699 0 9.33398 -3.33301 14.001 -10c37.333 -58.667 92.666 -88 165.999 -88c125.333 0 188 53 188 159c0 50 -14 89.5 -42 118.5s-71.333 43.5 -130 43.5h-47c-9.33301 0 -14 5 -14 15c0 4 2 8 6 12l188 219h-297
c-9.33301 0 -14 4.66699 -14 14c0 10 4.66699 15 14 15h326c9.33301 0 14 -5 14 -15c0 -5.33301 -2 -10 -6 -14l-188 -217h22c69.333 0 120.166 -18.333 152.499 -55s48.5 -82 48.5 -136c0 -60.667 -17.167 -107.167 -51.5 -139.5s-90.833 -48.5 -169.5 -48.5
c-46 0 -85.167 9.5 -117.5 28.5s-56.833 42.167 -73.5 69.5c-2.66699 5.33301 -4 10.333 -4 15zM293.001 2c0 2.66699 1.33301 8.00098 4 16.001l528 1362c4 10 10.333 15 19 15c4.66699 0 8.83398 -1.83301 12.501 -5.5s5.5 -8.16699 5.5 -13.5
c0 -2.66699 -1.33301 -8 -4 -16l-528 -1362c-4 -9.33301 -10.333 -14 -19 -14c-4.66699 0 -8.83398 1.66699 -12.501 5s-5.5 7.66602 -5.5 12.999zM551.001 154.001c0 2.66699 2.66699 8 8 16l305 426c5.33301 8 11 12 17 12c10.667 0 16 -5.33301 16 -16v-424h64
c9.33301 0 14 -4.66699 14 -14c0 -10 -4.66699 -15 -14 -15h-64v-139c0 -10.667 -5.33301 -16 -16 -16c-4 0 -7.83301 1.5 -11.5 4.5s-5.5 6.83301 -5.5 11.5v139h-299c-9.33301 0 -14 5 -14 15zM594.001 168.001h270v377z" />
    <glyph glyph-name="questiondown" unicode="&#xbf;" horiz-adv-x="944" 
d="M96 -113c0 54.667 8.49902 104.667 25.499 150s39 83.166 66 113.499s56.833 58.333 89.5 84s65.167 49.5 97.5 71.5s62 44 89 66s49 47.667 66 77s25.5 61.333 25.5 96c0 52 -17 95 -51 129c-5.33301 5.33301 -8 11.333 -8 18c0 5.33301 1.83301 9.83301 5.5 13.5
s7.83398 5.5 12.501 5.5s10.667 -3.66699 18 -11c40 -40 60 -91.667 60 -155c0 -38 -8.5 -73 -25.5 -105s-39 -59.667 -66 -83s-56.833 -46.166 -89.5 -68.499s-65.167 -46.166 -97.5 -71.499s-62 -52.333 -89 -81s-49 -64.334 -66 -107.001s-25.5 -90 -25.5 -142
c0 -96.667 30 -174 90 -232s146 -87 258 -87s195.333 27.833 250 83.5s82 135.5 82 239.5c0 5.33301 1.83301 9.83301 5.5 13.5s7.83398 5.5 12.501 5.5s9 -2 13 -6s6 -8.33301 6 -13c0 -112 -30.333 -199.333 -91 -262s-153.334 -94 -278.001 -94
c-121.333 0 -215.833 31.667 -283.5 95s-101.5 149 -101.5 257zM495.999 920c0 25.333 11.333 38 34 38c23.333 0 35 -12.667 35 -38c0 -27.333 -11.667 -41 -35 -41c-22.667 0 -34 13.667 -34 41z" />
    <glyph glyph-name="Agrave" unicode="&#xc0;" horiz-adv-x="1236" 
d="M63 0c0 2.66699 0.999023 6 2.99902 10l538 1374c2.66699 7.33301 7.33398 11 14.001 11c7.33301 0 12.333 -3.66699 15 -11l538 -1374c2 -4 3 -7.33301 3 -10c0 -4.66699 -2 -8.5 -6 -11.5s-8.33301 -4.5 -13 -4.5c-8 0 -14 4.66699 -18 14l-179 457h-679l-179 -457
c-4 -9.33301 -10 -14 -18 -14c-4.66699 0 -9 1.5 -13 4.5s-6 6.83301 -6 11.5zM290.999 487h655l-328 842zM450.999 1724c-12 12 -11.999 22.999 0.000976562 32.999c10.667 8.66699 20.667 7.33398 30 -3.99902l207 -244c6.66699 -6.66699 6.66699 -13.334 0 -20.001
c-6.66699 -5.33301 -13.334 -4.66602 -20.001 2.00098z" />
    <glyph glyph-name="Aacute" unicode="&#xc1;" horiz-adv-x="1236" 
d="M63 0c0 2.66699 0.999023 6 2.99902 10l538 1374c2.66699 7.33301 7.33398 11 14.001 11c7.33301 0 12.333 -3.66699 15 -11l538 -1374c2 -4 3 -7.33301 3 -10c0 -4.66699 -2 -8.5 -6 -11.5s-8.33301 -4.5 -13 -4.5c-8 0 -14 4.66699 -18 14l-179 457h-679l-179 -457
c-4 -9.33301 -10 -14 -18 -14c-4.66699 0 -9 1.5 -13 4.5s-6 6.83301 -6 11.5zM290.999 487h655l-328 842zM529.999 1489c-6.66699 6.66699 -6.66602 13.334 0.000976562 20.001l207 244c9.33301 12 19.666 13.333 30.999 4c12 -10 12 -21 0 -33l-217 -233
c-6.66699 -6.66699 -13.667 -7.33398 -21 -2.00098z" />
    <glyph glyph-name="Acircumflex" unicode="&#xc2;" horiz-adv-x="1236" 
d="M63 0c0 2.66699 0.999023 6 2.99902 10l538 1374c2.66699 7.33301 7.33398 11 14.001 11c7.33301 0 12.333 -3.66699 15 -11l538 -1374c2 -4 3 -7.33301 3 -10c0 -4.66699 -2 -8.5 -6 -11.5s-8.33301 -4.5 -13 -4.5c-8 0 -14 4.66699 -18 14l-179 457h-679l-179 -457
c-4 -9.33301 -10 -14 -18 -14c-4.66699 0 -9 1.5 -13 4.5s-6 6.83301 -6 11.5zM290.999 487h655l-328 842zM382.999 1536c0 5.33301 3.33398 10.666 10.001 15.999l207 164c7.33301 5.33301 13.333 8 18 8c5.33301 0 11.666 -2.66699 18.999 -8l207 -164
c6.66699 -5.33301 10 -10.666 10 -15.999c0 -4 -1.66699 -7.66699 -5 -11s-7 -5 -11 -5c-6 0 -11 2 -15 6l-205 164l-204 -164c-4 -4 -9 -6 -15 -6c-4 0 -7.66699 1.66699 -11 5s-5 7 -5 11z" />
    <glyph glyph-name="Atilde" unicode="&#xc3;" horiz-adv-x="1236" 
d="M63 0c0 2.66699 0.999023 6 2.99902 10l538 1374c2.66699 7.33301 7.33398 11 14.001 11c7.33301 0 12.333 -3.66699 15 -11l538 -1374c2 -4 3 -7.33301 3 -10c0 -4.66699 -2 -8.5 -6 -11.5s-8.33301 -4.5 -13 -4.5c-8 0 -14 4.66699 -18 14l-179 457h-679l-179 -457
c-4 -9.33301 -10 -14 -18 -14c-4.66699 0 -9 1.5 -13 4.5s-6 6.83301 -6 11.5zM290.999 487h655l-328 842zM343.999 1532c0 4 1.33398 8.66699 4.00098 14c27.333 58.667 73.666 88 138.999 88c31.333 0 62 -7.16699 92 -21.5l87.5 -43
c28.333 -14.333 56.166 -21.5 83.499 -21.5s48.666 5.66699 63.999 17s29.333 29 42 53c5.33301 10.667 12.333 16 21 16c10.667 0 16 -5.33301 16 -16c0 -4 -1.33301 -8.66699 -4 -14c-27.333 -58.667 -73.666 -88 -138.999 -88c-32 0 -63 7.16699 -93 21.5l-87.5 43
c-28.333 14.333 -55.833 21.5 -82.5 21.5c-27.333 0 -48.666 -5.66699 -63.999 -17s-29.333 -29 -42 -53c-5.33301 -10.667 -12.333 -16 -21 -16c-10.667 0 -16 5.33301 -16 16z" />
    <glyph glyph-name="Adieresis" unicode="&#xc4;" horiz-adv-x="1236" 
d="M63 0c0 2.66699 0.999023 6 2.99902 10l538 1374c2.66699 7.33301 7.33398 11 14.001 11c7.33301 0 12.333 -3.66699 15 -11l538 -1374c2 -4 3 -7.33301 3 -10c0 -4.66699 -2 -8.5 -6 -11.5s-8.33301 -4.5 -13 -4.5c-8 0 -14 4.66699 -18 14l-179 457h-679l-179 -457
c-4 -9.33301 -10 -14 -18 -14c-4.66699 0 -9 1.5 -13 4.5s-6 6.83301 -6 11.5zM290.999 487h655l-328 842zM462.999 1565c0 11.333 2.33301 19.5 7 24.5s12.667 7.5 24 7.5c20 0 30 -10.667 30 -32c0 -22 -10 -33 -30 -33c-20.667 0 -31 11 -31 33zM712.999 1565
c0 12 2.16699 20.333 6.5 25s12.166 7 23.499 7c20.667 0 31 -10.667 31 -32c0 -22 -10.333 -33 -31 -33c-11.333 0 -19.166 2.5 -23.499 7.5s-6.5 13.5 -6.5 25.5z" />
    <glyph glyph-name="Aring" unicode="&#xc5;" horiz-adv-x="1236" 
d="M63 0c0 2.66699 0.999023 6 2.99902 10l538 1374c2.66699 7.33301 7.33398 11 14.001 11c7.33301 0 12.333 -3.66699 15 -11l538 -1374c2 -4 3 -7.33301 3 -10c0 -4.66699 -2 -8.5 -6 -11.5s-8.33301 -4.5 -13 -4.5c-8 0 -14 4.66699 -18 14l-179 457h-679l-179 -457
c-4 -9.33301 -10 -14 -18 -14c-4.66699 0 -9 1.5 -13 4.5s-6 6.83301 -6 11.5zM290.999 487h655l-328 842zM413.999 1640c0 62 16.833 110 50.5 144s84.834 51 153.501 51s120 -17 154 -51s51 -82 51 -144s-17 -109.833 -51 -143.5s-85.333 -50.5 -154 -50.5
s-119.834 16.833 -153.501 50.5s-50.5 81.5 -50.5 143.5zM445.999 1640c0 -53.333 13.5 -93.833 40.5 -121.5s70.833 -41.5 131.5 -41.5c115.333 0 173 54.333 173 163c0 109.333 -57.667 164 -173 164c-114.667 0 -172 -54.667 -172 -164z" />
    <glyph glyph-name="AE" unicode="&#xc6;" horiz-adv-x="1703" 
d="M23 2c0 4 2.66797 10 8.00098 18l829 1346c4.66699 8 11.667 12 21 12h694c10.667 0 16 -5.33301 16 -16s-5.33301 -16 -16 -16h-680v-635h535c4.66699 0 8.5 -1.83301 11.5 -5.5s4.5 -7.5 4.5 -11.5c0 -10.667 -5.33301 -16 -16 -16h-535v-645h704
c4.66699 0 8.66699 -1.83301 12 -5.5s5 -7.5 5 -11.5s-1.66699 -7.66699 -5 -11s-7.33301 -5 -12 -5h-722c-5.33301 -0 -9.83301 1.83301 -13.5 5.5s-5.5 7.83398 -5.5 12.501v437h-516l-283 -459c-5.33301 -8 -11.333 -12 -18 -12c-4.66699 0 -8.83398 1.66699 -12.501 5
s-5.5 7.66602 -5.5 12.999zM360.001 487h498v809z" />
    <glyph glyph-name="Ccedilla" unicode="&#xc7;" horiz-adv-x="1288" 
d="M100 688c0 239.333 52.8291 419.001 158.496 539.001s258.5 180 458.5 180c96.667 0 184.834 -18.5 264.501 -55.5s142.834 -88.167 189.501 -153.5c3.33301 -5.33301 5 -9.33301 5 -12c0 -5.33301 -2 -9.83301 -6 -13.5s-8.33301 -5.5 -13 -5.5c-6.66699 0 -12 3 -16 9
c-39.333 58 -97.833 105.5 -175.5 142.5s-160.5 55.5 -248.5 55.5c-190 0 -334.167 -57.667 -432.5 -173s-147.5 -286.333 -147.5 -513c0 -226 49.167 -396.5 147.5 -511.5s242.5 -172.5 432.5 -172.5c88.667 0 173.334 18.5 254.001 55.5s140.667 84.833 180 143.5
c3.33301 5.33301 8.66602 8 15.999 8c5.33301 0 9.83301 -1.83301 13.5 -5.5s5.5 -7.83398 5.5 -12.501s-1.33301 -9 -4 -13c-46 -64.667 -110.667 -115.667 -194 -153s-173.666 -56 -270.999 -56h-27l-8 -110c18.667 6.66699 39 10 61 10
c52.667 0 93.167 -13.333 121.5 -40s42.5 -65.334 42.5 -116.001c0 -52 -15.167 -93.333 -45.5 -124s-75.166 -46 -134.499 -46c-24 0 -48 4.16699 -72 12.5s-40.333 16.5 -49 24.5c-4 4 -6 8 -6 12c0 10 4.66699 15 14 15c4 0 9 -2 15 -6c27.333 -19.333 60 -29 98 -29
c100 0 150 47 150 141c0 44.667 -13.167 77.334 -39.5 98.001s-57.833 31 -94.5 31c-16 0 -31.5 -1.66699 -46.5 -5s-23.167 -5 -24.5 -5c-11.333 0 -17 6.33301 -17 19l7 120c-182.667 10 -322 74.667 -418 194s-144 293 -144 521z" />
    <glyph glyph-name="Egrave" unicode="&#xc8;" 
d="M195 18v1342c0 12 5.33301 18 16 18h700c4.66699 0 8.66699 -1.66699 12 -5s5 -7 5 -11s-1.66699 -7.66699 -5 -11s-7.33301 -5 -12 -5h-680v-635h535c4.66699 0 8.5 -1.83301 11.5 -5.5s4.5 -7.5 4.5 -11.5c0 -10.667 -5.33301 -16 -16 -16h-535v-645h705
c4.66699 0 8.5 -1.83301 11.5 -5.5s4.5 -7.5 4.5 -11.5c0 -10.667 -5.33301 -16 -16 -16h-725c-10.667 0 -16 6 -16 18zM449 1724c-12 12 -11.999 22.999 0.000976562 32.999c10.667 8.66699 20.667 7.33398 30 -3.99902l207 -244
c6.66699 -6.66699 6.66699 -13.334 0 -20.001c-6.66699 -5.33301 -13.334 -4.66602 -20.001 2.00098z" />
    <glyph glyph-name="Eacute" unicode="&#xc9;" 
d="M195 18v1342c0 12 5.33301 18 16 18h700c4.66699 0 8.66699 -1.66699 12 -5s5 -7 5 -11s-1.66699 -7.66699 -5 -11s-7.33301 -5 -12 -5h-680v-635h535c4.66699 0 8.5 -1.83301 11.5 -5.5s4.5 -7.5 4.5 -11.5c0 -10.667 -5.33301 -16 -16 -16h-535v-645h705
c4.66699 0 8.5 -1.83301 11.5 -5.5s4.5 -7.5 4.5 -11.5c0 -10.667 -5.33301 -16 -16 -16h-725c-10.667 0 -16 6 -16 18zM465 1489c-6.66699 6.66699 -6.66602 13.335 0.000976562 20.002l207 244c9.33301 11.333 19.333 12.666 30 3.99902c12 -10 12 -21 0 -33l-217 -233
c-6.66699 -6.66699 -13.334 -7.33398 -20.001 -2.00098z" />
    <glyph glyph-name="Ecircumflex" unicode="&#xca;" 
d="M195 18v1342c0 12 5.33301 18 16 18h700c4.66699 0 8.66699 -1.66699 12 -5s5 -7 5 -11s-1.66699 -7.66699 -5 -11s-7.33301 -5 -12 -5h-680v-635h535c4.66699 0 8.5 -1.83301 11.5 -5.5s4.5 -7.5 4.5 -11.5c0 -10.667 -5.33301 -16 -16 -16h-535v-645h705
c4.66699 0 8.5 -1.83301 11.5 -5.5s4.5 -7.5 4.5 -11.5c0 -10.667 -5.33301 -16 -16 -16h-725c-10.667 0 -16 6 -16 18zM340 1536c0 5.33301 3.33398 10.666 10.001 15.999l207 164c7.33301 5.33301 13.333 8 18 8c5.33301 0 11.666 -2.66699 18.999 -8l207 -164
c6.66699 -5.33301 10 -10.666 10 -15.999c0 -4 -1.66699 -7.66699 -5 -11s-7 -5 -11 -5c-6 0 -11 2 -15 6l-205 164l-204 -164c-4 -4 -9 -6 -15 -6c-4 0 -7.66699 1.66699 -11 5s-5 7 -5 11z" />
    <glyph glyph-name="Edieresis" unicode="&#xcb;" horiz-adv-x="1038" 
d="M195 18v1342c0 12 5.33301 18 16 18h700c4.66699 0 8.66699 -1.66699 12 -5s5 -7 5 -11s-1.66699 -7.66699 -5 -11s-7.33301 -5 -12 -5h-680v-635h535c4.66699 0 8.5 -1.83301 11.5 -5.5s4.5 -7.5 4.5 -11.5c0 -10.667 -5.33301 -16 -16 -16h-535v-645h705
c4.66699 0 8.5 -1.83301 11.5 -5.5s4.5 -7.5 4.5 -11.5c0 -10.667 -5.33301 -16 -16 -16h-725c-10.667 0 -16 6 -16 18zM420 1565c0 11.333 2.33301 19.5 7 24.5s12.667 7.5 24 7.5c20 0 30 -10.667 30 -32c0 -22 -10 -33 -30 -33c-20.667 0 -31 11 -31 33zM670 1565
c0 12 2.16699 20.333 6.5 25s12.166 7 23.499 7c20.667 0 31 -10.667 31 -32c0 -22 -10.333 -33 -31 -33c-11.333 0 -19.166 2.5 -23.499 7.5s-6.5 13.5 -6.5 25.5z" />
    <glyph glyph-name="Igrave" unicode="&#xcc;" horiz-adv-x="434" 
d="M39 1724c-12 12 -11.998 23 0.00195312 33c11.333 9.33301 21.666 8 30.999 -4l206 -244c6.66699 -6.66699 6.66699 -13.334 0 -20.001c-6.66699 -5.33301 -13.334 -4.66602 -20.001 2.00098zM184.002 2v1374c0 5.33301 2 9.83301 6 13.5s8.33301 5.5 13 5.5
s8.83398 -1.83301 12.501 -5.5s5.5 -8.16699 5.5 -13.5v-1374c0 -5.33301 -1.83301 -9.66602 -5.5 -12.999s-7.83398 -5 -12.501 -5c-5.33301 0 -9.83301 1.83301 -13.5 5.5s-5.5 7.83398 -5.5 12.501z" />
    <glyph glyph-name="Iacute" unicode="&#xcd;" horiz-adv-x="425" 
d="M156 1489c-6.66699 6.66699 -6.66504 13.334 0.00195312 20.001l206 244c9.33301 12 19.666 13.333 30.999 4c12 -10 12 -21 0 -33l-217 -233c-6.66699 -6.66699 -13.334 -7.33398 -20.001 -2.00098zM195.002 2v1374c0 5.33301 1.83301 9.83301 5.5 13.5
s7.83398 5.5 12.501 5.5s8.83398 -1.83301 12.501 -5.5s5.5 -8.16699 5.5 -13.5v-1374c0 -5.33301 -1.83301 -9.66602 -5.5 -12.999s-7.83398 -5 -12.501 -5s-8.83398 1.66699 -12.501 5s-5.5 7.66602 -5.5 12.999z" />
    <glyph glyph-name="Icircumflex" unicode="&#xce;" horiz-adv-x="425" 
d="M-23 1534c0 5.33301 3.66699 10.666 11 15.999l207 164c7.33301 5.33301 13.333 8 18 8s10.667 -2.66699 18 -8l207 -164c7.33301 -5.33301 11 -10.666 11 -15.999c0 -4 -1.83301 -7.66699 -5.5 -11s-7.5 -5 -11.5 -5c-5.33301 0 -10 2 -14 6l-205 164l-205 -164
c-4 -4 -8.66699 -6 -14 -6c-4 0 -7.83301 1.66699 -11.5 5s-5.5 7 -5.5 11zM195 2v1374c0 5.33301 1.83301 9.83301 5.5 13.5s7.83398 5.5 12.501 5.5s8.83398 -1.83301 12.501 -5.5s5.5 -8.16699 5.5 -13.5v-1374c0 -5.33301 -1.83301 -9.66602 -5.5 -12.999
s-7.83398 -5 -12.501 -5s-8.83398 1.66699 -12.501 5s-5.5 7.66602 -5.5 12.999z" />
    <glyph glyph-name="Idieresis" unicode="&#xcf;" horiz-adv-x="425" 
d="M53 1565c0 11.333 2.33301 19.5 7 24.5s12.667 7.5 24 7.5c20.667 0 31 -10.667 31 -32c0 -22 -10.333 -33 -31 -33s-31 11 -31 33zM195 2v1374c0 5.33301 1.83301 9.83301 5.5 13.5s7.83398 5.5 12.501 5.5s8.83398 -1.83301 12.501 -5.5s5.5 -8.16699 5.5 -13.5v-1374
c0 -5.33301 -1.83301 -9.66602 -5.5 -12.999s-7.83398 -5 -12.501 -5s-8.83398 1.66699 -12.501 5s-5.5 7.66602 -5.5 12.999zM303 1565c0 11.333 2.33301 19.5 7 24.5s12.667 7.5 24 7.5c20.667 0 31 -10.667 31 -32c0 -22 -10.333 -33 -31 -33s-31 11 -31 33z" />
    <glyph glyph-name="Eth" unicode="&#xd0;" horiz-adv-x="1234" 
d="M59 717c0 4 1.66797 7.66992 5.00098 11.0029s7.33301 5 12 5h119v627c0 5.33301 1.83301 9.66602 5.5 12.999s7.83398 5 12.501 5h301c100 0 187.5 -12.333 262.5 -37s139.667 -63.834 194 -117.501s95.333 -125.167 123 -214.5s41.5 -196.333 41.5 -321
s-13.833 -231.5 -41.5 -320.5s-68.667 -160.167 -123 -213.5s-118.833 -92.333 -193.5 -117s-162.334 -37 -263.001 -37h-301c-4.66699 0 -8.83398 1.66699 -12.501 5s-5.5 7.66602 -5.5 12.999v682h-119c-4.66699 0 -8.66699 1.83301 -12 5.5s-5 7.5 -5 11.5z
M231.001 33.0029l283 -0.000976562c94 0 176.167 11.667 246.5 35s131.166 60.5 182.499 111.5s90 118.833 116 203.5s39 186.334 39 305.001c0 117.333 -13 218.5 -39 303.5s-64.667 153.333 -116 205s-112.166 89.5 -182.499 113.5s-152.5 36 -246.5 36h-283v-613h490
c10.667 0 16 -5.33301 16 -16c0 -4 -1.5 -7.83301 -4.5 -11.5s-6.83301 -5.5 -11.5 -5.5h-490v-667z" />
    <glyph glyph-name="Ntilde" unicode="&#xd1;" horiz-adv-x="1269" 
d="M170 2l-0.00390625 1374c0 5.33301 1.83301 9.83301 5.5 13.5s7.83398 5.5 12.501 5.5c6.66699 0 12.334 -3.66699 17.001 -11l848 -1318v1310c0 5.33301 1.83301 9.83301 5.5 13.5s7.83398 5.5 12.501 5.5s9 -1.83301 13 -5.5s6 -8.16699 6 -13.5v-1374
c0 -4.66699 -1.83301 -8.83398 -5.5 -12.501s-8.16699 -5.5 -13.5 -5.5c-7.33301 0 -13.333 3.33301 -18 10l-846 1319v-1311c0 -4.66699 -1.83301 -8.83398 -5.5 -12.501s-8.16699 -5.5 -13.5 -5.5s-9.66602 1.66699 -12.999 5s-5 7.66602 -5 12.999zM378.996 1532
c0 4 1.33301 8.66699 4 14c27.333 58.667 73.666 88 138.999 88c31.333 0 62 -7.16699 92 -21.5l87 -43c28 -14.333 55.667 -21.5 83 -21.5s49 5.66699 65 17s30 29 42 53c5.33301 10.667 12 16 20 16c4.66699 0 8.66699 -1.66699 12 -5s5 -7 5 -11
s-1.33301 -8.66699 -4 -14c-27.333 -58.667 -74 -88 -140 -88c-31.333 0 -62 7.16699 -92 21.5l-87.5 43c-28.333 14.333 -55.833 21.5 -82.5 21.5c-27.333 0 -48.666 -5.66699 -63.999 -17s-29.333 -29 -42 -53c-5.33301 -10.667 -12.333 -16 -21 -16
c-10.667 0 -16 5.33301 -16 16z" />
    <glyph glyph-name="Ograve" unicode="&#xd2;" horiz-adv-x="1433" 
d="M100 688c0 239.333 52.833 419 158.5 539s258.5 180 458.5 180s352.667 -60 458 -180s158 -299.667 158 -539c0 -238.667 -52.667 -417.834 -158 -537.501s-258 -179.5 -458 -179.5s-352.833 59.833 -458.5 179.5s-158.5 298.834 -158.5 537.501zM137 688
c0 -226 49.167 -396.5 147.5 -511.5s242.5 -172.5 432.5 -172.5s334 57.5 432 172.5s147 285.5 147 511.5c0 226.667 -49 397.667 -147 513s-242 173 -432 173s-334.167 -57.667 -432.5 -173s-147.5 -286.333 -147.5 -513zM575 1724c-12 12 -11.998 23 0.00195312 33
c11.333 9.33301 21.666 8 30.999 -4l207 -244c6.66699 -6.66699 6.66699 -13.334 0 -20.001c-6.66699 -5.33301 -13.334 -4.66602 -20.001 2.00098z" />
    <glyph glyph-name="Oacute" unicode="&#xd3;" horiz-adv-x="1433" 
d="M100 688c0 239.333 52.833 419 158.5 539s258.5 180 458.5 180s352.667 -60 458 -180s158 -299.667 158 -539c0 -238.667 -52.667 -417.834 -158 -537.501s-258 -179.5 -458 -179.5s-352.833 59.833 -458.5 179.5s-158.5 298.834 -158.5 537.501zM137 688
c0 -226 49.167 -396.5 147.5 -511.5s242.5 -172.5 432.5 -172.5s334 57.5 432 172.5s147 285.5 147 511.5c0 226.667 -49 397.667 -147 513s-242 173 -432 173s-334.167 -57.667 -432.5 -173s-147.5 -286.333 -147.5 -513zM649 1489
c-6.66699 6.66699 -6.66602 13.334 0.000976562 20.001l207 244c9.33301 12 19.666 13.333 30.999 4c12 -10 12 -21 0 -33l-217 -233c-6.66699 -6.66699 -13.667 -7.33398 -21 -2.00098z" />
    <glyph glyph-name="Ocircumflex" unicode="&#xd4;" horiz-adv-x="1433" 
d="M100 688c0 239.333 52.833 419 158.5 539s258.5 180 458.5 180s352.667 -60 458 -180s158 -299.667 158 -539c0 -238.667 -52.667 -417.834 -158 -537.501s-258 -179.5 -458 -179.5s-352.833 59.833 -458.5 179.5s-158.5 298.834 -158.5 537.501zM137 688
c0 -226 49.167 -396.5 147.5 -511.5s242.5 -172.5 432.5 -172.5s334 57.5 432 172.5s147 285.5 147 511.5c0 226.667 -49 397.667 -147 513s-242 173 -432 173s-334.167 -57.667 -432.5 -173s-147.5 -286.333 -147.5 -513zM481 1536c0 5.33301 3.66797 10.666 11.001 15.999
l206 164c7.33301 5.33301 13.666 8 18.999 8c4.66699 0 10.667 -2.66699 18 -8l207 -164c6.66699 -5.33301 10 -10.666 10 -15.999c0 -4 -1.66699 -7.66699 -5 -11s-7 -5 -11 -5c-5.33301 0 -10 2 -14 6l-205 164l-205 -164c-4 -4 -8.66699 -6 -14 -6
c-4 0 -7.83301 1.66699 -11.5 5s-5.5 7 -5.5 11z" />
    <glyph glyph-name="Otilde" unicode="&#xd5;" horiz-adv-x="1433" 
d="M100 688c0 239.333 52.833 419 158.5 539s258.5 180 458.5 180s352.667 -60 458 -180s158 -299.667 158 -539c0 -238.667 -52.667 -417.834 -158 -537.501s-258 -179.5 -458 -179.5s-352.833 59.833 -458.5 179.5s-158.5 298.834 -158.5 537.501zM137 688
c0 -226 49.167 -396.5 147.5 -511.5s242.5 -172.5 432.5 -172.5s334 57.5 432 172.5s147 285.5 147 511.5c0 226.667 -49 397.667 -147 513s-242 173 -432 173s-334.167 -57.667 -432.5 -173s-147.5 -286.333 -147.5 -513zM442 1532c0 4 1.33301 8.66699 4 14
c27.333 58.667 74 88 140 88c31.333 0 62 -7.16699 92 -21.5l87 -43c28 -14.333 55.667 -21.5 83 -21.5s48.666 5.66699 63.999 17s29.333 29 42 53c5.33301 10.667 12.333 16 21 16c10.667 0 16 -5.33301 16 -16c0 -4 -1.33301 -8.66699 -4 -14
c-27.333 -58.667 -73.666 -88 -138.999 -88c-31.333 0 -62 7.16699 -92 21.5l-87.5 43c-28.333 14.333 -55.833 21.5 -82.5 21.5c-27.333 0 -49 -5.66699 -65 -17s-30 -29 -42 -53c-5.33301 -10.667 -12 -16 -20 -16c-4.66699 0 -8.66699 1.66699 -12 5s-5 7 -5 11z" />
    <glyph glyph-name="Odieresis" unicode="&#xd6;" horiz-adv-x="1433" 
d="M100 688c0 239.333 52.833 419 158.5 539s258.5 180 458.5 180s352.667 -60 458 -180s158 -299.667 158 -539c0 -238.667 -52.667 -417.834 -158 -537.501s-258 -179.5 -458 -179.5s-352.833 59.833 -458.5 179.5s-158.5 298.834 -158.5 537.501zM137 688
c0 -226 49.167 -396.5 147.5 -511.5s242.5 -172.5 432.5 -172.5s334 57.5 432 172.5s147 285.5 147 511.5c0 226.667 -49 397.667 -147 513s-242 173 -432 173s-334.167 -57.667 -432.5 -173s-147.5 -286.333 -147.5 -513zM567 1565c0 11.333 2.33301 19.5 7 24.5
s12.667 7.5 24 7.5c20.667 0 31 -10.667 31 -32c0 -22 -10.333 -33 -31 -33s-31 11 -31 33zM817 1565c0 11.333 2.33301 19.5 7 24.5s12.667 7.5 24 7.5c20.667 0 31 -10.667 31 -32c0 -22 -10.333 -33 -31 -33s-31 11 -31 33z" />
    <glyph glyph-name="multiply" unicode="&#xd7;" horiz-adv-x="702" 
d="M0 119c0 6 2.66602 10.667 7.99902 14l318 313l-318 314c-5.33301 3.33301 -8 8 -8 14c0 5.33301 1.83301 9.83301 5.5 13.5s7.83398 5.5 12.501 5.5c5.33301 0 10.333 -2.33301 15 -7l317 -315l320 315c4.66699 4.66699 9.33398 7 14.001 7
s8.83398 -1.83301 12.501 -5.5s5.5 -8.16699 5.5 -13.5c0 -6 -2.66699 -10.667 -8 -14l-317 -314l317 -313c5.33301 -3.33301 8 -8 8 -14c0 -5.33301 -1.83301 -9.83301 -5.5 -13.5s-7.83398 -5.5 -12.501 -5.5c-5.33301 0 -10 2 -14 6l-320 314l-317 -314
c-4 -4 -9 -6 -15 -6c-4.66699 0 -8.83398 1.83301 -12.501 5.5s-5.5 8.16699 -5.5 13.5z" />
    <glyph glyph-name="Oslash" unicode="&#xd8;" horiz-adv-x="1433" 
d="M100 688c0 239.333 52.834 419.001 158.501 539.001s258.5 180 458.5 180c179.333 0 321.333 -48.333 426 -145l125 157c4 5.33301 9.33301 8 16 8c9.33301 0 14 -4.66699 14 -14c0 -5.33301 -2 -10 -6 -14l-127 -162c112 -120 168 -303 168 -549
c0 -238.667 -52.667 -417.834 -158 -537.501s-258 -179.5 -458 -179.5c-182.667 0 -325.334 49.333 -428.001 148l-127 -162c-4 -4 -9 -6 -15 -6c-9.33301 0 -14 4.66699 -14 14c0 6 2 11 6 15l127 161c-110.667 120.667 -166 303 -166 547zM137.001 688.001
c0 -228.667 50.666 -401.333 151.999 -518l831 1061c-97.333 95.333 -231.666 143 -402.999 143c-190 0 -334.167 -57.667 -432.5 -173s-147.5 -286.333 -147.5 -513zM311 147.002c95.333 -95.333 230.667 -142.999 406 -142.999c190 0 334 57.5 432 172.5
s147 285.5 147 511.5c0 229.333 -51 402.666 -153 519.999z" />
    <glyph glyph-name="Ugrave" unicode="&#xd9;" horiz-adv-x="1280" 
d="M195 381l-0.00292969 994.999c0 5.33301 1.83301 9.83301 5.5 13.5s7.83398 5.5 12.501 5.5s8.83398 -1.83301 12.501 -5.5s5.5 -8.16699 5.5 -13.5v-995c0 -44 3.33301 -83.5 10 -118.5s19.5 -69.167 38.5 -102.5s43.833 -61 74.5 -83s71.334 -39.667 122.001 -53
s109.667 -20 177 -20s126.166 6.66699 176.499 20s90.5 31 120.5 53s54.167 49.833 72.5 83.5s30.666 67.834 36.999 102.501s9.5 74 9.5 118v995c0 5.33301 1.83301 9.83301 5.5 13.5s7.83398 5.5 12.501 5.5s9 -1.83301 13 -5.5s6 -8.16699 6 -13.5v-995
c0 -46.667 -3.5 -88.834 -10.5 -126.501s-20.5 -74.667 -40.5 -111s-46.5 -66.666 -79.5 -90.999s-76.667 -44 -131 -59s-118.166 -22.5 -191.499 -22.5s-137.333 7.5 -192 22.5s-98.667 34.667 -132 59s-60.333 54.666 -81 90.999s-34.667 73.333 -42 111
s-11 79.834 -11 126.501zM536.997 1724c-12 12 -11.999 22.999 0.000976562 32.999c10.667 8.66699 20.667 7.33398 30 -3.99902l207 -244c6.66699 -6.66699 6.66699 -13.334 0 -20.001c-6.66699 -5.33301 -13.334 -4.66602 -20.001 2.00098z" />
    <glyph glyph-name="Uacute" unicode="&#xda;" horiz-adv-x="1280" 
d="M195 381l-0.00292969 994.999c0 5.33301 1.83301 9.83301 5.5 13.5s7.83398 5.5 12.501 5.5s8.83398 -1.83301 12.501 -5.5s5.5 -8.16699 5.5 -13.5v-995c0 -44 3.33301 -83.5 10 -118.5s19.5 -69.167 38.5 -102.5s43.833 -61 74.5 -83s71.334 -39.667 122.001 -53
s109.667 -20 177 -20s126.166 6.66699 176.499 20s90.5 31 120.5 53s54.167 49.833 72.5 83.5s30.666 67.834 36.999 102.501s9.5 74 9.5 118v995c0 5.33301 1.83301 9.83301 5.5 13.5s7.83398 5.5 12.501 5.5s9 -1.83301 13 -5.5s6 -8.16699 6 -13.5v-995
c0 -46.667 -3.5 -88.834 -10.5 -126.501s-20.5 -74.667 -40.5 -111s-46.5 -66.666 -79.5 -90.999s-76.667 -44 -131 -59s-118.166 -22.5 -191.499 -22.5s-137.333 7.5 -192 22.5s-98.667 34.667 -132 59s-60.333 54.666 -81 90.999s-34.667 73.333 -42 111
s-11 79.834 -11 126.501zM560.997 1489c-6.66699 6.66699 -6.66602 13.334 0.000976562 20.001l207 244c9.33301 12 19.666 13.333 30.999 4c12 -10 12 -21 0 -33l-217 -233c-6.66699 -6.66699 -13.667 -7.33398 -21 -2.00098z" />
    <glyph glyph-name="Ucircumflex" unicode="&#xdb;" horiz-adv-x="1280" 
d="M195 381l-0.00292969 994.999c0 5.33301 1.83301 9.83301 5.5 13.5s7.83398 5.5 12.501 5.5s8.83398 -1.83301 12.501 -5.5s5.5 -8.16699 5.5 -13.5v-995c0 -44 3.33301 -83.5 10 -118.5s19.5 -69.167 38.5 -102.5s43.833 -61 74.5 -83s71.334 -39.667 122.001 -53
s109.667 -20 177 -20s126.166 6.66699 176.499 20s90.5 31 120.5 53s54.167 49.833 72.5 83.5s30.666 67.834 36.999 102.501s9.5 74 9.5 118v995c0 5.33301 1.83301 9.83301 5.5 13.5s7.83398 5.5 12.501 5.5s9 -1.83301 13 -5.5s6 -8.16699 6 -13.5v-995
c0 -46.667 -3.5 -88.834 -10.5 -126.501s-20.5 -74.667 -40.5 -111s-46.5 -66.666 -79.5 -90.999s-76.667 -44 -131 -59s-118.166 -22.5 -191.499 -22.5s-137.333 7.5 -192 22.5s-98.667 34.667 -132 59s-60.333 54.666 -81 90.999s-34.667 73.333 -42 111
s-11 79.834 -11 126.501zM425.997 1536c0 5.33301 3.33398 10.666 10.001 15.999l207 164c7.33301 5.33301 13.666 8 18.999 8c4.66699 0 10.667 -2.66699 18 -8l207 -164c6.66699 -5.33301 10 -10.666 10 -15.999c0 -4 -1.66699 -7.66699 -5 -11s-7 -5 -11 -5
c-6 0 -11 2 -15 6l-204 164l-205 -164c-4 -4 -9 -6 -15 -6c-4 0 -7.66699 1.66699 -11 5s-5 7 -5 11z" />
    <glyph glyph-name="Udieresis" unicode="&#xdc;" horiz-adv-x="1280" 
d="M195 381l-0.00292969 994.999c0 5.33301 1.83301 9.83301 5.5 13.5s7.83398 5.5 12.501 5.5s8.83398 -1.83301 12.501 -5.5s5.5 -8.16699 5.5 -13.5v-995c0 -44 3.33301 -83.5 10 -118.5s19.5 -69.167 38.5 -102.5s43.833 -61 74.5 -83s71.334 -39.667 122.001 -53
s109.667 -20 177 -20s126.166 6.66699 176.499 20s90.5 31 120.5 53s54.167 49.833 72.5 83.5s30.666 67.834 36.999 102.501s9.5 74 9.5 118v995c0 5.33301 1.83301 9.83301 5.5 13.5s7.83398 5.5 12.501 5.5s9 -1.83301 13 -5.5s6 -8.16699 6 -13.5v-995
c0 -46.667 -3.5 -88.834 -10.5 -126.501s-20.5 -74.667 -40.5 -111s-46.5 -66.666 -79.5 -90.999s-76.667 -44 -131 -59s-118.166 -22.5 -191.499 -22.5s-137.333 7.5 -192 22.5s-98.667 34.667 -132 59s-60.333 54.666 -81 90.999s-34.667 73.333 -42 111
s-11 79.834 -11 126.501zM495.997 1565c0 12 2.16699 20.333 6.5 25s12.166 7 23.499 7c20.667 0 31 -10.667 31 -32c0 -22 -10.333 -33 -31 -33c-11.333 0 -19.166 2.5 -23.499 7.5s-6.5 13.5 -6.5 25.5zM744.997 1565c0 11.333 2.33301 19.5 7 24.5s12.667 7.5 24 7.5
c20.667 0 31 -10.667 31 -32c0 -22 -10.333 -33 -31 -33s-31 11 -31 33z" />
    <glyph glyph-name="Yacute" unicode="&#xdd;" 
d="M57 1376c0 5.33301 1.83008 9.83496 5.49707 13.502s8.16699 5.5 13.5 5.5c6 0 11.333 -3.66699 16 -11l428 -679l428 679c4.66699 7.33301 10.334 11 17.001 11c4.66699 0 8.83398 -1.83301 12.501 -5.5s5.5 -8.16699 5.5 -13.5c0 -4 -1.33301 -8 -4 -12l-440 -698v-664
c0 -4.66699 -1.83301 -8.83398 -5.5 -12.501s-8.16699 -5.5 -13.5 -5.5s-9.66602 1.66699 -12.999 5s-5 7.66602 -5 12.999v664l-441 698c-2.66699 4 -4 8 -4 12zM443.997 1489c-6.66699 6.66699 -6.66602 13.334 0.000976562 20.001l207 244
c9.33301 12 19.666 13.333 30.999 4c12 -10 12 -21 0 -33l-217 -233c-6.66699 -6.66699 -13.667 -7.33398 -21 -2.00098z" />
    <glyph glyph-name="Thorn" unicode="&#xde;" horiz-adv-x="1093" 
d="M195 2v1374c0 5.33301 1.83301 9.83301 5.5 13.5s7.83398 5.5 12.501 5.5s8.83398 -1.83301 12.501 -5.5s5.5 -8.16699 5.5 -13.5v-274h396c112 0 201 -32.667 267 -98s99 -161 99 -287c0 -124.667 -33 -220 -99 -286s-155 -99 -267 -99h-396v-330
c0 -5.33301 -1.83301 -9.66602 -5.5 -12.999s-7.83398 -5 -12.501 -5s-8.83398 1.66699 -12.501 5s-5.5 7.66602 -5.5 12.999zM231 365h396c102.667 0 183.167 31.667 241.5 95s87.5 149 87.5 257c0 110 -28.833 196.167 -86.5 258.5s-138.5 93.5 -242.5 93.5h-396v-704z
" />
    <glyph glyph-name="germandbls" unicode="&#xdf;" horiz-adv-x="1064" 
d="M164 2v1059c0 104.667 24.5 187.834 73.5 249.501s124.167 92.5 225.5 92.5c75.333 0 137.166 -22.333 185.499 -67s72.5 -99.667 72.5 -165c0 -34 -6 -64.833 -18 -92.5s-27.833 -50.834 -47.5 -69.501s-41.167 -36.167 -64.5 -52.5l-70 -47.5
c-23.333 -15.333 -44.833 -31 -64.5 -47s-35.5 -35.333 -47.5 -58s-18 -47.667 -18 -75c0 -38 10.833 -70.833 32.5 -98.5s49.834 -49.834 84.501 -66.501s73 -32 115 -46l126 -44c42 -15.333 80.333 -32.666 115 -51.999s62.834 -45.5 84.501 -78.5
s32.5 -71.833 32.5 -116.5c0 -83.333 -29.833 -146.5 -89.5 -189.5s-139.167 -64.5 -238.5 -64.5c-76 0 -142.167 14 -198.5 42s-102.166 60.667 -137.499 98c-4 4 -6 8 -6 12s1.5 7.66699 4.5 11s7.16699 5 12.5 5c4 0 8.66699 -2.66699 14 -8
c82 -84.667 185.667 -127 311 -127c89.333 0 160.166 18.667 212.499 56s78.5 92.333 78.5 165c0 40.667 -10.833 76 -32.5 106s-49.834 53.833 -84.501 71.5s-73 33.667 -115 48l-126 43.5c-42 14.667 -80.333 31.167 -115 49.5s-62.834 43 -84.501 74
s-32.5 67.5 -32.5 109.5c0 30.667 6 58.5 18 83.5s27.833 46 47.5 63s41.167 33.333 64.5 49l70 46.5c23.333 15.333 44.833 31.833 64.5 49.5s35.5 39.334 47.5 65.001s18 54.167 18 85.5c0 60 -21.167 108.167 -63.5 144.5s-94.833 54.5 -157.5 54.5
c-86.667 0 -152 -26.667 -196 -80s-66 -129.666 -66 -228.999v-1059c0 -4.66699 -1.83301 -8.83398 -5.5 -12.501s-8.16699 -5.5 -13.5 -5.5s-9.66602 1.66699 -12.999 5s-5 7.66602 -5 12.999z" />
    <glyph glyph-name="agrave" unicode="&#xe0;" horiz-adv-x="946" 
d="M82 254c0 88.667 31.001 156.832 93.001 204.499s145.667 71.5 251 71.5h342v107c0 92 -27 163.167 -81 213.5s-128.667 75.5 -224 75.5c-137.333 0 -235 -49.333 -293 -148c-4 -8 -10 -12 -18 -12c-4 0 -7.83301 1.66699 -11.5 5s-5.5 7 -5.5 11c0 5.33301 2 11 6 17
c65.333 106 172.666 159 321.999 159c110.667 0 195 -28.667 253 -86s87 -135.666 87 -234.999v-635c0 -10.667 -6.33301 -16 -19 -16c-10.667 0 -16 5.33301 -16 16v150c-26.667 -58 -71 -102 -133 -132s-133 -45 -213 -45c-110.667 0 -195 25.5 -253 76.5
s-87 118.5 -87 202.5zM119.001 253.998c0 -76.667 26 -136.834 78 -180.501s127 -65.5 225 -65.5c46 0 89.167 5.5 129.5 16.5s77 27.167 110 48.5s59 50 78 86s28.5 77.333 28.5 124v217h-342c-92.667 0 -167 -21.667 -223 -65s-84 -103.666 -84 -180.999zM348.001 1309
c-11.333 11.333 -11.332 21.999 0.000976562 31.999c11.333 9.33301 21.666 8 30.999 -4l207 -243c6.66699 -6.66699 6.66699 -13.667 0 -21c-7.33301 -5.33301 -14.333 -4.66602 -21 2.00098z" />
    <glyph glyph-name="aacute" unicode="&#xe1;" horiz-adv-x="946" 
d="M82 254c0 88.667 31.001 156.832 93.001 204.499s145.667 71.5 251 71.5h342v107c0 92 -27 163.167 -81 213.5s-128.667 75.5 -224 75.5c-137.333 0 -235 -49.333 -293 -148c-4 -8 -10 -12 -18 -12c-4 0 -7.83301 1.66699 -11.5 5s-5.5 7 -5.5 11c0 5.33301 2 11 6 17
c65.333 106 172.666 159 321.999 159c110.667 0 195 -28.667 253 -86s87 -135.666 87 -234.999v-635c0 -10.667 -6.33301 -16 -19 -16c-10.667 0 -16 5.33301 -16 16v150c-26.667 -58 -71 -102 -133 -132s-133 -45 -213 -45c-110.667 0 -195 25.5 -253 76.5
s-87 118.5 -87 202.5zM119.001 253.998c0 -76.667 26 -136.834 78 -180.501s127 -65.5 225 -65.5c46 0 89.167 5.5 129.5 16.5s77 27.167 110 48.5s59 50 78 86s28.5 77.333 28.5 124v217h-342c-92.667 0 -167 -21.667 -223 -65s-84 -103.666 -84 -180.999zM387.001 1073
c-7.33301 7.33301 -7.33203 14.334 0.000976562 21.001l207 243c9.33301 12 19.666 13.333 30.999 4c11.333 -10 11.333 -20.667 0 -32l-217 -234c-6.66699 -6.66699 -13.667 -7.33398 -21 -2.00098z" />
    <glyph glyph-name="acircumflex" unicode="&#xe2;" horiz-adv-x="946" 
d="M82 254c0 88.667 31.001 156.832 93.001 204.499s145.667 71.5 251 71.5h342v107c0 92 -27 163.167 -81 213.5s-128.667 75.5 -224 75.5c-137.333 0 -235 -49.333 -293 -148c-4 -8 -10 -12 -18 -12c-4 0 -7.83301 1.66699 -11.5 5s-5.5 7 -5.5 11c0 5.33301 2 11 6 17
c65.333 106 172.666 159 321.999 159c110.667 0 195 -28.667 253 -86s87 -135.666 87 -234.999v-635c0 -10.667 -6.33301 -16 -19 -16c-10.667 0 -16 5.33301 -16 16v150c-26.667 -58 -71 -102 -133 -132s-133 -45 -213 -45c-110.667 0 -195 25.5 -253 76.5
s-87 118.5 -87 202.5zM119.001 253.998c0 -76.667 26 -136.834 78 -180.501s127 -65.5 225 -65.5c46 0 89.167 5.5 129.5 16.5s77 27.167 110 48.5s59 50 78 86s28.5 77.333 28.5 124v217h-342c-92.667 0 -167 -21.667 -223 -65s-84 -103.666 -84 -180.999zM242.001 1143
c0 6 3.33594 11.332 10.0029 15.999l207 164c7.33301 5.33301 13.333 8 18 8c5.33301 0 11.666 -2.66699 18.999 -8l206 -164c7.33301 -5.33301 11 -10.666 11 -15.999c0 -4 -1.83301 -7.83301 -5.5 -11.5s-7.5 -5.5 -11.5 -5.5c-4.66699 0 -9.33398 2.33301 -14.001 7
l-205 163l-205 -163c-4.66699 -4.66699 -9.33398 -7 -14.001 -7c-4 0 -7.66699 1.83301 -11 5.5s-5 7.5 -5 11.5z" />
    <glyph glyph-name="atilde" unicode="&#xe3;" horiz-adv-x="946" 
d="M82 254c0 88.667 31.001 156.832 93.001 204.499s145.667 71.5 251 71.5h342v107c0 92 -27 163.167 -81 213.5s-128.667 75.5 -224 75.5c-137.333 0 -235 -49.333 -293 -148c-4 -8 -10 -12 -18 -12c-4 0 -7.83301 1.66699 -11.5 5s-5.5 7 -5.5 11c0 5.33301 2 11 6 17
c65.333 106 172.666 159 321.999 159c110.667 0 195 -28.667 253 -86s87 -135.666 87 -234.999v-635c0 -10.667 -6.33301 -16 -19 -16c-10.667 0 -16 5.33301 -16 16v150c-26.667 -58 -71 -102 -133 -132s-133 -45 -213 -45c-110.667 0 -195 25.5 -253 76.5
s-87 118.5 -87 202.5zM119.001 253.998c0 -76.667 26 -136.834 78 -180.501s127 -65.5 225 -65.5c46 0 89.167 5.5 129.5 16.5s77 27.167 110 48.5s59 50 78 86s28.5 77.333 28.5 124v217h-342c-92.667 0 -167 -21.667 -223 -65s-84 -103.666 -84 -180.999zM186.001 1130
c0 4.66699 1.33301 9.66699 4 15c27.333 58.667 74 88 140 88c31.333 0 62 -7.16699 92 -21.5l87 -43c28 -14.333 55.667 -21.5 83 -21.5s48.666 5.66699 63.999 17s29.333 29 42 53c5.33301 10.667 12.333 16 21 16c10.667 0 16 -5.33301 16 -16
c0 -4.66699 -1.33301 -9.66699 -4 -15c-27.333 -58.667 -73.666 -88 -138.999 -88c-32 0 -62.833 7.16699 -92.5 21.5l-87 43c-28.333 14.333 -55.833 21.5 -82.5 21.5c-27.333 0 -49 -5.66699 -65 -17s-30 -29 -42 -53c-5.33301 -10.667 -12 -16 -20 -16
c-4.66699 0 -8.66699 1.66699 -12 5s-5 7 -5 11z" />
    <glyph glyph-name="adieresis" unicode="&#xe4;" horiz-adv-x="946" 
d="M82 254c0 88.667 31.001 156.832 93.001 204.499s145.667 71.5 251 71.5h342v107c0 92 -27 163.167 -81 213.5s-128.667 75.5 -224 75.5c-137.333 0 -235 -49.333 -293 -148c-4 -8 -10 -12 -18 -12c-4 0 -7.83301 1.66699 -11.5 5s-5.5 7 -5.5 11c0 5.33301 2 11 6 17
c65.333 106 172.666 159 321.999 159c110.667 0 195 -28.667 253 -86s87 -135.666 87 -234.999v-635c0 -10.667 -6.33301 -16 -19 -16c-10.667 0 -16 5.33301 -16 16v150c-26.667 -58 -71 -102 -133 -132s-133 -45 -213 -45c-110.667 0 -195 25.5 -253 76.5
s-87 118.5 -87 202.5zM119.001 253.998c0 -76.667 26 -136.834 78 -180.501s127 -65.5 225 -65.5c46 0 89.167 5.5 129.5 16.5s77 27.167 110 48.5s59 50 78 86s28.5 77.333 28.5 124v217h-342c-92.667 0 -167 -21.667 -223 -65s-84 -103.666 -84 -180.999zM317.001 1161
c0 22 10.333 33 31 33s31 -11 31 -33s-10.333 -33 -31 -33s-31 11 -31 33zM567.001 1161c0 22 10.333 33 31 33s31 -11 31 -33s-10.333 -33 -31 -33s-31 11 -31 33z" />
    <glyph glyph-name="aring" unicode="&#xe5;" horiz-adv-x="946" 
d="M82 254c0 88.667 31.001 156.832 93.001 204.499s145.667 71.5 251 71.5h342v107c0 92 -27 163.167 -81 213.5s-128.667 75.5 -224 75.5c-137.333 0 -235 -49.333 -293 -148c-4 -8 -10 -12 -18 -12c-4 0 -7.83301 1.66699 -11.5 5s-5.5 7 -5.5 11c0 5.33301 2 11 6 17
c65.333 106 172.666 159 321.999 159c110.667 0 195 -28.667 253 -86s87 -135.666 87 -234.999v-635c0 -10.667 -6.33301 -16 -19 -16c-10.667 0 -16 5.33301 -16 16v150c-26.667 -58 -71 -102 -133 -132s-133 -45 -213 -45c-110.667 0 -195 25.5 -253 76.5
s-87 118.5 -87 202.5zM119.001 253.998c0 -76.667 26 -136.834 78 -180.501s127 -65.5 225 -65.5c46 0 89.167 5.5 129.5 16.5s77 27.167 110 48.5s59 50 78 86s28.5 77.333 28.5 124v217h-342c-92.667 0 -167 -21.667 -223 -65s-84 -103.666 -84 -180.999zM268.001 1229
c0 62 17 109.833 51 143.5s85.333 50.5 154 50.5s120 -16.833 154 -50.5s51 -81.5 51 -143.5s-17 -110 -51 -144s-85.333 -51 -154 -51s-120 17 -154 51s-51 82 -51 144zM301.001 1229c0 -109.333 57.333 -164 172 -164s172 54.667 172 164s-57.333 164 -172 164
s-172 -54.667 -172 -164z" />
    <glyph glyph-name="ae" unicode="&#xe6;" horiz-adv-x="1630" 
d="M82 248c0 86.667 31 153.332 93 199.999s145.667 70 251 70h342v119c0 92 -27 163.167 -81 213.5s-128.667 75.5 -224 75.5c-76 0 -136.333 -14 -181 -42s-80.667 -65.333 -108 -112c-4 -8 -10 -12 -18 -12c-4 0 -7.83301 1.66699 -11.5 5s-5.5 7 -5.5 11
c0 5.33301 2 11 6 17c68 110 174 165 318 165c97.333 0 174.166 -22.333 230.499 -67s90.833 -106.667 103.5 -186c26.667 86 71 149.667 133 191s144 62 246 62c64.667 0 121 -9.66699 169 -29s84.667 -42.833 110 -70.5s45.5 -61 60.5 -100s24.5 -73.333 28.5 -103
s6 -61.167 6 -94.5c0 -50.667 -13 -76 -39 -76h-706c0 -319.333 123.667 -479 371 -479c116 0 219.667 33.333 311 100c8.66699 6 14 9 16 9c4 0 7.83301 -1.66699 11.5 -5s5.5 -7.33301 5.5 -12c0 -3.33301 -2.33301 -7.33301 -7 -12c-92.667 -75.333 -205 -113 -337 -113
c-106.667 0 -192.167 27 -256.5 81s-105.166 126 -122.499 216c-13.333 -87.333 -51 -158.333 -113 -213s-149.333 -82 -262 -82c-110.667 0 -195 24.833 -253 74.5s-87 115.834 -87 198.501zM119 247.998c0 -74.667 26 -133.332 78 -175.999s127 -64 225 -64
c46 0 89.167 6.16699 129.5 18.5s77 31 110 56s59 58.667 78 101s28.5 91.166 28.5 146.499v157h-342c-92.667 0 -167 -20.833 -223 -62.5s-84 -100.5 -84 -176.5zM807 518l705.998 -0.000976562c2 22 3 38.333 3 49c0 36 -2.66699 69.667 -8 101s-15.5 63.333 -30.5 96
s-34.667 60.5 -59 83.5s-57.166 41.833 -98.499 56.5s-89.333 22 -144 22c-123.333 0 -215.666 -33.667 -276.999 -101s-92 -169.666 -92 -306.999z" />
    <glyph glyph-name="ccedilla" unicode="&#xe7;" horiz-adv-x="907" 
d="M92 465c0 165.333 34.666 288.832 103.999 370.499s170.666 122.5 303.999 122.5c72.667 0 132.834 -11.5 180.501 -34.5s83.5 -48.167 107.5 -75.5c6 -6 9 -10.667 9 -14c0 -4 -1.66699 -7.83301 -5 -11.5s-7.33301 -5.5 -12 -5.5c-5.33301 0 -10 2 -14 6
c-68.667 68.667 -157.334 103 -266.001 103c-247.333 0 -371 -153.667 -371 -461c0 -306 123.667 -459 371 -459c100.667 0 194 34.333 280 103c6 4 11 6 15 6c4.66699 0 8.5 -1.83301 11.5 -5.5s4.5 -7.5 4.5 -11.5c0 -5.33301 -3.33301 -10.666 -10 -15.999
c-91.333 -72.667 -191.666 -109 -300.999 -109c-16.667 0 -28.334 0.666992 -35.001 2l-8 -114c18.667 6.66699 39 10 61 10c52.667 0 93.167 -13.333 121.5 -40s42.5 -65.334 42.5 -116.001c0 -52 -15.167 -93.333 -45.5 -124s-75.166 -46 -134.499 -46
c-24 0 -48 4.16699 -72 12.5s-40.333 16.5 -49 24.5c-4 4 -6 8 -6 12c0 10 4.66699 15 14 15c3.33301 0 8 -2 14 -6c27.333 -19.333 60.333 -29 99 -29c99.333 0 149 47 149 141c0 44.667 -13 77.334 -39 98.001s-57.333 31 -94 31c-16 0 -31.667 -1.66699 -47 -5
s-23.666 -5 -24.999 -5c-10.667 0 -16 6.33301 -16 19l6 124c-229.333 23.333 -344 186 -344 488z" />
    <glyph glyph-name="egrave" unicode="&#xe8;" horiz-adv-x="954" 
d="M92 467c0 327.333 136.001 490.999 408.001 490.999c64.667 0 121 -9.5 169 -28.5s84.667 -42 110 -69s45.5 -59.667 60.5 -98s24.5 -72.166 28.5 -101.499s6 -60.666 6 -93.999c0 -28.667 -2 -55.334 -6 -80.001c-3.33301 -16 -14 -24 -32 -24h-707
c0 -304.667 123.667 -457 371 -457c116 0 219.667 33.333 311 100c8.66699 6 14 9 16 9c4 0 7.83301 -1.66699 11.5 -5s5.5 -7.33301 5.5 -12c0 -4 -2 -8 -6 -12c-92.667 -75.333 -205.334 -113 -338.001 -113c-272 0 -408 164.667 -408 494zM131.001 495.999
l706.999 -0.000976562c1.33301 36.667 2 60.334 2 71.001c0 36 -2.66699 69.667 -8 101s-15.5 63.333 -30.5 96s-34.667 60.5 -59 83.5s-57.166 41.833 -98.499 56.5s-89.333 22 -144 22c-122 0 -214 -36.833 -276 -110.5s-93 -180.167 -93 -319.5zM360 1309
c-11.333 11.333 -11.3311 21.999 0.00195312 31.999c11.333 9.33301 21.666 8 30.999 -4l207 -243c6.66699 -6.66699 6.66699 -13.667 0 -21c-6.66699 -5.33301 -13.334 -4.66602 -20.001 2.00098z" />
    <glyph glyph-name="eacute" unicode="&#xe9;" horiz-adv-x="954" 
d="M92 467c0 327.333 136.001 490.999 408.001 490.999c64.667 0 121 -9.5 169 -28.5s84.667 -42 110 -69s45.5 -59.667 60.5 -98s24.5 -72.166 28.5 -101.499s6 -60.666 6 -93.999c0 -28.667 -2 -55.334 -6 -80.001c-3.33301 -16 -14 -24 -32 -24h-707
c0 -304.667 123.667 -457 371 -457c116 0 219.667 33.333 311 100c8.66699 6 14 9 16 9c4 0 7.83301 -1.66699 11.5 -5s5.5 -7.33301 5.5 -12c0 -4 -2 -8 -6 -12c-92.667 -75.333 -205.334 -113 -338.001 -113c-272 0 -408 164.667 -408 494zM131.001 495.999
l706.999 -0.000976562c1.33301 36.667 2 60.334 2 71.001c0 36 -2.66699 69.667 -8 101s-15.5 63.333 -30.5 96s-34.667 60.5 -59 83.5s-57.166 41.833 -98.499 56.5s-89.333 22 -144 22c-122 0 -214 -36.833 -276 -110.5s-93 -180.167 -93 -319.5zM422 1073
c-6.66699 7.33301 -6.66602 14.335 0.000976562 21.002l207 243c9.33301 11.333 19.333 12.666 30 3.99902c11.333 -10 11.333 -20.667 0 -32l-217 -234c-6.66699 -6.66699 -13.334 -7.33398 -20.001 -2.00098z" />
    <glyph glyph-name="ecircumflex" unicode="&#xea;" horiz-adv-x="954" 
d="M92 467c0 327.333 136.001 490.999 408.001 490.999c64.667 0 121 -9.5 169 -28.5s84.667 -42 110 -69s45.5 -59.667 60.5 -98s24.5 -72.166 28.5 -101.499s6 -60.666 6 -93.999c0 -28.667 -2 -55.334 -6 -80.001c-3.33301 -16 -14 -24 -32 -24h-707
c0 -304.667 123.667 -457 371 -457c116 0 219.667 33.333 311 100c8.66699 6 14 9 16 9c4 0 7.83301 -1.66699 11.5 -5s5.5 -7.33301 5.5 -12c0 -4 -2 -8 -6 -12c-92.667 -75.333 -205.334 -113 -338.001 -113c-272 0 -408 164.667 -408 494zM131.001 495.999
l706.999 -0.000976562c1.33301 36.667 2 60.334 2 71.001c0 36 -2.66699 69.667 -8 101s-15.5 63.333 -30.5 96s-34.667 60.5 -59 83.5s-57.166 41.833 -98.499 56.5s-89.333 22 -144 22c-122 0 -214 -36.833 -276 -110.5s-93 -180.167 -93 -319.5zM274 1143
c0 5.33301 3.66895 10.666 11.002 15.999l207 164c7.33301 5.33301 13.333 8 18 8s10.667 -2.66699 18 -8l207 -164c6.66699 -5.33301 10 -10.666 10 -15.999c0 -4 -1.66699 -7.83301 -5 -11.5s-7 -5.5 -11 -5.5c-4.66699 0 -9.33398 2.33301 -14.001 7l-205 163l-205 -163
c-4.66699 -4.66699 -9.33398 -7 -14.001 -7c-4 0 -7.83301 1.83301 -11.5 5.5s-5.5 7.5 -5.5 11.5z" />
    <glyph glyph-name="edieresis" unicode="&#xeb;" horiz-adv-x="954" 
d="M92 467c0 327.333 136.001 490.999 408.001 490.999c64.667 0 121 -9.5 169 -28.5s84.667 -42 110 -69s45.5 -59.667 60.5 -98s24.5 -72.166 28.5 -101.499s6 -60.666 6 -93.999c0 -28.667 -2 -55.334 -6 -80.001c-3.33301 -16 -14 -24 -32 -24h-707
c0 -304.667 123.667 -457 371 -457c116 0 219.667 33.333 311 100c8.66699 6 14 9 16 9c4 0 7.83301 -1.66699 11.5 -5s5.5 -7.33301 5.5 -12c0 -4 -2 -8 -6 -12c-92.667 -75.333 -205.334 -113 -338.001 -113c-272 0 -408 164.667 -408 494zM131.001 495.999
l706.999 -0.000976562c1.33301 36.667 2 60.334 2 71.001c0 36 -2.66699 69.667 -8 101s-15.5 63.333 -30.5 96s-34.667 60.5 -59 83.5s-57.166 41.833 -98.499 56.5s-89.333 22 -144 22c-122 0 -214 -36.833 -276 -110.5s-93 -180.167 -93 -319.5zM354 1161
c0 22 10.333 33 31 33s31 -11 31 -33s-10.333 -33 -31 -33s-31 11 -31 33zM604 1161c0 22 10.333 33 31 33s31 -11 31 -33s-10.333 -33 -31 -33s-31 11 -31 33z" />
    <glyph glyph-name="igrave" unicode="&#xec;" horiz-adv-x="364" 
d="M2 1309c-11.333 11.333 -11.332 21.999 0.000976562 31.999c11.333 9.33301 21.666 8 30.999 -4l207 -243c6.66699 -6.66699 6.66699 -13.667 0 -21c-7.33301 -5.33301 -14.333 -4.66602 -21 2.00098zM164.001 1.99902v926.004c0 5.33301 1.66699 9.66602 5 12.999
s7.66602 5 12.999 5s9.83301 -1.83301 13.5 -5.5s5.5 -7.83398 5.5 -12.501v-926c0 -4.66699 -1.83301 -8.83398 -5.5 -12.501s-8.16699 -5.5 -13.5 -5.5s-9.66602 1.66699 -12.999 5s-5 7.66602 -5 12.999z" />
    <glyph glyph-name="iacute" unicode="&#xed;" horiz-adv-x="364" 
d="M133 1073c-7.33301 7.33301 -7.33203 14.334 0.000976562 21.001l207 243c9.33301 12 19.666 13.333 30.999 4c11.333 -10 11.333 -20.667 0 -32l-217 -234c-6.66699 -6.66699 -13.667 -7.33398 -21 -2.00098zM164.001 2.00098v926.004
c0 5.33301 1.66699 9.66602 5 12.999s7.66602 5 12.999 5s9.83301 -1.83301 13.5 -5.5s5.5 -7.83398 5.5 -12.501v-926c0 -4.66699 -1.83301 -8.83398 -5.5 -12.501s-8.16699 -5.5 -13.5 -5.5s-9.66602 1.66699 -12.999 5s-5 7.66602 -5 12.999z" />
    <glyph glyph-name="icircumflex" unicode="&#xee;" horiz-adv-x="364" 
d="M-55 1143c0 6 3.33594 11.333 10.0029 16l207 164c7.33301 5.33301 13.333 8 18 8c5.33301 0 11.666 -2.66699 18.999 -8l207 -164c6.66699 -4.66699 10 -10 10 -16c0 -4 -1.83301 -7.83301 -5.5 -11.5s-7.5 -5.5 -11.5 -5.5c-4.66699 0 -9.33398 2.33301 -14.001 7
l-205 163l-205 -163c-4.66699 -4.66699 -9.33398 -7 -14.001 -7c-4 0 -7.66699 1.83301 -11 5.5s-5 7.5 -5 11.5zM164.003 2v926.004c0 5.33301 1.66699 9.66602 5 12.999s7.66602 5 12.999 5s9.83301 -1.83301 13.5 -5.5s5.5 -7.83398 5.5 -12.501v-926
c0 -4.66699 -1.83301 -8.83398 -5.5 -12.501s-8.16699 -5.5 -13.5 -5.5s-9.66602 1.66699 -12.999 5s-5 7.66602 -5 12.999z" />
    <glyph glyph-name="idieresis" unicode="&#xef;" horiz-adv-x="364" 
d="M25 1161c0 12 2.16699 20.5 6.5 25.5s12.166 7.5 23.499 7.5c20.667 0 31 -11 31 -33s-10.333 -33 -31 -33c-11.333 0 -19.166 2.5 -23.499 7.5s-6.5 13.5 -6.5 25.5zM164 2v926.004c0 5.33301 1.66699 9.66602 5 12.999s7.66602 5 12.999 5s9.83301 -1.83301 13.5 -5.5
s5.5 -7.83398 5.5 -12.501v-926c0 -4.66699 -1.83301 -8.83398 -5.5 -12.501s-8.16699 -5.5 -13.5 -5.5s-9.66602 1.66699 -12.999 5s-5 7.66602 -5 12.999zM274 1161c0 22 10.333 33 31 33s31 -11 31 -33s-10.333 -33 -31 -33s-31 11 -31 33z" />
    <glyph glyph-name="eth" unicode="&#xf0;" horiz-adv-x="1005" 
d="M92 465c0 328.667 135.999 492.999 407.999 492.999c171.333 0 288 -65.333 350 -196c-19.333 88 -50.666 175.333 -93.999 262s-89.333 155.667 -138 207l-157 -103l-10 -4c-4.66699 0 -8.66699 1.83301 -12 5.5s-5 7.5 -5 11.5c0 6.66699 4 12.667 12 18l150 96
c-63.333 68.667 -139.666 125.334 -228.999 170.001c-8.66699 4.66699 -13 11 -13 19c0 9.33301 5 14 15 14c5.33301 0 10.666 -1.33301 15.999 -4c40.667 -20 82.5 -46.167 125.5 -78.5s81.167 -65.5 114.5 -99.5l127 82c4 2.66699 8 4 12 4
c4.66699 0 8.16699 -1.66699 10.5 -5s3.5 -6.33301 3.5 -9c0 -8 -3.33301 -14.333 -10 -19l-121 -78c86 -100.667 150.833 -212.5 194.5 -335.5s65.5 -273.167 65.5 -450.5c0 -328 -135.667 -492 -407 -492c-272 0 -408 164 -408 492zM128.999 464.999
c0 -306 123.667 -459.001 371 -459.001c123.333 0 215.833 37.833 277.5 113.5s92.5 190.834 92.5 345.501c0 156 -30.833 271.833 -92.5 347.5s-154.167 113.5 -277.5 113.5c-247.333 0 -371 -153.667 -371 -461z" />
    <glyph glyph-name="ntilde" unicode="&#xf1;" horiz-adv-x="1024" 
d="M164 2l-0.00390625 926.004c0 5.33301 1.66699 9.66602 5 12.999s7.66602 5 12.999 5s9.83301 -1.83301 13.5 -5.5s5.5 -7.83398 5.5 -12.501v-185c8 25.333 20.333 50 37 74s38 46.833 64 68.5s59 39.167 99 52.5s83.667 20 131 20c56 0 105 -6.66699 147 -20
s75.667 -30.833 101 -52.5s45.666 -48.667 60.999 -81s25.833 -65 31.5 -98s8.5 -69.833 8.5 -110.5v-594c0 -4.66699 -1.83301 -8.83398 -5.5 -12.501s-8.16699 -5.5 -13.5 -5.5s-9.66602 1.66699 -12.999 5s-5 7.66602 -5 12.999v612c0 44.667 -4.66699 84.5 -14 119.5
s-25.166 67.333 -47.499 97s-54.666 52.667 -96.999 69s-93.5 24.5 -153.5 24.5c-53.333 0 -101.666 -9.16699 -144.999 -27.5s-78.166 -42.666 -104.499 -72.999s-46.5 -64.166 -60.5 -101.499s-21 -76 -21 -116v-604c0 -4.66699 -1.83301 -8.83398 -5.5 -12.501
s-8.16699 -5.5 -13.5 -5.5s-9.66602 1.66699 -12.999 5s-5 7.66602 -5 12.999zM253.996 1130c0 4.66699 1.33301 9.66699 4 15c27.333 58.667 73.666 88 138.999 88c31.333 0 62 -7.16699 92 -21.5l87 -43c28 -14.333 55.667 -21.5 83 -21.5s49 5.66699 65 17s30 29 42 53
c5.33301 10.667 12 16 20 16c4.66699 0 8.66699 -1.66699 12 -5s5 -7 5 -11c0 -4.66699 -1.33301 -9.66699 -4 -15c-27.333 -58.667 -74 -88 -140 -88c-31.333 0 -62 7.16699 -92 21.5l-87.5 43c-28.333 14.333 -55.833 21.5 -82.5 21.5
c-27.333 0 -48.666 -5.66699 -63.999 -17s-29.333 -29 -42 -53c-5.33301 -10.667 -12.333 -16 -21 -16c-10.667 0 -16 5.33301 -16 16z" />
    <glyph glyph-name="ograve" unicode="&#xf2;" horiz-adv-x="999" 
d="M88 465c0 328.667 136 493 408 493c271.333 0 407 -164.333 407 -493c0 -328 -135.667 -492 -407 -492c-272 0 -408 164 -408 492zM125 465c0 -306 123.667 -459.001 371 -459.001c123.333 0 215.833 37.833 277.5 113.5s92.5 190.834 92.5 345.501
c0 156 -30.833 271.833 -92.5 347.5s-154.167 113.5 -277.5 113.5c-247.333 0 -371 -153.667 -371 -461zM385 1309c-11.333 11.333 -11.332 21.999 0.000976562 31.999c11.333 9.33301 21.666 8 30.999 -4l207 -243c7.33301 -6.66699 7.33301 -13.667 0 -21
c-7.33301 -5.33301 -14.333 -4.66602 -21 2.00098z" />
    <glyph glyph-name="oacute" unicode="&#xf3;" horiz-adv-x="999" 
d="M88 465c0 328.667 136 493 408 493c271.333 0 407 -164.333 407 -493c0 -328 -135.667 -492 -407 -492c-272 0 -408 164 -408 492zM125 465c0 -306 123.667 -459.001 371 -459.001c123.333 0 215.833 37.833 277.5 113.5s92.5 190.834 92.5 345.501
c0 156 -30.833 271.833 -92.5 347.5s-154.167 113.5 -277.5 113.5c-247.333 0 -371 -153.667 -371 -461zM434 1073c-6.66699 7.33301 -6.66602 14.334 0.000976562 21.001l207 243c9.33301 12 19.666 13.333 30.999 4c11.333 -10 11.333 -20.667 0 -32l-217 -234
c-6.66699 -6.66699 -13.667 -7.33398 -21 -2.00098z" />
    <glyph glyph-name="ocircumflex" unicode="&#xf4;" horiz-adv-x="999" 
d="M88 465c0 328.667 136 493 408 493c271.333 0 407 -164.333 407 -493c0 -328 -135.667 -492 -407 -492c-272 0 -408 164 -408 492zM125 465c0 -306 123.667 -459.001 371 -459.001c123.333 0 215.833 37.833 277.5 113.5s92.5 190.834 92.5 345.501
c0 156 -30.833 271.833 -92.5 347.5s-154.167 113.5 -277.5 113.5c-247.333 0 -371 -153.667 -371 -461zM266 1143c0 6 3.33594 11.332 10.0029 15.999l207 164c7.33301 5.33301 13.666 8 18.999 8c4.66699 0 10.667 -2.66699 18 -8l207 -164
c6.66699 -5.33301 10 -10.666 10 -15.999c0 -4 -1.66699 -7.83301 -5 -11.5s-7 -5.5 -11 -5.5c-4.66699 0 -9.33398 2.33301 -14.001 7l-205 163l-205 -163c-4.66699 -4.66699 -9.33398 -7 -14.001 -7c-4 0 -7.83301 1.83301 -11.5 5.5s-5.5 7.5 -5.5 11.5z" />
    <glyph glyph-name="otilde" unicode="&#xf5;" horiz-adv-x="999" 
d="M88 465c0 328.667 136 493 408 493c271.333 0 407 -164.333 407 -493c0 -328 -135.667 -492 -407 -492c-272 0 -408 164 -408 492zM125 465c0 -306 123.667 -459.001 371 -459.001c123.333 0 215.833 37.833 277.5 113.5s92.5 190.834 92.5 345.501
c0 156 -30.833 271.833 -92.5 347.5s-154.167 113.5 -277.5 113.5c-247.333 0 -371 -153.667 -371 -461zM229 1130c0 4.66699 1.33301 9.66699 4 15c27.333 58.667 74 88 140 88c31.333 0 62 -7.16699 92 -21.5l87 -43c28 -14.333 55.667 -21.5 83 -21.5
s48.666 5.66699 63.999 17s29.333 29 42 53c5.33301 10.667 12.333 16 21 16c10.667 0 16 -5.33301 16 -16c0 -4.66699 -1.33301 -9.66699 -4 -15c-27.333 -58.667 -73.666 -88 -138.999 -88c-31.333 0 -62 7.16699 -92 21.5l-87.5 43
c-28.333 14.333 -55.833 21.5 -82.5 21.5c-27.333 0 -49 -5.66699 -65 -17s-30 -29 -42 -53c-5.33301 -10.667 -12 -16 -20 -16c-4.66699 0 -8.66699 1.66699 -12 5s-5 7 -5 11z" />
    <glyph glyph-name="odieresis" unicode="&#xf6;" horiz-adv-x="999" 
d="M88 465c0 328.667 136 493 408 493c271.333 0 407 -164.333 407 -493c0 -328 -135.667 -492 -407 -492c-272 0 -408 164 -408 492zM125 465c0 -306 123.667 -459.001 371 -459.001c123.333 0 215.833 37.833 277.5 113.5s92.5 190.834 92.5 345.501
c0 156 -30.833 271.833 -92.5 347.5s-154.167 113.5 -277.5 113.5c-247.333 0 -371 -153.667 -371 -461zM344 1161c0 22 10.333 33 31 33s31 -11 31 -33s-10.333 -33 -31 -33s-31 11 -31 33zM594 1161c0 22 10.333 33 31 33c20 0 30 -11 30 -33s-10 -33 -30 -33
c-20.667 0 -31 11 -31 33z" />
    <glyph glyph-name="divide" unicode="&#xf7;" horiz-adv-x="909" 
d="M0 446c0 4 1.5 7.83301 4.5 11.5s6.83301 5.5 11.5 5.5h877c4.66699 0 8.5 -1.83301 11.5 -5.5s4.5 -7.5 4.5 -11.5c0 -10.667 -5.33301 -16 -16 -16h-877c-10.667 0 -16 5.33301 -16 16zM418 197c0 9.33301 3.66699 17.666 11 24.999s16 11 26 11
s18.667 -3.66699 26 -11s11 -15.666 11 -24.999c0 -11.333 -3.66699 -20.666 -11 -27.999s-16 -11 -26 -11s-18.667 3.66699 -26 11s-11 16.666 -11 27.999zM418 696c0 10 3.66699 18.667 11 26s16 11 26 11s18.667 -3.66699 26 -11s11 -16 11 -26s-3.66699 -18.667 -11 -26
s-16 -11 -26 -11s-18.667 3.66699 -26 11s-11 16 -11 26z" />
    <glyph glyph-name="oslash" unicode="&#xf8;" horiz-adv-x="999" 
d="M61 8c0 6 3.00098 10.999 9.00098 14.999l100 106c-52 81.333 -78 193.333 -78 336c0 328.667 136 493 408 493c140.667 0 245.667 -45.667 315 -137l107 115c4 4 8.66699 6 14 6s9.66602 -1.66699 12.999 -5s5 -7.66602 5 -12.999c0 -6.66699 -2.66699 -11.667 -8 -15
l-110 -118c47.333 -78.667 71 -187.334 71 -326.001c0 -328 -135.667 -492 -407 -492c-138 0 -241.333 42.333 -310 127l-96 -104c-4 -4 -8.66699 -6 -14 -6s-9.83301 1.83301 -13.5 5.5s-5.5 7.83398 -5.5 12.501zM129.001 464.999c0 -128.667 22 -231 66 -307l596 637
c-60.667 87.333 -157.667 131 -291 131c-247.333 0 -371 -153.667 -371 -461zM215.001 126.999c60 -80.667 155 -121.001 285 -121.001c123.333 0 215.833 37.833 277.5 113.5s92.5 190.834 92.5 345.501c0 126 -20.333 225.667 -61 299z" />
    <glyph glyph-name="ugrave" unicode="&#xf9;" horiz-adv-x="1003" 
d="M143 336l0.00195312 591.996c0 4.66699 1.83301 8.83398 5.5 12.501s8.16699 5.5 13.5 5.5s9.66602 -1.66699 12.999 -5s5 -7.66602 5 -12.999v-611c0 -206 107.333 -309 322 -309c214 0 321 103 321 309v611c0 4.66699 1.83301 8.83398 5.5 12.501s8.16699 5.5 13.5 5.5
s9.66602 -1.66699 12.999 -5s5 -7.66602 5 -12.999v-592c0 -242 -119.333 -363 -358 -363c-239.333 0 -359 121 -359 363zM367.002 1309c-11.333 11.333 -11.332 21.998 0.000976562 31.998c10.667 8.66699 20.667 7.33398 30 -3.99902l207 -243
c6.66699 -6.66699 6.66699 -13.667 0 -21c-6.66699 -5.33301 -13.334 -4.66602 -20.001 2.00098z" />
    <glyph glyph-name="uacute" unicode="&#xfa;" horiz-adv-x="1003" 
d="M143 336l0.00195312 591.996c0 4.66699 1.83301 8.83398 5.5 12.501s8.16699 5.5 13.5 5.5s9.66602 -1.66699 12.999 -5s5 -7.66602 5 -12.999v-611c0 -206 107.333 -309 322 -309c214 0 321 103 321 309v611c0 4.66699 1.83301 8.83398 5.5 12.501s8.16699 5.5 13.5 5.5
s9.66602 -1.66699 12.999 -5s5 -7.66602 5 -12.999v-592c0 -242 -119.333 -363 -358 -363c-239.333 0 -359 121 -359 363zM432.002 1073c-6.66699 7.33301 -6.66602 14.334 0.000976562 21.001l207 243c9.33301 12 19.666 13.333 30.999 4c11.333 -10 11.333 -20.667 0 -32
l-217 -234c-6.66699 -6.66699 -13.667 -7.33398 -21 -2.00098z" />
    <glyph glyph-name="ucircumflex" unicode="&#xfb;" horiz-adv-x="1003" 
d="M143 336l0.00195312 591.996c0 4.66699 1.83301 8.83398 5.5 12.501s8.16699 5.5 13.5 5.5s9.66602 -1.66699 12.999 -5s5 -7.66602 5 -12.999v-611c0 -206 107.333 -309 322 -309c214 0 321 103 321 309v611c0 4.66699 1.83301 8.83398 5.5 12.501s8.16699 5.5 13.5 5.5
s9.66602 -1.66699 12.999 -5s5 -7.66602 5 -12.999v-592c0 -242 -119.333 -363 -358 -363c-239.333 0 -359 121 -359 363zM279.002 1143c0 6 3.33496 11.332 10.002 15.999l207 164c7.33301 5.33301 13.333 8 18 8s10.667 -2.66699 18 -8l207 -164
c7.33301 -5.33301 11 -10.666 11 -15.999c0 -4 -1.83301 -7.83301 -5.5 -11.5s-7.5 -5.5 -11.5 -5.5c-4.66699 0 -9.33398 2.33301 -14.001 7l-205 163l-205 -163c-4.66699 -4.66699 -9.33398 -7 -14.001 -7c-4 0 -7.66699 1.83301 -11 5.5s-5 7.5 -5 11.5z" />
    <glyph glyph-name="udieresis" unicode="&#xfc;" horiz-adv-x="1003" 
d="M143 336l0.00195312 591.996c0 4.66699 1.83301 8.83398 5.5 12.501s8.16699 5.5 13.5 5.5s9.66602 -1.66699 12.999 -5s5 -7.66602 5 -12.999v-611c0 -206 107.333 -309 322 -309c214 0 321 103 321 309v611c0 4.66699 1.83301 8.83398 5.5 12.501s8.16699 5.5 13.5 5.5
s9.66602 -1.66699 12.999 -5s5 -7.66602 5 -12.999v-592c0 -242 -119.333 -363 -358 -363c-239.333 0 -359 121 -359 363zM350.002 1161c0 22 10.333 33 31 33s31 -11 31 -33s-10.333 -33 -31 -33s-31 11 -31 33zM600.002 1161c0 22 10.333 33 31 33s31 -11 31 -33
s-10.333 -33 -31 -33s-31 11 -31 33z" />
    <glyph glyph-name="yacute" unicode="&#xfd;" horiz-adv-x="876" 
d="M35 -395c0 10.667 5.3291 15.9971 15.9961 15.9971c24.667 0 46.834 1.33301 66.501 4s37.834 6 54.501 10s32.334 11 47.001 21s27.5 19.333 38.5 28s22.5 22 34.5 40s22.333 34.333 31 49s19 35.834 31 63.501l31 73l35 88.5l-367 915c-2.66699 8 -4 13 -4 15
c0 4.66699 1.83301 8.83398 5.5 12.501s8.16699 5.5 13.5 5.5c8 0 14 -4.66699 18 -14l352 -891l353 891c4 9.33301 10 14 18 14c4.66699 0 8.83398 -1.66699 12.501 -5s5.5 -7.66602 5.5 -12.999c0 -2 -1.33301 -7 -4 -15l-424 -1056
c-41.333 -102.667 -86.333 -173.167 -135 -211.5s-119.667 -57.5 -213 -57.5c-4.66699 0 -8.5 1.83301 -11.5 5.5s-4.5 7.5 -4.5 11.5zM378.996 1073c-7.33301 7.33301 -7.33203 14.335 0.000976562 21.002l207 243c9.33301 11.333 19.333 12.666 30 3.99902
c11.333 -10 11.333 -20.667 0 -32l-217 -234c-6.66699 -6.66699 -13.334 -7.33398 -20.001 -2.00098z" />
    <glyph glyph-name="thorn" unicode="&#xfe;" horiz-adv-x="1034" 
d="M164 -393l0.000976562 1833c0 5.33301 1.66699 9.66602 5 12.999s7.66602 5 12.999 5s9.83301 -1.83301 13.5 -5.5s5.5 -7.83398 5.5 -12.501v-725c48.667 162 164.667 243 348 243c132 0 230.5 -40.333 295.5 -121s97.5 -204.667 97.5 -372
s-32.5 -291.166 -97.5 -371.499s-163.5 -120.5 -295.5 -120.5c-40 0 -77.167 4.5 -111.5 13.5s-63 20.667 -86 35s-43.833 30.166 -62.5 47.499s-33.167 34.666 -43.5 51.999s-19.166 33.166 -26.499 47.499s-12.333 26.166 -15 35.499l-3 13v-610
c0 -4.66699 -1.83301 -9 -5.5 -13s-8.16699 -6 -13.5 -6c-4.66699 0 -8.83398 1.83301 -12.501 5.5s-5.5 8.16699 -5.5 13.5zM197.001 467.005c0 -152 30 -266.831 90 -344.498s147.333 -116.5 262 -116.5c118 0 206.833 38.667 266.5 116s89.5 191.666 89.5 342.999
c0 307.333 -118.667 461 -356 461c-114.667 0 -202 -38.333 -262 -115s-90 -191.334 -90 -344.001z" />
    <glyph glyph-name="ydieresis" unicode="&#xff;" horiz-adv-x="876" 
d="M35 -395c0 10.667 5.3291 15.9971 15.9961 15.9971c24.667 0 46.834 1.33301 66.501 4s37.834 6 54.501 10s32.334 11 47.001 21s27.5 19.333 38.5 28s22.5 22 34.5 40s22.333 34.333 31 49s19 35.834 31 63.501l31 73l35 88.5l-367 915c-2.66699 8 -4 13 -4 15
c0 4.66699 1.83301 8.83398 5.5 12.501s8.16699 5.5 13.5 5.5c8 0 14 -4.66699 18 -14l352 -891l353 891c4 9.33301 10 14 18 14c4.66699 0 8.83398 -1.66699 12.501 -5s5.5 -7.66602 5.5 -12.999c0 -2 -1.33301 -7 -4 -15l-424 -1056
c-41.333 -102.667 -86.333 -173.167 -135 -211.5s-119.667 -57.5 -213 -57.5c-4.66699 0 -8.5 1.83301 -11.5 5.5s-4.5 7.5 -4.5 11.5zM280.996 1161c0 12 2.16699 20.5 6.5 25.5s12.166 7.5 23.499 7.5c20.667 0 31 -11 31 -33s-10.333 -33 -31 -33
c-11.333 0 -19.166 2.5 -23.499 7.5s-6.5 13.5 -6.5 25.5zM529.996 1161c0 22 10.333 33 31 33s31 -11 31 -33s-10.333 -33 -31 -33s-31 11 -31 33z" />
    <glyph glyph-name="OE" unicode="&#x152;" horiz-adv-x="1923" 
d="M100 688c0 239.333 52.833 418.999 158.5 538.999s258.5 180 458.5 180c144.667 0 264.667 -31.333 360 -94v47c0 12 5.66699 18 17 18h700c10.667 0 16 -5.33301 16 -16s-5.33301 -16 -16 -16h-680v-635h535c4.66699 0 8.5 -1.83301 11.5 -5.5s4.5 -7.5 4.5 -11.5
c0 -10.667 -5.33301 -16 -16 -16h-535v-645h705c4.66699 0 8.5 -1.83301 11.5 -5.5s4.5 -7.5 4.5 -11.5c0 -10.667 -5.33301 -16 -16 -16h-725c-11.333 0 -17 6 -17 18v48c-96.667 -63.333 -216.667 -95 -360 -95c-200 0 -352.833 59.833 -458.5 179.5
s-158.5 298.834 -158.5 537.501zM137 687.999c0 -226 49.167 -396.5 147.5 -511.5s242.5 -172.5 432.5 -172.5c150.667 0 270.667 34 360 102v1162c-92.667 70.667 -212.667 106 -360 106c-190 0 -334.167 -57.667 -432.5 -173s-147.5 -286.333 -147.5 -513z" />
    <glyph glyph-name="oe" unicode="&#x153;" horiz-adv-x="1732" 
d="M92 465c0 328.667 136.001 492.998 408.001 492.998c104 0 189.5 -26.833 256.5 -80.5s111.167 -132.5 132.5 -236.5c18 103.333 60.833 182 128.5 236s154.5 81 260.5 81c64.667 0 121 -9.5 169 -28.5s84.833 -42 110.5 -69s46 -59.667 61 -98
s24.5 -72.166 28.5 -101.499s6 -60.666 6 -93.999c0 -28.667 -2 -55.334 -6 -80.001c-3.33301 -16 -14.333 -24 -33 -24h-709c0 -153.333 32.5 -267.833 97.5 -343.5s156.833 -113.5 275.5 -113.5c116 0 219.667 33.333 311 100c8.66699 6 14.334 9 17.001 9
c4 0 7.66699 -1.66699 11 -5s5 -7.33301 5 -12c0 -4 -2 -8 -6 -12c-92.667 -75.333 -205.334 -113 -338.001 -113c-104.667 0 -189.834 26.833 -255.501 80.5s-110.167 132.834 -133.5 237.501c-23.333 -104 -68 -183 -134 -237s-151 -81 -255 -81c-272 0 -408 164 -408 492
zM129.001 464.998c0 -306 123.669 -459.001 371.002 -459.001c246.667 0 370 153.667 370 461c-0.666992 154.667 -31.834 269.834 -93.501 345.501s-153.834 113.5 -276.501 113.5c-247.333 0 -371 -153.667 -371 -461zM907.003 495.997l708.999 -0.000976562
c1.33301 36.667 2 60.334 2 71.001c0 36 -2.66699 69.667 -8 101s-15.5 63.333 -30.5 96s-34.667 60.5 -59 83.5s-57.166 41.833 -98.499 56.5s-89.333 22 -144 22c-122 0 -214.333 -36.833 -277 -110.5s-94 -180.167 -94 -319.5z" />
    <glyph glyph-name="Ydieresis" unicode="&#x178;" 
d="M53 1376c0 5.33301 1.83008 9.83496 5.49707 13.502s8.16699 5.5 13.5 5.5c6 0 11.333 -3.66699 16 -11l428 -679l428 679c4.66699 7.33301 10.334 11 17.001 11c4.66699 0 8.83398 -1.83301 12.501 -5.5s5.5 -8.16699 5.5 -13.5c0 -4 -1.33301 -8 -4 -12l-440 -698v-664
c0 -4.66699 -1.83301 -8.83398 -5.5 -12.501s-8.16699 -5.5 -13.5 -5.5s-9.66602 1.66699 -12.999 5s-5 7.66602 -5 12.999v664l-441 698c-2.66699 4 -4 8 -4 12zM361.997 1565c0 11.333 2.33301 19.5 7 24.5s12.667 7.5 24 7.5c20.667 0 31 -10.667 31 -32
c0 -22 -10.333 -33 -31 -33s-31 11 -31 33zM611.997 1565c0 11.333 2.33301 19.5 7 24.5s12.667 7.5 24 7.5c20.667 0 31 -10.667 31 -32c0 -22 -10.333 -33 -31 -33s-31 11 -31 33z" />
    <glyph glyph-name="circumflex" unicode="&#x2c6;" horiz-adv-x="684" 
d="M106 1143c0 5.33301 3.66895 10.666 11.002 15.999l207 164c7.33301 5.33301 13.333 8 18 8s10.667 -2.66699 18 -8l207 -164c7.33301 -5.33301 11 -10.666 11 -15.999c0 -4 -1.83301 -7.83301 -5.5 -11.5s-7.5 -5.5 -11.5 -5.5c-4.66699 0 -9.33398 2.33301 -14.001 7
l-205 163l-205 -163c-4.66699 -4.66699 -9.33398 -7 -14.001 -7c-4 0 -7.83301 1.83301 -11.5 5.5s-5.5 7.5 -5.5 11.5z" />
    <glyph glyph-name="tilde" unicode="&#x2dc;" horiz-adv-x="774" 
d="M113 1130c0 4.66699 1.33203 9.66699 3.99902 15c27.333 58.667 73.666 88 138.999 88c31.333 0 62 -7.16699 92 -21.5l87 -43c28 -14.333 55.667 -21.5 83 -21.5s49 5.66699 65 17s30 29 42 53c5.33301 10.667 12 16 20 16c4.66699 0 8.66699 -1.66699 12 -5s5 -7 5 -11
c0 -3.33301 -1.66699 -8.33301 -5 -15c-27.333 -58.667 -73.666 -88 -138.999 -88c-31.333 0 -62 7.16699 -92 21.5l-87.5 43c-28.333 14.333 -55.833 21.5 -82.5 21.5c-27.333 0 -48.666 -5.66699 -63.999 -17s-29.333 -29 -42 -53c-5.33301 -10.667 -12.333 -16 -21 -16
c-10.667 0 -16 5.33301 -16 16z" />
    <glyph glyph-name="uni2000" unicode="&#x2000;" horiz-adv-x="917" 
 />
    <glyph glyph-name="uni2001" unicode="&#x2001;" horiz-adv-x="1835" 
 />
    <glyph glyph-name="uni2002" unicode="&#x2002;" horiz-adv-x="917" 
 />
    <glyph glyph-name="uni2003" unicode="&#x2003;" horiz-adv-x="1835" 
 />
    <glyph glyph-name="uni2004" unicode="&#x2004;" horiz-adv-x="611" 
 />
    <glyph glyph-name="uni2005" unicode="&#x2005;" horiz-adv-x="458" 
 />
    <glyph glyph-name="uni2006" unicode="&#x2006;" horiz-adv-x="305" 
 />
    <glyph glyph-name="uni2007" unicode="&#x2007;" horiz-adv-x="305" 
 />
    <glyph glyph-name="uni2008" unicode="&#x2008;" horiz-adv-x="229" 
 />
    <glyph glyph-name="uni2009" unicode="&#x2009;" horiz-adv-x="367" 
 />
    <glyph glyph-name="uni200A" unicode="&#x200a;" horiz-adv-x="101" 
 />
    <glyph glyph-name="uni2010" unicode="&#x2010;" horiz-adv-x="577" 
d="M84 516c0 10.667 5.33301 16 16 16h375c4.66699 0 8.66699 -1.66699 12 -5s5 -7 5 -11s-1.66699 -7.66699 -5 -11s-7.33301 -5 -12 -5h-375c-10.667 0 -16 5.33301 -16 16z" />
    <glyph glyph-name="uni2011" unicode="&#x2011;" horiz-adv-x="577" 
d="M84 516c0 10.667 5.33301 16 16 16h375c4.66699 0 8.66699 -1.66699 12 -5s5 -7 5 -11s-1.66699 -7.66699 -5 -11s-7.33301 -5 -12 -5h-375c-10.667 0 -16 5.33301 -16 16z" />
    <glyph glyph-name="figuredash" unicode="&#x2012;" horiz-adv-x="577" 
d="M84 516c0 10.667 5.33301 16 16 16h375c4.66699 0 8.66699 -1.66699 12 -5s5 -7 5 -11s-1.66699 -7.66699 -5 -11s-7.33301 -5 -12 -5h-375c-10.667 0 -16 5.33301 -16 16z" />
    <glyph glyph-name="endash" unicode="&#x2013;" horiz-adv-x="1196" 
d="M221 578c0 4 1.66699 7.66699 5 11s7.33301 5 12 5h720c4.66699 0 8.66699 -1.66699 12 -5s5 -7 5 -11s-1.66699 -7.83301 -5 -11.5s-7.33301 -5.5 -12 -5.5h-720c-4.66699 0 -8.66699 1.83301 -12 5.5s-5 7.5 -5 11.5z" />
    <glyph glyph-name="emdash" unicode="&#x2014;" horiz-adv-x="1880" 
d="M221 578c0 4 1.66699 7.66699 5 11s7.33301 5 12 5h1404c4.66699 0 8.66699 -1.66699 12 -5s5 -7 5 -11s-1.66699 -7.83301 -5 -11.5s-7.33301 -5.5 -12 -5.5h-1404c-4.66699 0 -8.66699 1.83301 -12 5.5s-5 7.5 -5 11.5z" />
    <glyph glyph-name="quoteleft" unicode="&#x2018;" horiz-adv-x="280" 
d="M109 1163c0 41.333 4.99902 82.833 14.999 124.5s23.333 74.5 40 98.5c4 6 8.66699 9 14 9c2.66699 0 5.33398 -1.33301 8.00098 -4s4 -5.66699 4 -9c0 -2.66699 -1.33301 -6.66699 -4 -12c-18.667 -28.667 -28 -64 -28 -106c0 -20 3.33301 -40.167 10 -60.5
s10 -35.833 10 -46.5c0 -27.333 -11.667 -41 -35 -41c-22.667 0 -34 15.667 -34 47z" />
    <glyph glyph-name="quoteright" unicode="&#x2019;" horiz-adv-x="280" 
d="M109 1128c0 3.33301 1.33203 7.66602 3.99902 12.999c18.667 28.667 28 64 28 106c0 20 -3.33301 40.167 -10 60.5s-10 35.833 -10 46.5c0 27.333 11.667 41 35 41c22.667 0 34 -15.667 34 -47c0 -41.333 -5 -83 -15 -125s-23.333 -75 -40 -99
c-3.33301 -5.33301 -8 -8 -14 -8c-3.33301 0 -6.16602 1.33301 -8.49902 4s-3.5 5.33398 -3.5 8.00098z" />
    <glyph glyph-name="quotesinglbase" unicode="&#x201a;" horiz-adv-x="288" 
d="M115 -186c0 2.66699 1.33398 6.66602 4.00098 11.999c18.667 28.667 28 64 28 106c0 20 -3.33301 40.167 -10 60.5s-10 35.833 -10 46.5c0 27.333 11.667 41 35 41s35 -15.667 35 -47c0 -41.333 -5.16699 -82.666 -15.5 -123.999s-23.833 -74.333 -40.5 -99
c-4 -6 -8.66699 -9 -14 -9c-2.66699 0 -5.33398 1.33301 -8.00098 4s-4 5.66699 -4 9z" />
    <glyph glyph-name="quotedblleft" unicode="&#x201c;" horiz-adv-x="479" 
d="M109 1163c0 41.333 4.99902 82.833 14.999 124.5s23.333 74.5 40 98.5c4 6 8.66699 9 14 9c2.66699 0 5.33398 -1.33301 8.00098 -4s4 -5.66699 4 -9c0 -2.66699 -1.33301 -6.66699 -4 -12c-18.667 -28.667 -28 -64 -28 -106c0 -20 3.33301 -40.167 10 -60.5
s10 -35.833 10 -46.5c0 -27.333 -11.667 -41 -35 -41c-22.667 0 -34 15.667 -34 47zM286.999 1163c0 41.333 5 82.833 15 124.5s23.333 74.5 40 98.5c4 6 8.66699 9 14 9c2.66699 0 5.5 -1.5 8.5 -4.5s4.5 -5.83301 4.5 -8.5s-1.33301 -6.66699 -4 -12
c-19.333 -30 -29 -65.333 -29 -106c0 -20 3.33301 -40.167 10 -60.5s10 -35.833 10 -46.5c0 -27.333 -11.333 -41 -34 -41c-23.333 0 -35 15.667 -35 47z" />
    <glyph glyph-name="quotedblright" unicode="&#x201d;" horiz-adv-x="479" 
d="M109 1128c0 3.33301 1.33203 7.66602 3.99902 12.999c18.667 28.667 28 64 28 106c0 20 -3.33301 40.167 -10 60.5s-10 35.833 -10 46.5c0 27.333 11.667 41 35 41c22.667 0 34 -15.667 34 -47c0 -41.333 -5 -83 -15 -125s-23.333 -75 -40 -99
c-3.33301 -5.33301 -8 -8 -14 -8c-3.33301 0 -6.16602 1.33301 -8.49902 4s-3.5 5.33398 -3.5 8.00098zM286.999 1128c0 3.33301 1.33203 7.66699 3.99902 13c18.667 28.667 28 64 28 106c0 20 -3.33301 40.167 -10 60.5s-10 35.833 -10 46.5c0 27.333 11.667 41 35 41
s35 -15.667 35 -47c0 -41.333 -5.16699 -82.833 -15.5 -124.5s-23.833 -74.834 -40.5 -99.501c-3.33301 -5.33301 -8 -8 -14 -8c-3.33301 0 -6.16602 1.33301 -8.49902 4s-3.5 5.33398 -3.5 8.00098z" />
    <glyph glyph-name="quotedblbase" unicode="&#x201e;" horiz-adv-x="487" 
d="M115 -186c0 2.66699 1.33398 6.66602 4.00098 11.999c18.667 28.667 28 64 28 106c0 20 -3.33301 40.167 -10 60.5s-10 35.833 -10 46.5c0 27.333 11.667 41 35 41s35 -15.667 35 -47c0 -41.333 -5.16699 -82.666 -15.5 -123.999s-23.833 -74.333 -40.5 -99
c-4 -6 -8.66699 -9 -14 -9c-2.66699 0 -5.33398 1.33301 -8.00098 4s-4 5.66699 -4 9zM293.001 -186.001c0 2.66699 1.33398 6.66602 4.00098 11.999c19.333 30 29 65.333 29 106c0 20 -3.5 40.167 -10.5 60.5s-10.5 35.833 -10.5 46.5c0 27.333 11.667 41 35 41
s35 -15.667 35 -47c0 -41.333 -5.16699 -82.666 -15.5 -123.999s-23.833 -74.333 -40.5 -99c-4 -6 -8.66699 -9 -14 -9c-2.66699 0 -5.33398 1.33301 -8.00098 4s-4 5.66699 -4 9z" />
    <glyph glyph-name="bullet" unicode="&#x2022;" horiz-adv-x="856" 
d="M162 571c0 186 88.667 279 266 279s266 -93 266 -279c0 -88.667 -22.833 -155.167 -68.5 -199.5s-111.5 -66.5 -197.5 -66.5s-151.833 22.167 -197.5 66.5s-68.5 110.833 -68.5 199.5z" />
    <glyph glyph-name="uni202F" unicode="&#x202f;" horiz-adv-x="367" 
 />
    <glyph glyph-name="guilsinglleft" unicode="&#x2039;" horiz-adv-x="663" 
d="M129 434c0 6 4 12.998 12 20.998l363 419c4.66699 4.66699 8.66699 7 12 7c4.66699 0 8.5 -1.83301 11.5 -5.5s4.5 -7.5 4.5 -11.5c0 -5.33301 -2.66699 -10.666 -8 -15.999l-358 -414l358 -414c5.33301 -5.33301 8 -10.666 8 -15.999c0 -10.667 -5.33301 -16 -16 -16
c-4 0 -8 2 -12 6l-363 420c-8 8 -12 14.667 -12 20z" />
    <glyph glyph-name="guilsinglright" unicode="&#x203a;" horiz-adv-x="663" 
d="M131 4c0 5.33301 2.66699 10.6689 8 16.002l359 414l-359 414c-5.33301 5.33301 -8 10.666 -8 15.999c0 4 1.5 7.83301 4.5 11.5s6.83301 5.5 11.5 5.5c4 0 8.33301 -2.33301 13 -7l362 -419c8.66699 -8.66699 13 -15.667 13 -21
c0 -4.66699 -4.33301 -11.334 -13 -20.001l-362 -420c-4 -4 -8.33301 -6 -13 -6c-10.667 0 -16 5.33301 -16 16z" />
    <glyph glyph-name="uni205F" unicode="&#x205f;" horiz-adv-x="458" 
 />
    <glyph glyph-name="Euro" unicode="&#x20ac;" horiz-adv-x="1288" 
d="M12 561c0 4 1.66504 7.83398 4.99805 11.501s7.33301 5.5 12 5.5h75c-2.66699 23.333 -4 60 -4 110c0 42 0.666992 73.333 2 94h-73c-4.66699 0 -8.66699 1.83301 -12 5.5s-5 7.5 -5 11.5s1.66699 7.66699 5 11s7.33301 5 12 5h75c18 197.333 79.167 345.333 183.5 444
s247.5 148 429.5 148c96.667 0 184.834 -18.5 264.501 -55.5s142.834 -88.167 189.501 -153.5c3.33301 -5.33301 5 -9.33301 5 -12c0 -5.33301 -2 -9.83301 -6 -13.5s-8.33301 -5.5 -13 -5.5c-6.66699 0 -12 3 -16 9c-39.333 58 -97.833 105.5 -175.5 142.5
s-160.5 55.5 -248.5 55.5c-171.333 0 -305.5 -47 -402.5 -141s-154.167 -233.333 -171.5 -418h447c10.667 0 16 -5.33301 16 -16c0 -4 -1.5 -7.83301 -4.5 -11.5s-6.83301 -5.5 -11.5 -5.5h-451c-1.33301 -20.667 -2 -52 -2 -94c0 -50 1.33301 -86.667 4 -110h449
c4.66699 0 8.5 -1.83301 11.5 -5.5s4.5 -7.5 4.5 -11.5c0 -10.667 -5.33301 -16 -16 -16h-447c20.667 -178.667 79.167 -313.5 175.5 -404.5s229.166 -136.5 398.499 -136.5c88.667 0 173.334 18.5 254.001 55.5s140.667 84.833 180 143.5
c3.33301 5.33301 8.66602 8 15.999 8c5.33301 0 9.83301 -1.83301 13.5 -5.5s5.5 -7.83398 5.5 -12.501s-1.33301 -9 -4 -13c-46 -64.667 -110.667 -115.667 -194 -153s-173.666 -56 -270.999 -56c-179.333 0 -321 47.833 -425 143.5s-166 239.167 -186 430.5h-77
c-4.66699 0 -8.66699 1.66699 -12 5s-5 7 -5 11z" />
    <glyph glyph-name="trademark" unicode="&#x2122;" horiz-adv-x="817" 
d="M68 1321c0 9.33301 4.66699 14 14 14h264c9.33301 0 14 -4.66699 14 -14s-4.66699 -14 -14 -14h-117v-334c0 -11.333 -5.33301 -17 -16 -17s-16 5.66699 -16 17v334h-115c-9.33301 0 -14 4.66699 -14 14zM442 973l0.000976562 352c0 4 1.66699 7.66699 5 11
s7.33301 5 12 5c6.66699 0 12 -4 16 -12l121 -233l121 233c4 8 9.33301 12 16 12c4.66699 0 8.66699 -1.66699 12 -5s5 -7 5 -11v-352c0 -4.66699 -1.83301 -8.66699 -5.5 -12s-7.5 -5 -11.5 -5c-9.33301 0 -14 5.66699 -14 17v295l-103 -197
c-4.66699 -9.33301 -11.334 -14 -20.001 -14c-9.33301 0 -16.333 4.66699 -21 14l-102 197v-295c0 -11.333 -4.66699 -17 -14 -17c-4 0 -7.83301 1.66699 -11.5 5s-5.5 7.33301 -5.5 12z" />
    <glyph glyph-name="uniE000" unicode="&#xe000;" horiz-adv-x="942" 
d="M0 0v942h942v-942h-942z" />
  </font>
</defs>
</svg>
